999
dxfrw 0.5.10
0
SECTION
2
HEADER
9
$ACADVER
1
AC1021
9
$HANDSEED
5
20000
9
$DWGCODEPAGE
3
ANSI_1252
9
$INSBASE
10
0
20
0
30
0
9
$EXTMIN
10
-0.3127
20
-2.7502
30
0
9
$EXTMAX
10
6.4073
20
2.5625
30
0
9
$LIMMIN
10
0
20
0
9
$LIMMAX
10
420
20
297
9
$ORTHOMODE
70
0
9
$LTSCALE
40
1
9
$TEXTSTYLE
7
STANDARD
9
$CLAYER
8
drawing
9
$DIMASZ
40
2.5
9
$DIMLFAC
40
1
9
$DIMSCALE
40
0.03
9
$DIMEXO
40
0.625
9
$DIMEXE
40
1.25
9
$DIMTXT
40
2.5
9
$DIMTSZ
40
0
9
$DIMAUNIT
70
0
9
$DIMADEC
70
2
9
$DIMLUNIT
70
5
9
$DIMSTYLE
2
STANDARD
9
$DIMGAP
40
0.625
9
$DIMTIH
70
0
9
$LUNITS
70
5
9
$LUPREC
70
6
9
$AUNITS
70
0
9
$AUPREC
70
2
9
$SPLINESEGS
70
8
9
$GRIDMODE
70
1
9
$SNAPSTYLE
70
0
9
$GRIDUNIT
10
0
20
0
9
$PINSBASE
10
-0.75
20
4.625
30
0
9
$PLIMMIN
10
0
20
0
9
$PLIMMAX
10
11
20
8.5
9
$INSUNITS
70
1
9
$PSVPSCALE
40
1
0
ENDSEC
0
SECTION
2
CLASSES
0
ENDSEC
0
SECTION
2
TABLES
0
TABLE
2
VPORT
5
8
330
0
100
AcDbSymbolTable
70
1
0
VPORT
5
31
330
2
100
AcDbSymbolTableRecord
100
AcDbViewportTableRecord
2
*ACTIVE
70
0
10
0
20
0
11
1
21
1
12
1.30453175399
22
1.21446120307
13
0
23
0
14
10
24
10
15
10
25
10
16
0
26
0
36
1
17
0
27
0
37
0
40
0.919793308026
41
2.16212710765
42
50
43
0
44
0
50
0
51
0
71
0
72
100
73
1
74
3
75
0
76
1
77
0
78
0
281
0
65
1
110
0
120
0
130
0
111
1
121
0
131
0
112
0
122
1
132
0
79
0
146
0
348
10020
60
7
61
5
292
1
282
1
141
0
142
0
63
250
421
3358443
0
ENDTAB
0
TABLE
2
LTYPE
5
5
330
0
100
AcDbSymbolTable
70
4
0
LTYPE
5
14
330
5
100
AcDbSymbolTableRecord
100
AcDbLinetypeTableRecord
2
ByBlock
70
0
3

72
65
73
0
40
0
0
LTYPE
5
15
330
5
100
AcDbSymbolTableRecord
100
AcDbLinetypeTableRecord
2
ByLayer
70
0
3

72
65
73
0
40
0
0
LTYPE
5
16
330
5
100
AcDbSymbolTableRecord
100
AcDbLinetypeTableRecord
2
Continuous
70
0
3
Solid line
72
65
73
0
40
0
0
LTYPE
5
32
330
5
100
AcDbSymbolTableRecord
100
AcDbLinetypeTableRecord
2
DOT
70
0
3
Dot . . . . . . . . . . . . . . . . . . . . . .
72
65
73
2
40
6.35
49
0
74
0
49
-6.35
74
0
0
LTYPE
5
33
330
5
100
AcDbSymbolTableRecord
100
AcDbLinetypeTableRecord
2
DOT2
70
0
3
Dot (.5x) .....................................
72
65
73
2
40
3.175
49
0
74
0
49
-3.175
74
0
0
LTYPE
5
34
330
5
100
AcDbSymbolTableRecord
100
AcDbLinetypeTableRecord
2
DOTX2
70
0
3
Dot (2x) .  .  .  .  .  .  .  .  .  .  .  .  .
72
65
73
2
40
12.7
49
0
74
0
49
-12.7
74
0
0
LTYPE
5
35
330
5
100
AcDbSymbolTableRecord
100
AcDbLinetypeTableRecord
2
DASHED
70
0
3
Dot . . . . . . . . . . . . . . . . . . . . . .
72
65
73
2
40
19.05
49
12.7
74
0
49
-6.35
74
0
0
LTYPE
5
36
330
5
100
AcDbSymbolTableRecord
100
AcDbLinetypeTableRecord
2
DASHED2
70
0
3
Dashed (.5x) _ _ _ _ _ _ _ _ _ _ _ _ _ _ _ _ _
72
65
73
2
40
9.525
49
6.35
74
0
49
-3.175
74
0
0
LTYPE
5
37
330
5
100
AcDbSymbolTableRecord
100
AcDbLinetypeTableRecord
2
DASHEDX2
70
0
3
Dashed (2x) ____  ____  ____  ____  ____  ___
72
65
73
2
40
38.1
49
25.4
74
0
49
-12.7
74
0
0
LTYPE
5
38
330
5
100
AcDbSymbolTableRecord
100
AcDbLinetypeTableRecord
2
DASHDOT
70
0
3
Dash dot __ . __ . __ . __ . __ . __ . __ . __
72
65
73
4
40
25.4
49
12.7
74
0
49
-6.35
74
0
49
0
74
0
49
-6.35
74
0
0
LTYPE
5
39
330
5
100
AcDbSymbolTableRecord
100
AcDbLinetypeTableRecord
2
DASHDOT2
70
0
3
Dash dot (.5x) _._._._._._._._._._._._._._._.
72
65
73
4
40
12.7
49
6.35
74
0
49
-3.175
74
0
49
0
74
0
49
-3.175
74
0
0
LTYPE
5
3A
330
5
100
AcDbSymbolTableRecord
100
AcDbLinetypeTableRecord
2
DASHDOTX2
70
0
3
Dash dot (2x) ____  .  ____  .  ____  .  ___
72
65
73
4
40
50.8
49
25.4
74
0
49
-12.7
74
0
49
0
74
0
49
-12.7
74
0
0
LTYPE
5
3B
330
5
100
AcDbSymbolTableRecord
100
AcDbLinetypeTableRecord
2
DIVIDE
70
0
3
Divide ____ . . ____ . . ____ . . ____ . . ____
72
65
73
6
40
31.75
49
12.7
74
0
49
-6.35
74
0
49
0
74
0
49
-6.35
74
0
49
0
74
0
49
-6.35
74
0
0
LTYPE
5
3C
330
5
100
AcDbSymbolTableRecord
100
AcDbLinetypeTableRecord
2
DIVIDE2
70
0
3
Divide (.5x) __..__..__..__..__..__..__..__.._
72
65
73
6
40
15.875
49
6.35
74
0
49
-3.175
74
0
49
0
74
0
49
-3.175
74
0
49
0
74
0
49
-3.175
74
0
0
LTYPE
5
3D
330
5
100
AcDbSymbolTableRecord
100
AcDbLinetypeTableRecord
2
DIVIDEX2
70
0
3
Divide (2x) ________  .  .  ________  .  .  _
72
65
73
6
40
63.5
49
25.4
74
0
49
-12.7
74
0
49
0
74
0
49
-12.7
74
0
49
0
74
0
49
-12.7
74
0
0
LTYPE
5
3E
330
5
100
AcDbSymbolTableRecord
100
AcDbLinetypeTableRecord
2
BORDER
70
0
3
Border __ __ . __ __ . __ __ . __ __ . __ __ .
72
65
73
6
40
44.45
49
12.7
74
0
49
-6.35
74
0
49
12.7
74
0
49
-6.35
74
0
49
0
74
0
49
-6.35
74
0
0
LTYPE
5
3F
330
5
100
AcDbSymbolTableRecord
100
AcDbLinetypeTableRecord
2
BORDER2
70
0
3
Border (.5x) __.__.__.__.__.__.__.__.__.__.__.
72
65
73
6
40
22.225
49
6.35
74
0
49
-3.175
74
0
49
6.35
74
0
49
-3.175
74
0
49
0
74
0
49
-3.175
74
0
0
LTYPE
5
40
330
5
100
AcDbSymbolTableRecord
100
AcDbLinetypeTableRecord
2
BORDERX2
70
0
3
Border (2x) ____  ____  .  ____  ____  .  ___
72
65
73
6
40
88.9
49
25.4
74
0
49
-12.7
74
0
49
25.4
74
0
49
-12.7
74
0
49
0
74
0
49
-12.7
74
0
0
LTYPE
5
41
330
5
100
AcDbSymbolTableRecord
100
AcDbLinetypeTableRecord
2
CENTER
70
0
3
Center ____ _ ____ _ ____ _ ____ _ ____ _ ____
72
65
73
4
40
50.8
49
31.75
74
0
49
-6.35
74
0
49
6.35
74
0
49
-6.35
74
0
0
LTYPE
5
42
330
5
100
AcDbSymbolTableRecord
100
AcDbLinetypeTableRecord
2
CENTER2
70
0
3
Center (.5x) ___ _ ___ _ ___ _ ___ _ ___ _ ___
72
65
73
4
40
28.575
49
19.05
74
0
49
-3.175
74
0
49
3.175
74
0
49
-3.175
74
0
0
LTYPE
5
43
330
5
100
AcDbSymbolTableRecord
100
AcDbLinetypeTableRecord
2
CENTERX2
70
0
3
Center (2x) ________  __  ________  __  _____
72
65
73
4
40
101.6
49
63.5
74
0
49
-12.7
74
0
49
12.7
74
0
49
-12.7
74
0
0
ENDTAB
0
TABLE
2
LAYER
5
2
330
0
100
AcDbSymbolTable
70
1
0
LAYER
5
10
330
2
100
AcDbSymbolTableRecord
100
AcDbLayerTableRecord
2
0
70
4
62
7
6
CONTINUOUS
370
0
390
F
0
LAYER
5
44
330
2
100
AcDbSymbolTableRecord
100
AcDbLayerTableRecord
2
dimensions
70
4
62
96
420
32768
6
CONTINUOUS
370
0
390
F
0
LAYER
5
45
330
2
100
AcDbSymbolTableRecord
100
AcDbLayerTableRecord
2
image
70
5
62
2
6
CONTINUOUS
370
0
390
F
0
LAYER
5
46
330
2
100
AcDbSymbolTableRecord
100
AcDbLayerTableRecord
2
drawing
70
0
62
2
6
CONTINUOUS
370
0
390
F
0
LAYER
5
47
330
2
100
AcDbSymbolTableRecord
100
AcDbLayerTableRecord
2
img2
70
5
62
7
6
CONTINUOUS
370
0
390
F
0
ENDTAB
0
TABLE
2
STYLE
5
3
330
0
100
AcDbSymbolTable
70
3
0
STYLE
5
48
330
2
100
AcDbSymbolTableRecord
100
AcDbTextStyleTableRecord
2
Standard
70
0
40
0
41
1
50
0
71
0
42
1
3
txt
4

0
ENDTAB
0
TABLE
2
VIEW
5
6
330
0
100
AcDbSymbolTable
70
0
0
ENDTAB
0
TABLE
2
UCS
5
7
330
0
100
AcDbSymbolTable
70
0
0
ENDTAB
0
TABLE
2
APPID
5
9
330
0
100
AcDbSymbolTable
70
1
0
APPID
5
12
330
9
100
AcDbSymbolTableRecord
100
AcDbRegAppTableRecord
2
ACAD
70
0
0
ENDTAB
0
TABLE
2
DIMSTYLE
5
A
330
0
100
AcDbSymbolTable
70
1
100
AcDbDimStyleTable
71
1
0
DIMSTYLE
105
49
330
A
100
AcDbSymbolTableRecord
100
AcDbDimStyleTableRecord
2
Standard
70
0
40
1
41
2.5
42
0.625
43
0.38
44
1.25
45
0
46
0
47
0
48
0
140
2.5
141
0.09
142
0
143
25.4
144
1
145
0
146
1
147
0.625
148
0
71
0
72
0
73
0
74
1
75
0
76
0
77
0
78
0
79
0
170
0
171
2
172
0
173
0
174
0
175
0
176
0
177
0
178
0
179
0
271
4
272
4
273
2
274
2
275
0
276
0
277
2
278
46
279
0
280
0
281
0
282
0
283
1
284
0
285
0
286
0
288
0
289
3
340
Standard
341

371
-2
372
-2
0
ENDTAB
0
TABLE
2
BLOCK_RECORD
5
1
330
0
100
AcDbSymbolTable
70
2
0
BLOCK_RECORD
5
1F
330
1
100
AcDbSymbolTableRecord
100
AcDbBlockTableRecord
2
*Model_Space
70
0
280
1
281
0
0
BLOCK_RECORD
5
1E
330
1
100
AcDbSymbolTableRecord
100
AcDbBlockTableRecord
2
*Paper_Space
70
0
280
1
281
0
0
BLOCK_RECORD
5
4A
330
1
100
AcDbSymbolTableRecord
100
AcDbBlockTableRecord
2
*D6
70
0
280
1
281
0
0
BLOCK_RECORD
5
4D
330
1
100
AcDbSymbolTableRecord
100
AcDbBlockTableRecord
2
*D8
70
0
280
1
281
0
0
BLOCK_RECORD
5
50
330
1
100
AcDbSymbolTableRecord
100
AcDbBlockTableRecord
2
*D1
70
0
280
1
281
0
0
BLOCK_RECORD
5
53
330
1
100
AcDbSymbolTableRecord
100
AcDbBlockTableRecord
2
*D3
70
0
280
1
281
0
0
BLOCK_RECORD
5
56
330
1
100
AcDbSymbolTableRecord
100
AcDbBlockTableRecord
2
*D7
70
0
280
1
281
0
0
BLOCK_RECORD
5
59
330
1
100
AcDbSymbolTableRecord
100
AcDbBlockTableRecord
2
*D4
70
0
280
1
281
0
0
BLOCK_RECORD
5
5C
330
1
100
AcDbSymbolTableRecord
100
AcDbBlockTableRecord
2
*D2
70
0
280
1
281
0
0
BLOCK_RECORD
5
5F
330
1
100
AcDbSymbolTableRecord
100
AcDbBlockTableRecord
2
*D5
70
0
280
1
281
0
0
ENDTAB
0
ENDSEC
0
SECTION
2
BLOCKS
0
BLOCK
5
20
330
1F
100
AcDbEntity
8
0
100
AcDbBlockBegin
2
*Model_Space
70
0
10
0
20
0
30
0
3
*Model_Space
1

0
ENDBLK
5
21
330
1F
100
AcDbEntity
8
0
100
AcDbBlockEnd
0
BLOCK
5
1C
330
1B
100
AcDbEntity
8
0
100
AcDbBlockBegin
2
*Paper_Space
70
0
10
0
20
0
30
0
3
*Paper_Space
1

0
ENDBLK
5
1D
330
1F
100
AcDbEntity
8
0
100
AcDbBlockEnd
0
BLOCK
5
4B
330
4A
100
AcDbEntity
8
0
100
AcDbBlockBegin
2
*D6
70
1
10
0
20
0
3
*D6
1

0
LINE
5
62
100
AcDbEntity
8
dimensions
6
CONTINUOUS
62
7
370
0
100
AcDbLine
10
3.125
20
1.5
11
3.125
21
1
0
SOLID
5
63
100
AcDbEntity
8
dimensions
6
CONTINUOUS
62
7
370
0
100
AcDbTrace
10
3.125
20
1.5
30
0
11
3.13748853973
21
1.425
31
0
12
3.11251146027
22
1.425
32
0
13
3.11251146027
23
1.425
33
0
0
SOLID
5
64
100
AcDbEntity
8
dimensions
6
CONTINUOUS
62
7
370
0
100
AcDbTrace
10
3.125
20
1
30
0
11
3.11251146027
21
1.075
31
0
12
3.13748853973
22
1.075
32
0
13
3.13748853973
23
1.075
33
0
0
MTEXT
5
65
100
AcDbEntity
8
dimensions
6
CONTINUOUS
62
7
370
0
100
AcDbMText
10
3.06875
20
1.25
30
0
40
0.075
41
0.133333333333
71
5
72
1
1
1/2
7
standard
210
0
220
0
230
1
50
90
73
2
44
1
0
LINE
5
66
100
AcDbEntity
8
dimensions
6
CONTINUOUS
62
7
370
0
100
AcDbLine
10
3.10625
20
1.5
11
3.0875
21
1.5
0
LINE
5
67
100
AcDbEntity
8
dimensions
6
CONTINUOUS
62
7
370
0
100
AcDbLine
10
3.10625
20
1
11
3.0875
21
1
0
ENDBLK
5
4C
330
4A
100
AcDbEntity
8
0
100
AcDbBlockEnd
0
BLOCK
5
4E
330
4D
100
AcDbEntity
8
0
100
AcDbBlockBegin
2
*D8
70
1
10
0
20
0
3
*D8
1

0
LINE
5
68
100
AcDbEntity
8
dimensions
6
CONTINUOUS
62
7
370
0
100
AcDbLine
10
3.025
20
1.875
11
2.6625
21
1.875
0
SOLID
5
69
100
AcDbEntity
8
dimensions
6
CONTINUOUS
62
7
370
0
100
AcDbTrace
10
2.875
20
1.875
30
0
11
2.95
21
1.88748853973
31
0
12
2.95
22
1.86251146027
32
0
13
2.95
23
1.86251146027
33
0
0
SOLID
5
6A
100
AcDbEntity
8
dimensions
6
CONTINUOUS
62
7
370
0
100
AcDbTrace
10
2.8125
20
1.875
30
0
11
2.7375
21
1.86251146027
31
0
12
2.7375
22
1.88748853973
32
0
13
2.7375
23
1.88748853973
33
0
0
MTEXT
5
6B
100
AcDbEntity
8
dimensions
6
CONTINUOUS
62
7
370
0
100
AcDbMText
10
2.98125
20
1.93125
30
0
40
0.075
41
0.175
71
5
72
1
1
1/16
7
standard
210
0
220
0
230
1
50
360
73
2
44
1
0
LINE
5
6C
100
AcDbEntity
8
dimensions
6
CONTINUOUS
62
7
370
0
100
AcDbLine
10
2.875
20
1.51875
11
2.875
21
1.9125
0
LINE
5
6D
100
AcDbEntity
8
dimensions
6
CONTINUOUS
62
7
370
0
100
AcDbLine
10
2.8125
20
1.64375
11
2.8125
21
1.9125
0
ENDBLK
5
4F
330
4D
100
AcDbEntity
8
0
100
AcDbBlockEnd
0
BLOCK
5
51
330
50
100
AcDbEntity
8
0
100
AcDbBlockBegin
2
*D1
70
1
10
0
20
0
3
*D1
1

0
LINE
5
6E
100
AcDbEntity
8
dimensions
6
CONTINUOUS
62
7
370
0
100
AcDbLine
10
5.5
20
2.5
11
5.5
21
0
0
SOLID
5
6F
100
AcDbEntity
8
dimensions
6
CONTINUOUS
62
7
370
0
100
AcDbTrace
10
5.5
20
2.5
30
0
11
5.51248853973
21
2.425
31
0
12
5.48751146027
22
2.425
32
0
13
5.48751146027
23
2.425
33
0
0
SOLID
5
70
100
AcDbEntity
8
dimensions
6
CONTINUOUS
62
7
370
0
100
AcDbTrace
10
5.5
20
0
30
0
11
5.48751146027
21
0.075
31
0
12
5.51248853973
22
0.075
32
0
13
5.51248853973
23
0.075
33
0
0
MTEXT
5
71
100
AcDbEntity
8
dimensions
6
CONTINUOUS
62
7
370
0
100
AcDbMText
10
5.44375
20
1.25
30
0
40
0.075
41
0.247916666667
71
5
72
1
1
2 1/2
7
standard
210
0
220
0
230
1
50
90
73
2
44
1
0
LINE
5
72
100
AcDbEntity
8
dimensions
6
CONTINUOUS
62
7
370
0
100
AcDbLine
10
5.48125
20
2.5
11
5.4625
21
2.5
0
LINE
5
73
100
AcDbEntity
8
dimensions
6
CONTINUOUS
62
7
370
0
100
AcDbLine
10
5.48125
20
2.2962127484e-18
11
5.4625
21
4.5924254968e-18
0
ENDBLK
5
52
330
50
100
AcDbEntity
8
0
100
AcDbBlockEnd
0
BLOCK
5
54
330
53
100
AcDbEntity
8
0
100
AcDbBlockBegin
2
*D3
70
1
10
0
20
0
3
*D3
1

0
LINE
5
74
100
AcDbEntity
8
dimensions
6
CONTINUOUS
62
7
370
0
100
AcDbLine
10
3.6625
20
1.75
11
4.025
21
1.75
0
SOLID
5
75
100
AcDbEntity
8
dimensions
6
CONTINUOUS
62
7
370
0
100
AcDbTrace
10
3.8125
20
1.75
30
0
11
3.7375
21
1.73751146027
31
0
12
3.7375
22
1.76248853973
32
0
13
3.7375
23
1.76248853973
33
0
0
SOLID
5
76
100
AcDbEntity
8
dimensions
6
CONTINUOUS
62
7
370
0
100
AcDbTrace
10
3.875
20
1.75
30
0
11
3.95
21
1.76248853973
31
0
12
3.95
22
1.73751146027
32
0
13
3.95
23
1.73751146027
33
0
0
MTEXT
5
77
100
AcDbEntity
8
dimensions
6
CONTINUOUS
62
7
370
0
100
AcDbMText
10
3.98125
20
1.80625
30
0
40
0.075
41
0.175
71
5
72
1
1
1/16
7
standard
210
0
220
0
230
1
50
0
73
2
44
1
0
LINE
5
78
100
AcDbEntity
8
dimensions
6
CONTINUOUS
62
7
370
0
100
AcDbLine
10
3.8125
20
1.64375
11
3.8125
21
1.7875
0
LINE
5
79
100
AcDbEntity
8
dimensions
6
CONTINUOUS
62
7
370
0
100
AcDbLine
10
3.875
20
1.51875
11
3.875
21
1.7875
0
ENDBLK
5
55
330
53
100
AcDbEntity
8
0
100
AcDbBlockEnd
0
BLOCK
5
57
330
56
100
AcDbEntity
8
0
100
AcDbBlockBegin
2
*D7
70
1
10
0
20
0
3
*D7
1

0
LINE
5
7A
100
AcDbEntity
8
dimensions
6
CONTINUOUS
62
7
370
0
100
AcDbLine
10
2.53125
20
1.775
11
2.53125
21
1.35
0
SOLID
5
7B
100
AcDbEntity
8
dimensions
6
CONTINUOUS
62
7
370
0
100
AcDbTrace
10
2.53125
20
1.625
30
0
11
2.51876146027
21
1.7
31
0
12
2.54373853973
22
1.7
32
0
13
2.54373853973
23
1.7
33
0
0
SOLID
5
7C
100
AcDbEntity
8
dimensions
6
CONTINUOUS
62
7
370
0
100
AcDbTrace
10
2.53125
20
1.5
30
0
11
2.54373853973
21
1.425
31
0
12
2.51876146027
22
1.425
32
0
13
2.51876146027
23
1.425
33
0
0
MTEXT
5
7D
100
AcDbEntity
8
dimensions
6
CONTINUOUS
62
7
370
0
100
AcDbMText
10
2.475
20
1.71041666667
30
0
40
0.075
41
0.133333333333
71
5
72
1
1
1/8
7
standard
210
0
220
0
230
1
50
90
73
2
44
1
0
LINE
5
7E
100
AcDbEntity
8
dimensions
6
CONTINUOUS
62
7
370
0
100
AcDbLine
10
2.79375
20
1.625
11
2.49375
21
1.625
0
LINE
5
7F
100
AcDbEntity
8
dimensions
6
CONTINUOUS
62
7
370
0
100
AcDbLine
10
2.85625
20
1.5
11
2.49375
21
1.5
0
ENDBLK
5
58
330
56
100
AcDbEntity
8
0
100
AcDbBlockEnd
0
BLOCK
5
5A
330
59
100
AcDbEntity
8
0
100
AcDbBlockBegin
2
*D4
70
1
10
0
20
0
3
*D4
1

0
SOLID
5
80
100
AcDbEntity
8
dimensions
6
CONTINUOUS
62
7
370
0
100
AcDbTrace
10
3.79852457514
20
1.63198771243
30
0
11
3.72585749106
21
1.65435864258
31
0
12
3.73702758057
22
1.67669882161
32
0
13
3.73702758057
23
1.67669882161
33
0
0
LINE
5
81
100
AcDbEntity
8
dimensions
6
CONTINUOUS
62
7
370
0
100
AcDbLine
10
3.8125
20
1.625
11
3.48547505829
21
1.78851247085
0
MTEXT
5
82
100
AcDbEntity
8
dimensions
6
CONTINUOUS
62
7
370
0
100
AcDbMText
10
3.66715558146
20
1.76056162114
30
0
40
0.075
41
0.2
71
5
72
1
1
1/64
7
standard
210
0
220
0
230
1
50
333.434948823
73
2
44
1
0
ENDBLK
5
5B
330
59
100
AcDbEntity
8
0
100
AcDbBlockEnd
0
BLOCK
5
5D
330
5C
100
AcDbEntity
8
0
100
AcDbBlockBegin
2
*D2
70
1
10
0
20
0
3
*D2
1

0
LINE
5
83
100
AcDbEntity
8
dimensions
6
CONTINUOUS
62
7
370
0
100
AcDbLine
10
4.203125
20
1.625
11
4.203125
21
0.875
0
SOLID
5
84
100
AcDbEntity
8
dimensions
6
CONTINUOUS
62
7
370
0
100
AcDbTrace
10
4.203125
20
1.625
30
0
11
4.21561353973
21
1.55
31
0
12
4.19063646027
22
1.55
32
0
13
4.19063646027
23
1.55
33
0
0
SOLID
5
85
100
AcDbEntity
8
dimensions
6
CONTINUOUS
62
7
370
0
100
AcDbTrace
10
4.203125
20
0.875
30
0
11
4.19063646027
21
0.95
31
0
12
4.21561353973
22
0.95
32
0
13
4.21561353973
23
0.95
33
0
0
MTEXT
5
86
100
AcDbEntity
8
dimensions
6
CONTINUOUS
62
7
370
0
100
AcDbMText
10
4.146875
20
1.25
30
0
40
0.075
41
0.158333333333
71
5
72
1
1
3/4
7
standard
210
0
220
0
230
1
50
90
73
2
44
1
0
LINE
5
87
100
AcDbEntity
8
dimensions
6
CONTINUOUS
62
7
370
0
100
AcDbLine
10
3.83125
20
1.625
11
4.240625
21
1.625
0
LINE
5
88
100
AcDbEntity
8
dimensions
6
CONTINUOUS
62
7
370
0
100
AcDbLine
10
3.83125
20
0.875
11
4.240625
21
0.875
0
ENDBLK
5
5E
330
5C
100
AcDbEntity
8
0
100
AcDbBlockEnd
0
BLOCK
5
60
330
5F
100
AcDbEntity
8
0
100
AcDbBlockBegin
2
*D5
70
1
10
0
20
0
3
*D5
1

0
LINE
5
89
100
AcDbEntity
8
dimensions
6
CONTINUOUS
62
7
370
0
100
AcDbLine
10
2.875
20
1.125
11
3.875
21
1.125
0
SOLID
5
8A
100
AcDbEntity
8
dimensions
6
CONTINUOUS
62
7
370
0
100
AcDbTrace
10
2.875
20
1.125
30
0
11
2.95
21
1.13748853973
31
0
12
2.95
22
1.11251146027
32
0
13
2.95
23
1.11251146027
33
0
0
SOLID
5
8B
100
AcDbEntity
8
dimensions
6
CONTINUOUS
62
7
370
0
100
AcDbTrace
10
3.875
20
1.125
30
0
11
3.8
21
1.11251146027
31
0
12
3.8
22
1.13748853973
32
0
13
3.8
23
1.13748853973
33
0
0
MTEXT
5
8C
100
AcDbEntity
8
dimensions
6
CONTINUOUS
62
7
370
0
100
AcDbMText
10
3.375
20
1.18125
30
0
40
0.075
41
0.0166666666667
71
5
72
1
1
1
7
standard
210
0
220
0
230
1
50
0
73
2
44
1
0
LINE
5
8D
100
AcDbEntity
8
dimensions
6
CONTINUOUS
62
7
370
0
100
AcDbLine
10
2.875
20
1.14375
11
2.875
21
1.1625
0
LINE
5
8E
100
AcDbEntity
8
dimensions
6
CONTINUOUS
62
7
370
0
100
AcDbLine
10
3.875
20
1.14375
11
3.875
21
1.1625
0
ENDBLK
5
61
330
5F
100
AcDbEntity
8
0
100
AcDbBlockEnd
0
ENDSEC
0
SECTION
2
ENTITIES
0
IMAGE
5
91
100
AcDbEntity
8
img2
6
ByLayer
62
256
370
-1
100
AcDbRasterImage
10
1.1876625
20
1.3125
30
0
11
0.0013
21
0
31
0
12
7.96020419446e-20
22
0.0013
32
0
13
550
23
550
340
8F
70
1
280
0
281
50
282
50
283
0
360
90
0
IMAGE
5
94
100
AcDbEntity
8
image
6
ByLayer
62
256
370
-1
100
AcDbRasterImage
10
-0.3127
20
-2.7502
30
0
11
0.0032
21
0
31
0
12
1.95943487864e-19
22
0.0032
32
0
13
2100
23
1650
340
92
70
1
280
0
281
50
282
50
283
0
360
93
0
LINE
5
95
100
AcDbEntity
8
0
6
ByLayer
62
256
370
-1
100
AcDbLine
10
2
20
0
11
4
21
0
0
LINE
5
96
100
AcDbEntity
8
0
6
ByLayer
62
256
370
-1
100
AcDbLine
10
0.1875
20
0
11
1
21
0
0
LINE
5
97
100
AcDbEntity
8
0
6
ByLayer
62
256
370
-1
100
AcDbLine
10
1
20
0
11
1
21
-0.1875
0
LINE
5
98
100
AcDbEntity
8
0
6
ByLayer
62
256
370
-1
100
AcDbLine
10
1
20
-0.1875
11
2
21
-0.1875
0
LINE
5
99
100
AcDbEntity
8
0
6
ByLayer
62
256
370
-1
100
AcDbLine
10
2
20
-0.1875
11
2
21
0
0
LINE
5
9A
100
AcDbEntity
8
0
6
ByLayer
62
256
370
-1
100
AcDbLine
10
4
20
0
11
4
21
-0.1875
0
LINE
5
9B
100
AcDbEntity
8
0
6
ByLayer
62
256
370
-1
100
AcDbLine
10
4
20
-0.1875
11
5
21
-0.1875
0
LINE
5
9C
100
AcDbEntity
8
0
6
ByLayer
62
256
370
-1
100
AcDbLine
10
5
20
-0.1875
11
5
21
0
0
LINE
5
9D
100
AcDbEntity
8
0
6
ByLayer
62
256
370
-1
100
AcDbLine
10
5
20
0
11
5.8125
21
0
0
LINE
5
9E
100
AcDbEntity
8
0
6
ByLayer
62
256
370
-1
100
AcDbLine
10
2
20
2.5
11
4
21
2.5
0
LINE
5
9F
100
AcDbEntity
8
0
6
ByLayer
62
256
370
-1
100
AcDbLine
10
0.1875
20
0
11
0.1875
21
1
0
LINE
5
A0
100
AcDbEntity
8
0
6
ByLayer
62
256
370
-1
100
AcDbLine
10
0.1875
20
1
11
0
21
1
0
LINE
5
A1
100
AcDbEntity
8
0
6
ByLayer
62
256
370
-1
100
AcDbLine
10
0
20
1
11
0
21
1.5
0
LINE
5
A2
100
AcDbEntity
8
0
6
ByLayer
62
256
370
-1
100
AcDbLine
10
0
20
1.5
11
0.1875
21
1.5
0
LINE
5
A3
100
AcDbEntity
8
0
6
ByLayer
62
256
370
-1
100
AcDbLine
10
0.1875
20
1.5
11
0.1875
21
2.5
0
LINE
5
A4
100
AcDbEntity
8
0
6
ByLayer
62
256
370
-1
100
AcDbLine
10
0.1875
20
2.5
11
1
21
2.5
0
LINE
5
A5
100
AcDbEntity
8
0
6
ByLayer
62
256
370
-1
100
AcDbLine
10
1
20
2.5
11
1
21
2.3125
0
LINE
5
A6
100
AcDbEntity
8
0
6
ByLayer
62
256
370
-1
100
AcDbLine
10
1
20
2.3125
11
2
21
2.3125
0
LINE
5
A7
100
AcDbEntity
8
0
6
ByLayer
62
256
370
-1
100
AcDbLine
10
2
20
2.3125
11
2
21
2.5
0
LINE
5
A8
100
AcDbEntity
8
0
6
ByLayer
62
256
370
-1
100
AcDbLine
10
4
20
2.5
11
4
21
2.3125
0
LINE
5
A9
100
AcDbEntity
8
0
6
ByLayer
62
256
370
-1
100
AcDbLine
10
4
20
2.3125
11
5
21
2.3125
0
LINE
5
AA
100
AcDbEntity
8
0
6
ByLayer
62
256
370
-1
100
AcDbLine
10
5
20
2.3125
11
5
21
2.5
0
LINE
5
AB
100
AcDbEntity
8
0
6
ByLayer
62
256
370
-1
100
AcDbLine
10
5
20
2.5
11
5.8125
21
2.5
0
LINE
5
AC
100
AcDbEntity
8
0
6
ByLayer
62
256
370
-1
100
AcDbLine
10
5.8125
20
2.5
11
5.8125
21
1.5
0
LINE
5
AD
100
AcDbEntity
8
0
6
ByLayer
62
256
370
-1
100
AcDbLine
10
5.8125
20
1.5
11
6
21
1.5
0
LINE
5
AE
100
AcDbEntity
8
0
6
ByLayer
62
256
370
-1
100
AcDbLine
10
6
20
1.5
11
6
21
1
0
LINE
5
AF
100
AcDbEntity
8
0
6
ByLayer
62
256
370
-1
100
AcDbLine
10
6
20
1
11
5.8125
21
1
0
LINE
5
B0
100
AcDbEntity
8
0
6
ByLayer
62
256
370
-1
100
AcDbLine
10
5.8125
20
1
11
5.8125
21
0
0
DIMENSION
5
B1
100
AcDbEntity
8
dimensions
6
ByLayer
62
256
370
-1
100
AcDbDimension
2
*D1
10
5.5
20
0
30
0
11
5.44375
21
1.25
31
0
70
32
71
5
3
Standard
53
0
210
0
220
0
230
1
100
AcDbAlignedDimension
13
5.5
23
2.5
33
0
14
5.5
24
0
34
0
50
90
100
AcDbRotatedDimension
0
LINE
5
B2
100
AcDbEntity
8
0
6
ByLayer
62
256
370
-1
100
AcDbLine
10
3.875
20
1
11
3.875
21
1.5
0
CIRCLE
5
B3
100
AcDbEntity
8
0
6
ByLayer
62
256
370
-1
100
AcDbCircle
10
3.8125
20
1.625
40
0.015625
0
CIRCLE
5
B4
100
AcDbEntity
8
0
6
ByLayer
62
256
370
-1
100
AcDbCircle
10
3.8125
20
0.875
40
0.015625
0
DIMENSION
5
B5
100
AcDbEntity
8
dimensions
6
ByLayer
62
256
370
-1
100
AcDbDimension
2
*D2
10
4.203125
20
0.875
30
0
11
4.146875
21
1.25
31
0
70
32
71
5
3
Standard
53
0
210
0
220
0
230
1
100
AcDbAlignedDimension
13
3.8125
23
1.625
33
0
14
3.8125
24
0.875
34
0
50
90
100
AcDbRotatedDimension
0
DIMENSION
5
B6
100
AcDbEntity
8
dimensions
6
ByLayer
62
256
370
-1
100
AcDbDimension
2
*D3
10
3.875
20
1.75
30
0
11
3.84375
21
1.80625
31
0
70
32
71
5
3
Standard
53
0
210
0
220
0
230
1
100
AcDbAlignedDimension
13
3.8125
23
1.625
33
0
14
3.875
24
1.5
34
0
100
AcDbRotatedDimension
0
CIRCLE
5
B7
100
AcDbEntity
8
drawing
6
ByLayer
62
256
370
-1
100
AcDbCircle
10
4.53362266261
20
0.474345787059
40
0.435261031546
0
CIRCLE
5
B8
100
AcDbEntity
8
drawing
6
ByLayer
62
256
370
-1
100
AcDbCircle
10
4.53510037534
20
0.471390361595
40
0.319678141597
0
CIRCLE
5
B9
100
AcDbEntity
8
drawing
6
ByLayer
62
256
370
-1
100
AcDbCircle
10
4.53805580081
20
0.474345787059
40
0.27932288782
0
CIRCLE
5
BA
100
AcDbEntity
8
drawing
6
ByLayer
62
256
370
-1
100
AcDbCircle
10
1.43929220123
20
0.437402968752
40
0.394684871587
0
CIRCLE
5
BB
100
AcDbEntity
8
drawing
6
ByLayer
62
256
370
-1
100
AcDbCircle
10
1.43929220123
20
0.440358394217
40
0.28378240928
0
CIRCLE
5
BC
100
AcDbEntity
8
drawing
6
ByLayer
62
256
370
-1
100
AcDbCircle
10
1.4422476267
20
0.440358394217
40
0.267568037064
0
CIRCLE
5
BD
100
AcDbEntity
8
drawing
6
ByLayer
62
256
370
-1
100
AcDbCircle
10
1.4422476267
20
0.440358394217
40
0.0960626939461
0
CIRCLE
5
BE
100
AcDbEntity
8
drawing
6
ByLayer
62
256
370
-1
100
AcDbCircle
10
1.44372533943
20
0.440358394217
40
0.109360726278
0
CIRCLE
5
BF
100
AcDbEntity
8
drawing
6
ByLayer
62
256
370
-1
100
AcDbCircle
10
4.53196762435
20
0.469841718651
40
0.0242580861244
0
LINE
5
C0
100
AcDbEntity
8
drawing
6
ByLayer
62
256
370
-1
100
AcDbLine
10
0
20
-0.25
11
-0.0625
21
-0.25
0
LINE
5
C1
100
AcDbEntity
8
drawing
6
ByLayer
62
256
370
-1
100
AcDbLine
10
-0.0625
20
-0.25
11
-0.0625
21
-0.1875
0
LINE
5
C2
100
AcDbEntity
8
drawing
6
ByLayer
62
256
370
-1
100
AcDbLine
10
6
20
-0.25
11
6.0625
21
-0.25
0
LINE
5
C3
100
AcDbEntity
8
drawing
6
ByLayer
62
256
370
-1
100
AcDbLine
10
6.0625
20
-0.25
11
6.0625
21
-0.1875
0
LINE
5
C4
100
AcDbEntity
8
drawing
6
ByLayer
62
256
370
-1
100
AcDbLine
10
6.0625
20
2.5
11
6.0625
21
2.5625
0
LINE
5
C5
100
AcDbEntity
8
drawing
6
ByLayer
62
256
370
-1
100
AcDbLine
10
6.0625
20
2.5625
11
6
21
2.5625
0
LINE
5
C6
100
AcDbEntity
8
drawing
6
ByLayer
62
256
370
-1
100
AcDbLine
10
0
20
2.5625
11
-0.0625
21
2.5625
0
LINE
5
C7
100
AcDbEntity
8
drawing
6
ByLayer
62
256
370
-1
100
AcDbLine
10
-0.0625
20
2.5625
11
-0.0625
21
2.5
0
LINE
5
C8
100
AcDbEntity
8
0
6
ByLayer
62
256
370
-1
100
AcDbLine
10
0
20
2.5625
11
-0.0625
21
2.5625
0
LINE
5
C9
100
AcDbEntity
8
0
6
ByLayer
62
256
370
-1
100
AcDbLine
10
-0.0625
20
2.5625
11
-0.0625
21
2.5
0
LINE
5
CA
100
AcDbEntity
8
0
6
ByLayer
62
256
370
-1
100
AcDbLine
10
-0.0625
20
-0.1875
11
-0.0625
21
-0.25
0
LINE
5
CB
100
AcDbEntity
8
0
6
ByLayer
62
256
370
-1
100
AcDbLine
10
-0.0625
20
-0.25
11
0
21
-0.25
0
LINE
5
CC
100
AcDbEntity
8
0
6
ByLayer
62
256
370
-1
100
AcDbLine
10
6
20
-0.25
11
6.0625
21
-0.25
0
LINE
5
CD
100
AcDbEntity
8
0
6
ByLayer
62
256
370
-1
100
AcDbLine
10
6.0625
20
-0.25
11
6.0625
21
-0.1875
0
LINE
5
CE
100
AcDbEntity
8
0
6
ByLayer
62
256
370
-1
100
AcDbLine
10
6.0625
20
2.5
11
6.0625
21
2.5625
0
LINE
5
CF
100
AcDbEntity
8
0
6
ByLayer
62
256
370
-1
100
AcDbLine
10
6.0625
20
2.5625
11
6
21
2.5625
0
LWPOLYLINE
5
D0
100
AcDbEntity
8
img2
6
ByLayer
62
256
370
-1
100
AcDbPolyline
90
24
70
0
43
0
10
1.76545484697
20
1.48025108809
10
1.74511773683
20
1.47250361756
10
1.72332797596
20
1.46427193013
10
1.70250664892
20
1.46233506249
10
1.6836221895
20
1.45555602578
10
1.65602182574
20
1.4449032538
10
1.63423206487
20
1.44151373544
10
1.6182529069
20
1.43715578327
10
1.59888423058
20
1.42940831274
10
1.58096820498
20
1.42359770984
10
1.54465193687
20
1.41923975767
10
1.51753579002
20
1.41536602241
10
1.47347205138
20
1.4090712026
10
1.44829277216
20
1.4027763828
10
1.42505036057
20
1.39793421371
10
1.38389192338
20
1.391155177
10
1.3674285485
20
1.38631300792
10
1.34515457073
20
1.38340770647
10
1.31658577315
20
1.37808132048
10
1.2957644461
20
1.37178650068
10
1.26864829925
20
1.36597589778
10
1.24589010457
20
1.36064951179
10
1.22845829588
20
1.3553231258
10
1.20763696883
20
1.35193360744
0
LWPOLYLINE
5
D1
100
AcDbEntity
8
img2
6
ByLayer
62
256
370
-1
100
AcDbPolyline
90
23
70
0
43
0
10
1.26429034708
20
1.33498601566
10
1.29673287992
20
1.34467035382
10
1.32288059296
20
1.34757565527
10
1.34418613691
20
1.3495125229
10
1.38824987555
20
1.35677577652
10
1.4211766253
20
1.35968107797
10
1.44199795235
20
1.36452324705
10
1.47734578664
20
1.37033384995
10
1.49768289678
20
1.37614445285
10
1.52189374219
20
1.38389192338
10
1.53980976779
20
1.38921830937
10
1.56111531175
20
1.39744999681
10
1.57999977116
20
1.40568168424
10
1.59210519387
20
1.41197650405
10
1.61631603927
20
1.41875554076
10
1.63423206487
20
1.42650301129
10
1.65505339192
20
1.43570313255
10
1.67974845423
20
1.44102951854
10
1.70541195036
20
1.44926120597
10
1.72332797596
20
1.45216650742
10
1.74511773683
20
1.45942976104
10
1.76061267789
20
1.46233506249
10
1.77513918513
20
1.4628192794
0
SPLINE
5
D2
100
AcDbEntity
8
drawing
6
ByLayer
62
256
370
-1
100
AcDbSpline
210
0
220
0
230
1
70
11
71
3
72
14
73
10
74
0
42
1e-07
43
1e-07
40
0
40
0
40
0
40
0
40
0.142857142857
40
0.285714285714
40
0.428571428571
40
0.571428571429
40
0.714285714286
40
0.857142857143
40
1
40
1
40
1
40
1
10
1.52946714782
20
1.65016311763
30
0
10
1.52751255722
20
1.67557279549
30
0
10
1.53533091963
20
1.68974357737
30
0
10
1.55145629212
20
1.69756193978
30
0
10
1.56220654044
20
1.69707329213
30
0
10
1.57588867467
20
1.68485710086
30
0
10
1.58028650353
20
1.66726578542
30
0
10
1.57588867467
20
1.64332205052
30
0
10
1.55585412098
20
1.6364809834
30
0
10
1.53337632903
20
1.64527664112
30
0
0
SPLINE
5
D3
100
AcDbEntity
8
drawing
6
ByLayer
62
256
370
-1
100
AcDbSpline
210
0
220
0
230
1
70
11
71
3
72
39
73
35
74
0
42
1e-07
43
1e-07
40
0
40
0
40
0
40
0
40
0.03125
40
0.0625
40
0.09375
40
0.125
40
0.15625
40
0.1875
40
0.21875
40
0.25
40
0.28125
40
0.3125
40
0.34375
40
0.375
40
0.40625
40
0.4375
40
0.46875
40
0.5
40
0.53125
40
0.5625
40
0.59375
40
0.625
40
0.65625
40
0.6875
40
0.71875
40
0.75
40
0.78125
40
0.8125
40
0.84375
40
0.875
40
0.90625
40
0.9375
40
0.96875
40
1
40
1
40
1
40
1
10
1.29296168471
20
1.48646615453
30
0
10
1.32667837263
20
1.51138718473
30
0
10
1.35159940283
20
1.53435362433
30
0
10
1.3608837082
20
1.54656981561
30
0
10
1.37407719478
20
1.55487682568
30
0
10
1.39655498673
20
1.5675816646
30
0
10
1.41316900687
20
1.57979785588
30
0
10
1.43124896996
20
1.59299134246
30
0
10
1.45470405721
20
1.60716212434
30
0
10
1.46985213439
20
1.61791237266
30
0
10
1.48695480218
20
1.62866262099
30
0
10
1.4986823458
20
1.63501504045
30
0
10
1.50650070822
20
1.64039016461
30
0
10
1.51334177534
20
1.64723123173
30
0
10
1.5216487854
20
1.65016311763
30
0
10
1.52604661426
20
1.65114041293
30
0
10
1.52995579547
20
1.64918582233
30
0
10
1.52995579547
20
1.64527664112
30
0
10
1.52751255722
20
1.63990151696
30
0
10
1.52653526191
20
1.63599233575
30
0
10
1.5187168995
20
1.62817397333
30
0
10
1.50650070822
20
1.61791237266
30
0
10
1.50259152701
20
1.61107130555
30
0
10
1.48695480218
20
1.59885511427
30
0
10
1.4747386109
20
1.58370703709
30
0
10
1.45617000016
20
1.57149084581
30
0
10
1.43906733237
20
1.56171789279
30
0
10
1.42489655049
20
1.55341088272
30
0
10
1.41658954043
20
1.54021739614
30
0
10
1.40193011089
20
1.52848985252
30
0
10
1.38433879546
20
1.51040988943
30
0
10
1.36186100351
20
1.49965964111
30
0
10
1.34573563102
20
1.48206832567
30
0
10
1.32961025854
20
1.47082942969
30
0
10
1.31006435249
20
1.45763594311
30
0
0
SPLINE
5
D4
100
AcDbEntity
8
drawing
6
ByLayer
62
256
370
-1
100
AcDbSpline
210
0
220
0
230
1
70
11
71
3
72
45
73
41
74
0
42
1e-07
43
1e-07
40
0
40
0
40
0
40
0
40
0.0263157894737
40
0.0526315789474
40
0.0789473684211
40
0.105263157895
40
0.131578947368
40
0.157894736842
40
0.184210526316
40
0.210526315789
40
0.236842105263
40
0.263157894737
40
0.289473684211
40
0.315789473684
40
0.342105263158
40
0.368421052632
40
0.394736842105
40
0.421052631579
40
0.447368421053
40
0.473684210526
40
0.5
40
0.526315789474
40
0.552631578947
40
0.578947368421
40
0.605263157895
40
0.631578947368
40
0.657894736842
40
0.684210526316
40
0.710526315789
40
0.736842105263
40
0.763157894737
40
0.789473684211
40
0.815789473684
40
0.842105263158
40
0.868421052632
40
0.894736842105
40
0.921052631579
40
0.947368421053
40
0.973684210526
40
1
40
1
40
1
40
1
10
1.28660926524
20
1.50601206057
30
0
10
1.29491627531
20
1.51138718473
30
0
10
1.30420058068
20
1.5187168995
30
0
10
1.32130324847
20
1.53386497668
30
0
10
1.3340080874
20
1.54901305386
30
0
10
1.34524698337
20
1.55389953037
30
0
10
1.35404264109
20
1.56269518809
30
0
10
1.36283829881
20
1.57588867467
30
0
10
1.37163395653
20
1.58468433239
30
0
10
1.37896367129
20
1.5905481042
30
0
10
1.38433879546
20
1.59347999011
30
0
10
1.38922527197
20
1.59201404716
30
0
10
1.39313445317
20
1.5915253995
30
0
10
1.39655498673
20
1.5885935136
30
0
10
1.39899822499
20
1.58224109413
30
0
10
1.40437334915
20
1.57197949346
30
0
10
1.41658954043
20
1.56171789279
30
0
10
1.42440790284
20
1.55194493977
30
0
10
1.43320356056
20
1.5416833391
30
0
10
1.43711274177
20
1.53924010084
30
0
10
1.43564679882
20
1.53581956728
30
0
10
1.43466950351
20
1.52897850017
30
0
10
1.42929437935
20
1.52555796661
30
0
10
1.41512359747
20
1.51236448003
30
0
10
1.39313445317
20
1.49526181225
30
0
10
1.38580473841
20
1.48255697332
30
0
10
1.37554313774
20
1.4737613156
30
0
10
1.36381559411
20
1.46252241962
30
0
10
1.35453128874
20
1.45226081895
30
0
10
1.34573563102
20
1.44395380888
30
0
10
1.3369399733
20
1.43320356056
30
0
10
1.32863296323
20
1.43515815117
30
0
10
1.32423513437
20
1.44053327533
30
0
10
1.31641677196
20
1.4488402854
30
0
10
1.31153029545
20
1.46007918137
30
0
10
1.29931410417
20
1.47327266795
30
0
10
1.2919843894
20
1.48646615453
30
0
10
1.28514332229
20
1.49281857399
30
0
10
1.28172278873
20
1.49623910755
30
0
10
1.28172278873
20
1.50014828876
30
0
10
1.28172278873
20
1.50698935587
30
0
0
SPLINE
5
D5
100
AcDbEntity
8
drawing
6
ByLayer
62
256
370
-1
100
AcDbSpline
210
0
220
0
230
1
70
11
71
3
72
47
73
43
74
0
42
1e-07
43
1e-07
40
0
40
0
40
0
40
0
40
0.025
40
0.05
40
0.075
40
0.1
40
0.125
40
0.15
40
0.175
40
0.2
40
0.225
40
0.25
40
0.275
40
0.3
40
0.325
40
0.35
40
0.375
40
0.4
40
0.425
40
0.45
40
0.475
40
0.5
40
0.525
40
0.55
40
0.575
40
0.6
40
0.625
40
0.65
40
0.675
40
0.7
40
0.725
40
0.75
40
0.775
40
0.8
40
0.825
40
0.85
40
0.875
40
0.9
40
0.925
40
0.95
40
0.975
40
1
40
1
40
1
40
1
10
1.83853678712
20
1.52396986175
30
0
10
1.81960169064
20
1.52946714782
30
0
10
1.80860711849
20
1.53618605302
30
0
10
1.79333687939
20
1.54412657735
30
0
10
1.78722878375
20
1.55206710168
30
0
10
1.77073692553
20
1.55756438776
30
0
10
1.75180182905
20
1.56794815034
30
0
10
1.74019644734
20
1.57772110336
30
0
10
1.72981268475
20
1.58321838944
30
0
10
1.72431539868
20
1.58566162769
30
0
10
1.71820730304
20
1.5905481042
30
0
10
1.70415868307
20
1.60032105722
30
0
10
1.68766682485
20
1.61314805806
30
0
10
1.67300739532
20
1.61864534414
30
0
10
1.65285067971
20
1.6278074876
30
0
10
1.64002367887
20
1.63696963105
30
0
10
1.62658586847
20
1.64307772669
30
0
10
1.62108858239
20
1.6479642032
30
0
10
1.60642915286
20
1.65407229884
30
0
10
1.59604539028
20
1.66018039448
30
0
10
1.58810486595
20
1.66445606143
30
0
10
1.58138596075
20
1.66567768055
30
0
10
1.57833191293
20
1.66201282317
30
0
10
1.57955353205
20
1.65712634666
30
0
10
1.583829199
20
1.65040744146
30
0
10
1.59971024766
20
1.63635882149
30
0
10
1.60948320068
20
1.62292101109
30
0
10
1.62658586847
20
1.61314805806
30
0
10
1.64246691713
20
1.60154267635
30
0
10
1.66445606143
20
1.58871567551
30
0
10
1.67972630052
20
1.57894272249
30
0
10
1.69377492049
20
1.5703913886
30
0
10
1.70476949264
20
1.56367248339
30
0
10
1.71087758828
20
1.55695357819
30
0
10
1.72003973173
20
1.54962386343
30
0
10
1.73530997083
20
1.54107252953
30
0
10
1.75180182905
20
1.53618605302
30
0
10
1.7627964012
20
1.52824552869
30
0
10
1.77501259248
20
1.51847257567
30
0
10
1.7915044507
20
1.51236448003
30
0
10
1.80249902285
20
1.5044239557
30
0
10
1.81043954718
20
1.50014828876
30
0
10
1.82265573846
20
1.49587262181
30
0
0
SPLINE
5
D6
100
AcDbEntity
8
drawing
6
ByLayer
62
256
370
-1
100
AcDbSpline
210
0
220
0
230
1
70
11
71
3
72
40
73
36
74
0
42
1e-07
43
1e-07
40
0
40
0
40
0
40
0
40
0.030303030303
40
0.0606060606061
40
0.0909090909091
40
0.121212121212
40
0.151515151515
40
0.181818181818
40
0.212121212121
40
0.242424242424
40
0.272727272727
40
0.30303030303
40
0.333333333333
40
0.363636363636
40
0.393939393939
40
0.424242424242
40
0.454545454545
40
0.484848484848
40
0.515151515152
40
0.545454545455
40
0.575757575758
40
0.606060606061
40
0.636363636364
40
0.666666666667
40
0.69696969697
40
0.727272727273
40
0.757575757576
40
0.787878787879
40
0.818181818182
40
0.848484848485
40
0.878787878788
40
0.909090909091
40
0.939393939394
40
0.969696969697
40
1
40
1
40
1
40
1
10
1.8067746898
20
1.47327266795
30
0
10
1.79272606983
20
1.47876995402
30
0
10
1.77928825942
20
1.48854290704
30
0
10
1.77379097335
20
1.49465100268
30
0
10
1.76585044902
20
1.50259152701
30
0
10
1.74874778123
20
1.51053205134
30
0
10
1.72675863694
20
1.52335905218
30
0
10
1.7120992074
20
1.53191038608
30
0
10
1.70110463526
20
1.53740767215
30
0
10
1.69499653962
20
1.5416833391
30
0
10
1.69560734918
20
1.54412657735
30
0
10
1.69743977787
20
1.54656981561
30
0
10
1.70110463526
20
1.55573195906
30
0
10
1.70782354046
20
1.56550491209
30
0
10
1.71454244566
20
1.57955353205
30
0
10
1.71942892217
20
1.58993729464
30
0
10
1.72309377955
20
1.60154267635
30
0
10
1.72859106563
20
1.61070481981
30
0
10
1.73286673257
20
1.61498048676
30
0
10
1.73592078039
20
1.61314805806
30
0
10
1.74141806647
20
1.60826158155
30
0
10
1.75302344818
20
1.60276429548
30
0
10
1.7713477351
20
1.59238053289
30
0
10
1.79394768896
20
1.58077515118
30
0
10
1.80921792805
20
1.5703913886
30
0
10
1.81593683325
20
1.5618400547
30
0
10
1.82937464366
20
1.55573195906
30
0
10
1.84403407319
20
1.55023467299
30
0
10
1.85075297839
20
1.54412657735
30
0
10
1.85136378796
20
1.54107252953
30
0
10
1.84769893057
20
1.53435362433
30
0
10
1.84525569232
20
1.52824552869
30
0
10
1.8422016445
20
1.51664014698
30
0
10
1.82876383409
20
1.48976452617
30
0
10
1.82143411933
20
1.47876995402
30
0
10
1.81410440456
20
1.47327266795
30
0
0
SPLINE
5
D7
100
AcDbEntity
8
drawing
6
ByLayer
62
256
370
-1
100
AcDbSpline
210
0
220
0
230
1
70
11
71
3
72
27
73
23
74
0
42
1e-07
43
1e-07
40
0
40
0
40
0
40
0
40
0.05
40
0.1
40
0.15
40
0.2
40
0.25
40
0.3
40
0.35
40
0.4
40
0.45
40
0.5
40
0.55
40
0.6
40
0.65
40
0.7
40
0.75
40
0.8
40
0.85
40
0.9
40
0.95
40
1
40
1
40
1
40
1
10
1.81471521413
20
1.45861323842
30
0
10
1.79089364114
20
1.45983485754
30
0
10
1.77256935422
20
1.47082942969
30
0
10
1.76585044902
20
1.48243481141
30
0
10
1.76218559164
20
1.50014828876
30
0
10
1.76218559164
20
1.51908338524
30
0
10
1.76890449684
20
1.53435362433
30
0
10
1.77684502117
20
1.54656981561
30
0
10
1.78722878375
20
1.55817519732
30
0
10
1.80066659416
20
1.56245086427
30
0
10
1.81288278544
20
1.56611572165
30
0
10
1.82815302453
20
1.57100219816
30
0
10
1.84036921581
20
1.56916976947
30
0
10
1.85380702621
20
1.56061843558
30
0
10
1.86480159836
20
1.5484022443
30
0
10
1.86846645574
20
1.53679686259
30
0
10
1.87213131313
20
1.51786176611
30
0
10
1.87213131313
20
1.50320233658
30
0
10
1.86357997923
20
1.48365643053
30
0
10
1.8556394549
20
1.47266185838
30
0
10
1.83914759668
20
1.46349971493
30
0
10
1.8269314054
20
1.45983485754
30
0
10
1.81960169064
20
1.45861323842
30
0
0
SPLINE
5
D8
100
AcDbEntity
8
drawing
6
ByLayer
62
256
370
-1
100
AcDbSpline
210
0
220
0
230
1
70
11
71
3
72
31
73
27
74
0
42
1e-07
43
1e-07
40
0
40
0
40
0
40
0
40
0.0416666666667
40
0.0833333333333
40
0.125
40
0.166666666667
40
0.208333333333
40
0.25
40
0.291666666667
40
0.333333333333
40
0.375
40
0.416666666667
40
0.458333333333
40
0.5
40
0.541666666667
40
0.583333333333
40
0.625
40
0.666666666667
40
0.708333333333
40
0.75
40
0.791666666667
40
0.833333333333
40
0.875
40
0.916666666667
40
0.958333333333
40
1
40
1
40
1
40
1
10
1.26926227363
20
1.46105647667
30
0
10
1.26926227363
20
1.47388347751
30
0
10
1.27109470232
20
1.48854290704
30
0
10
1.27537036927
20
1.50381314614
30
0
10
1.28453251273
20
1.52213743305
30
0
10
1.29369465618
20
1.52702390956
30
0
10
1.30591084746
20
1.5331320052
30
0
10
1.3187378483
20
1.53618605302
30
0
10
1.33522970652
20
1.53679686259
30
0
10
1.35111075518
20
1.52946714782
30
0
10
1.35905127951
20
1.51847257567
30
0
10
1.36515937515
20
1.50259152701
30
0
10
1.36882423253
20
1.48915371661
30
0
10
1.37248908992
20
1.47876995402
30
0
10
1.37248908992
20
1.46594295318
30
0
10
1.37187828035
20
1.45372676191
30
0
10
1.36699180384
20
1.44212138019
30
0
10
1.36332694646
20
1.42929437935
30
0
10
1.35355399344
20
1.42257547415
30
0
10
1.33889456391
20
1.41768899764
30
0
10
1.31690541961
20
1.41402414026
30
0
10
1.29858113269
20
1.41402414026
30
0
10
1.28941898924
20
1.4201322359
30
0
10
1.27537036927
20
1.42929437935
30
0
10
1.26681903537
20
1.44761866627
30
0
10
1.26498660668
20
1.46044566711
30
0
10
1.26742984494
20
1.47021862013
30
0
0
LINE
5
D9
100
AcDbEntity
8
drawing
6
ByLayer
62
256
370
-1
100
AcDbLine
10
1.26618379343
20
1.48353426862
11
1.25601992229
21
1.48079784177
0
LINE
5
DA
100
AcDbEntity
8
drawing
6
ByLayer
62
256
370
-1
100
AcDbLine
10
1.25601992229
20
1.48079784177
11
1.24702880551
21
1.47923416929
0
LINE
5
DB
100
AcDbEntity
8
drawing
6
ByLayer
62
256
370
-1
100
AcDbLine
10
1.24702880551
20
1.47923416929
11
1.23686493437
21
1.47767049681
0
LINE
5
DC
100
AcDbEntity
8
drawing
6
ByLayer
62
256
370
-1
100
AcDbLine
10
1.23686493437
20
1.47767049681
11
1.22787381759
21
1.47649774245
0
LINE
5
DD
100
AcDbEntity
8
drawing
6
ByLayer
62
256
370
-1
100
AcDbLine
10
1.22787381759
20
1.47649774245
11
1.2169281102
21
1.47649774245
0
LINE
5
DE
100
AcDbEntity
8
drawing
6
ByLayer
62
256
370
-1
100
AcDbLine
10
1.2169281102
20
1.47649774245
11
1.20676423906
21
1.47727957869
0
LINE
5
DF
100
AcDbEntity
8
drawing
6
ByLayer
62
256
370
-1
100
AcDbLine
10
1.20676423906
20
1.47727957869
11
1.19699128604
21
1.47767049681
0
LINE
5
E0
100
AcDbEntity
8
drawing
6
ByLayer
62
256
370
-1
100
AcDbLine
10
1.26735654779
20
1.43857868472
11
1.25093798672
21
1.43857868472
0
LINE
5
E1
100
AcDbEntity
8
drawing
6
ByLayer
62
256
370
-1
100
AcDbLine
10
1.25093798672
20
1.43857868472
11
1.23842860685
21
1.43936052097
0
LINE
5
E2
100
AcDbEntity
8
drawing
6
ByLayer
62
256
370
-1
100
AcDbLine
10
1.23842860685
20
1.43936052097
11
1.22904657195
21
1.43975143909
0
LINE
5
E3
100
AcDbEntity
8
drawing
6
ByLayer
62
256
370
-1
100
AcDbLine
10
1.22904657195
20
1.43975143909
11
1.22044637329
21
1.4381877666
0
LINE
5
E4
100
AcDbEntity
8
drawing
6
ByLayer
62
256
370
-1
100
AcDbLine
10
1.22044637329
20
1.4381877666
11
1.20871882966
21
1.436233176
0
LINE
5
E5
100
AcDbEntity
8
drawing
6
ByLayer
62
256
370
-1
100
AcDbLine
10
1.20871882966
20
1.436233176
11
1.19894587664
21
1.43349674915
0
LINE
5
E6
100
AcDbEntity
8
drawing
6
ByLayer
62
256
370
-1
100
AcDbLine
10
1.19894587664
20
1.43349674915
11
1.19464577731
21
1.43388766727
0
LINE
5
E7
100
AcDbEntity
8
drawing
6
ByLayer
62
256
370
-1
100
AcDbLine
10
1.20832791154
20
1.35179486189
11
1.21810086456
21
1.35296761626
0
LINE
5
E8
100
AcDbEntity
8
drawing
6
ByLayer
62
256
370
-1
100
AcDbLine
10
1.21810086456
20
1.35296761626
11
1.22845829588
21
1.3553231258
0
LINE
5
E9
100
AcDbEntity
8
drawing
6
ByLayer
62
256
370
-1
100
AcDbLine
10
1.22845829588
20
1.3553231258
11
1.24589010457
21
1.36064951179
0
LINE
5
EA
100
AcDbEntity
8
drawing
6
ByLayer
62
256
370
-1
100
AcDbLine
10
1.24589010457
20
1.36064951179
11
1.26149277598
21
1.3631314874
0
LINE
5
EB
100
AcDbEntity
8
drawing
6
ByLayer
62
256
370
-1
100
AcDbLine
10
1.26149277598
20
1.3631314874
11
1.2786931733
21
1.36704066861
0
LINE
5
EC
100
AcDbEntity
8
drawing
6
ByLayer
62
256
370
-1
100
AcDbLine
10
1.2786931733
20
1.36704066861
11
1.2957644461
21
1.37178650068
0
LINE
5
ED
100
AcDbEntity
8
drawing
6
ByLayer
62
256
370
-1
100
AcDbLine
10
1.2957644461
20
1.37178650068
11
1.31658577315
21
1.37808132048
0
LINE
5
EE
100
AcDbEntity
8
drawing
6
ByLayer
62
256
370
-1
100
AcDbLine
10
1.31658577315
20
1.37808132048
11
1.33654905518
21
1.38111372096
0
LINE
5
EF
100
AcDbEntity
8
drawing
6
ByLayer
62
256
370
-1
100
AcDbLine
10
1.33654905518
20
1.38111372096
11
1.35062210753
21
1.38267739344
0
LINE
5
F0
100
AcDbEntity
8
drawing
6
ByLayer
62
256
370
-1
100
AcDbLine
10
1.35062210753
20
1.38267739344
11
1.37290444042
21
1.38697749277
0
LINE
5
F1
100
AcDbEntity
8
drawing
6
ByLayer
62
256
370
-1
100
AcDbLine
10
1.37290444042
20
1.38697749277
11
1.39362310083
21
1.39088667398
0
LINE
5
F2
100
AcDbEntity
8
drawing
6
ByLayer
62
256
370
-1
100
AcDbLine
10
1.39362310083
20
1.39088667398
11
1.40886890754
21
1.39401401895
0
LINE
5
F3
100
AcDbEntity
8
drawing
6
ByLayer
62
256
370
-1
100
AcDbLine
10
1.40886890754
20
1.39401401895
11
1.42505036057
21
1.39793421371
0
LINE
5
F4
100
AcDbEntity
8
drawing
6
ByLayer
62
256
370
-1
100
AcDbLine
10
1.42505036057
20
1.39793421371
11
1.44829277216
21
1.4027763828
0
LINE
5
F5
100
AcDbEntity
8
drawing
6
ByLayer
62
256
370
-1
100
AcDbLine
10
1.44829277216
20
1.4027763828
11
1.46594295318
21
1.40535064445
0
LINE
5
F6
100
AcDbEntity
8
drawing
6
ByLayer
62
256
370
-1
100
AcDbLine
10
1.46594295318
20
1.40535064445
11
1.4850979411
21
1.4080870713
0
LINE
5
F7
100
AcDbEntity
8
drawing
6
ByLayer
62
256
370
-1
100
AcDbLine
10
1.4850979411
20
1.4080870713
11
1.50542568339
21
1.41199625251
0
LINE
5
F8
100
AcDbEntity
8
drawing
6
ByLayer
62
256
370
-1
100
AcDbLine
10
1.50542568339
20
1.41199625251
11
1.52223516258
21
1.41434176123
0
LINE
5
F9
100
AcDbEntity
8
drawing
6
ByLayer
62
256
370
-1
100
AcDbLine
10
1.52223516258
20
1.41434176123
11
1.54465193687
21
1.41923975767
0
LINE
5
FA
100
AcDbEntity
8
drawing
6
ByLayer
62
256
370
-1
100
AcDbLine
10
1.54465193687
20
1.41923975767
11
1.57579094514
21
1.42372379613
0
LINE
5
FB
100
AcDbEntity
8
drawing
6
ByLayer
62
256
370
-1
100
AcDbLine
10
1.57579094514
20
1.42372379613
11
1.58947307937
21
1.42411471425
0
LINE
5
FC
100
AcDbEntity
8
drawing
6
ByLayer
62
256
370
-1
100
AcDbLine
10
1.58947307937
20
1.42411471425
11
1.59888423058
21
1.42940831274
0
LINE
5
FD
100
AcDbEntity
8
drawing
6
ByLayer
62
256
370
-1
100
AcDbLine
10
1.59888423058
20
1.42940831274
11
1.61449183911
21
1.43154215855
0
LINE
5
FE
100
AcDbEntity
8
drawing
6
ByLayer
62
256
370
-1
100
AcDbLine
10
1.61449183911
20
1.43154215855
11
1.64381069817
21
1.44405153842
0
LINE
5
FF
100
AcDbEntity
8
drawing
6
ByLayer
62
256
370
-1
100
AcDbLine
10
1.64381069817
20
1.44405153842
11
1.65983834112
21
1.44991531023
0
LINE
5
100
100
AcDbEntity
8
drawing
6
ByLayer
62
256
370
-1
100
AcDbLine
10
1.65983834112
20
1.44991531023
11
1.6743023116
21
1.45304265519
0
LINE
5
101
100
AcDbEntity
8
drawing
6
ByLayer
62
256
370
-1
100
AcDbLine
10
1.6743023116
20
1.45304265519
11
1.6875935277
21
1.4569518364
0
LINE
5
102
100
AcDbEntity
8
drawing
6
ByLayer
62
256
370
-1
100
AcDbLine
10
1.6875935277
20
1.4569518364
11
1.70250664892
21
1.46233506249
0
LINE
5
103
100
AcDbEntity
8
drawing
6
ByLayer
62
256
370
-1
100
AcDbLine
10
1.70250664892
20
1.46233506249
11
1.72332797596
21
1.46427193013
0
LINE
5
104
100
AcDbEntity
8
drawing
6
ByLayer
62
256
370
-1
100
AcDbLine
10
1.72332797596
20
1.46427193013
11
1.73880380154
21
1.46907029815
0
LINE
5
105
100
AcDbEntity
8
drawing
6
ByLayer
62
256
370
-1
100
AcDbLine
10
1.73880380154
20
1.46907029815
11
1.75248593576
21
1.47337039748
0
LINE
5
106
100
AcDbEntity
8
drawing
6
ByLayer
62
256
370
-1
100
AcDbLine
10
1.75248593576
20
1.47337039748
11
1.76499531563
21
1.47767049681
0
LINE
5
107
100
AcDbEntity
8
drawing
6
ByLayer
62
256
370
-1
100
AcDbLine
10
1.2638382847
20
1.3349853827
11
1.2732203196
21
1.33537630082
0
LINE
5
108
100
AcDbEntity
8
drawing
6
ByLayer
62
256
370
-1
100
AcDbLine
10
1.2732203196
20
1.33537630082
11
1.28377510887
21
1.3369399733
0
LINE
5
109
100
AcDbEntity
8
drawing
6
ByLayer
62
256
370
-1
100
AcDbLine
10
1.28377510887
20
1.3369399733
11
1.30019366994
21
1.34006731827
0
LINE
5
10A
100
AcDbEntity
8
drawing
6
ByLayer
62
256
370
-1
100
AcDbLine
10
1.30019366994
20
1.34006731827
11
1.31426672229
21
1.34202190887
0
LINE
5
10B
100
AcDbEntity
8
drawing
6
ByLayer
62
256
370
-1
100
AcDbLine
10
1.31426672229
20
1.34202190887
11
1.33537630082
21
1.34554017196
0
LINE
5
10C
100
AcDbEntity
8
drawing
6
ByLayer
62
256
370
-1
100
AcDbLine
10
1.33537630082
20
1.34554017196
11
1.35765863371
21
1.34866751693
0
LINE
5
10D
100
AcDbEntity
8
drawing
6
ByLayer
62
256
370
-1
100
AcDbLine
10
1.35765863371
20
1.34866751693
11
1.38306831156
21
1.35257669814
0
LINE
5
10E
100
AcDbEntity
8
drawing
6
ByLayer
62
256
370
-1
100
AcDbLine
10
1.38306831156
20
1.35257669814
11
1.40456880821
21
1.3557040431
0
LINE
5
10F
100
AcDbEntity
8
drawing
6
ByLayer
62
256
370
-1
100
AcDbLine
10
1.40456880821
20
1.3557040431
11
1.43154215855
21
1.36078597867
0
LINE
5
110
100
AcDbEntity
8
drawing
6
ByLayer
62
256
370
-1
100
AcDbLine
10
1.43154215855
20
1.36078597867
11
1.45851550889
21
1.365086078
0
LINE
5
111
100
AcDbEntity
8
drawing
6
ByLayer
62
256
370
-1
100
AcDbLine
10
1.45851550889
20
1.365086078
11
1.48392518674
21
1.36899525921
0
LINE
5
112
100
AcDbEntity
8
drawing
6
ByLayer
62
256
370
-1
100
AcDbLine
10
1.48392518674
20
1.36899525921
11
1.50268925654
21
1.37368627666
0
LINE
5
113
100
AcDbEntity
8
drawing
6
ByLayer
62
256
370
-1
100
AcDbLine
10
1.50268925654
20
1.37368627666
11
1.52189374219
21
1.38389192338
0
LINE
5
114
100
AcDbEntity
8
drawing
6
ByLayer
62
256
370
-1
100
AcDbLine
10
1.52189374219
20
1.38389192338
11
1.55546320286
21
1.39362310083
0
LINE
5
115
100
AcDbEntity
8
drawing
6
ByLayer
62
256
370
-1
100
AcDbLine
10
1.55546320286
20
1.39362310083
11
1.57999977116
21
1.40568168424
0
LINE
5
116
100
AcDbEntity
8
drawing
6
ByLayer
62
256
370
-1
100
AcDbLine
10
1.57999977116
20
1.40568168424
11
1.60706439481
21
1.41590543371
0
LINE
5
117
100
AcDbEntity
8
drawing
6
ByLayer
62
256
370
-1
100
AcDbLine
10
1.60706439481
20
1.41590543371
11
1.63423206487
21
1.42650301129
0
LINE
5
118
100
AcDbEntity
8
drawing
6
ByLayer
62
256
370
-1
100
AcDbLine
10
1.63423206487
20
1.42650301129
11
1.65505339192
21
1.43570313255
0
LINE
5
119
100
AcDbEntity
8
drawing
6
ByLayer
62
256
370
-1
100
AcDbLine
10
1.65505339192
20
1.43570313255
11
1.67974845423
21
1.44102951854
0
LINE
5
11A
100
AcDbEntity
8
drawing
6
ByLayer
62
256
370
-1
100
AcDbLine
10
1.67974845423
20
1.44102951854
11
1.69893015321
21
1.44444245654
0
LINE
5
11B
100
AcDbEntity
8
drawing
6
ByLayer
62
256
370
-1
100
AcDbLine
10
1.69893015321
20
1.44444245654
11
1.71769422301
21
1.45226081895
0
LINE
5
11C
100
AcDbEntity
8
drawing
6
ByLayer
62
256
370
-1
100
AcDbLine
10
1.71769422301
20
1.45226081895
11
1.73450370221
21
1.45460632768
0
LINE
5
11D
100
AcDbEntity
8
drawing
6
ByLayer
62
256
370
-1
100
AcDbLine
10
1.73450370221
20
1.45460632768
11
1.74511773683
21
1.45942976104
0
LINE
5
11E
100
AcDbEntity
8
drawing
6
ByLayer
62
256
370
-1
100
AcDbLine
10
1.74511773683
20
1.45942976104
11
1.76061267789
21
1.46233506249
0
LINE
5
11F
100
AcDbEntity
8
drawing
6
ByLayer
62
256
370
-1
100
AcDbLine
10
1.76061267789
20
1.46233506249
11
1.77633194114
21
1.46398836258
0
SPLINE
5
120
100
AcDbEntity
8
drawing
6
ByLayer
62
256
370
-1
100
AcDbSpline
210
0
220
0
230
1
70
11
71
3
72
33
73
29
74
0
42
1e-07
43
1e-07
40
0
40
0
40
0
40
0
40
0.0384615384615
40
0.0769230769231
40
0.115384615385
40
0.153846153846
40
0.192307692308
40
0.230769230769
40
0.269230769231
40
0.307692307692
40
0.346153846154
40
0.384615384615
40
0.423076923077
40
0.461538461538
40
0.5
40
0.538461538462
40
0.576923076923
40
0.615384615385
40
0.653846153846
40
0.692307692308
40
0.730769230769
40
0.769230769231
40
0.807692307692
40
0.846153846154
40
0.884615384615
40
0.923076923077
40
0.961538461538
40
1
40
1
40
1
40
1
10
1.51383042299
20
1.9790229868
30
0
10
1.52018284245
20
1.98146622505
30
0
10
1.53435362433
20
1.98293216801
30
0
10
1.54950170151
20
1.98244352035
30
0
10
1.565627074
20
1.98342081566
30
0
10
1.58126379883
20
1.98342081566
30
0
10
1.58663892299
20
1.98342081566
30
0
10
1.58908216125
20
1.98244352035
30
0
10
1.5905481042
20
1.97951163445
30
0
10
1.58908216125
20
1.95214736599
30
0
10
1.59005945655
20
1.93113551699
30
0
10
1.5895708089
20
1.90719178209
30
0
10
1.5895708089
20
1.87933886598
30
0
10
1.59299134246
20
1.86077025524
30
0
10
1.59641187602
20
1.84073570155
30
0
10
1.59543458071
20
1.82412168141
30
0
10
1.59347999011
20
1.8202125002
30
0
10
1.5905481042
20
1.8202125002
30
0
10
1.56416113105
20
1.8211897955
30
0
10
1.53875145319
20
1.82216709081
30
0
10
1.52116013775
20
1.82216709081
30
0
10
1.51285312768
20
1.8202125002
30
0
10
1.50992124178
20
1.81972385255
30
0
10
1.50845529883
20
1.8211897955
30
0
10
1.51089853708
20
1.85050865457
30
0
10
1.51236448003
20
1.8871572284
30
0
10
1.51236448003
20
1.91891932572
30
0
10
1.51529636594
20
1.94090847001
30
0
10
1.51383042299
20
1.97657974854
30
0
0
SPLINE
5
121
100
AcDbEntity
8
drawing
6
ByLayer
62
256
370
-1
100
AcDbSpline
210
0
220
0
230
1
70
11
71
3
72
28
73
24
74
0
42
1e-07
43
1e-07
40
0
40
0
40
0
40
0
40
0.047619047619
40
0.0952380952381
40
0.142857142857
40
0.190476190476
40
0.238095238095
40
0.285714285714
40
0.333333333333
40
0.380952380952
40
0.428571428571
40
0.47619047619
40
0.52380952381
40
0.571428571429
40
0.619047619048
40
0.666666666667
40
0.714285714286
40
0.761904761905
40
0.809523809524
40
0.857142857143
40
0.904761904762
40
0.952380952381
40
1
40
1
40
1
40
1
10
1.50552341292
20
1.97315921498
30
0
10
1.50698935587
20
1.9800002821
30
0
10
1.51236448003
20
1.98830729217
30
0
10
1.52116013775
20
1.99563700693
30
0
10
1.53679686259
20
2.00345536935
30
0
10
1.54999034917
20
2.00540995995
30
0
10
1.5675816646
20
2.00345536935
30
0
10
1.57882056058
20
2.00101213109
30
0
10
1.59005945655
20
1.99661430223
30
0
10
1.59738917132
20
1.98537540626
30
0
10
1.60227564783
20
1.97364786264
30
0
10
1.60423023843
20
1.96143167136
30
0
10
1.60423023843
20
1.94628359418
30
0
10
1.59885511427
20
1.92771498344
30
0
10
1.59103675185
20
1.91354420155
30
0
10
1.57882056058
20
1.90425989618
30
0
10
1.56074059749
20
1.89741882907
30
0
10
1.53924010084
20
1.89693018142
30
0
10
1.52409202366
20
1.90083936263
30
0
10
1.51676230889
20
1.90523719149
30
0
10
1.50161423171
20
1.92478309753
30
0
10
1.4986823458
20
1.94530629887
30
0
10
1.49819369815
20
1.9589884331
30
0
10
1.50356882231
20
1.97169327203
30
0
0
SPLINE
5
122
100
AcDbEntity
8
drawing
6
ByLayer
62
256
370
-1
100
AcDbSpline
210
0
220
0
230
1
70
11
71
3
72
53
73
49
74
0
42
1e-07
43
1e-07
40
0
40
0
40
0
40
0
40
0.0217391304348
40
0.0434782608696
40
0.0652173913043
40
0.0869565217391
40
0.108695652174
40
0.130434782609
40
0.152173913043
40
0.173913043478
40
0.195652173913
40
0.217391304348
40
0.239130434783
40
0.260869565217
40
0.282608695652
40
0.304347826087
40
0.326086956522
40
0.347826086957
40
0.369565217391
40
0.391304347826
40
0.413043478261
40
0.434782608696
40
0.45652173913
40
0.478260869565
40
0.5
40
0.521739130435
40
0.54347826087
40
0.565217391304
40
0.586956521739
40
0.608695652174
40
0.630434782609
40
0.652173913043
40
0.673913043478
40
0.695652173913
40
0.717391304348
40
0.739130434783
40
0.760869565217
40
0.782608695652
40
0.804347826087
40
0.826086956522
40
0.847826086957
40
0.869565217391
40
0.891304347826
40
0.913043478261
40
0.934782608696
40
0.95652173913
40
0.978260869565
40
1
40
1
40
1
40
1
10
1.53337632903
20
1.98048892975
30
0
10
1.53386497668
20
1.96534085257
30
0
10
1.53386497668
20
1.95068142304
30
0
10
1.53435362433
20
1.93993117471
30
0
10
1.53337632903
20
1.93064686934
30
0
10
1.53239903373
20
1.9111009633
30
0
10
1.53337632903
20
1.8871572284
30
0
10
1.53239903373
20
1.87591833242
30
0
10
1.53386497668
20
1.86956591296
30
0
10
1.53630821494
20
1.85734972168
30
0
10
1.53581956728
20
1.84757676866
30
0
10
1.53581956728
20
1.8402470539
30
0
10
1.53777415789
20
1.82998545322
30
0
10
1.53826280554
20
1.82656491967
30
0
10
1.53826280554
20
1.81434872839
30
0
10
1.53679686259
20
1.80457577537
30
0
10
1.53679686259
20
1.79382552704
30
0
10
1.53777415789
20
1.7713477351
30
0
10
1.53972874849
20
1.7493585908
30
0
10
1.54217198675
20
1.73372186596
30
0
10
1.54314928205
20
1.72199432234
30
0
10
1.54314928205
20
1.70977813106
30
0
10
1.54510387265
20
1.7024484163
30
0
10
1.54950170151
20
1.69951653039
30
0
10
1.55438817802
20
1.69658464448
30
0
10
1.55732006393
20
1.69805058744
30
0
10
1.56025194984
20
1.70049382569
30
0
10
1.56074059749
20
1.71222136932
30
0
10
1.56074059749
20
1.73274457066
30
0
10
1.5646497787
20
1.74300617133
30
0
10
1.56513842635
20
1.76206342973
30
0
10
1.56709301695
20
1.77379097335
30
0
10
1.56709301695
20
1.78356392637
30
0
10
1.56953625521
20
1.79382552704
30
0
10
1.56953625521
20
1.80799630893
30
0
10
1.56611572165
20
1.82851951027
30
0
10
1.565627074
20
1.84464488275
30
0
10
1.5666043693
20
1.85783836933
30
0
10
1.56269518809
20
1.86809997001
30
0
10
1.56025194984
20
1.87982751363
30
0
10
1.55927465454
20
1.89741882907
30
0
10
1.55927465454
20
1.90865772504
30
0
10
1.55927465454
20
1.92527174518
30
0
10
1.56122924514
20
1.93357875525
30
0
10
1.56269518809
20
1.94335170827
30
0
10
1.56269518809
20
1.95507925189
30
0
10
1.56269518809
20
1.96289761431
30
0
10
1.56122924514
20
1.96729544317
30
0
10
1.55976330219
20
1.97706839619
30
0
0
LWPOLYLINE
5
123
100
AcDbEntity
8
drawing
6
ByLayer
62
256
370
-1
100
AcDbPolyline
90
2
70
0
43
0
10
1.20060727866
20
1.96973868143
10
1.20158457396
20
1.96973868143
0
LWPOLYLINE
5
124
100
AcDbEntity
8
drawing
6
ByLayer
62
256
370
-1
100
AcDbPolyline
90
2
70
0
43
0
10
1.22797154712
20
1.96631814787
10
1.22846019477
20
1.96582950022
0
LINE
5
125
100
AcDbEntity
8
drawing
6
ByLayer
62
256
370
-1
100
AcDbLine
10
1.20207322161
20
1.96680679552
11
1.21282346993
21
1.96778409082
0
LINE
5
126
100
AcDbEntity
8
drawing
6
ByLayer
62
256
370
-1
100
AcDbLine
10
1.21282346993
20
1.96778409082
11
1.22161912765
21
1.96827273847
0
LINE
5
127
100
AcDbEntity
8
drawing
6
ByLayer
62
256
370
-1
100
AcDbLine
10
1.22161912765
20
1.96827273847
11
1.23236937598
21
1.96631814787
0
LINE
5
128
100
AcDbEntity
8
drawing
6
ByLayer
62
256
370
-1
100
AcDbLine
10
1.23236937598
20
1.96631814787
11
1.2450742149
21
1.96680679552
0
LINE
5
129
100
AcDbEntity
8
drawing
6
ByLayer
62
256
370
-1
100
AcDbLine
10
1.2450742149
20
1.96680679552
11
1.25240392967
21
1.96827273847
0
LINE
5
12A
100
AcDbEntity
8
drawing
6
ByLayer
62
256
370
-1
100
AcDbLine
10
1.25240392967
20
1.96827273847
11
1.2651087686
21
1.96827273847
0
LINE
5
12B
100
AcDbEntity
8
drawing
6
ByLayer
62
256
370
-1
100
AcDbLine
10
1.2651087686
20
1.96827273847
11
1.28025684578
21
1.96778409082
0
LINE
5
12C
100
AcDbEntity
8
drawing
6
ByLayer
62
256
370
-1
100
AcDbLine
10
1.28025684578
20
1.96778409082
11
1.30175734243
21
1.96925003378
0
LINE
5
12D
100
AcDbEntity
8
drawing
6
ByLayer
62
256
370
-1
100
AcDbLine
10
1.30175734243
20
1.96925003378
11
1.32032595317
21
1.97071597673
0
LINE
5
12E
100
AcDbEntity
8
drawing
6
ByLayer
62
256
370
-1
100
AcDbLine
10
1.32032595317
20
1.97071597673
11
1.33645132565
21
1.97267056733
0
LINE
5
12F
100
AcDbEntity
8
drawing
6
ByLayer
62
256
370
-1
100
AcDbLine
10
1.33645132565
20
1.97267056733
11
1.35599723169
21
1.97071597673
0
LINE
5
130
100
AcDbEntity
8
drawing
6
ByLayer
62
256
370
-1
100
AcDbLine
10
1.35599723169
20
1.97071597673
11
1.38042961425
21
1.97071597673
0
LINE
5
131
100
AcDbEntity
8
drawing
6
ByLayer
62
256
370
-1
100
AcDbLine
10
1.38042961425
20
1.97071597673
11
1.40925982566
21
1.97120462438
0
LINE
5
132
100
AcDbEntity
8
drawing
6
ByLayer
62
256
370
-1
100
AcDbLine
10
1.40925982566
20
1.97120462438
11
1.44004462768
21
1.97071597673
0
LINE
5
133
100
AcDbEntity
8
drawing
6
ByLayer
62
256
370
-1
100
AcDbLine
10
1.44004462768
20
1.97071597673
11
1.46105647667
21
1.97267056733
0
LINE
5
134
100
AcDbEntity
8
drawing
6
ByLayer
62
256
370
-1
100
AcDbLine
10
1.46105647667
20
1.97267056733
11
1.48255697332
21
1.97267056733
0
LINE
5
135
100
AcDbEntity
8
drawing
6
ByLayer
62
256
370
-1
100
AcDbLine
10
1.48255697332
20
1.97267056733
11
1.4947731646
21
1.97315921498
0
LINE
5
136
100
AcDbEntity
8
drawing
6
ByLayer
62
256
370
-1
100
AcDbLine
10
1.4947731646
20
1.97315921498
11
1.49965964111
21
1.97315921498
0
LINE
5
137
100
AcDbEntity
8
drawing
6
ByLayer
62
256
370
-1
100
AcDbLine
10
1.20647105047
20
1.92869227874
11
1.22552830886
21
1.92966957404
0
LINE
5
138
100
AcDbEntity
8
drawing
6
ByLayer
62
256
370
-1
100
AcDbLine
10
1.22552830886
20
1.92966957404
11
1.23969909074
21
1.93015822169
0
LINE
5
139
100
AcDbEntity
8
drawing
6
ByLayer
62
256
370
-1
100
AcDbLine
10
1.23969909074
20
1.93015822169
11
1.25826770148
21
1.92918092639
0
LINE
5
13A
100
AcDbEntity
8
drawing
6
ByLayer
62
256
370
-1
100
AcDbLine
10
1.25826770148
20
1.92918092639
11
1.27439307397
21
1.93015822169
0
LINE
5
13B
100
AcDbEntity
8
drawing
6
ByLayer
62
256
370
-1
100
AcDbLine
10
1.27439307397
20
1.93015822169
11
1.29149574175
21
1.93113551699
0
LINE
5
13C
100
AcDbEntity
8
drawing
6
ByLayer
62
256
370
-1
100
AcDbLine
10
1.29149574175
20
1.93113551699
11
1.32228054377
21
1.93113551699
0
LINE
5
13D
100
AcDbEntity
8
drawing
6
ByLayer
62
256
370
-1
100
AcDbLine
10
1.32228054377
20
1.93113551699
11
1.35062210753
21
1.93162416464
0
LINE
5
13E
100
AcDbEntity
8
drawing
6
ByLayer
62
256
370
-1
100
AcDbLine
10
1.35062210753
20
1.93162416464
11
1.38727068136
21
1.9330901076
0
LINE
5
13F
100
AcDbEntity
8
drawing
6
ByLayer
62
256
370
-1
100
AcDbLine
10
1.38727068136
20
1.9330901076
11
1.41903277868
21
1.93162416464
0
LINE
5
140
100
AcDbEntity
8
drawing
6
ByLayer
62
256
370
-1
100
AcDbLine
10
1.41903277868
20
1.93162416464
11
1.43564679882
21
1.93015822169
0
LINE
5
141
100
AcDbEntity
8
drawing
6
ByLayer
62
256
370
-1
100
AcDbLine
10
1.43564679882
20
1.93015822169
11
1.46007918137
21
1.92966957404
0
LINE
5
142
100
AcDbEntity
8
drawing
6
ByLayer
62
256
370
-1
100
AcDbLine
10
1.46007918137
20
1.92966957404
11
1.47718184916
21
1.93162416464
0
LINE
5
143
100
AcDbEntity
8
drawing
6
ByLayer
62
256
370
-1
100
AcDbLine
10
1.47718184916
20
1.93162416464
11
1.49379586929
21
1.93211281229
0
LINE
5
144
100
AcDbEntity
8
drawing
6
ByLayer
62
256
370
-1
100
AcDbLine
10
1.49379586929
20
1.93211281229
11
1.4967277552
21
1.93211281229
0
LINE
5
145
100
AcDbEntity
8
drawing
6
ByLayer
62
256
370
-1
100
AcDbLine
10
4.07106960265
20
0.26543970303
11
4.11878909982
21
0.302720560197
0
LINE
5
146
100
AcDbEntity
8
drawing
6
ByLayer
62
256
370
-1
100
AcDbLine
10
1.8148321269
20
0.28780821733
11
4.06063096264
21
0.28780821733
0
LINE
5
147
100
AcDbEntity
8
drawing
6
ByLayer
62
256
370
-1
100
AcDbLine
10
4.06063096264
20
0.28780821733
11
4.1098416941
21
0.329562777357
0
LINE
5
148
100
AcDbEntity
8
drawing
6
ByLayer
62
256
370
-1
100
AcDbLine
10
1.0304428921
20
0.392194617398
11
0.996144503506
21
0.356404994518
0
LINE
5
149
100
AcDbEntity
8
drawing
6
ByLayer
62
256
370
-1
100
AcDbLine
10
0.996144503506
20
0.356404994518
11
0.964828583485
21
0.341492651651
0
LINE
5
14A
100
AcDbEntity
8
drawing
6
ByLayer
62
256
370
-1
100
AcDbLine
10
0.964828583485
20
0.341492651651
11
0.447370286005
21
0.335527714504
0
LINE
5
14B
100
AcDbEntity
8
drawing
6
ByLayer
62
256
370
-1
100
AcDbLine
10
0.447370286005
20
0.335527714504
11
0.442896583145
21
0.384738445965
0
LINE
5
14C
100
AcDbEntity
8
drawing
6
ByLayer
62
256
370
-1
100
AcDbLine
10
0.442896583145
20
0.384738445965
11
0.459300160299
21
0.389212148825
0
LINE
5
14D
100
AcDbEntity
8
drawing
6
ByLayer
62
256
370
-1
100
AcDbLine
10
0.459300160299
20
0.389212148825
11
0.475703737452
21
0.389212148825
0
LINE
5
14E
100
AcDbEntity
8
drawing
6
ByLayer
62
256
370
-1
100
AcDbLine
10
0.475703737452
20
0.389212148825
11
0.507019657473
21
0.405615725978
0
LINE
5
14F
100
AcDbEntity
8
drawing
6
ByLayer
62
256
370
-1
100
AcDbLine
10
0.507019657473
20
0.405615725978
11
0.505826670044
21
0.509405632332
0
LINE
5
150
100
AcDbEntity
8
drawing
6
ByLayer
62
256
370
-1
100
AcDbLine
10
0.505826670044
20
0.509405632332
11
0.501054720326
21
0.516563556908
0
LINE
5
151
100
AcDbEntity
8
drawing
6
ByLayer
62
256
370
-1
100
AcDbLine
10
0.501054720326
20
0.516563556908
11
0.36624714081
21
0.569055003799
0
LINE
5
152
100
AcDbEntity
8
drawing
6
ByLayer
62
256
370
-1
100
AcDbLine
10
0.36624714081
20
0.569055003799
11
0.354317266516
21
0.576212928375
0
LINE
5
153
100
AcDbEntity
8
drawing
6
ByLayer
62
256
370
-1
100
AcDbLine
10
0.354317266516
20
0.576212928375
11
0.34715934194
21
0.591721764957
0
LINE
5
154
100
AcDbEntity
8
drawing
6
ByLayer
62
256
370
-1
100
AcDbLine
10
0.34715934194
20
0.591721764957
11
0.314948681348
21
0.752775067919
0
LINE
5
155
100
AcDbEntity
8
drawing
6
ByLayer
62
256
370
-1
100
AcDbLine
10
0.314948681348
20
0.752775067919
11
0.316141668777
21
0.758740005065
0
LINE
5
156
100
AcDbEntity
8
drawing
6
ByLayer
62
256
370
-1
100
AcDbLine
10
0.316141668777
20
0.758740005065
11
0.328071543071
21
0.774248841647
0
LINE
5
157
100
AcDbEntity
8
drawing
6
ByLayer
62
256
370
-1
100
AcDbLine
10
0.328071543071
20
0.774248841647
11
0.328071543071
21
0.792143653087
0
LINE
5
158
100
AcDbEntity
8
drawing
6
ByLayer
62
256
370
-1
100
AcDbLine
10
0.328071543071
20
0.792143653087
11
0.332843492788
21
0.800494565092
0
LINE
5
159
100
AcDbEntity
8
drawing
6
ByLayer
62
256
370
-1
100
AcDbLine
10
0.332843492788
20
0.800494565092
11
0.368633115669
21
0.829126263397
0
LINE
5
15A
100
AcDbEntity
8
drawing
6
ByLayer
62
256
370
-1
100
AcDbLine
10
0.368633115669
20
0.829126263397
11
0.375791040245
21
0.837477175402
0
LINE
5
15B
100
AcDbEntity
8
drawing
6
ByLayer
62
256
370
-1
100
AcDbLine
10
0.375791040245
20
0.837477175402
11
0.399650788832
21
0.938881106897
0
LINE
5
15C
100
AcDbEntity
8
drawing
6
ByLayer
62
256
370
-1
100
AcDbLine
10
0.399650788832
20
0.938881106897
11
0.405615725978
21
0.95200396862
0
LINE
5
15D
100
AcDbEntity
8
drawing
6
ByLayer
62
256
370
-1
100
AcDbLine
10
0.405615725978
20
0.95200396862
11
0.411580663125
21
0.962740855484
0
LINE
5
15E
100
AcDbEntity
8
drawing
6
ByLayer
62
256
370
-1
100
AcDbLine
10
0.411580663125
20
0.962740855484
11
0.422317549989
21
0.973477742348
0
LINE
5
15F
100
AcDbEntity
8
drawing
6
ByLayer
62
256
370
-1
100
AcDbLine
10
0.422317549989
20
0.973477742348
11
0.435440411712
21
0.979442679495
0
LINE
5
160
100
AcDbEntity
8
drawing
6
ByLayer
62
256
370
-1
100
AcDbLine
10
0.435440411712
20
0.979442679495
11
0.468844059734
21
0.984214629212
0
LINE
5
161
100
AcDbEntity
8
drawing
6
ByLayer
62
256
370
-1
100
AcDbLine
10
0.468844059734
20
0.984214629212
11
0.510598619761
21
0.988986578929
0
LINE
5
162
100
AcDbEntity
8
drawing
6
ByLayer
62
256
370
-1
100
AcDbLine
10
0.510598619761
20
0.988986578929
11
0.82316132625
21
1.03909205096
0
LINE
5
163
100
AcDbEntity
8
drawing
6
ByLayer
62
256
370
-1
100
AcDbLine
10
0.82316132625
20
1.03909205096
11
1.17986456763
21
1.08203959842
0
LINE
5
164
100
AcDbEntity
8
drawing
6
ByLayer
62
256
370
-1
100
AcDbLine
10
1.17986456763
20
1.08203959842
11
1.33375994601
21
1.09993440986
0
LINE
5
165
100
AcDbEntity
8
drawing
6
ByLayer
62
256
370
-1
100
AcDbLine
10
1.33375994601
20
1.09993440986
11
1.44947972666
21
1.11425025901
0
LINE
5
166
100
AcDbEntity
8
drawing
6
ByLayer
62
256
370
-1
100
AcDbLine
10
1.44947972666
20
1.11425025901
11
1.61291900448
21
1.13095208302
0
LINE
5
167
100
AcDbEntity
8
drawing
6
ByLayer
62
256
370
-1
100
AcDbLine
10
1.61291900448
20
1.13095208302
11
1.6952351371
21
1.14168896989
0
LINE
5
168
100
AcDbEntity
8
drawing
6
ByLayer
62
256
370
-1
100
AcDbLine
10
1.6952351371
20
1.14168896989
11
1.80856894289
21
1.15123286932
0
LINE
5
169
100
AcDbEntity
8
drawing
6
ByLayer
62
256
370
-1
100
AcDbLine
10
1.80856894289
20
1.15123286932
11
1.85986740235
21
1.15719780647
0
LINE
5
16A
100
AcDbEntity
8
drawing
6
ByLayer
62
256
370
-1
100
AcDbLine
10
1.85986740235
20
1.15719780647
11
1.91116586182
21
1.16077676876
0
LINE
5
16B
100
AcDbEntity
8
drawing
6
ByLayer
62
256
370
-1
100
AcDbLine
10
1.91116586182
20
1.16077676876
11
1.94576249727
21
1.16554871847
0
LINE
5
16C
100
AcDbEntity
8
drawing
6
ByLayer
62
256
370
-1
100
AcDbLine
10
1.94576249727
20
1.16554871847
11
1.98513108243
21
1.17389963048
0
LINE
5
16D
100
AcDbEntity
8
drawing
6
ByLayer
62
256
370
-1
100
AcDbLine
10
1.98513108243
20
1.17389963048
11
2.03046460475
21
1.19418041678
0
LINE
5
16E
100
AcDbEntity
8
drawing
6
ByLayer
62
256
370
-1
100
AcDbLine
10
2.03046460475
20
1.19418041678
11
2.03523655447
21
1.19298742935
0
LINE
5
16F
100
AcDbEntity
8
drawing
6
ByLayer
62
256
370
-1
100
AcDbLine
10
2.03523655447
20
1.19298742935
11
2.0447804539
21
1.17986456763
0
LINE
5
170
100
AcDbEntity
8
drawing
6
ByLayer
62
256
370
-1
100
AcDbLine
10
2.0447804539
20
1.17986456763
11
2.04716642876
21
1.18105755505
0
LINE
5
171
100
AcDbEntity
8
drawing
6
ByLayer
62
256
370
-1
100
AcDbLine
10
2.04716642876
20
1.18105755505
11
2.05909630305
21
1.19060145449
0
LINE
5
172
100
AcDbEntity
8
drawing
6
ByLayer
62
256
370
-1
100
AcDbLine
10
2.05909630305
20
1.19060145449
11
2.06028929048
21
1.19298742935
0
LINE
5
173
100
AcDbEntity
8
drawing
6
ByLayer
62
256
370
-1
100
AcDbLine
10
2.06028929048
20
1.19298742935
11
2.0650612402
21
1.20491730364
0
LINE
5
174
100
AcDbEntity
8
drawing
6
ByLayer
62
256
370
-1
100
AcDbLine
10
2.0650612402
20
1.20491730364
11
2.07221916478
21
1.21207522822
0
LINE
5
175
100
AcDbEntity
8
drawing
6
ByLayer
62
256
370
-1
100
AcDbLine
10
2.07221916478
20
1.21207522822
11
2.08176306421
21
1.21446120308
0
LINE
5
176
100
AcDbEntity
8
drawing
6
ByLayer
62
256
370
-1
100
AcDbLine
10
2.08176306421
20
1.21446120308
11
2.09130696365
21
1.20968925336
0
LINE
5
177
100
AcDbEntity
8
drawing
6
ByLayer
62
256
370
-1
100
AcDbLine
10
2.09130696365
20
1.20968925336
11
2.09488592593
21
1.21088224079
0
LINE
5
178
100
AcDbEntity
8
drawing
6
ByLayer
62
256
370
-1
100
AcDbLine
10
2.09488592593
20
1.21088224079
11
2.10323683794
21
1.21684717793
0
LINE
5
179
100
AcDbEntity
8
drawing
6
ByLayer
62
256
370
-1
100
AcDbLine
10
2.10323683794
20
1.21684717793
11
2.11158774995
21
1.21326821565
0
LINE
5
17A
100
AcDbEntity
8
drawing
6
ByLayer
62
256
370
-1
100
AcDbLine
10
2.11158774995
20
1.21326821565
11
2.12113164938
21
1.20849626593
0
LINE
5
17B
100
AcDbEntity
8
drawing
6
ByLayer
62
256
370
-1
100
AcDbLine
10
2.12113164938
20
1.20849626593
11
2.12828957396
21
1.19895236649
0
LINE
5
17C
100
AcDbEntity
8
drawing
6
ByLayer
62
256
370
-1
100
AcDbLine
10
2.10442982537
20
1.17747859277
11
2.19151790771
21
1.22400510251
0
LINE
5
17D
100
AcDbEntity
8
drawing
6
ByLayer
62
256
370
-1
100
AcDbLine
10
2.19151790771
20
1.22400510251
11
2.28337793977
21
1.26456667511
0
LINE
5
17E
100
AcDbEntity
8
drawing
6
ByLayer
62
256
370
-1
100
AcDbLine
10
2.28337793977
20
1.26456667511
11
2.37643095926
21
1.31109318485
0
LINE
5
17F
100
AcDbEntity
8
drawing
6
ByLayer
62
256
370
-1
100
AcDbLine
10
2.37643095926
20
1.31109318485
11
2.50527360163
21
1.3659706066
0
LINE
5
180
100
AcDbEntity
8
drawing
6
ByLayer
62
256
370
-1
100
AcDbLine
10
2.50527360163
20
1.3659706066
11
2.61741441999
21
1.41488309121
0
LINE
5
181
100
AcDbEntity
8
drawing
6
ByLayer
62
256
370
-1
100
AcDbLine
10
2.61741441999
20
1.41488309121
11
2.73074822578
21
1.46260258838
0
LINE
5
182
100
AcDbEntity
8
drawing
6
ByLayer
62
256
370
-1
100
AcDbLine
10
2.73074822578
20
1.46260258838
11
2.79039759724
21
1.48646233697
0
LINE
5
183
100
AcDbEntity
8
drawing
6
ByLayer
62
256
370
-1
100
AcDbLine
10
2.79039759724
20
1.48646233697
11
2.86316983044
21
1.51270806041
0
LINE
5
184
100
AcDbEntity
8
drawing
6
ByLayer
62
256
370
-1
100
AcDbLine
10
2.86316983044
20
1.51270806041
11
2.86794178015
21
1.51867299756
0
LINE
5
185
100
AcDbEntity
8
drawing
6
ByLayer
62
256
370
-1
100
AcDbLine
10
2.86794178015
20
1.51867299756
11
2.86316983044
21
1.53418183414
0
LINE
5
186
100
AcDbEntity
8
drawing
6
ByLayer
62
256
370
-1
100
AcDbLine
10
2.86316983044
20
1.53418183414
11
2.88583659159
21
1.54611170843
0
LINE
5
187
100
AcDbEntity
8
drawing
6
ByLayer
62
256
370
-1
100
AcDbLine
10
2.88583659159
20
1.54611170843
11
2.95502986249
21
1.56877846959
0
LINE
5
188
100
AcDbEntity
8
drawing
6
ByLayer
62
256
370
-1
100
AcDbLine
10
2.95502986249
20
1.56877846959
11
2.97292467394
21
1.57474340674
0
LINE
5
189
100
AcDbEntity
8
drawing
6
ByLayer
62
256
370
-1
100
AcDbLine
10
2.97292467394
20
1.57474340674
11
3.00274935967
21
1.58070834389
0
LINE
5
18A
100
AcDbEntity
8
drawing
6
ByLayer
62
256
370
-1
100
AcDbLine
10
3.00274935967
20
1.58070834389
11
3.11131121574
21
1.58786626846
0
LINE
5
18B
100
AcDbEntity
8
drawing
6
ByLayer
62
256
370
-1
100
AcDbLine
10
3.11131121574
20
1.58786626846
11
3.27952244328
21
1.59860315533
0
LINE
5
18C
100
AcDbEntity
8
drawing
6
ByLayer
62
256
370
-1
100
AcDbLine
10
3.27952244328
20
1.59860315533
11
3.43580379652
21
1.60337510504
0
LINE
5
18D
100
AcDbEntity
8
drawing
6
ByLayer
62
256
370
-1
100
AcDbLine
10
3.43580379652
20
1.60337510504
11
3.58612021262
21
1.6057610799
0
LINE
5
18E
100
AcDbEntity
8
drawing
6
ByLayer
62
256
370
-1
100
AcDbLine
10
3.58612021262
20
1.6057610799
11
3.70780493041
21
1.6057610799
0
LINE
5
18F
100
AcDbEntity
8
drawing
6
ByLayer
62
256
370
-1
100
AcDbLine
10
3.70780493041
20
1.6057610799
11
3.77938417617
21
1.60456809247
0
LINE
5
190
100
AcDbEntity
8
drawing
6
ByLayer
62
256
370
-1
100
AcDbLine
10
3.77938417617
20
1.60456809247
11
3.84977043451
21
1.60098913018
0
LINE
5
191
100
AcDbEntity
8
drawing
6
ByLayer
62
256
370
-1
100
AcDbLine
10
3.84977043451
20
1.60098913018
11
3.94998137857
21
1.59860315533
0
LINE
5
192
100
AcDbEntity
8
drawing
6
ByLayer
62
256
370
-1
100
AcDbLine
10
3.94998137857
20
1.59860315533
11
3.99650788832
21
1.59383120561
0
LINE
5
193
100
AcDbEntity
8
drawing
6
ByLayer
62
256
370
-1
100
AcDbLine
10
3.99650788832
20
1.59383120561
11
4.03826244834
21
1.58667328103
0
LINE
5
194
100
AcDbEntity
8
drawing
6
ByLayer
62
256
370
-1
100
AcDbLine
10
4.03826244834
20
1.58667328103
11
4.07285908379
21
1.57832236903
0
LINE
5
195
100
AcDbEntity
8
drawing
6
ByLayer
62
256
370
-1
100
AcDbLine
10
4.07285908379
20
1.57832236903
11
4.08240298323
21
1.57235743188
0
LINE
5
196
100
AcDbEntity
8
drawing
6
ByLayer
62
256
370
-1
100
AcDbLine
10
4.08240298323
20
1.57235743188
11
4.08598194552
21
1.55923457016
0
LINE
5
197
100
AcDbEntity
8
drawing
6
ByLayer
62
256
370
-1
100
AcDbLine
10
4.08598194552
20
1.55923457016
11
4.0895609078
21
1.55326963301
0
LINE
5
198
100
AcDbEntity
8
drawing
6
ByLayer
62
256
370
-1
100
AcDbLine
10
4.0895609078
20
1.55326963301
11
4.10626273182
21
1.54372573358
0
LINE
5
199
100
AcDbEntity
8
drawing
6
ByLayer
62
256
370
-1
100
AcDbLine
10
4.10626273182
20
1.54372573358
11
4.11938559354
21
1.53895378386
0
LINE
5
19A
100
AcDbEntity
8
drawing
6
ByLayer
62
256
370
-1
100
AcDbLine
10
4.11938559354
20
1.53895378386
11
4.32577241882
21
1.53418183414
0
LINE
5
19B
100
AcDbEntity
8
drawing
6
ByLayer
62
256
370
-1
100
AcDbLine
10
4.32577241882
20
1.53418183414
11
4.33173735596
21
1.52940988442
0
LINE
5
19C
100
AcDbEntity
8
drawing
6
ByLayer
62
256
370
-1
100
AcDbLine
10
4.33173735596
20
1.52940988442
11
4.35082515483
21
1.50674312327
0
LINE
5
19D
100
AcDbEntity
8
drawing
6
ByLayer
62
256
370
-1
100
AcDbLine
10
4.35082515483
20
1.50674312327
11
4.59180861556
21
1.48288337468
0
LINE
5
19E
100
AcDbEntity
8
drawing
6
ByLayer
62
256
370
-1
100
AcDbLine
10
4.59180861556
20
1.48288337468
11
4.62282628872
21
1.45305868895
0
LINE
5
19F
100
AcDbEntity
8
drawing
6
ByLayer
62
256
370
-1
100
AcDbLine
10
4.62282628872
20
1.45305868895
11
4.8494939003
21
1.43635686493
0
LINE
5
1A0
100
AcDbEntity
8
drawing
6
ByLayer
62
256
370
-1
100
AcDbLine
10
4.8494939003
20
1.43635686493
11
4.88409053575
21
1.39937425463
0
LINE
5
1A1
100
AcDbEntity
8
drawing
6
ByLayer
62
256
370
-1
100
AcDbLine
10
4.88409053575
20
1.39937425463
11
5.10240723532
21
1.38267243061
0
LINE
5
1A2
100
AcDbEntity
8
drawing
6
ByLayer
62
256
370
-1
100
AcDbLine
10
5.10240723532
20
1.38267243061
11
5.12149503419
21
1.34807579516
0
LINE
5
1A3
100
AcDbEntity
8
drawing
6
ByLayer
62
256
370
-1
100
AcDbLine
10
5.12149503419
20
1.34807579516
11
5.33384679661
21
1.31825110943
0
LINE
5
1A4
100
AcDbEntity
8
drawing
6
ByLayer
62
256
370
-1
100
AcDbLine
10
5.33384679661
20
1.31825110943
11
5.35174160805
21
1.28365447398
0
LINE
5
1A5
100
AcDbEntity
8
drawing
6
ByLayer
62
256
370
-1
100
AcDbLine
10
5.35174160805
20
1.28365447398
11
5.51995283559
21
1.2359349768
0
LINE
5
1A6
100
AcDbEntity
8
drawing
6
ByLayer
62
256
370
-1
100
AcDbLine
10
5.51995283559
20
1.2359349768
11
5.58795311907
21
1.21684717793
0
LINE
5
1A7
100
AcDbEntity
8
drawing
6
ByLayer
62
256
370
-1
100
AcDbLine
10
5.58795311907
20
1.21684717793
11
5.64402352825
21
1.19537340421
0
LINE
5
1A8
100
AcDbEntity
8
drawing
6
ByLayer
62
256
370
-1
100
AcDbLine
10
5.64402352825
20
1.19537340421
11
5.65356742768
21
1.18940846706
0
LINE
5
1A9
100
AcDbEntity
8
drawing
6
ByLayer
62
256
370
-1
100
AcDbLine
10
5.65356742768
20
1.18940846706
11
5.6583393774
21
1.17032066819
0
LINE
5
1AA
100
AcDbEntity
8
drawing
6
ByLayer
62
256
370
-1
100
AcDbLine
10
5.6583393774
20
1.17032066819
11
5.66072535226
21
1.15361884418
0
LINE
5
1AB
100
AcDbEntity
8
drawing
6
ByLayer
62
256
370
-1
100
AcDbLine
10
5.66072535226
20
1.15361884418
11
5.66549730197
21
1.09993440986
0
LINE
5
1AC
100
AcDbEntity
8
drawing
6
ByLayer
62
256
370
-1
100
AcDbLine
10
5.66549730197
20
1.09993440986
11
5.67742717627
21
1.03312711382
0
LINE
5
1AD
100
AcDbEntity
8
drawing
6
ByLayer
62
256
370
-1
100
AcDbLine
10
5.67742717627
20
1.03312711382
11
5.68100613855
21
0.993758528647
0
LINE
5
1AE
100
AcDbEntity
8
drawing
6
ByLayer
62
256
370
-1
100
AcDbLine
10
5.68100613855
20
0.993758528647
11
5.68458510084
21
0.938881106897
0
LINE
5
1AF
100
AcDbEntity
8
drawing
6
ByLayer
62
256
370
-1
100
AcDbLine
10
5.68458510084
20
0.938881106897
11
5.68577808827
21
0.89712654687
0
LINE
5
1B0
100
AcDbEntity
8
drawing
6
ByLayer
62
256
370
-1
100
AcDbLine
10
5.68577808827
20
0.89712654687
11
5.68577808827
21
0.889968622294
0
LINE
5
1B1
100
AcDbEntity
8
drawing
6
ByLayer
62
256
370
-1
100
AcDbLine
10
5.68577808827
20
0.889968622294
11
5.71798874886
21
0.858950949131
0
LINE
5
1B2
100
AcDbEntity
8
drawing
6
ByLayer
62
256
370
-1
100
AcDbLine
10
5.71798874886
20
0.858950949131
11
5.72395368601
21
0.84105613769
0
LINE
5
1B3
100
AcDbEntity
8
drawing
6
ByLayer
62
256
370
-1
100
AcDbLine
10
5.72395368601
20
0.84105613769
11
5.7358835603
21
0.826740288538
0
LINE
5
1B4
100
AcDbEntity
8
drawing
6
ByLayer
62
256
370
-1
100
AcDbLine
10
5.7358835603
20
0.826740288538
11
5.73469057288
21
0.813617426815
0
LINE
5
1B5
100
AcDbEntity
8
drawing
6
ByLayer
62
256
370
-1
100
AcDbLine
10
5.73469057288
20
0.813617426815
11
5.7275326483
21
0.800494565092
0
LINE
5
1B6
100
AcDbEntity
8
drawing
6
ByLayer
62
256
370
-1
100
AcDbLine
10
5.7275326483
20
0.800494565092
11
5.72156771115
21
0.752775067919
0
LINE
5
1B7
100
AcDbEntity
8
drawing
6
ByLayer
62
256
370
-1
100
AcDbLine
10
5.72156771115
20
0.752775067919
11
5.72037472372
21
0.715792457609
0
LINE
5
1B8
100
AcDbEntity
8
drawing
6
ByLayer
62
256
370
-1
100
AcDbLine
10
5.72037472372
20
0.715792457609
11
5.71798874886
21
0.693125696451
0
LINE
5
1B9
100
AcDbEntity
8
drawing
6
ByLayer
62
256
370
-1
100
AcDbLine
10
5.71798874886
20
0.693125696451
11
5.71202381172
21
0.681195822158
0
LINE
5
1BA
100
AcDbEntity
8
drawing
6
ByLayer
62
256
370
-1
100
AcDbLine
10
5.71202381172
20
0.681195822158
11
5.67981315113
21
0.645406199277
0
LINE
5
1BB
100
AcDbEntity
8
drawing
6
ByLayer
62
256
370
-1
100
AcDbLine
10
5.67981315113
20
0.645406199277
11
5.6786201637
21
0.63944126213
0
LINE
5
1BC
100
AcDbEntity
8
drawing
6
ByLayer
62
256
370
-1
100
AcDbLine
10
5.6786201637
20
0.63944126213
11
5.6786201637
21
0.628704375266
0
LINE
5
1BD
100
AcDbEntity
8
drawing
6
ByLayer
62
256
370
-1
100
AcDbLine
10
5.6786201637
20
0.628704375266
11
5.68219912598
21
0.620353463261
0
LINE
5
1BE
100
AcDbEntity
8
drawing
6
ByLayer
62
256
370
-1
100
AcDbLine
10
5.68219912598
20
0.620353463261
11
5.70009393742
21
0.619160475832
0
LINE
5
1BF
100
AcDbEntity
8
drawing
6
ByLayer
62
256
370
-1
100
AcDbLine
10
5.70009393742
20
0.619160475832
11
5.70367289971
21
0.615581513544
0
LINE
5
1C0
100
AcDbEntity
8
drawing
6
ByLayer
62
256
370
-1
100
AcDbLine
10
5.70367289971
20
0.615581513544
11
5.70367289971
21
0.58575682781
0
LINE
5
1C1
100
AcDbEntity
8
drawing
6
ByLayer
62
256
370
-1
100
AcDbLine
10
5.70367289971
20
0.58575682781
11
5.6869710757
21
0.553546167217
0
LINE
5
1C2
100
AcDbEntity
8
drawing
6
ByLayer
62
256
370
-1
100
AcDbLine
10
5.6869710757
20
0.553546167217
11
5.67742717627
21
0.52968641863
0
LINE
5
1C3
100
AcDbEntity
8
drawing
6
ByLayer
62
256
370
-1
100
AcDbLine
10
5.67742717627
20
0.52968641863
11
5.66788327683
21
0.526107456342
0
LINE
5
1C4
100
AcDbEntity
8
drawing
6
ByLayer
62
256
370
-1
100
AcDbLine
10
5.66788327683
20
0.526107456342
11
5.63447962881
21
0.528493431201
0
LINE
5
1C5
100
AcDbEntity
8
drawing
6
ByLayer
62
256
370
-1
100
AcDbLine
10
5.63447962881
20
0.528493431201
11
5.62732170423
21
0.524914468913
0
LINE
5
1C6
100
AcDbEntity
8
drawing
6
ByLayer
62
256
370
-1
100
AcDbLine
10
5.62732170423
20
0.524914468913
11
5.58198818192
21
0.490317833462
0
LINE
5
1C7
100
AcDbEntity
8
drawing
6
ByLayer
62
256
370
-1
100
AcDbLine
10
5.58198818192
20
0.490317833462
11
5.49370711215
21
0.450949248294
0
LINE
5
1C8
100
AcDbEntity
8
drawing
6
ByLayer
62
256
370
-1
100
AcDbLine
10
5.49370711215
20
0.450949248294
11
5.38275928122
21
0.40203676369
0
LINE
5
1C9
100
AcDbEntity
8
drawing
6
ByLayer
62
256
370
-1
100
AcDbLine
10
5.38275928122
20
0.40203676369
11
5.30521509831
21
0.372212077957
0
LINE
5
1CA
100
AcDbEntity
8
drawing
6
ByLayer
62
256
370
-1
100
AcDbLine
10
5.30521509831
20
0.372212077957
11
5.22886390283
21
0.344773367082
0
LINE
5
1CB
100
AcDbEntity
8
drawing
6
ByLayer
62
256
370
-1
100
AcDbLine
10
5.22886390283
20
0.344773367082
11
5.1871093428
21
0.332843492788
0
LINE
5
1CC
100
AcDbEntity
8
drawing
6
ByLayer
62
256
370
-1
100
AcDbLine
10
5.1871093428
20
0.332843492788
11
5.16205660679
21
0.324492580783
0
LINE
5
1CD
100
AcDbEntity
8
drawing
6
ByLayer
62
256
370
-1
100
AcDbLine
10
5.16205660679
20
0.324492580783
11
5.12865295877
21
0.318527643636
0
LINE
5
1CE
100
AcDbEntity
8
drawing
6
ByLayer
62
256
370
-1
100
AcDbLine
10
5.12865295877
20
0.318527643636
11
4.92823107064
21
0.282738020755
0
LINE
5
1CF
100
AcDbEntity
8
drawing
6
ByLayer
62
256
370
-1
100
AcDbLine
10
0.337391757362
20
0.734432886192
11
1.01217527209
21
0.751209271918
0
LINE
5
1D0
100
AcDbEntity
8
drawing
6
ByLayer
62
256
370
-1
100
AcDbLine
10
1.01217527209
20
0.751209271918
11
1.03074113896
21
0.777827803935
0
LINE
5
1D1
100
AcDbEntity
8
drawing
6
ByLayer
62
256
370
-1
100
AcDbLine
10
1.03074113896
20
0.777827803935
11
1.02596918924
21
0.784985728511
0
LINE
5
1D2
100
AcDbEntity
8
drawing
6
ByLayer
62
256
370
-1
100
AcDbLine
10
1.02596918924
20
0.784985728511
11
0.351931291658
21
0.767090917071
0
LINE
5
1D3
100
AcDbEntity
8
0
6
ByLayer
62
256
370
-1
100
AcDbLine
10
3.875
20
1.5
11
2.875
21
1.5
0
LINE
5
1D4
100
AcDbEntity
8
0
6
ByLayer
62
256
370
-1
100
AcDbLine
10
2.875
20
1.5
11
2.875
21
1
0
LINE
5
1D5
100
AcDbEntity
8
0
6
ByLayer
62
256
370
-1
100
AcDbLine
10
2.875
20
1
11
3.875
21
1
0
DIMENSION
5
1D6
100
AcDbEntity
8
dimensions
6
ByLayer
62
256
370
-1
100
AcDbDimension
2
*D4
10
3.8125
20
1.625
30
0
11
3.66715558146
21
1.76056162114
31
0
70
36
71
5
72
0
3
Standard
53
0
210
0
220
0
230
1
100
AcDbRadialDimension
15
3.79852457514
25
1.63198771243
35
0
40
0
0
CIRCLE
5
1D7
100
AcDbEntity
8
0
6
ByLayer
62
256
370
-1
100
AcDbCircle
10
2.8125
20
1.625
40
0.015625
0
CIRCLE
5
1D8
100
AcDbEntity
8
0
6
ByLayer
62
256
370
-1
100
AcDbCircle
10
2.8125
20
0.875
40
0.015625
0
DIMENSION
5
1D9
100
AcDbEntity
8
dimensions
6
ByLayer
62
256
370
-1
100
AcDbDimension
2
*D5
10
3.875
20
1.125
30
0
11
3.375
21
1.18125
31
0
70
32
71
5
72
0
3
Standard
53
0
210
0
220
0
230
1
100
AcDbAlignedDimension
13
2.875
23
1.125
33
0
14
3.875
24
1.125
34
0
100
AcDbRotatedDimension
0
DIMENSION
5
1DA
100
AcDbEntity
8
dimensions
6
ByLayer
62
256
370
-1
100
AcDbDimension
2
*D6
10
3.125
20
1
30
0
11
3.06875
21
1.25
31
0
70
32
71
5
72
0
3
Standard
53
0
210
0
220
0
230
1
100
AcDbAlignedDimension
13
3.125
23
1.5
33
0
14
3.125
24
1
34
0
50
90
100
AcDbRotatedDimension
0
DIMENSION
5
1DB
100
AcDbEntity
8
dimensions
6
ByLayer
62
256
370
-1
100
AcDbDimension
2
*D7
10
2.53125
20
1.5
30
0
11
2.475
21
1.5625
31
0
70
32
71
5
72
0
3
Standard
53
0
210
0
220
0
230
1
100
AcDbAlignedDimension
13
2.8125
23
1.625
33
0
14
2.875
24
1.5
34
0
50
90
100
AcDbRotatedDimension
0
DIMENSION
5
1DC
100
AcDbEntity
8
dimensions
6
ByLayer
62
256
370
-1
100
AcDbDimension
2
*D8
10
2.8125
20
1.875
30
0
11
2.84375
21
1.93125
31
0
70
32
71
5
72
0
3
Standard
53
0
210
0
220
0
230
1
100
AcDbAlignedDimension
13
2.875
23
1.5
33
0
14
2.8125
24
1.625
34
0
100
AcDbRotatedDimension
0
LINE
5
1DD
100
AcDbEntity
8
drawing
6
ByLayer
62
256
370
-1
100
AcDbLine
10
2.10920177509
20
1.11568184393
11
2.09488592593
21
1.10518355455
0
LINE
5
1DE
100
AcDbEntity
8
drawing
6
ByLayer
62
256
370
-1
100
AcDbLine
10
2.09488592593
20
1.10518355455
11
1.73889847702
21
1.07846063613
0
LINE
5
1DF
100
AcDbEntity
8
drawing
6
ByLayer
62
256
370
-1
100
AcDbLine
10
1.73889847702
20
1.07846063613
11
1.39722687725
21
1.05173771771
0
LINE
5
1E0
100
AcDbEntity
8
drawing
6
ByLayer
62
256
370
-1
100
AcDbLine
10
1.39722687725
20
1.05173771771
11
1.05460088754
21
1.01833406969
0
LINE
5
1E1
100
AcDbEntity
8
drawing
6
ByLayer
62
256
370
-1
100
AcDbLine
10
1.05460088754
20
1.01833406969
11
0.791189263144
21
0.98493042167
0
LINE
5
1E2
100
AcDbEntity
8
drawing
6
ByLayer
62
256
370
-1
100
AcDbLine
10
0.791189263144
20
0.98493042167
11
0.581223475578
21
0.954389943478
0
LINE
5
1E3
100
AcDbEntity
8
drawing
6
ByLayer
62
256
370
-1
100
AcDbLine
10
0.581223475578
20
0.954389943478
11
0.481966921457
21
0.936256534552
0
LINE
5
1E4
100
AcDbEntity
8
drawing
6
ByLayer
62
256
370
-1
100
AcDbLine
10
0.481966921457
20
0.936256534552
11
0.472423022022
21
0.933393364722
0
LINE
5
1E5
100
AcDbEntity
8
drawing
6
ByLayer
62
256
370
-1
100
AcDbLine
10
0.472423022022
20
0.933393364722
11
0.4609703427
21
0.926712635117
0
LINE
5
1E6
100
AcDbEntity
8
drawing
6
ByLayer
62
256
370
-1
100
AcDbLine
10
0.4609703427
20
0.926712635117
11
0.450472053322
21
0.910488006078
0
LINE
5
1E7
100
AcDbEntity
8
drawing
6
ByLayer
62
256
370
-1
100
AcDbLine
10
0.450472053322
20
0.910488006078
11
0.442836933774
21
0.891400207209
0
LINE
5
1E8
100
AcDbEntity
8
drawing
6
ByLayer
62
256
370
-1
100
AcDbLine
10
0.442836933774
20
0.891400207209
11
0.43615620417
21
0.867540458622
0
LINE
5
1E9
100
AcDbEntity
8
drawing
6
ByLayer
62
256
370
-1
100
AcDbLine
10
0.43615620417
20
0.867540458622
11
0.431384254452
21
0.844635099978
0
LINE
5
1EA
100
AcDbEntity
8
drawing
6
ByLayer
62
256
370
-1
100
AcDbLine
10
0.431384254452
20
0.844635099978
11
0.428521084622
21
0.8341368106
0
LINE
5
1EB
100
AcDbEntity
8
drawing
6
ByLayer
62
256
370
-1
100
AcDbLine
10
0.428521084622
20
0.8341368106
11
0.410387675696
21
0.813140231844
0
LINE
5
1EC
100
AcDbEntity
8
drawing
6
ByLayer
62
256
370
-1
100
AcDbLine
10
0.410387675696
20
0.813140231844
11
0.409433285752
21
0.799778772635
0
LINE
5
1ED
100
AcDbEntity
8
drawing
6
ByLayer
62
256
370
-1
100
AcDbLine
10
0.409433285752
20
0.799778772635
11
0.416114015357
21
0.797869992748
0
LINE
5
1EE
100
AcDbEntity
8
drawing
6
ByLayer
62
256
370
-1
100
AcDbLine
10
0.416114015357
20
0.797869992748
11
1.02787796913
21
0.816957791617
0
LINE
5
1EF
100
AcDbEntity
8
drawing
6
ByLayer
62
256
370
-1
100
AcDbLine
10
1.00401822054
20
0.739652206196
11
0.986839201557
21
0.711020507891
0
LINE
5
1F0
100
AcDbEntity
8
drawing
6
ByLayer
62
256
370
-1
100
AcDbLine
10
0.986839201557
20
0.711020507891
11
0.972523352404
21
0.666164180548
0
LINE
5
1F1
100
AcDbEntity
8
drawing
6
ByLayer
62
256
370
-1
100
AcDbLine
10
0.972523352404
20
0.666164180548
11
0.959161893196
21
0.621307853204
0
LINE
5
1F2
100
AcDbEntity
8
drawing
6
ByLayer
62
256
370
-1
100
AcDbLine
10
0.959161893196
20
0.621307853204
11
0.949617993761
21
0.577405915804
0
LINE
5
1F3
100
AcDbEntity
8
drawing
6
ByLayer
62
256
370
-1
100
AcDbLine
10
0.949617993761
20
0.577405915804
11
0.9438916541
21
0.535412758291
0
LINE
5
1F4
100
AcDbEntity
8
drawing
6
ByLayer
62
256
370
-1
100
AcDbLine
10
0.9438916541
20
0.535412758291
11
0.939119704383
21
0.499145940439
0
LINE
5
1F5
100
AcDbEntity
8
drawing
6
ByLayer
62
256
370
-1
100
AcDbLine
10
0.939119704383
20
0.499145940439
11
0.937210924496
21
0.473377411965
0
LINE
5
1F6
100
AcDbEntity
8
drawing
6
ByLayer
62
256
370
-1
100
AcDbLine
10
0.996383100991
20
0.466696682361
11
1.00115505071
21
0.527777638744
0
LINE
5
1F7
100
AcDbEntity
8
drawing
6
ByLayer
62
256
370
-1
100
AcDbLine
10
1.00115505071
20
0.527777638744
11
1.01356211997
21
0.596493714674
0
LINE
5
1F8
100
AcDbEntity
8
drawing
6
ByLayer
62
256
370
-1
100
AcDbLine
10
1.01356211997
20
0.596493714674
11
1.03074113896
21
0.645167601791
0
LINE
5
1F9
100
AcDbEntity
8
drawing
6
ByLayer
62
256
370
-1
100
AcDbLine
10
1.03074113896
20
0.645167601791
11
1.04792015794
21
0.685251979417
0
LINE
5
1FA
100
AcDbEntity
8
drawing
6
ByLayer
62
256
370
-1
100
AcDbLine
10
1.04792015794
20
0.685251979417
11
1.06796234675
21
0.714838067665
0
LINE
5
1FB
100
AcDbEntity
8
drawing
6
ByLayer
62
256
370
-1
100
AcDbLine
10
1.06796234675
20
0.714838067665
11
1.10041160483
21
0.753968055348
0
LINE
5
1FC
100
AcDbEntity
8
drawing
6
ByLayer
62
256
370
-1
100
AcDbLine
10
1.10041160483
20
0.753968055348
11
1.13667842268
21
0.792143653087
0
LINE
5
1FD
100
AcDbEntity
8
drawing
6
ByLayer
62
256
370
-1
100
AcDbLine
10
1.13667842268
20
0.792143653087
11
1.15862939138
21
0.815049011731
0
LINE
5
1FE
100
AcDbEntity
8
drawing
6
ByLayer
62
256
370
-1
100
AcDbLine
10
1.15862939138
20
0.815049011731
11
1.18153475003
21
0.827456080996
0
LINE
5
1FF
100
AcDbEntity
8
drawing
6
ByLayer
62
256
370
-1
100
AcDbLine
10
1.18153475003
20
0.827456080996
11
1.20825766844
21
0.841771930148
0
LINE
5
200
100
AcDbEntity
8
drawing
6
ByLayer
62
256
370
-1
100
AcDbLine
10
1.25979472539
20
0.863722898848
11
1.30655983262
21
0.881856307774
0
LINE
5
201
100
AcDbEntity
8
drawing
6
ByLayer
62
256
370
-1
100
AcDbLine
10
1.30655983262
20
0.881856307774
11
1.35046177002
21
0.888537037378
0
LINE
5
202
100
AcDbEntity
8
drawing
6
ByLayer
62
256
370
-1
100
AcDbLine
10
1.35046177002
20
0.888537037378
11
1.39531809737
21
0.894263377039
0
LINE
5
203
100
AcDbEntity
8
drawing
6
ByLayer
62
256
370
-1
100
AcDbLine
10
1.39531809737
20
0.894263377039
11
1.4420832046
21
0.895217766983
0
LINE
5
204
100
AcDbEntity
8
drawing
6
ByLayer
62
256
370
-1
100
AcDbLine
10
1.4420832046
20
0.895217766983
11
1.49839221126
21
0.891400207209
0
LINE
5
205
100
AcDbEntity
8
drawing
6
ByLayer
62
256
370
-1
100
AcDbLine
10
1.49839221126
20
0.891400207209
11
1.5518380481
21
0.882810697717
0
LINE
5
206
100
AcDbEntity
8
drawing
6
ByLayer
62
256
370
-1
100
AcDbLine
10
1.5518380481
20
0.882810697717
11
1.5957399855
21
0.868494848565
0
LINE
5
207
100
AcDbEntity
8
drawing
6
ByLayer
62
256
370
-1
100
AcDbLine
10
1.5957399855
20
0.868494848565
11
1.62914363352
21
0.85322460947
0
LINE
5
208
100
AcDbEntity
8
drawing
6
ByLayer
62
256
370
-1
100
AcDbLine
10
1.62914363352
20
0.85322460947
11
1.67590874075
21
0.825547301109
0
LINE
5
209
100
AcDbEntity
8
drawing
6
ByLayer
62
256
370
-1
100
AcDbLine
10
1.67590874075
20
0.825547301109
11
1.7121755586
21
0.799778772635
0
LINE
5
20A
100
AcDbEntity
8
drawing
6
ByLayer
62
256
370
-1
100
AcDbLine
10
1.7121755586
20
0.799778772635
11
1.74271603679
21
0.769238294444
0
LINE
5
20B
100
AcDbEntity
8
drawing
6
ByLayer
62
256
370
-1
100
AcDbLine
10
1.74271603679
20
0.769238294444
11
1.77230212504
21
0.735834646422
0
LINE
5
20C
100
AcDbEntity
8
drawing
6
ByLayer
62
256
370
-1
100
AcDbLine
10
1.7780284647
20
0.732971476591
11
1.80570577306
21
0.690023929135
0
LINE
5
20D
100
AcDbEntity
8
drawing
6
ByLayer
62
256
370
-1
100
AcDbLine
10
1.80570577306
20
0.690023929135
11
1.83242869148
21
0.642304431961
0
LINE
5
20E
100
AcDbEntity
8
drawing
6
ByLayer
62
256
370
-1
100
AcDbLine
10
1.83242869148
20
0.642304431961
11
1.84960771046
21
0.598402494561
0
LINE
5
20F
100
AcDbEntity
8
drawing
6
ByLayer
62
256
370
-1
100
AcDbLine
10
1.84960771046
20
0.598402494561
11
1.86106038978
21
0.564998846539
0
LINE
5
210
100
AcDbEntity
8
drawing
6
ByLayer
62
256
370
-1
100
AcDbLine
10
1.86106038978
20
0.564998846539
11
1.87155867916
21
0.521096909139
0
LINE
5
211
100
AcDbEntity
8
drawing
6
ByLayer
62
256
370
-1
100
AcDbLine
10
1.87155867916
20
0.521096909139
11
1.88205696854
21
0.459061562813
0
LINE
5
212
100
AcDbEntity
8
drawing
6
ByLayer
62
256
370
-1
100
AcDbLine
10
1.88205696854
20
0.459061562813
11
1.88682891826
21
0.409433285752
0
LINE
5
213
100
AcDbEntity
8
drawing
6
ByLayer
62
256
370
-1
100
AcDbLine
10
1.88682891826
20
0.409433285752
11
1.89255525792
21
0.359805008691
0
LINE
5
214
100
AcDbEntity
8
drawing
6
ByLayer
62
256
370
-1
100
AcDbLine
10
1.89255525792
20
0.359805008691
11
1.88969208809
21
0.325446970726
0
LINE
5
215
100
AcDbEntity
8
drawing
6
ByLayer
62
256
370
-1
100
AcDbLine
10
1.88969208809
20
0.325446970726
11
1.88969208809
21
0.295860882478
0
LINE
5
216
100
AcDbEntity
8
drawing
6
ByLayer
62
256
370
-1
100
AcDbLine
10
1.79807065351
20
0.852842853492
11
1.86525970553
21
0.852842853492
0
LINE
5
217
100
AcDbEntity
8
drawing
6
ByLayer
62
256
370
-1
100
AcDbLine
10
1.86525970553
20
0.852842853492
11
1.93779334124
21
0.855133389357
0
LINE
5
218
100
AcDbEntity
8
drawing
6
ByLayer
62
256
370
-1
100
AcDbLine
10
1.93779334124
20
0.855133389357
11
2.01414453672
21
0.855133389357
0
LINE
5
219
100
AcDbEntity
8
drawing
6
ByLayer
62
256
370
-1
100
AcDbLine
10
2.01414453672
20
0.855133389357
11
2.0836241246
21
0.854369877402
0
LINE
5
21A
100
AcDbEntity
8
drawing
6
ByLayer
62
256
370
-1
100
AcDbLine
10
2.0836241246
20
0.854369877402
11
2.14623210489
21
0.855133389357
0
LINE
5
21B
100
AcDbEntity
8
drawing
6
ByLayer
62
256
370
-1
100
AcDbLine
10
2.14623210489
20
0.855133389357
11
2.19509687
21
0.855896901311
0
LINE
5
21C
100
AcDbEntity
8
drawing
6
ByLayer
62
256
370
-1
100
AcDbLine
10
1.8219304021
20
0.7682839045
11
1.84579015069
21
0.737743426309
0
LINE
5
21D
100
AcDbEntity
8
drawing
6
ByLayer
62
256
370
-1
100
AcDbLine
10
1.84579015069
20
0.737743426309
11
1.87155867916
21
0.686206369361
0
LINE
5
21E
100
AcDbEntity
8
drawing
6
ByLayer
62
256
370
-1
100
AcDbLine
10
1.87155867916
20
0.686206369361
11
1.88873769814
21
0.637532482244
0
LINE
5
21F
100
AcDbEntity
8
drawing
6
ByLayer
62
256
370
-1
100
AcDbLine
10
1.88873769814
20
0.637532482244
11
1.89923598752
21
0.5926761549
0
LINE
5
220
100
AcDbEntity
8
drawing
6
ByLayer
62
256
370
-1
100
AcDbLine
10
1.89923598752
20
0.5926761549
11
1.90782549701
21
0.553546167217
0
LINE
5
221
100
AcDbEntity
8
drawing
6
ByLayer
62
256
370
-1
100
AcDbLine
10
1.90782549701
20
0.553546167217
11
1.91164305679
21
0.514416179535
0
LINE
5
222
100
AcDbEntity
8
drawing
6
ByLayer
62
256
370
-1
100
AcDbLine
10
1.91164305679
20
0.514416179535
11
1.92405012605
21
0.489602041004
0
LINE
5
223
100
AcDbEntity
8
drawing
6
ByLayer
62
256
370
-1
100
AcDbLine
10
1.92405012605
20
0.489602041004
11
1.9383659752
21
0.48005814157
0
LINE
5
224
100
AcDbEntity
8
drawing
6
ByLayer
62
256
370
-1
100
AcDbLine
10
1.9383659752
20
0.48005814157
11
1.95459060424
21
0.474331801909
0
LINE
5
225
100
AcDbEntity
8
drawing
6
ByLayer
62
256
370
-1
100
AcDbLine
10
0.553546167217
20
0.977295302122
11
0.555836703082
21
0.784890289517
0
LINE
5
226
100
AcDbEntity
8
drawing
6
ByLayer
62
256
370
-1
100
AcDbLine
10
0.555836703082
20
0.774964634104
11
0.548201583534
21
0.765802490647
0
LINE
5
227
100
AcDbEntity
8
drawing
6
ByLayer
62
256
370
-1
100
AcDbLine
10
0.548201583534
20
0.765802490647
11
0.444363957684
21
0.759694395009
0
LINE
5
228
100
AcDbEntity
8
drawing
6
ByLayer
62
256
370
-1
100
AcDbLine
10
0.444363957684
20
0.759694395009
11
0.442836933774
21
0.750532251551
0
LINE
5
229
100
AcDbEntity
8
drawing
6
ByLayer
62
256
370
-1
100
AcDbLine
10
0.442836933774
20
0.750532251551
11
0.371066810024
21
0.749005227642
0
LINE
5
22A
100
AcDbEntity
8
drawing
6
ByLayer
62
256
370
-1
100
AcDbLine
10
0.371066810024
20
0.749005227642
11
0.361904666567
21
0.741370108094
0
LINE
5
22B
100
AcDbEntity
8
drawing
6
ByLayer
62
256
370
-1
100
AcDbLine
10
0.361904666567
20
0.741370108094
11
0.350451987245
21
0.741370108094
0
LINE
5
22C
100
AcDbEntity
8
drawing
6
ByLayer
62
256
370
-1
100
AcDbLine
10
0.350451987245
20
0.741370108094
11
0.339762819878
21
0.73907957223
0
LINE
5
22D
100
AcDbEntity
8
drawing
6
ByLayer
62
256
370
-1
100
AcDbLine
10
0.339762819878
20
0.73907957223
11
0.326019604692
21
0.740606596139
0
LINE
5
22E
100
AcDbEntity
8
drawing
6
ByLayer
62
256
370
-1
100
AcDbLine
10
0.326019604692
20
0.740606596139
11
0.321438532964
21
0.749005227642
0
LINE
5
22F
100
AcDbEntity
8
drawing
6
ByLayer
62
256
370
-1
100
AcDbLine
10
0.558890750901
20
0.767329514557
11
0.552782655263
21
0.750532251551
0
LINE
5
230
100
AcDbEntity
8
drawing
6
ByLayer
62
256
370
-1
100
AcDbLine
10
0.552782655263
20
0.750532251551
11
0.557363726991
21
0.731444452682
0
LINE
5
231
100
AcDbEntity
8
drawing
6
ByLayer
62
256
370
-1
100
AcDbLine
10
0.557363726991
20
0.731444452682
11
0.559654262856
21
0.611573075781
0
LINE
5
232
100
AcDbEntity
8
drawing
6
ByLayer
62
256
370
-1
100
AcDbLine
10
0.559654262856
20
0.611573075781
11
0.56194479872
21
0.602410932324
0
LINE
5
233
100
AcDbEntity
8
drawing
6
ByLayer
62
256
370
-1
100
AcDbLine
10
0.56194479872
20
0.602410932324
11
0.564235334584
21
0.590194741047
0
LINE
5
234
100
AcDbEntity
8
drawing
6
ByLayer
62
256
370
-1
100
AcDbLine
10
0.564235334584
20
0.590194741047
11
0.564235334584
21
0.569579918268
0
LINE
5
235
100
AcDbEntity
8
drawing
6
ByLayer
62
256
370
-1
100
AcDbLine
10
0.564235334584
20
0.569579918268
11
0.56194479872
21
0.559654262856
0
LINE
5
236
100
AcDbEntity
8
drawing
6
ByLayer
62
256
370
-1
100
AcDbLine
10
0.56194479872
20
0.559654262856
11
0.562708310675
21
0.554309679172
0
LINE
5
237
100
AcDbEntity
8
drawing
6
ByLayer
62
256
370
-1
100
AcDbLine
10
0.562708310675
20
0.554309679172
11
0.56041777481
21
0.545147535715
0
LINE
5
238
100
AcDbEntity
8
drawing
6
ByLayer
62
256
370
-1
100
AcDbLine
10
0.56041777481
20
0.545147535715
11
0.551255631353
21
0.543620511805
0
LINE
5
239
100
AcDbEntity
8
drawing
6
ByLayer
62
256
370
-1
100
AcDbLine
10
0.551255631353
20
0.543620511805
11
0.462688244598
21
0.559654262856
0
LINE
5
23A
100
AcDbEntity
8
drawing
6
ByLayer
62
256
370
-1
100
AcDbLine
10
0.462688244598
20
0.559654262856
11
0.432911278362
21
0.564998846539
0
LINE
5
23B
100
AcDbEntity
8
drawing
6
ByLayer
62
256
370
-1
100
AcDbLine
10
0.432911278362
20
0.564998846539
11
0.416877527311
21
0.564998846539
0
LINE
5
23C
100
AcDbEntity
8
drawing
6
ByLayer
62
256
370
-1
100
AcDbLine
10
0.416877527311
20
0.564998846539
11
0.413823479492
21
0.559654262856
0
LINE
5
23D
100
AcDbEntity
8
drawing
6
ByLayer
62
256
370
-1
100
AcDbLine
10
0.413823479492
20
0.559654262856
11
0.425276158814
21
0.555073191127
0
LINE
5
23E
100
AcDbEntity
8
drawing
6
ByLayer
62
256
370
-1
100
AcDbLine
10
0.425276158814
20
0.555073191127
11
0.520715153162
21
0.52835027271
0
LINE
5
23F
100
AcDbEntity
8
drawing
6
ByLayer
62
256
370
-1
100
AcDbLine
10
0.923849465287
20
0.475286191852
11
0.909533616135
21
0.477194971739
0
LINE
5
240
100
AcDbEntity
8
drawing
6
ByLayer
62
256
370
-1
100
AcDbLine
10
0.909533616135
20
0.477194971739
11
0.905716056361
21
0.483875701344
0
LINE
5
241
100
AcDbEntity
8
drawing
6
ByLayer
62
256
370
-1
100
AcDbLine
10
0.905716056361
20
0.483875701344
11
0.571679576144
21
0.544956657726
0
LINE
5
242
100
AcDbEntity
8
drawing
6
ByLayer
62
256
370
-1
100
AcDbLine
10
0.571679576144
20
0.544956657726
11
0.56041777481
21
0.545147535715
0
LINE
5
243
100
AcDbEntity
8
drawing
6
ByLayer
62
256
370
-1
100
AcDbLine
10
0.56041777481
20
0.545147535715
11
0.558318116935
21
0.527777638744
0
LINE
5
244
100
AcDbEntity
8
drawing
6
ByLayer
62
256
370
-1
100
AcDbLine
10
0.558318116935
20
0.527777638744
11
0.561181286765
21
0.519188129252
0
LINE
5
245
100
AcDbEntity
8
drawing
6
ByLayer
62
256
370
-1
100
AcDbLine
10
0.561181286765
20
0.519188129252
11
0.936256534552
21
0.447608883491
0
LINE
5
246
100
AcDbEntity
8
drawing
6
ByLayer
62
256
370
-1
100
AcDbLine
10
0.936256534552
20
0.447608883491
11
0.934347754665
21
0.422794744961
0
LINE
5
247
100
AcDbEntity
8
drawing
6
ByLayer
62
256
370
-1
100
AcDbLine
10
0.994474321104
20
0.440928153887
11
0.992565541217
21
0.426612304735
0
LINE
5
248
100
AcDbEntity
8
drawing
6
ByLayer
62
256
370
-1
100
AcDbLine
10
0.992565541217
20
0.426612304735
11
0.997337490935
21
0.412296455583
0
LINE
5
249
100
AcDbEntity
8
drawing
6
ByLayer
62
256
370
-1
100
AcDbLine
10
0.997337490935
20
0.412296455583
11
1.04601137805
21
0.410387675696
0
LINE
5
24A
100
AcDbEntity
8
drawing
6
ByLayer
62
256
370
-1
100
AcDbLine
10
0.471468632078
20
0.356941838861
11
0.466696682361
21
0.364576958409
0
LINE
5
24B
100
AcDbEntity
8
drawing
6
ByLayer
62
256
370
-1
100
AcDbLine
10
0.466696682361
20
0.364576958409
11
0.467651072304
21
0.37602963773
0
LINE
5
24C
100
AcDbEntity
8
drawing
6
ByLayer
62
256
370
-1
100
AcDbLine
10
0.467651072304
20
0.37602963773
11
0.48005814157
21
0.37602963773
0
LINE
5
24D
100
AcDbEntity
8
drawing
6
ByLayer
62
256
370
-1
100
AcDbLine
10
0.48005814157
20
0.37602963773
11
0.48578448123
21
0.374120857844
0
LINE
5
24E
100
AcDbEntity
8
drawing
6
ByLayer
62
256
370
-1
100
AcDbLine
10
0.48578448123
20
0.374120857844
11
0.953435553535
21
0.378892807561
0
LINE
5
24F
100
AcDbEntity
8
drawing
6
ByLayer
62
256
370
-1
100
AcDbLine
10
2.12471061167
20
1.10470635958
11
2.14379841054
21
1.09874142243
0
LINE
5
250
100
AcDbEntity
8
drawing
6
ByLayer
62
256
370
-1
100
AcDbLine
10
2.14379841054
20
1.09874142243
11
2.16288620941
21
1.01403931495
0
LINE
5
251
100
AcDbEntity
8
drawing
6
ByLayer
62
256
370
-1
100
AcDbLine
10
2.16288620941
20
1.01403931495
11
2.19390388257
21
0.907863433734
0
LINE
5
252
100
AcDbEntity
8
drawing
6
ByLayer
62
256
370
-1
100
AcDbLine
10
2.19390388257
20
0.907863433734
11
2.20702674429
21
0.866108873707
0
LINE
5
253
100
AcDbEntity
8
drawing
6
ByLayer
62
256
370
-1
100
AcDbLine
10
2.20702674429
20
0.866108873707
11
2.22253558088
21
0.817196389103
0
LINE
5
254
100
AcDbEntity
8
drawing
6
ByLayer
62
256
370
-1
100
AcDbLine
10
2.22253558088
20
0.817196389103
11
2.24758831689
21
0.739652206196
0
LINE
5
255
100
AcDbEntity
8
drawing
6
ByLayer
62
256
370
-1
100
AcDbLine
10
2.24758831689
20
0.739652206196
11
2.28099196491
21
0.653757111283
0
LINE
5
256
100
AcDbEntity
8
drawing
6
ByLayer
62
256
370
-1
100
AcDbLine
10
2.28099196491
20
0.653757111283
11
2.30723768836
21
0.579791890663
0
LINE
5
257
100
AcDbEntity
8
drawing
6
ByLayer
62
256
370
-1
100
AcDbLine
10
2.30723768836
20
0.579791890663
11
2.32871146209
21
0.540423305495
0
LINE
5
258
100
AcDbEntity
8
drawing
6
ByLayer
62
256
370
-1
100
AcDbLine
10
2.32871146209
20
0.540423305495
11
2.34660627353
21
0.501054720326
0
LINE
5
259
100
AcDbEntity
8
drawing
6
ByLayer
62
256
370
-1
100
AcDbLine
10
2.34660627353
20
0.501054720326
11
2.35734316039
21
0.490317833462
0
LINE
5
25A
100
AcDbEntity
8
drawing
6
ByLayer
62
256
370
-1
100
AcDbLine
10
2.35734316039
20
0.490317833462
11
2.37165900954
21
0.480773934027
0
LINE
5
25B
100
AcDbEntity
8
drawing
6
ByLayer
62
256
370
-1
100
AcDbLine
10
2.37165900954
20
0.480773934027
11
2.39671174556
21
0.47600198431
0
LINE
5
25C
100
AcDbEntity
8
drawing
6
ByLayer
62
256
370
-1
100
AcDbLine
10
2.39671174556
20
0.47600198431
11
4.01917464947
21
0.47600198431
0
LINE
5
25D
100
AcDbEntity
8
drawing
6
ByLayer
62
256
370
-1
100
AcDbLine
10
2.30962366322
20
1.13930299503
11
2.35853614782
21
1.17032066819
0
LINE
5
25E
100
AcDbEntity
8
drawing
6
ByLayer
62
256
370
-1
100
AcDbLine
10
2.35853614782
20
1.17032066819
11
2.42534344386
21
1.21207522822
0
LINE
5
25F
100
AcDbEntity
8
drawing
6
ByLayer
62
256
370
-1
100
AcDbLine
10
2.42534344386
20
1.21207522822
11
2.43727331816
21
1.21923315279
0
LINE
5
260
100
AcDbEntity
8
drawing
6
ByLayer
62
256
370
-1
100
AcDbLine
10
2.43727331816
20
1.21923315279
11
2.43965929302
21
1.21804016536
0
LINE
5
261
100
AcDbEntity
8
drawing
6
ByLayer
62
256
370
-1
100
AcDbLine
10
2.43965929302
20
1.21804016536
11
2.48499281533
21
1.24309290138
0
LINE
5
262
100
AcDbEntity
8
drawing
6
ByLayer
62
256
370
-1
100
AcDbLine
10
2.48499281533
20
1.24309290138
11
2.51720347592
21
1.26098771282
0
LINE
5
263
100
AcDbEntity
8
drawing
6
ByLayer
62
256
370
-1
100
AcDbLine
10
2.51720347592
20
1.26098771282
11
2.57565985996
21
1.2884264237
0
LINE
5
264
100
AcDbEntity
8
drawing
6
ByLayer
62
256
370
-1
100
AcDbLine
10
2.57565985996
20
1.2884264237
11
2.63173026914
21
1.31825110943
0
LINE
5
265
100
AcDbEntity
8
drawing
6
ByLayer
62
256
370
-1
100
AcDbLine
10
2.63173026914
20
1.31825110943
11
2.69973055261
21
1.34807579516
0
LINE
5
266
100
AcDbEntity
8
drawing
6
ByLayer
62
256
370
-1
100
AcDbLine
10
2.69973055261
20
1.34807579516
11
2.80352045897
21
1.39579529234
0
LINE
5
267
100
AcDbEntity
8
drawing
6
ByLayer
62
256
370
-1
100
AcDbLine
10
2.80352045897
20
1.39579529234
11
2.90850335275
21
1.43993582722
0
LINE
5
268
100
AcDbEntity
8
drawing
6
ByLayer
62
256
370
-1
100
AcDbLine
10
2.31200963808
20
1.13333805788
11
2.34064133638
21
1.09635544757
0
LINE
5
269
100
AcDbEntity
8
drawing
6
ByLayer
62
256
370
-1
100
AcDbLine
10
2.34064133638
20
1.09635544757
11
2.34779926096
21
1.09158349785
0
LINE
5
26A
100
AcDbEntity
8
drawing
6
ByLayer
62
256
370
-1
100
AcDbLine
10
2.34779926096
20
1.09158349785
11
2.41579954443
21
1.09158349785
0
LINE
5
26B
100
AcDbEntity
8
drawing
6
ByLayer
62
256
370
-1
100
AcDbLine
10
2.41579954443
20
1.09158349785
11
2.46948397875
21
1.09158349785
0
LINE
5
26C
100
AcDbEntity
8
drawing
6
ByLayer
62
256
370
-1
100
AcDbLine
10
2.46948397875
20
1.09158349785
11
2.51123853878
21
1.09516246014
0
LINE
5
26D
100
AcDbEntity
8
drawing
6
ByLayer
62
256
370
-1
100
AcDbLine
10
2.51123853878
20
1.09516246014
11
2.52674737536
21
1.10470635958
0
LINE
5
26E
100
AcDbEntity
8
drawing
6
ByLayer
62
256
370
-1
100
AcDbLine
10
2.52674737536
20
1.10470635958
11
2.55895803595
21
1.25263680082
0
LINE
5
26F
100
AcDbEntity
8
drawing
6
ByLayer
62
256
370
-1
100
AcDbLine
10
2.55895803595
20
1.25263680082
11
2.88941555388
21
1.41607607864
0
LINE
5
270
100
AcDbEntity
8
drawing
6
ByLayer
62
256
370
-1
100
AcDbLine
10
2.52555438793
20
1.2359349768
11
2.50646658906
21
1.12856610816
0
LINE
5
271
100
AcDbEntity
8
drawing
6
ByLayer
62
256
370
-1
100
AcDbLine
10
2.50646658906
20
1.12856610816
11
2.49930866448
21
1.12021519616
0
LINE
5
272
100
AcDbEntity
8
drawing
6
ByLayer
62
256
370
-1
100
AcDbLine
10
2.49930866448
20
1.12021519616
11
2.49334372734
21
1.11902220873
0
LINE
5
273
100
AcDbEntity
8
drawing
6
ByLayer
62
256
370
-1
100
AcDbLine
10
2.49334372734
20
1.11902220873
11
2.3740449844
21
1.11305727158
0
LINE
5
274
100
AcDbEntity
8
drawing
6
ByLayer
62
256
370
-1
100
AcDbLine
10
2.3740449844
20
1.11305727158
11
2.36450108497
21
1.11902220873
0
LINE
5
275
100
AcDbEntity
8
drawing
6
ByLayer
62
256
370
-1
100
AcDbLine
10
2.36450108497
20
1.11902220873
11
2.35495718553
21
1.1464609196
0
LINE
5
276
100
AcDbEntity
8
drawing
6
ByLayer
62
256
370
-1
100
AcDbLine
10
2.38000992155
20
1.15361884418
11
2.49692268963
21
1.21684717793
0
LINE
5
277
100
AcDbEntity
8
drawing
6
ByLayer
62
256
370
-1
100
AcDbLine
10
2.12828957396
20
1.13214507045
11
2.2153776563
21
1.18225054248
0
LINE
5
278
100
AcDbEntity
8
drawing
6
ByLayer
62
256
370
-1
100
AcDbLine
10
2.2153776563
20
1.18225054248
11
2.28337793977
21
1.21923315279
0
LINE
5
279
100
AcDbEntity
8
drawing
6
ByLayer
62
256
370
-1
100
AcDbLine
10
2.28337793977
20
1.21923315279
11
2.3537641981
21
1.25740875053
0
LINE
5
27A
100
AcDbEntity
8
drawing
6
ByLayer
62
256
370
-1
100
AcDbLine
10
2.3537641981
20
1.25740875053
11
2.42772941872
21
1.29558434827
0
LINE
5
27B
100
AcDbEntity
8
drawing
6
ByLayer
62
256
370
-1
100
AcDbLine
10
2.42772941872
20
1.29558434827
11
2.54702816166
21
1.34926878259
0
LINE
5
27C
100
AcDbEntity
8
drawing
6
ByLayer
62
256
370
-1
100
AcDbLine
10
2.54702816166
20
1.34926878259
11
2.68183574117
21
1.41130412892
0
LINE
5
27D
100
AcDbEntity
8
drawing
6
ByLayer
62
256
370
-1
100
AcDbLine
10
2.68183574117
20
1.41130412892
11
2.77608174809
21
1.44947972666
0
LINE
5
27E
100
AcDbEntity
8
drawing
6
ByLayer
62
256
370
-1
100
AcDbLine
10
2.77608174809
20
1.44947972666
11
2.84646800642
21
1.47811142496
0
LINE
5
27F
100
AcDbEntity
8
drawing
6
ByLayer
62
256
370
-1
100
AcDbLine
10
2.84646800642
20
1.47811142496
11
2.88941555388
21
1.49362026154
0
LINE
5
280
100
AcDbEntity
8
drawing
6
ByLayer
62
256
370
-1
100
AcDbLine
10
2.16050023455
20
1.10709233443
11
2.22134259345
21
1.10947830929
0
LINE
5
281
100
AcDbEntity
8
drawing
6
ByLayer
62
256
370
-1
100
AcDbLine
10
2.22134259345
20
1.10947830929
11
2.24878130432
21
1.11186428415
0
LINE
5
282
100
AcDbEntity
8
drawing
6
ByLayer
62
256
370
-1
100
AcDbLine
10
2.24878130432
20
1.11186428415
11
2.29650080149
21
1.08681154814
0
LINE
5
283
100
AcDbEntity
8
drawing
6
ByLayer
62
256
370
-1
100
AcDbLine
10
2.29650080149
20
1.08681154814
11
2.35137822324
21
1.04624997554
0
LINE
5
284
100
AcDbEntity
8
drawing
6
ByLayer
62
256
370
-1
100
AcDbLine
10
2.35137822324
20
1.04624997554
11
2.38478187127
21
1.01761827723
0
LINE
5
285
100
AcDbEntity
8
drawing
6
ByLayer
62
256
370
-1
100
AcDbLine
10
2.38478187127
20
1.01761827723
11
2.40864161985
21
1.00330242808
0
LINE
5
286
100
AcDbEntity
8
drawing
6
ByLayer
62
256
370
-1
100
AcDbLine
10
2.40864161985
20
1.00330242808
11
2.43369435587
21
0.978249692065
0
LINE
5
287
100
AcDbEntity
8
drawing
6
ByLayer
62
256
370
-1
100
AcDbLine
10
2.43369435587
20
0.978249692065
11
2.44920319245
21
0.991372553788
0
LINE
5
288
100
AcDbEntity
8
drawing
6
ByLayer
62
256
370
-1
100
AcDbLine
10
2.414606557
20
1.08800453557
11
2.41102759471
21
1.06653076184
0
LINE
5
289
100
AcDbEntity
8
drawing
6
ByLayer
62
256
370
-1
100
AcDbLine
10
2.41102759471
20
1.06653076184
11
2.414606557
21
1.0486359504
0
LINE
5
28A
100
AcDbEntity
8
drawing
6
ByLayer
62
256
370
-1
100
AcDbLine
10
2.414606557
20
1.0486359504
11
2.42176448158
21
1.02477620181
0
LINE
5
28B
100
AcDbEntity
8
drawing
6
ByLayer
62
256
370
-1
100
AcDbLine
10
2.42176448158
20
1.02477620181
11
2.43727331816
21
1.00210944065
0
LINE
5
28C
100
AcDbEntity
8
drawing
6
ByLayer
62
256
370
-1
100
AcDbLine
10
2.43727331816
20
1.00210944065
11
2.45158916731
21
0.9877935915
0
LINE
5
28D
100
AcDbEntity
8
drawing
6
ByLayer
62
256
370
-1
100
AcDbLine
10
2.45158916731
20
0.9877935915
11
2.47425592847
21
0.985407616641
0
LINE
5
28E
100
AcDbEntity
8
drawing
6
ByLayer
62
256
370
-1
100
AcDbLine
10
2.47425592847
20
0.985407616641
11
2.57446687253
21
0.986600604071
0
LINE
5
28F
100
AcDbEntity
8
drawing
6
ByLayer
62
256
370
-1
100
AcDbLine
10
2.57446687253
20
0.986600604071
11
2.58639674683
21
0.988986578929
0
LINE
5
290
100
AcDbEntity
8
drawing
6
ByLayer
62
256
370
-1
100
AcDbLine
10
2.58639674683
20
0.988986578929
11
2.58878272169
21
1.00091645322
0
LINE
5
291
100
AcDbEntity
8
drawing
6
ByLayer
62
256
370
-1
100
AcDbLine
10
2.58878272169
20
1.00091645322
11
2.64246715601
21
1.16077676876
0
LINE
5
292
100
AcDbEntity
8
drawing
6
ByLayer
62
256
370
-1
100
AcDbLine
10
2.64246715601
20
1.16077676876
11
2.64008118115
21
1.1786715802
0
LINE
5
293
100
AcDbEntity
8
drawing
6
ByLayer
62
256
370
-1
100
AcDbLine
10
2.64008118115
20
1.1786715802
11
2.62934429428
21
1.18463651734
0
LINE
5
294
100
AcDbEntity
8
drawing
6
ByLayer
62
256
370
-1
100
AcDbLine
10
2.62934429428
20
1.18463651734
11
2.60667753313
21
1.18225054248
0
LINE
5
295
100
AcDbEntity
8
drawing
6
ByLayer
62
256
370
-1
100
AcDbLine
10
2.60667753313
20
1.18225054248
11
2.54344919937
21
1.16316274361
0
LINE
5
296
100
AcDbEntity
8
drawing
6
ByLayer
62
256
370
-1
100
AcDbLine
10
2.63650221886
20
1.12975909559
11
2.76773083609
21
1.13453104531
0
LINE
5
297
100
AcDbEntity
8
drawing
6
ByLayer
62
256
370
-1
100
AcDbLine
10
2.78323967267
20
1.1178292213
11
2.76295888637
21
1.17389963048
0
LINE
5
298
100
AcDbEntity
8
drawing
6
ByLayer
62
256
370
-1
100
AcDbLine
10
2.76295888637
20
1.17389963048
11
2.75937992408
21
1.19895236649
0
LINE
5
299
100
AcDbEntity
8
drawing
6
ByLayer
62
256
370
-1
100
AcDbLine
10
2.75937992408
20
1.19895236649
11
2.76176589894
21
1.21088224079
0
LINE
5
29A
100
AcDbEntity
8
drawing
6
ByLayer
62
256
370
-1
100
AcDbLine
10
2.76176589894
20
1.21088224079
11
2.77608174809
21
1.22161912765
0
LINE
5
29B
100
AcDbEntity
8
drawing
6
ByLayer
62
256
370
-1
100
AcDbLine
10
2.77608174809
20
1.22161912765
11
2.78920460982
21
1.21804016536
0
LINE
5
29C
100
AcDbEntity
8
drawing
6
ByLayer
62
256
370
-1
100
AcDbLine
10
2.78920460982
20
1.21804016536
11
2.80113448411
21
1.20849626593
0
LINE
5
29D
100
AcDbEntity
8
drawing
6
ByLayer
62
256
370
-1
100
AcDbLine
10
2.80113448411
20
1.20849626593
11
2.80829240869
21
1.19298742935
0
LINE
5
29E
100
AcDbEntity
8
drawing
6
ByLayer
62
256
370
-1
100
AcDbLine
10
2.80829240869
20
1.19298742935
11
2.82976618241
21
1.11544324644
0
LINE
5
29F
100
AcDbEntity
8
drawing
6
ByLayer
62
256
370
-1
100
AcDbLine
10
2.82976618241
20
1.11544324644
11
2.89776646589
21
0.898319534299
0
LINE
5
2A0
100
AcDbEntity
8
drawing
6
ByLayer
62
256
370
-1
100
AcDbLine
10
2.89776646589
20
0.898319534299
11
2.91327530247
21
0.855371986842
0
LINE
5
2A1
100
AcDbEntity
8
drawing
6
ByLayer
62
256
370
-1
100
AcDbLine
10
2.91327530247
20
0.855371986842
11
2.92162621447
21
0.832705225685
0
LINE
5
2A2
100
AcDbEntity
8
drawing
6
ByLayer
62
256
370
-1
100
AcDbLine
10
2.92162621447
20
0.832705225685
11
2.92639816419
21
0.810038464527
0
LINE
5
2A3
100
AcDbEntity
8
drawing
6
ByLayer
62
256
370
-1
100
AcDbLine
10
2.92639816419
20
0.810038464527
11
2.93236310134
21
0.78737170337
0
LINE
5
2A4
100
AcDbEntity
8
drawing
6
ByLayer
62
256
370
-1
100
AcDbLine
10
2.93236310134
20
0.78737170337
11
2.93355608877
21
0.771862866788
0
LINE
5
2A5
100
AcDbEntity
8
drawing
6
ByLayer
62
256
370
-1
100
AcDbLine
10
2.93355608877
20
0.771862866788
11
2.93117011391
21
0.755161042777
0
LINE
5
2A6
100
AcDbEntity
8
drawing
6
ByLayer
62
256
370
-1
100
AcDbLine
10
2.93117011391
20
0.755161042777
11
2.92401218933
21
0.748003118201
0
LINE
5
2A7
100
AcDbEntity
8
drawing
6
ByLayer
62
256
370
-1
100
AcDbLine
10
2.92401218933
20
0.748003118201
11
2.91088932761
21
0.751582080489
0
LINE
5
2A8
100
AcDbEntity
8
drawing
6
ByLayer
62
256
370
-1
100
AcDbLine
10
2.91088932761
20
0.751582080489
11
2.89776646589
21
0.7682839045
0
LINE
5
2A9
100
AcDbEntity
8
drawing
6
ByLayer
62
256
370
-1
100
AcDbLine
10
2.89776646589
20
0.7682839045
11
2.87509970473
21
0.830319250826
0
LINE
5
2AA
100
AcDbEntity
8
drawing
6
ByLayer
62
256
370
-1
100
AcDbLine
10
2.87509970473
20
0.830319250826
11
2.78681863496
21
1.11186428415
0
LINE
5
2AB
100
AcDbEntity
8
drawing
6
ByLayer
62
256
370
-1
100
AcDbLine
10
2.85267154106
20
1.08323258585
11
2.904208598
21
0.920986295457
0
LINE
5
2AC
100
AcDbEntity
8
drawing
6
ByLayer
62
256
370
-1
100
AcDbLine
10
2.79349936456
20
1.07177990653
11
2.74291669756
21
1.05555527749
0
LINE
5
2AD
100
AcDbEntity
8
drawing
6
ByLayer
62
256
370
-1
100
AcDbLine
10
2.74291669756
20
1.05555527749
11
2.74196230761
21
1.04601137805
0
LINE
5
2AE
100
AcDbEntity
8
drawing
6
ByLayer
62
256
370
-1
100
AcDbLine
10
2.74196230761
20
1.04601137805
11
2.74291669756
21
1.03360430879
0
LINE
5
2AF
100
AcDbEntity
8
drawing
6
ByLayer
62
256
370
-1
100
AcDbLine
10
2.74291669756
20
1.03360430879
11
2.77727473552
21
0.912396785965
0
LINE
5
2B0
100
AcDbEntity
8
drawing
6
ByLayer
62
256
370
-1
100
AcDbLine
10
2.77727473552
20
0.912396785965
11
2.78395546513
21
0.8999897167
0
LINE
5
2B1
100
AcDbEntity
8
drawing
6
ByLayer
62
256
370
-1
100
AcDbLine
10
2.78395546513
20
0.8999897167
11
2.79159058467
21
0.890445817265
0
LINE
5
2B2
100
AcDbEntity
8
drawing
6
ByLayer
62
256
370
-1
100
AcDbLine
10
2.83072057236
20
0.889491427322
11
2.84789959134
21
0.893308987096
0
LINE
5
2B3
100
AcDbEntity
8
drawing
6
ByLayer
62
256
370
-1
100
AcDbLine
10
2.74577986739
20
1.00497261048
11
2.68851647078
21
1.00688139037
0
LINE
5
2B4
100
AcDbEntity
8
drawing
6
ByLayer
62
256
370
-1
100
AcDbLine
10
2.68851647078
20
1.00688139037
11
2.67706379146
21
1.00592700043
0
LINE
5
2B5
100
AcDbEntity
8
drawing
6
ByLayer
62
256
370
-1
100
AcDbLine
10
2.67706379146
20
1.00592700043
11
2.64556892332
21
0.996383100991
0
LINE
5
2B6
100
AcDbEntity
8
drawing
6
ByLayer
62
256
370
-1
100
AcDbLine
10
2.64556892332
20
0.996383100991
11
2.5615826083
21
0.966797012744
0
LINE
5
2B7
100
AcDbEntity
8
drawing
6
ByLayer
62
256
370
-1
100
AcDbLine
10
2.5615826083
20
0.966797012744
11
2.55967382841
21
0.958207503252
0
LINE
5
2B8
100
AcDbEntity
8
drawing
6
ByLayer
62
256
370
-1
100
AcDbLine
10
2.55967382841
20
0.958207503252
11
2.57780723734
21
0.925758245174
0
LINE
5
2B9
100
AcDbEntity
8
drawing
6
ByLayer
62
256
370
-1
100
AcDbLine
10
2.57780723734
20
0.925758245174
11
2.58162479711
21
0.905716056361
0
LINE
5
2BA
100
AcDbEntity
8
drawing
6
ByLayer
62
256
370
-1
100
AcDbLine
10
2.58162479711
20
0.905716056361
11
2.59594064626
21
0.871358018396
0
LINE
5
2BB
100
AcDbEntity
8
drawing
6
ByLayer
62
256
370
-1
100
AcDbLine
10
2.59594064626
20
0.871358018396
11
2.60166698592
21
0.849407049696
0
LINE
5
2BC
100
AcDbEntity
8
drawing
6
ByLayer
62
256
370
-1
100
AcDbLine
10
2.60166698592
20
0.849407049696
11
2.60930210547
21
0.838908760317
0
LINE
5
2BD
100
AcDbEntity
8
drawing
6
ByLayer
62
256
370
-1
100
AcDbLine
10
2.60930210547
20
0.838908760317
11
2.61693722502
21
0.838908760317
0
LINE
5
2BE
100
AcDbEntity
8
drawing
6
ByLayer
62
256
370
-1
100
AcDbLine
10
2.61693722502
20
0.838908760317
11
2.64270575349
21
0.843680710035
0
LINE
5
2BF
100
AcDbEntity
8
drawing
6
ByLayer
62
256
370
-1
100
AcDbLine
10
2.64270575349
20
0.843680710035
11
2.67229184174
21
0.85322460947
0
LINE
5
2C0
100
AcDbEntity
8
drawing
6
ByLayer
62
256
370
-1
100
AcDbLine
10
2.67229184174
20
0.85322460947
11
2.70760426965
21
0.861814118961
0
LINE
5
2C1
100
AcDbEntity
8
drawing
6
ByLayer
62
256
370
-1
100
AcDbLine
10
2.70760426965
20
0.861814118961
11
2.73146401824
21
0.873266798283
0
LINE
5
2C2
100
AcDbEntity
8
drawing
6
ByLayer
62
256
370
-1
100
AcDbLine
10
2.73146401824
20
0.873266798283
11
2.77154839586
21
0.903807276474
0
LINE
5
2C3
100
AcDbEntity
8
drawing
6
ByLayer
62
256
370
-1
100
AcDbLine
10
2.68851647078
20
1.00688139037
11
2.72287450874
21
0.878993137944
0
LINE
5
2C4
100
AcDbEntity
8
drawing
6
ByLayer
62
256
370
-1
100
AcDbLine
10
2.38311168887
20
0.7463329358
11
2.57112650773
21
0.823638521222
0
LINE
5
2C5
100
AcDbEntity
8
drawing
6
ByLayer
62
256
370
-1
100
AcDbLine
10
2.57112650773
20
0.823638521222
11
2.57876162728
21
0.895217766983
0
LINE
5
2C6
100
AcDbEntity
8
drawing
6
ByLayer
62
256
370
-1
100
AcDbLine
10
1.77707407476
20
0.815049011731
11
2.24472514706
21
0.822302375301
0
LINE
5
2C7
100
AcDbEntity
8
drawing
6
ByLayer
62
256
370
-1
100
AcDbLine
10
2.24472514706
20
0.822302375301
11
2.87233197389
21
0.834518566577
0
LINE
5
2C8
100
AcDbEntity
8
drawing
6
ByLayer
62
256
370
-1
100
AcDbLine
10
2.87233197389
20
0.834518566577
11
3.56483731688
21
0.848261781764
0
LINE
5
2C9
100
AcDbEntity
8
drawing
6
ByLayer
62
256
370
-1
100
AcDbLine
10
3.56483731688
20
0.848261781764
11
3.94735680623
21
0.858187437176
0
LINE
5
2CA
100
AcDbEntity
8
drawing
6
ByLayer
62
256
370
-1
100
AcDbLine
10
3.94735680623
20
0.858187437176
11
4.13823479492
21
0.86200499695
0
LINE
5
2CB
100
AcDbEntity
8
drawing
6
ByLayer
62
256
370
-1
100
AcDbLine
10
4.13823479492
20
0.86200499695
11
4.14968747424
21
0.849025293718
0
LINE
5
2CC
100
AcDbEntity
8
drawing
6
ByLayer
62
256
370
-1
100
AcDbLine
10
4.14968747424
20
0.849025293718
11
4.14968747424
21
0.84444422199
0
LINE
5
2CD
100
AcDbEntity
8
drawing
6
ByLayer
62
256
370
-1
100
AcDbLine
10
4.14968747424
20
0.84444422199
11
4.1420523547
21
0.829173982894
0
LINE
5
2CE
100
AcDbEntity
8
drawing
6
ByLayer
62
256
370
-1
100
AcDbLine
10
4.1420523547
20
0.829173982894
11
3.50833743223
21
0.814667255753
0
LINE
5
2CF
100
AcDbEntity
8
drawing
6
ByLayer
62
256
370
-1
100
AcDbLine
10
3.50833743223
20
0.814667255753
11
3.07008157018
21
0.807032136205
0
LINE
5
2D0
100
AcDbEntity
8
drawing
6
ByLayer
62
256
370
-1
100
AcDbLine
10
3.07008157018
20
0.807032136205
11
2.85553471089
21
0.804741600341
0
LINE
5
2D1
100
AcDbEntity
8
drawing
6
ByLayer
62
256
370
-1
100
AcDbLine
10
2.85553471089
20
0.804741600341
11
2.23709002751
21
0.787944337336
0
LINE
5
2D2
100
AcDbEntity
8
drawing
6
ByLayer
62
256
370
-1
100
AcDbLine
10
2.23709002751
20
0.787944337336
11
1.7881449981
21
0.783363265607
0
LINE
5
2D3
100
AcDbEntity
8
drawing
6
ByLayer
62
256
370
-1
100
AcDbLine
10
1.7881449981
20
0.783363265607
11
1.78356392637
21
0.79176189711
0
LINE
5
2D4
100
AcDbEntity
8
drawing
6
ByLayer
62
256
370
-1
100
AcDbLine
10
1.78356392637
20
0.79176189711
11
1.79119904592
21
0.795579456884
0
LINE
5
2D5
100
AcDbEntity
8
drawing
6
ByLayer
62
256
370
-1
100
AcDbLine
10
1.79119904592
20
0.795579456884
11
1.80188821329
21
0.801687552522
0
LINE
5
2D6
100
AcDbEntity
8
drawing
6
ByLayer
62
256
370
-1
100
AcDbLine
10
1.80188821329
20
0.801687552522
11
1.79578011765
21
0.803978088386
0
LINE
5
2D7
100
AcDbEntity
8
drawing
6
ByLayer
62
256
370
-1
100
AcDbLine
10
1.79578011765
20
0.803978088386
11
1.78127339051
21
0.801687552522
0
LINE
5
2D8
100
AcDbEntity
8
drawing
6
ByLayer
62
256
370
-1
100
AcDbLine
10
1.78127339051
20
0.801687552522
11
1.77516529487
21
0.811613207934
0
LINE
5
2D9
100
AcDbEntity
8
drawing
6
ByLayer
62
256
370
-1
100
AcDbLine
10
3.92492864255
20
1.48049739982
11
3.93327955456
21
1.28246148655
0
LINE
5
2DA
100
AcDbEntity
8
drawing
6
ByLayer
62
256
370
-1
100
AcDbLine
10
3.93327955456
20
1.28246148655
11
3.93566552942
21
1.18582950477
0
LINE
5
2DB
100
AcDbEntity
8
drawing
6
ByLayer
62
256
370
-1
100
AcDbLine
10
3.93566552942
20
1.18582950477
11
3.94043747914
21
1.17032066819
0
LINE
5
2DC
100
AcDbEntity
8
drawing
6
ByLayer
62
256
370
-1
100
AcDbLine
10
3.94043747914
20
1.17032066819
11
3.94520942885
21
1.15600481904
0
LINE
5
2DD
100
AcDbEntity
8
drawing
6
ByLayer
62
256
370
-1
100
AcDbLine
10
3.94520942885
20
1.15600481904
11
3.95475332829
21
1.14407494474
0
LINE
5
2DE
100
AcDbEntity
8
drawing
6
ByLayer
62
256
370
-1
100
AcDbLine
10
3.95475332829
20
1.14407494474
11
3.98577100145
21
1.14049598246
0
LINE
5
2DF
100
AcDbEntity
8
drawing
6
ByLayer
62
256
370
-1
100
AcDbLine
10
3.98577100145
20
1.14049598246
11
4.06212219693
21
1.14288195732
0
LINE
5
2E0
100
AcDbEntity
8
drawing
6
ByLayer
62
256
370
-1
100
AcDbLine
10
4.06212219693
20
1.14288195732
11
4.08598194552
21
1.14765390703
0
LINE
5
2E1
100
AcDbEntity
8
drawing
6
ByLayer
62
256
370
-1
100
AcDbLine
10
4.08598194552
20
1.14765390703
11
4.09552584495
21
1.16316274361
0
LINE
5
2E2
100
AcDbEntity
8
drawing
6
ByLayer
62
256
370
-1
100
AcDbLine
10
4.09552584495
20
1.16316274361
11
4.10029779467
21
1.19656639164
0
LINE
5
2E3
100
AcDbEntity
8
drawing
6
ByLayer
62
256
370
-1
100
AcDbLine
10
4.10029779467
20
1.19656639164
11
4.09194688266
21
1.23712796423
0
LINE
5
2E4
100
AcDbEntity
8
drawing
6
ByLayer
62
256
370
-1
100
AcDbLine
10
4.09194688266
20
1.23712796423
11
4.05735024721
21
1.37551450604
0
LINE
5
2E5
100
AcDbEntity
8
drawing
6
ByLayer
62
256
370
-1
100
AcDbLine
10
4.05735024721
20
1.37551450604
11
4.03706946091
21
1.45186570152
0
LINE
5
2E6
100
AcDbEntity
8
drawing
6
ByLayer
62
256
370
-1
100
AcDbLine
10
4.03706946091
20
1.45186570152
11
4.02871854891
21
1.47811142496
0
LINE
5
2E7
100
AcDbEntity
8
drawing
6
ByLayer
62
256
370
-1
100
AcDbLine
10
4.02871854891
20
1.47811142496
11
4.0120167249
21
1.49958519869
0
LINE
5
2E8
100
AcDbEntity
8
drawing
6
ByLayer
62
256
370
-1
100
AcDbLine
10
4.0120167249
20
1.49958519869
11
3.99054295117
21
1.49958519869
0
LINE
5
2E9
100
AcDbEntity
8
drawing
6
ByLayer
62
256
370
-1
100
AcDbLine
10
3.99054295117
20
1.49958519869
11
3.95713930315
21
1.50077818612
0
LINE
5
2EA
100
AcDbEntity
8
drawing
6
ByLayer
62
256
370
-1
100
AcDbLine
10
3.95713930315
20
1.50077818612
11
3.9308935797
21
1.49958519869
0
LINE
5
2EB
100
AcDbEntity
8
drawing
6
ByLayer
62
256
370
-1
100
AcDbLine
10
3.9308935797
20
1.49958519869
11
3.92492864255
21
1.49242727411
0
LINE
5
2EC
100
AcDbEntity
8
drawing
6
ByLayer
62
256
370
-1
100
AcDbLine
10
3.92492864255
20
1.49242727411
11
3.9225426677
21
1.48169038725
0
LINE
5
2ED
100
AcDbEntity
8
drawing
6
ByLayer
62
256
370
-1
100
AcDbLine
10
3.96310424029
20
1.45783063866
11
3.97503411459
21
1.18582950477
0
LINE
5
2EE
100
AcDbEntity
8
drawing
6
ByLayer
62
256
370
-1
100
AcDbLine
10
3.97503411459
20
1.18582950477
11
3.98815697631
21
1.1786715802
0
LINE
5
2EF
100
AcDbEntity
8
drawing
6
ByLayer
62
256
370
-1
100
AcDbLine
10
3.98815697631
20
1.1786715802
11
4.02275361176
21
1.17509261791
0
LINE
5
2F0
100
AcDbEntity
8
drawing
6
ByLayer
62
256
370
-1
100
AcDbLine
10
4.02275361176
20
1.17509261791
11
4.04780634778
21
1.17509261791
0
LINE
5
2F1
100
AcDbEntity
8
drawing
6
ByLayer
62
256
370
-1
100
AcDbLine
10
4.04780634778
20
1.17509261791
11
4.05854323464
21
1.18105755505
0
LINE
5
2F2
100
AcDbEntity
8
drawing
6
ByLayer
62
256
370
-1
100
AcDbLine
10
4.05854323464
20
1.18105755505
11
4.05854323464
21
1.20611029107
0
LINE
5
2F3
100
AcDbEntity
8
drawing
6
ByLayer
62
256
370
-1
100
AcDbLine
10
4.05854323464
20
1.20611029107
11
4.02871854891
21
1.34688280773
0
LINE
5
2F4
100
AcDbEntity
8
drawing
6
ByLayer
62
256
370
-1
100
AcDbLine
10
4.02871854891
20
1.34688280773
11
4.00605178775
21
1.43397089008
0
LINE
5
2F5
100
AcDbEntity
8
drawing
6
ByLayer
62
256
370
-1
100
AcDbLine
10
4.00605178775
20
1.43397089008
11
3.99531490089
21
1.46260258838
0
LINE
5
2F6
100
AcDbEntity
8
drawing
6
ByLayer
62
256
370
-1
100
AcDbLine
10
3.99531490089
20
1.46260258838
11
3.97742008945
21
1.47095350039
0
LINE
5
2F7
100
AcDbEntity
8
drawing
6
ByLayer
62
256
370
-1
100
AcDbLine
10
3.97742008945
20
1.47095350039
11
3.96310424029
21
1.46976051296
0
LINE
5
2F8
100
AcDbEntity
8
drawing
6
ByLayer
62
256
370
-1
100
AcDbLine
10
3.96310424029
20
1.46976051296
11
3.96071826544
21
1.46140960095
0
LINE
5
2F9
100
AcDbEntity
8
drawing
6
ByLayer
62
256
370
-1
100
AcDbLine
10
3.98338502659
20
1.43635686493
11
4.01440269976
21
1.19418041678
0
LINE
5
2FA
100
AcDbEntity
8
drawing
6
ByLayer
62
256
370
-1
100
AcDbLine
10
4.09791181981
20
1.51956773813
11
4.38721127143
21
1.47184824096
0
LINE
5
2FB
100
AcDbEntity
8
drawing
6
ByLayer
62
256
370
-1
100
AcDbLine
10
4.38721127143
20
1.47184824096
11
4.56466815154
21
1.44053232094
0
LINE
5
2FC
100
AcDbEntity
8
drawing
6
ByLayer
62
256
370
-1
100
AcDbLine
10
4.56466815154
20
1.44053232094
11
4.77194971739
21
1.40176022948
0
LINE
5
2FD
100
AcDbEntity
8
drawing
6
ByLayer
62
256
370
-1
100
AcDbLine
10
4.77194971739
20
1.40176022948
11
4.94791536322
21
1.3659706066
0
LINE
5
2FE
100
AcDbEntity
8
drawing
6
ByLayer
62
256
370
-1
100
AcDbLine
10
4.94791536322
20
1.3659706066
11
5.08660015188
21
1.33167221801
0
LINE
5
2FF
100
AcDbEntity
8
drawing
6
ByLayer
62
256
370
-1
100
AcDbLine
10
5.08660015188
20
1.33167221801
11
5.2193200034
21
1.30035629799
0
LINE
5
300
100
AcDbEntity
8
drawing
6
ByLayer
62
256
370
-1
100
AcDbLine
10
5.2193200034
20
1.30035629799
11
5.35054862063
21
1.26307544082
0
LINE
5
301
100
AcDbEntity
8
drawing
6
ByLayer
62
256
370
-1
100
AcDbLine
10
5.35054862063
20
1.26307544082
11
5.45791748927
21
1.22877705223
0
LINE
5
302
100
AcDbEntity
8
drawing
6
ByLayer
62
256
370
-1
100
AcDbLine
10
5.45791748927
20
1.22877705223
11
5.58318116935
21
1.19000496077
0
LINE
5
303
100
AcDbEntity
8
drawing
6
ByLayer
62
256
370
-1
100
AcDbLine
10
5.58318116935
20
1.19000496077
11
5.6338831351
21
1.16763644647
0
LINE
5
304
100
AcDbEntity
8
drawing
6
ByLayer
62
256
370
-1
100
AcDbLine
10
5.6338831351
20
1.16763644647
11
5.64581300939
21
1.12140818359
0
LINE
5
305
100
AcDbEntity
8
drawing
6
ByLayer
62
256
370
-1
100
AcDbLine
10
5.64581300939
20
1.12140818359
11
5.65326918082
21
1.02596918924
0
LINE
5
306
100
AcDbEntity
8
drawing
6
ByLayer
62
256
370
-1
100
AcDbLine
10
5.65326918082
20
1.02596918924
11
5.66072535226
21
0.948425006332
0
LINE
5
307
100
AcDbEntity
8
drawing
6
ByLayer
62
256
370
-1
100
AcDbLine
10
5.66072535226
20
0.948425006332
11
5.66221658654
21
0.885793166291
0
LINE
5
308
100
AcDbEntity
8
drawing
6
ByLayer
62
256
370
-1
100
AcDbLine
10
5.66221658654
20
0.885793166291
11
5.66221658654
21
0.873863291997
0
LINE
5
309
100
AcDbEntity
8
drawing
6
ByLayer
62
256
370
-1
100
AcDbLine
10
5.66221658654
20
0.873863291997
11
5.6562516494
21
0.857459714844
0
LINE
5
30A
100
AcDbEntity
8
drawing
6
ByLayer
62
256
370
-1
100
AcDbLine
10
5.6562516494
20
0.857459714844
11
5.6338831351
21
0.847021074837
0
LINE
5
30B
100
AcDbEntity
8
drawing
6
ByLayer
62
256
370
-1
100
AcDbLine
10
5.6338831351
20
0.847021074837
11
5.51756686073
21
0.839564903404
0
LINE
5
30C
100
AcDbEntity
8
drawing
6
ByLayer
62
256
370
-1
100
AcDbLine
10
5.51756686073
20
0.839564903404
11
5.45642625498
21
0.839564903404
0
LINE
5
30D
100
AcDbEntity
8
drawing
6
ByLayer
62
256
370
-1
100
AcDbLine
10
4.08598194552
20
1.48825181811
11
4.08449071123
21
1.47483070953
0
LINE
5
30E
100
AcDbEntity
8
drawing
6
ByLayer
62
256
370
-1
100
AcDbLine
10
4.08449071123
20
1.47483070953
11
4.15010501984
21
1.23325075509
0
LINE
5
30F
100
AcDbEntity
8
drawing
6
ByLayer
62
256
370
-1
100
AcDbLine
10
4.15010501984
20
1.23325075509
11
4.16352612842
21
1.19000496077
0
LINE
5
310
100
AcDbEntity
8
drawing
6
ByLayer
62
256
370
-1
100
AcDbLine
10
4.16352612842
20
1.19000496077
11
4.1888771113
21
1.16316274361
0
LINE
5
311
100
AcDbEntity
8
drawing
6
ByLayer
62
256
370
-1
100
AcDbLine
10
4.1888771113
20
1.16316274361
11
4.25747388849
21
1.14526793217
0
LINE
5
312
100
AcDbEntity
8
drawing
6
ByLayer
62
256
370
-1
100
AcDbLine
10
4.25747388849
20
1.14526793217
11
4.38870250571
21
1.14675916646
0
LINE
5
313
100
AcDbEntity
8
drawing
6
ByLayer
62
256
370
-1
100
AcDbLine
10
4.38870250571
20
1.14675916646
11
4.57510679155
21
1.15272410361
0
LINE
5
314
100
AcDbEntity
8
drawing
6
ByLayer
62
256
370
-1
100
AcDbLine
10
4.57510679155
20
1.15272410361
11
4.80624810599
21
1.15421533789
0
LINE
5
315
100
AcDbEntity
8
drawing
6
ByLayer
62
256
370
-1
100
AcDbLine
10
4.80624810599
20
1.15421533789
11
4.98966992325
21
1.15421533789
0
LINE
5
316
100
AcDbEntity
8
drawing
6
ByLayer
62
256
370
-1
100
AcDbLine
10
4.98966992325
20
1.15421533789
11
5.10896866618
21
1.15123286932
0
LINE
5
317
100
AcDbEntity
8
drawing
6
ByLayer
62
256
370
-1
100
AcDbLine
10
5.10896866618
20
1.15123286932
11
5.20291642624
21
1.15123286932
0
LINE
5
318
100
AcDbEntity
8
drawing
6
ByLayer
62
256
370
-1
100
AcDbLine
10
5.20291642624
20
1.15123286932
11
5.2297586434
21
1.15123286932
0
LINE
5
319
100
AcDbEntity
8
drawing
6
ByLayer
62
256
370
-1
100
AcDbLine
10
5.2297586434
20
1.15123286932
11
5.24019728341
21
1.15719780647
0
LINE
5
31A
100
AcDbEntity
8
drawing
6
ByLayer
62
256
370
-1
100
AcDbLine
10
5.24019728341
20
1.15719780647
11
5.24616222056
21
1.1646539779
0
LINE
5
31B
100
AcDbEntity
8
drawing
6
ByLayer
62
256
370
-1
100
AcDbLine
10
5.24616222056
20
1.1646539779
11
5.25063592342
21
1.17807508648
0
LINE
5
31C
100
AcDbEntity
8
drawing
6
ByLayer
62
256
370
-1
100
AcDbLine
10
5.25063592342
20
1.17807508648
11
5.25063592342
21
1.21535594365
0
LINE
5
31D
100
AcDbEntity
8
drawing
6
ByLayer
62
256
370
-1
100
AcDbLine
10
5.25063592342
20
1.21535594365
11
5.24765345484
21
1.23623322366
0
LINE
5
31E
100
AcDbEntity
8
drawing
6
ByLayer
62
256
370
-1
100
AcDbLine
10
5.24765345484
20
1.23623322366
11
5.23572358055
21
1.24667186367
0
LINE
5
31F
100
AcDbEntity
8
drawing
6
ByLayer
62
256
370
-1
100
AcDbLine
10
5.23572358055
20
1.24667186367
11
5.19993395767
21
1.26009297225
0
LINE
5
320
100
AcDbEntity
8
drawing
6
ByLayer
62
256
370
-1
100
AcDbLine
10
5.19993395767
20
1.26009297225
11
5.10002126046
21
1.28544395512
0
LINE
5
321
100
AcDbEntity
8
drawing
6
ByLayer
62
256
370
-1
100
AcDbLine
10
5.10002126046
20
1.28544395512
11
4.98817868896
21
1.31526864086
0
LINE
5
322
100
AcDbEntity
8
drawing
6
ByLayer
62
256
370
-1
100
AcDbLine
10
4.98817868896
20
1.31526864086
11
4.91510820891
21
1.3331634523
0
LINE
5
323
100
AcDbEntity
8
drawing
6
ByLayer
62
256
370
-1
100
AcDbLine
10
4.91510820891
20
1.3331634523
11
4.84352896315
21
1.34956702945
0
LINE
5
324
100
AcDbEntity
8
drawing
6
ByLayer
62
256
370
-1
100
AcDbLine
10
4.84352896315
20
1.34956702945
11
4.73019515736
21
1.3779004809
0
LINE
5
325
100
AcDbEntity
8
drawing
6
ByLayer
62
256
370
-1
100
AcDbLine
10
4.73019515736
20
1.3779004809
11
4.62879122587
21
1.39728652662
0
LINE
5
326
100
AcDbEntity
8
drawing
6
ByLayer
62
256
370
-1
100
AcDbLine
10
4.62879122587
20
1.39728652662
11
4.50054507722
21
1.41816380664
0
LINE
5
327
100
AcDbEntity
8
drawing
6
ByLayer
62
256
370
-1
100
AcDbLine
10
4.50054507722
20
1.41816380664
11
4.38572003714
21
1.43904108665
0
LINE
5
328
100
AcDbEntity
8
drawing
6
ByLayer
62
256
370
-1
100
AcDbLine
10
4.38572003714
20
1.43904108665
11
4.2783511685
21
1.45991836666
0
LINE
5
329
100
AcDbEntity
8
drawing
6
ByLayer
62
256
370
-1
100
AcDbLine
10
4.2783511685
20
1.45991836666
11
4.20975439131
21
1.46886577238
0
LINE
5
32A
100
AcDbEntity
8
drawing
6
ByLayer
62
256
370
-1
100
AcDbLine
10
4.20975439131
20
1.46886577238
11
4.13817514555
21
1.47930441239
0
LINE
5
32B
100
AcDbEntity
8
drawing
6
ByLayer
62
256
370
-1
100
AcDbLine
10
4.13817514555
20
1.47930441239
11
4.10536799124
21
1.48825181811
0
LINE
5
32C
100
AcDbEntity
8
drawing
6
ByLayer
62
256
370
-1
100
AcDbLine
10
4.10536799124
20
1.48825181811
11
4.08299947694
21
1.48526934954
0
LINE
5
32D
100
AcDbEntity
8
drawing
6
ByLayer
62
256
370
-1
100
AcDbLine
10
4.13059967537
20
1.43444808505
11
4.17927356249
21
1.26265789522
0
LINE
5
32E
100
AcDbEntity
8
drawing
6
ByLayer
62
256
370
-1
100
AcDbLine
10
4.17927356249
20
1.26265789522
11
4.18881746193
21
1.22543668743
0
LINE
5
32F
100
AcDbEntity
8
drawing
6
ByLayer
62
256
370
-1
100
AcDbLine
10
4.18881746193
20
1.22543668743
11
4.20599648091
21
1.19012425952
0
LINE
5
330
100
AcDbEntity
8
drawing
6
ByLayer
62
256
370
-1
100
AcDbLine
10
4.20599648091
20
1.19012425952
11
4.23271939933
21
1.17771719025
0
LINE
5
331
100
AcDbEntity
8
drawing
6
ByLayer
62
256
370
-1
100
AcDbLine
10
4.23271939933
20
1.17771719025
11
4.27280377695
21
1.18058036008
0
LINE
5
332
100
AcDbEntity
8
drawing
6
ByLayer
62
256
370
-1
100
AcDbLine
10
4.27280377695
20
1.18058036008
11
5.17851983331
21
1.18439791986
0
LINE
5
333
100
AcDbEntity
8
drawing
6
ByLayer
62
256
370
-1
100
AcDbLine
10
5.17851983331
20
1.18439791986
11
5.19474446235
21
1.18821547963
0
LINE
5
334
100
AcDbEntity
8
drawing
6
ByLayer
62
256
370
-1
100
AcDbLine
10
5.19474446235
20
1.18821547963
11
5.1956988523
21
1.19966815895
0
LINE
5
335
100
AcDbEntity
8
drawing
6
ByLayer
62
256
370
-1
100
AcDbLine
10
5.1956988523
20
1.19966815895
11
5.19760763218
21
1.23020863714
0
LINE
5
336
100
AcDbEntity
8
drawing
6
ByLayer
62
256
370
-1
100
AcDbLine
10
5.19760763218
20
1.23020863714
11
5.18806373275
21
1.23688936675
0
LINE
5
337
100
AcDbEntity
8
drawing
6
ByLayer
62
256
370
-1
100
AcDbLine
10
5.18806373275
20
1.23688936675
11
5.16038642439
21
1.24738765613
0
LINE
5
338
100
AcDbEntity
8
drawing
6
ByLayer
62
256
370
-1
100
AcDbLine
10
5.16038642439
20
1.24738765613
11
4.90460991954
21
1.3103773924
0
LINE
5
339
100
AcDbEntity
8
drawing
6
ByLayer
62
256
370
-1
100
AcDbLine
10
4.90460991954
20
1.3103773924
11
4.81489726485
21
1.33423714098
0
LINE
5
33A
100
AcDbEntity
8
drawing
6
ByLayer
62
256
370
-1
100
AcDbLine
10
4.81489726485
20
1.33423714098
11
4.7700409375
21
1.3456898203
0
LINE
5
33B
100
AcDbEntity
8
drawing
6
ByLayer
62
256
370
-1
100
AcDbLine
10
4.7700409375
20
1.3456898203
11
4.64787902474
21
1.367640789
0
LINE
5
33C
100
AcDbEntity
8
drawing
6
ByLayer
62
256
370
-1
100
AcDbLine
10
4.64787902474
20
1.367640789
11
4.47418005503
21
1.40009004708
0
LINE
5
33D
100
AcDbEntity
8
drawing
6
ByLayer
62
256
370
-1
100
AcDbLine
10
4.47418005503
20
1.40009004708
11
4.36060765175
21
1.42204101578
0
LINE
5
33E
100
AcDbEntity
8
drawing
6
ByLayer
62
256
370
-1
100
AcDbLine
10
4.36060765175
20
1.42204101578
11
4.23271939933
21
1.44303759454
0
LINE
5
33F
100
AcDbEntity
8
drawing
6
ByLayer
62
256
370
-1
100
AcDbLine
10
4.23271939933
20
1.44303759454
11
4.19549819153
21
1.44971832414
0
LINE
5
340
100
AcDbEntity
8
drawing
6
ByLayer
62
256
370
-1
100
AcDbLine
10
4.19549819153
20
1.44971832414
11
4.16495771334
21
1.45449027386
0
LINE
5
341
100
AcDbEntity
8
drawing
6
ByLayer
62
256
370
-1
100
AcDbLine
10
4.16495771334
20
1.45449027386
11
4.14109796475
21
1.45926222358
0
LINE
5
342
100
AcDbEntity
8
drawing
6
ByLayer
62
256
370
-1
100
AcDbLine
10
4.14109796475
20
1.45926222358
11
4.1267821156
21
1.45735344369
0
LINE
5
343
100
AcDbEntity
8
drawing
6
ByLayer
62
256
370
-1
100
AcDbLine
10
4.1267821156
20
1.45735344369
11
4.12391894577
21
1.45067271409
0
LINE
5
344
100
AcDbEntity
8
drawing
6
ByLayer
62
256
370
-1
100
AcDbLine
10
4.12391894577
20
1.45067271409
11
4.12582772566
21
1.4420832046
0
LINE
5
345
100
AcDbEntity
8
drawing
6
ByLayer
62
256
370
-1
100
AcDbLine
10
4.12582772566
20
1.4420832046
11
4.1267821156
21
1.43444808505
0
LINE
5
346
100
AcDbEntity
8
drawing
6
ByLayer
62
256
370
-1
100
AcDbLine
10
4.08765212792
20
1.52225195985
11
4.0761994486
21
1.54420292855
0
LINE
5
347
100
AcDbEntity
8
drawing
6
ByLayer
62
256
370
-1
100
AcDbLine
10
4.0761994486
20
1.54420292855
11
4.0676099391
21
1.55088365815
0
LINE
5
348
100
AcDbEntity
8
drawing
6
ByLayer
62
256
370
-1
100
AcDbLine
10
4.0676099391
20
1.55088365815
11
4.0389782408
21
1.55756438776
0
LINE
5
349
100
AcDbEntity
8
drawing
6
ByLayer
62
256
370
-1
100
AcDbLine
10
4.0389782408
20
1.55756438776
11
3.99984825312
21
1.56138194753
0
LINE
5
34A
100
AcDbEntity
8
drawing
6
ByLayer
62
256
370
-1
100
AcDbLine
10
3.99984825312
20
1.56138194753
11
3.89009340962
21
1.56997145702
0
LINE
5
34B
100
AcDbEntity
8
drawing
6
ByLayer
62
256
370
-1
100
AcDbLine
10
3.89009340962
20
1.56997145702
11
3.84523708227
21
1.57188023691
0
LINE
5
34C
100
AcDbEntity
8
drawing
6
ByLayer
62
256
370
-1
100
AcDbLine
10
3.84523708227
20
1.57188023691
11
3.75838759742
21
1.57569779668
0
LINE
5
34D
100
AcDbEntity
8
drawing
6
ByLayer
62
256
370
-1
100
AcDbLine
10
3.75838759742
20
1.57569779668
11
3.63336251482
21
1.57760657657
0
LINE
5
34E
100
AcDbEntity
8
drawing
6
ByLayer
62
256
370
-1
100
AcDbLine
10
3.63336251482
20
1.57760657657
11
3.45107403562
21
1.57856096651
0
LINE
5
34F
100
AcDbEntity
8
drawing
6
ByLayer
62
256
370
-1
100
AcDbLine
10
3.45107403562
20
1.57856096651
11
3.28787335528
21
1.57188023691
0
LINE
5
350
100
AcDbEntity
8
drawing
6
ByLayer
62
256
370
-1
100
AcDbLine
10
3.28787335528
20
1.57188023691
11
3.18575363133
21
1.56615389725
0
LINE
5
351
100
AcDbEntity
8
drawing
6
ByLayer
62
256
370
-1
100
AcDbLine
10
3.18575363133
20
1.56615389725
11
3.07790756772
21
1.5585187777
0
LINE
5
352
100
AcDbEntity
8
drawing
6
ByLayer
62
256
370
-1
100
AcDbLine
10
3.07790756772
20
1.5585187777
11
3.04068635992
21
1.55374682798
0
LINE
5
353
100
AcDbEntity
8
drawing
6
ByLayer
62
256
370
-1
100
AcDbLine
10
3.04068635992
20
1.55374682798
11
3.0139634415
21
1.54992926821
0
LINE
5
354
100
AcDbEntity
8
drawing
6
ByLayer
62
256
370
-1
100
AcDbLine
10
3.0139634415
20
1.54992926821
11
2.95383687507
21
1.5432485386
0
LINE
5
355
100
AcDbEntity
8
drawing
6
ByLayer
62
256
370
-1
100
AcDbLine
10
2.95383687507
20
1.5432485386
11
2.93761224603
21
1.536567809
0
LINE
5
356
100
AcDbEntity
8
drawing
6
ByLayer
62
256
370
-1
100
AcDbLine
10
2.93761224603
20
1.536567809
11
2.90516298795
21
1.52511512968
0
LINE
5
357
100
AcDbEntity
8
drawing
6
ByLayer
62
256
370
-1
100
AcDbLine
10
2.90516298795
20
1.52511512968
11
2.89275591868
21
1.51843440007
0
LINE
5
358
100
AcDbEntity
8
drawing
6
ByLayer
62
256
370
-1
100
AcDbLine
10
4.04661336035
20
0.306597769342
11
4.0406484232
21
0.372212077957
0
LINE
5
359
100
AcDbEntity
8
drawing
6
ByLayer
62
256
370
-1
100
AcDbLine
10
4.0406484232
20
0.372212077957
11
4.03945543577
21
0.431861449424
0
LINE
5
35A
100
AcDbEntity
8
drawing
6
ByLayer
62
256
370
-1
100
AcDbLine
10
4.03945543577
20
0.431861449424
11
4.04542037292
21
0.481966921457
0
LINE
5
35B
100
AcDbEntity
8
drawing
6
ByLayer
62
256
370
-1
100
AcDbLine
10
4.04542037292
20
0.481966921457
11
4.04542037292
21
0.51179160719
0
LINE
5
35C
100
AcDbEntity
8
drawing
6
ByLayer
62
256
370
-1
100
AcDbLine
10
4.04542037292
20
0.51179160719
11
4.0525782975
21
0.559511104364
0
LINE
5
35D
100
AcDbEntity
8
drawing
6
ByLayer
62
256
370
-1
100
AcDbLine
10
4.0525782975
20
0.559511104364
11
4.0609292095
21
0.602458651821
0
LINE
5
35E
100
AcDbEntity
8
drawing
6
ByLayer
62
256
370
-1
100
AcDbLine
10
4.0609292095
20
0.602458651821
11
4.08240298323
21
0.685967771875
0
LINE
5
35F
100
AcDbEntity
8
drawing
6
ByLayer
62
256
370
-1
100
AcDbLine
10
4.08240298323
20
0.685967771875
11
4.10626273182
21
0.740845193625
0
LINE
5
360
100
AcDbEntity
8
drawing
6
ByLayer
62
256
370
-1
100
AcDbLine
10
4.10626273182
20
0.740845193625
11
4.14085936727
21
0.790950665658
0
LINE
5
361
100
AcDbEntity
8
drawing
6
ByLayer
62
256
370
-1
100
AcDbLine
10
4.14085936727
20
0.790950665658
11
4.17187704043
21
0.831512238256
0
LINE
5
362
100
AcDbEntity
8
drawing
6
ByLayer
62
256
370
-1
100
AcDbLine
10
4.17187704043
20
0.831512238256
11
4.22914043704
21
0.882810697717
0
LINE
5
363
100
AcDbEntity
8
drawing
6
ByLayer
62
256
370
-1
100
AcDbLine
10
4.22914043704
20
0.882810697717
11
4.28401785879
21
0.922179282886
0
LINE
5
364
100
AcDbEntity
8
drawing
6
ByLayer
62
256
370
-1
100
AcDbLine
10
4.28401785879
20
0.922179282886
11
4.34247424283
21
0.948425006332
0
LINE
5
365
100
AcDbEntity
8
drawing
6
ByLayer
62
256
370
-1
100
AcDbLine
10
4.34247424283
20
0.948425006332
11
4.40450958915
21
0.971091767489
0
LINE
5
366
100
AcDbEntity
8
drawing
6
ByLayer
62
256
370
-1
100
AcDbLine
10
4.40450958915
20
0.971091767489
11
4.45819402347
21
0.979442679495
0
LINE
5
367
100
AcDbEntity
8
drawing
6
ByLayer
62
256
370
-1
100
AcDbLine
10
4.45819402347
20
0.979442679495
11
4.50829949551
21
0.981828654353
0
LINE
5
368
100
AcDbEntity
8
drawing
6
ByLayer
62
256
370
-1
100
AcDbLine
10
4.50829949551
20
0.981828654353
11
4.5607909424
21
0.979442679495
0
LINE
5
369
100
AcDbEntity
8
drawing
6
ByLayer
62
256
370
-1
100
AcDbLine
10
4.5607909424
20
0.979442679495
11
4.61089641443
21
0.972284754919
0
LINE
5
36A
100
AcDbEntity
8
drawing
6
ByLayer
62
256
370
-1
100
AcDbLine
10
4.61089641443
20
0.972284754919
11
4.66815981104
21
0.961547868054
0
LINE
5
36B
100
AcDbEntity
8
drawing
6
ByLayer
62
256
370
-1
100
AcDbLine
10
4.66815981104
20
0.961547868054
11
4.72184424536
21
0.947232018902
0
LINE
5
36C
100
AcDbEntity
8
drawing
6
ByLayer
62
256
370
-1
100
AcDbLine
10
4.72184424536
20
0.947232018902
11
4.80654635284
21
0.917407333169
0
LINE
5
36D
100
AcDbEntity
8
drawing
6
ByLayer
62
256
370
-1
100
AcDbLine
10
4.80654635284
20
0.917407333169
11
4.86738871174
21
0.885196672576
0
LINE
5
36E
100
AcDbEntity
8
drawing
6
ByLayer
62
256
370
-1
100
AcDbLine
10
4.86738871174
20
0.885196672576
11
4.91152924663
21
0.850600037125
0
LINE
5
36F
100
AcDbEntity
8
drawing
6
ByLayer
62
256
370
-1
100
AcDbLine
10
4.91152924663
20
0.850600037125
11
4.94731886951
21
0.812424439386
0
LINE
5
370
100
AcDbEntity
8
drawing
6
ByLayer
62
256
370
-1
100
AcDbLine
10
4.94731886951
20
0.812424439386
11
4.9878804421
21
0.759932992495
0
LINE
5
371
100
AcDbEntity
8
drawing
6
ByLayer
62
256
370
-1
100
AcDbLine
10
4.9878804421
20
0.759932992495
11
5.01889811527
21
0.705055570745
0
LINE
5
372
100
AcDbEntity
8
drawing
6
ByLayer
62
256
370
-1
100
AcDbLine
10
5.01889811527
20
0.705055570745
11
5.03798591414
21
0.646599186707
0
LINE
5
373
100
AcDbEntity
8
drawing
6
ByLayer
62
256
370
-1
100
AcDbLine
10
5.03798591414
20
0.646599186707
11
5.05230176329
21
0.598879689533
0
LINE
5
374
100
AcDbEntity
8
drawing
6
ByLayer
62
256
370
-1
100
AcDbLine
10
5.05230176329
20
0.598879689533
11
5.06303865015
21
0.507019657473
0
LINE
5
375
100
AcDbEntity
8
drawing
6
ByLayer
62
256
370
-1
100
AcDbLine
10
5.06303865015
20
0.507019657473
11
5.06423163758
21
0.447370286005
0
LINE
5
376
100
AcDbEntity
8
drawing
6
ByLayer
62
256
370
-1
100
AcDbLine
10
5.06423163758
20
0.447370286005
11
5.06423163758
21
0.408001700837
0
LINE
5
377
100
AcDbEntity
8
drawing
6
ByLayer
62
256
370
-1
100
AcDbLine
10
5.06423163758
20
0.408001700837
11
5.06184566272
21
0.356703241375
0
LINE
5
378
100
AcDbEntity
8
drawing
6
ByLayer
62
256
370
-1
100
AcDbLine
10
5.06184566272
20
0.356703241375
11
5.06184566272
21
0.342387392223
0
LINE
5
379
100
AcDbEntity
8
drawing
6
ByLayer
62
256
370
-1
100
AcDbLine
10
3.99412191346
20
0.51298459462
11
4.00366581289
21
0.579791890663
0
LINE
5
37A
100
AcDbEntity
8
drawing
6
ByLayer
62
256
370
-1
100
AcDbLine
10
4.00366581289
20
0.579791890663
11
4.00724477518
21
0.617967488402
0
LINE
5
37B
100
AcDbEntity
8
drawing
6
ByLayer
62
256
370
-1
100
AcDbLine
10
4.00724477518
20
0.617967488402
11
4.02871854891
21
0.685967771875
0
LINE
5
37C
100
AcDbEntity
8
drawing
6
ByLayer
62
256
370
-1
100
AcDbLine
10
4.02871854891
20
0.685967771875
11
4.06450817179
21
0.783792741082
0
LINE
5
37D
100
AcDbEntity
8
drawing
6
ByLayer
62
256
370
-1
100
AcDbLine
10
4.06450817179
20
0.783792741082
11
4.08598194552
21
0.813617426815
0
LINE
5
37E
100
AcDbEntity
8
drawing
6
ByLayer
62
256
370
-1
100
AcDbLine
10
4.11819260611
20
0.882810697717
11
4.15636820385
21
0.924565257745
0
LINE
5
37F
100
AcDbEntity
8
drawing
6
ByLayer
62
256
370
-1
100
AcDbLine
10
4.15636820385
20
0.924565257745
11
4.19812276388
21
0.953196956049
0
LINE
5
380
100
AcDbEntity
8
drawing
6
ByLayer
62
256
370
-1
100
AcDbLine
10
4.19812276388
20
0.953196956049
11
4.24464927362
21
0.992565541217
0
LINE
5
381
100
AcDbEntity
8
drawing
6
ByLayer
62
256
370
-1
100
AcDbLine
10
4.24464927362
20
0.992565541217
11
4.27805292164
21
1.00926736523
0
LINE
5
382
100
AcDbEntity
8
drawing
6
ByLayer
62
256
370
-1
100
AcDbLine
10
4.27805292164
20
1.00926736523
11
4.31503553195
21
1.02596918924
0
LINE
5
383
100
AcDbEntity
8
drawing
6
ByLayer
62
256
370
-1
100
AcDbLine
10
4.31503553195
20
1.02596918924
11
4.33889528054
21
1.0283551641
0
LINE
5
384
100
AcDbEntity
8
drawing
6
ByLayer
62
256
370
-1
100
AcDbLine
10
4.33889528054
20
1.0283551641
11
4.37945685314
21
1.0486359504
0
LINE
5
385
100
AcDbEntity
8
drawing
6
ByLayer
62
256
370
-1
100
AcDbLine
10
4.37945685314
20
1.0486359504
11
4.41286050116
21
1.0486359504
0
LINE
5
386
100
AcDbEntity
8
drawing
6
ByLayer
62
256
370
-1
100
AcDbLine
10
4.41286050116
20
1.0486359504
11
4.45342207376
21
1.05817984983
0
LINE
5
387
100
AcDbEntity
8
drawing
6
ByLayer
62
256
370
-1
100
AcDbLine
10
4.45342207376
20
1.05817984983
11
4.50949248294
21
1.06414478698
0
LINE
5
388
100
AcDbEntity
8
drawing
6
ByLayer
62
256
370
-1
100
AcDbLine
10
4.50949248294
20
1.06414478698
11
4.55244003039
21
1.06295179955
0
LINE
5
389
100
AcDbEntity
8
drawing
6
ByLayer
62
256
370
-1
100
AcDbLine
10
4.55244003039
20
1.06295179955
11
4.64549304988
21
1.05340790011
0
LINE
5
38A
100
AcDbEntity
8
drawing
6
ByLayer
62
256
370
-1
100
AcDbLine
10
4.64549304988
20
1.05340790011
11
4.71707229564
21
1.03551308867
0
LINE
5
38B
100
AcDbEntity
8
drawing
6
ByLayer
62
256
370
-1
100
AcDbLine
10
4.71707229564
20
1.03551308867
11
4.80416037798
21
1.00091645322
0
LINE
5
38C
100
AcDbEntity
8
drawing
6
ByLayer
62
256
370
-1
100
AcDbLine
10
4.80416037798
20
1.00091645322
11
4.85307286259
21
0.971091767489
0
LINE
5
38D
100
AcDbEntity
8
drawing
6
ByLayer
62
256
370
-1
100
AcDbLine
10
4.85307286259
20
0.971091767489
11
4.90079235976
21
0.934109157179
0
LINE
5
38E
100
AcDbEntity
8
drawing
6
ByLayer
62
256
370
-1
100
AcDbLine
10
4.90079235976
20
0.934109157179
11
4.94373990722
21
0.899512521728
0
LINE
5
38F
100
AcDbEntity
8
drawing
6
ByLayer
62
256
370
-1
100
AcDbLine
10
4.94373990722
20
0.899512521728
11
4.97905233513
21
0.890445817265
0
LINE
5
390
100
AcDbEntity
8
drawing
6
ByLayer
62
256
370
-1
100
AcDbLine
10
4.97905233513
20
0.890445817265
11
5.03727012168
21
0.889491427322
0
LINE
5
391
100
AcDbEntity
8
drawing
6
ByLayer
62
256
370
-1
100
AcDbLine
10
5.03727012168
20
0.889491427322
11
5.16038642439
21
0.888537037378
0
LINE
5
392
100
AcDbEntity
8
drawing
6
ByLayer
62
256
370
-1
100
AcDbLine
10
5.16038642439
20
0.888537037378
11
5.3054536958
21
0.884719477604
0
LINE
5
393
100
AcDbEntity
8
drawing
6
ByLayer
62
256
370
-1
100
AcDbLine
10
5.3054536958
20
0.884719477604
11
5.35221880303
21
0.881856307774
0
LINE
5
394
100
AcDbEntity
8
drawing
6
ByLayer
62
256
370
-1
100
AcDbLine
10
5.35221880303
20
0.881856307774
11
5.39039440077
21
0.874221188226
0
LINE
5
395
100
AcDbEntity
8
drawing
6
ByLayer
62
256
370
-1
100
AcDbLine
10
5.39039440077
20
0.874221188226
11
5.39134879071
21
0.865631678735
0
LINE
5
396
100
AcDbEntity
8
drawing
6
ByLayer
62
256
370
-1
100
AcDbLine
10
5.39134879071
20
0.865631678735
11
5.38848562088
21
0.854178999413
0
LINE
5
397
100
AcDbEntity
8
drawing
6
ByLayer
62
256
370
-1
100
AcDbLine
10
5.38848562088
20
0.854178999413
11
5.38275928122
21
0.849407049696
0
LINE
5
398
100
AcDbEntity
8
drawing
6
ByLayer
62
256
370
-1
100
AcDbLine
10
5.38275928122
20
0.849407049696
11
5.36462587229
21
0.848452659752
0
LINE
5
399
100
AcDbEntity
8
drawing
6
ByLayer
62
256
370
-1
100
AcDbLine
10
5.36462587229
20
0.848452659752
11
5.30736247568
21
0.844635099978
0
LINE
5
39A
100
AcDbEntity
8
drawing
6
ByLayer
62
256
370
-1
100
AcDbLine
10
5.30736247568
20
0.844635099978
11
5.10980375738
21
0.843680710035
0
LINE
5
39B
100
AcDbEntity
8
drawing
6
ByLayer
62
256
370
-1
100
AcDbLine
10
5.10980375738
20
0.843680710035
11
4.97809794518
21
0.843680710035
0
LINE
5
39C
100
AcDbEntity
8
drawing
6
ByLayer
62
256
370
-1
100
AcDbLine
10
4.97809794518
20
0.843680710035
11
4.9542381966
21
0.845589489922
0
LINE
5
39D
100
AcDbEntity
8
drawing
6
ByLayer
62
256
370
-1
100
AcDbLine
10
5.0554035306
20
0.762557564839
11
5.07449132947
21
0.732017086648
0
LINE
5
39E
100
AcDbEntity
8
drawing
6
ByLayer
62
256
370
-1
100
AcDbLine
10
5.07449132947
20
0.732017086648
11
5.09357912834
21
0.707202948117
0
LINE
5
39F
100
AcDbEntity
8
drawing
6
ByLayer
62
256
370
-1
100
AcDbLine
10
5.09357912834
20
0.707202948117
11
5.10884936744
21
0.664255400661
0
LINE
5
3A0
100
AcDbEntity
8
drawing
6
ByLayer
62
256
370
-1
100
AcDbLine
10
5.10884936744
20
0.664255400661
11
5.12316521659
21
0.621307853204
0
LINE
5
3A1
100
AcDbEntity
8
drawing
6
ByLayer
62
256
370
-1
100
AcDbLine
10
5.12316521659
20
0.621307853204
11
5.12602838642
21
0.575497135917
0
LINE
5
3A2
100
AcDbEntity
8
drawing
6
ByLayer
62
256
370
-1
100
AcDbLine
10
5.12602838642
20
0.575497135917
11
5.13175472608
21
0.528732028687
0
LINE
5
3A3
100
AcDbEntity
8
drawing
6
ByLayer
62
256
370
-1
100
AcDbLine
10
5.13175472608
20
0.528732028687
11
5.13080033614
21
0.483875701344
0
LINE
5
3A4
100
AcDbEntity
8
drawing
6
ByLayer
62
256
370
-1
100
AcDbLine
10
5.13080033614
20
0.483875701344
11
5.12698277637
21
0.461924732644
0
LINE
5
3A5
100
AcDbEntity
8
drawing
6
ByLayer
62
256
370
-1
100
AcDbLine
10
5.12698277637
20
0.461924732644
11
5.15370569478
21
0.465742292417
0
LINE
5
3A6
100
AcDbEntity
8
drawing
6
ByLayer
62
256
370
-1
100
AcDbLine
10
5.15370569478
20
0.465742292417
11
5.25391663885
21
0.486738871174
0
LINE
5
3A7
100
AcDbEntity
8
drawing
6
ByLayer
62
256
370
-1
100
AcDbLine
10
5.25391663885
20
0.486738871174
11
5.3340853941
21
0.510598619761
0
LINE
5
3A8
100
AcDbEntity
8
drawing
6
ByLayer
62
256
370
-1
100
AcDbLine
10
5.3340853941
20
0.510598619761
11
5.40948219964
21
0.531595198517
0
LINE
5
3A9
100
AcDbEntity
8
drawing
6
ByLayer
62
256
370
-1
100
AcDbLine
10
5.40948219964
20
0.531595198517
11
5.47915266551
21
0.550682997387
0
LINE
5
3AA
100
AcDbEntity
8
drawing
6
ByLayer
62
256
370
-1
100
AcDbLine
10
5.47915266551
20
0.550682997387
11
5.53927923195
21
0.57358835603
0
LINE
5
3AB
100
AcDbEntity
8
drawing
6
ByLayer
62
256
370
-1
100
AcDbLine
10
5.53927923195
20
0.57358835603
11
5.60036018833
21
0.596493714674
0
LINE
5
3AC
100
AcDbEntity
8
drawing
6
ByLayer
62
256
370
-1
100
AcDbLine
10
5.60036018833
20
0.596493714674
11
5.65762358494
21
0.631806142583
0
LINE
5
3AD
100
AcDbEntity
8
drawing
6
ByLayer
62
256
370
-1
100
AcDbLine
10
5.41616292924
20
0.874221188226
11
5.64998846539
21
0.874221188226
0
LINE
5
3AE
100
AcDbEntity
8
drawing
6
ByLayer
62
256
370
-1
100
AcDbLine
10
5.47724388562
20
0.805505112296
11
5.47438071579
21
0.642304431961
0
LINE
5
3AF
100
AcDbEntity
8
drawing
6
ByLayer
62
256
370
-1
100
AcDbLine
10
5.47438071579
20
0.642304431961
11
5.46101925658
21
0.608900783939
0
LINE
5
3B0
100
AcDbEntity
8
drawing
6
ByLayer
62
256
370
-1
100
AcDbLine
10
5.46101925658
20
0.608900783939
11
5.37989611139
21
0.581223475578
0
LINE
5
3B1
100
AcDbEntity
8
drawing
6
ByLayer
62
256
370
-1
100
AcDbLine
10
5.37989611139
20
0.581223475578
11
5.36748904212
21
0.584086645409
0
LINE
5
3B2
100
AcDbEntity
8
drawing
6
ByLayer
62
256
370
-1
100
AcDbLine
10
5.36748904212
20
0.584086645409
11
5.31786076506
21
0.649939551509
0
LINE
5
3B3
100
AcDbEntity
8
drawing
6
ByLayer
62
256
370
-1
100
AcDbLine
10
5.31786076506
20
0.649939551509
11
5.31022564551
21
0.669981740322
0
LINE
5
3B4
100
AcDbEntity
8
drawing
6
ByLayer
62
256
370
-1
100
AcDbLine
10
5.31022564551
20
0.669981740322
11
5.3121344254
21
0.771147074331
0
LINE
5
3B5
100
AcDbEntity
8
drawing
6
ByLayer
62
256
370
-1
100
AcDbLine
10
5.3121344254
20
0.771147074331
11
5.31595198517
21
0.796915602804
0
LINE
5
3B6
100
AcDbEntity
8
drawing
6
ByLayer
62
256
370
-1
100
AcDbLine
10
5.31595198517
20
0.796915602804
11
5.33790295387
21
0.80932267207
0
LINE
5
3B7
100
AcDbEntity
8
drawing
6
ByLayer
62
256
370
-1
100
AcDbLine
10
5.33790295387
20
0.80932267207
11
5.39039440077
21
0.8121858419
0
LINE
5
3B8
100
AcDbEntity
8
drawing
6
ByLayer
62
256
370
-1
100
AcDbLine
10
5.39039440077
20
0.8121858419
11
5.45147535715
21
0.8121858419
0
LINE
5
3B9
100
AcDbEntity
8
drawing
6
ByLayer
62
256
370
-1
100
AcDbLine
10
5.45147535715
20
0.8121858419
11
5.47056315602
21
0.8121858419
0
LINE
5
3BA
100
AcDbEntity
8
drawing
6
ByLayer
62
256
370
-1
100
AcDbLine
10
5.47056315602
20
0.8121858419
11
5.47724388562
21
0.805505112296
0
LINE
5
3BB
100
AcDbEntity
8
drawing
6
ByLayer
62
256
370
-1
100
AcDbLine
10
2.74029212521
20
0.589335790098
11
2.74625706236
21
0.508212644902
0
LINE
5
3BC
100
AcDbEntity
8
drawing
6
ByLayer
62
256
370
-1
100
AcDbLine
10
2.74625706236
20
0.508212644902
11
2.75580096179
21
0.464072110016
0
LINE
5
3BD
100
AcDbEntity
8
drawing
6
ByLayer
62
256
370
-1
100
AcDbLine
10
2.75580096179
20
0.464072110016
11
2.76773083609
21
0.416352612842
0
LINE
5
3BE
100
AcDbEntity
8
drawing
6
ByLayer
62
256
370
-1
100
AcDbLine
10
2.76773083609
20
0.416352612842
11
2.77727473552
21
0.391299876826
0
LINE
5
3BF
100
AcDbEntity
8
drawing
6
ByLayer
62
256
370
-1
100
AcDbLine
10
2.77727473552
20
0.391299876826
11
2.79994149668
21
0.361475191092
0
LINE
5
3C0
100
AcDbEntity
8
drawing
6
ByLayer
62
256
370
-1
100
AcDbLine
10
2.79994149668
20
0.361475191092
11
2.82141527041
21
0.351931291658
0
LINE
5
3C1
100
AcDbEntity
8
drawing
6
ByLayer
62
256
370
-1
100
AcDbLine
10
2.82141527041
20
0.351931291658
11
2.93594206363
21
0.343580379652
0
LINE
5
3C2
100
AcDbEntity
8
drawing
6
ByLayer
62
256
370
-1
100
AcDbLine
10
2.93594206363
20
0.343580379652
11
3.09103042944
21
0.341194404794
0
LINE
5
3C3
100
AcDbEntity
8
drawing
6
ByLayer
62
256
370
-1
100
AcDbLine
10
3.09103042944
20
0.341194404794
11
3.20555722266
21
0.336422455076
0
LINE
5
3C4
100
AcDbEntity
8
drawing
6
ByLayer
62
256
370
-1
100
AcDbLine
10
3.20555722266
20
0.336422455076
11
3.29383829243
21
0.335229467647
0
LINE
5
3C5
100
AcDbEntity
8
drawing
6
ByLayer
62
256
370
-1
100
AcDbLine
10
3.29383829243
20
0.335229467647
11
3.32366297816
21
0.336422455076
0
LINE
5
3C6
100
AcDbEntity
8
drawing
6
ByLayer
62
256
370
-1
100
AcDbLine
10
3.32366297816
20
0.336422455076
11
3.34275077703
21
0.345966354511
0
LINE
5
3C7
100
AcDbEntity
8
drawing
6
ByLayer
62
256
370
-1
100
AcDbLine
10
3.34275077703
20
0.345966354511
11
3.36661052562
21
0.362668178522
0
LINE
5
3C8
100
AcDbEntity
8
drawing
6
ByLayer
62
256
370
-1
100
AcDbLine
10
3.38808429935
20
0.446177298576
11
3.39166326164
21
0.416352612842
0
LINE
5
3C9
100
AcDbEntity
8
drawing
6
ByLayer
62
256
370
-1
100
AcDbLine
10
3.39166326164
20
0.416352612842
11
3.37018948791
21
0.378177015103
0
LINE
5
3CA
100
AcDbEntity
8
drawing
6
ByLayer
62
256
370
-1
100
AcDbLine
10
3.37018948791
20
0.378177015103
11
3.34632973932
21
0.373405065386
0
LINE
5
3CB
100
AcDbEntity
8
drawing
6
ByLayer
62
256
370
-1
100
AcDbLine
10
3.34632973932
20
0.373405065386
11
3.31411907873
21
0.379370002533
0
LINE
5
3CC
100
AcDbEntity
8
drawing
6
ByLayer
62
256
370
-1
100
AcDbLine
10
3.31411907873
20
0.379370002533
11
3.30218920444
21
0.397264813973
0
LINE
5
3CD
100
AcDbEntity
8
drawing
6
ByLayer
62
256
370
-1
100
AcDbLine
10
3.30218920444
20
0.397264813973
11
3.28906634271
21
0.423510537419
0
LINE
5
3CE
100
AcDbEntity
8
drawing
6
ByLayer
62
256
370
-1
100
AcDbLine
10
3.28906634271
20
0.423510537419
11
3.29383829243
21
0.45810717287
0
LINE
5
3CF
100
AcDbEntity
8
drawing
6
ByLayer
62
256
370
-1
100
AcDbLine
10
3.29383829243
20
0.45810717287
11
3.30576816672
21
0.478387959169
0
LINE
5
3D0
100
AcDbEntity
8
drawing
6
ByLayer
62
256
370
-1
100
AcDbLine
10
3.30576816672
20
0.478387959169
11
3.34752272675
21
0.481966921457
0
LINE
5
3D1
100
AcDbEntity
8
drawing
6
ByLayer
62
256
370
-1
100
AcDbLine
10
3.34752272675
20
0.481966921457
11
3.37138247534
21
0.470037047163
0
LINE
5
3D2
100
AcDbEntity
8
drawing
6
ByLayer
62
256
370
-1
100
AcDbLine
10
3.37138247534
20
0.470037047163
11
3.38331234963
21
0.450949248294
0
LINE
5
3D3
100
AcDbEntity
8
drawing
6
ByLayer
62
256
370
-1
100
AcDbLine
10
3.3043646521
20
0.47600198431
11
3.292645305
21
0.497475758038
0
LINE
5
3D4
100
AcDbEntity
8
drawing
6
ByLayer
62
256
370
-1
100
AcDbLine
10
3.292645305
20
0.497475758038
11
3.27355750613
21
0.505826670044
0
LINE
5
3D5
100
AcDbEntity
8
drawing
6
ByLayer
62
256
370
-1
100
AcDbLine
10
3.27355750613
20
0.505826670044
11
3.23776788325
21
0.517756544337
0
LINE
5
3D6
100
AcDbEntity
8
drawing
6
ByLayer
62
256
370
-1
100
AcDbLine
10
3.23776788325
20
0.517756544337
11
3.18169747407
21
0.546388242641
0
LINE
5
3D7
100
AcDbEntity
8
drawing
6
ByLayer
62
256
370
-1
100
AcDbLine
10
3.18169747407
20
0.546388242641
11
3.14590785119
21
0.559511104364
0
LINE
5
3D8
100
AcDbEntity
8
drawing
6
ByLayer
62
256
370
-1
100
AcDbLine
10
3.14590785119
20
0.559511104364
11
3.10415329116
21
0.571440978658
0
LINE
5
3D9
100
AcDbEntity
8
drawing
6
ByLayer
62
256
370
-1
100
AcDbLine
10
3.10415329116
20
0.571440978658
11
3.05404781913
21
0.586949815239
0
LINE
5
3DA
100
AcDbEntity
8
drawing
6
ByLayer
62
256
370
-1
100
AcDbLine
10
3.05404781913
20
0.586949815239
11
3.0122932591
21
0.591721764957
0
LINE
5
3DB
100
AcDbEntity
8
drawing
6
ByLayer
62
256
370
-1
100
AcDbLine
10
3.0122932591
20
0.591721764957
11
2.98246857337
21
0.590528777527
0
LINE
5
3DC
100
AcDbEntity
8
drawing
6
ByLayer
62
256
370
-1
100
AcDbLine
10
2.98246857337
20
0.590528777527
11
2.94787193792
21
0.589335790098
0
LINE
5
3DD
100
AcDbEntity
8
drawing
6
ByLayer
62
256
370
-1
100
AcDbLine
10
2.94787193792
20
0.589335790098
11
2.91327530247
21
0.586949815239
0
LINE
5
3DE
100
AcDbEntity
8
drawing
6
ByLayer
62
256
370
-1
100
AcDbLine
10
2.91327530247
20
0.586949815239
11
2.88822256645
21
0.596493714674
0
LINE
5
3DF
100
AcDbEntity
8
drawing
6
ByLayer
62
256
370
-1
100
AcDbLine
10
2.88822256645
20
0.596493714674
11
2.84766099385
21
0.610809563826
0
LINE
5
3E0
100
AcDbEntity
8
drawing
6
ByLayer
62
256
370
-1
100
AcDbLine
10
2.84766099385
20
0.610809563826
11
2.82260825784
21
0.614388526114
0
LINE
5
3E1
100
AcDbEntity
8
drawing
6
ByLayer
62
256
370
-1
100
AcDbLine
10
2.82260825784
20
0.614388526114
11
2.78323967267
21
0.615581513544
0
LINE
5
3E2
100
AcDbEntity
8
drawing
6
ByLayer
62
256
370
-1
100
AcDbLine
10
2.78323967267
20
0.615581513544
11
2.75818693665
21
0.613195538685
0
LINE
5
3E3
100
AcDbEntity
8
drawing
6
ByLayer
62
256
370
-1
100
AcDbLine
10
2.75818693665
20
0.613195538685
11
2.74745004979
21
0.604844626679
0
LINE
5
3E4
100
AcDbEntity
8
drawing
6
ByLayer
62
256
370
-1
100
AcDbLine
10
2.74745004979
20
0.604844626679
11
2.7398473795
21
0.591752305435
0
LINE
5
3E5
100
AcDbEntity
8
drawing
6
ByLayer
62
256
370
-1
100
AcDbLine
10
3.40001417364
20
0.439019374
11
3.41194404794
21
0.449756260864
0
LINE
5
3E6
100
AcDbEntity
8
drawing
6
ByLayer
62
256
370
-1
100
AcDbLine
10
3.41194404794
20
0.449756260864
11
3.41910197251
21
0.459300160299
0
LINE
5
3E7
100
AcDbEntity
8
drawing
6
ByLayer
62
256
370
-1
100
AcDbLine
10
3.41910197251
20
0.459300160299
11
3.42864587195
21
0.471230034592
0
LINE
5
3E8
100
AcDbEntity
8
drawing
6
ByLayer
62
256
370
-1
100
AcDbLine
10
3.42864587195
20
0.471230034592
11
3.4429617211
21
0.486738871174
0
LINE
5
3E9
100
AcDbEntity
8
drawing
6
ByLayer
62
256
370
-1
100
AcDbLine
10
3.4429617211
20
0.486738871174
11
3.4715934194
21
0.522528494054
0
LINE
5
3EA
100
AcDbEntity
8
drawing
6
ByLayer
62
256
370
-1
100
AcDbLine
10
3.4715934194
20
0.522528494054
11
3.5729973509
21
0.647792174136
0
LINE
5
3EB
100
AcDbEntity
8
drawing
6
ByLayer
62
256
370
-1
100
AcDbLine
10
3.5729973509
20
0.647792174136
11
3.61713788578
21
0.714599470179
0
LINE
5
3EC
100
AcDbEntity
8
drawing
6
ByLayer
62
256
370
-1
100
AcDbLine
10
3.61713788578
20
0.714599470179
11
3.65292750866
21
0.767090917071
0
LINE
5
3ED
100
AcDbEntity
8
drawing
6
ByLayer
62
256
370
-1
100
AcDbLine
10
3.65292750866
20
0.767090917071
11
3.69229609383
21
0.819582363962
0
LINE
5
3EE
100
AcDbEntity
8
drawing
6
ByLayer
62
256
370
-1
100
AcDbLine
10
3.69229609383
20
0.819582363962
11
3.73524364129
21
0.887582647435
0
LINE
5
3EF
100
AcDbEntity
8
drawing
6
ByLayer
62
256
370
-1
100
AcDbLine
10
3.73524364129
20
0.887582647435
11
3.7805771636
21
0.959161893196
0
LINE
5
3F0
100
AcDbEntity
8
drawing
6
ByLayer
62
256
370
-1
100
AcDbLine
10
3.7805771636
20
0.959161893196
11
3.80920886191
21
1.0080743778
0
LINE
5
3F1
100
AcDbEntity
8
drawing
6
ByLayer
62
256
370
-1
100
AcDbLine
10
3.64457659666
20
1.01046035266
11
3.61952386064
21
0.974670729777
0
LINE
5
3F2
100
AcDbEntity
8
drawing
6
ByLayer
62
256
370
-1
100
AcDbLine
10
3.61952386064
20
0.974670729777
11
3.6016290492
21
0.949617993761
0
LINE
5
3F3
100
AcDbEntity
8
drawing
6
ByLayer
62
256
370
-1
100
AcDbLine
10
3.6016290492
20
0.949617993761
11
3.58254125033
21
0.916214345739
0
LINE
5
3F4
100
AcDbEntity
8
drawing
6
ByLayer
62
256
370
-1
100
AcDbLine
10
3.58254125033
20
0.916214345739
11
3.57180436347
21
0.89712654687
0
LINE
5
3F5
100
AcDbEntity
8
drawing
6
ByLayer
62
256
370
-1
100
AcDbLine
10
3.57180436347
20
0.89712654687
11
3.56345345146
21
0.868494848565
0
LINE
5
3F6
100
AcDbEntity
8
drawing
6
ByLayer
62
256
370
-1
100
AcDbLine
10
3.56345345146
20
0.868494848565
11
3.5527165646
21
0.838670162832
0
LINE
5
3F7
100
AcDbEntity
8
drawing
6
ByLayer
62
256
370
-1
100
AcDbLine
10
3.7113838927
20
1.01046035266
11
3.68513816926
21
0.972284754919
0
LINE
5
3F8
100
AcDbEntity
8
drawing
6
ByLayer
62
256
370
-1
100
AcDbLine
10
3.68513816926
20
0.972284754919
11
3.65412049609
21
0.937688119467
0
LINE
5
3F9
100
AcDbEntity
8
drawing
6
ByLayer
62
256
370
-1
100
AcDbLine
10
3.65412049609
20
0.937688119467
11
3.61594489835
21
0.894740572011
0
LINE
5
3FA
100
AcDbEntity
8
drawing
6
ByLayer
62
256
370
-1
100
AcDbLine
10
3.61594489835
20
0.894740572011
11
3.58731320005
21
0.863722898848
0
LINE
5
3FB
100
AcDbEntity
8
drawing
6
ByLayer
62
256
370
-1
100
AcDbLine
10
3.58731320005
20
0.863722898848
11
3.56464643889
21
0.839863150261
0
LINE
5
3FC
100
AcDbEntity
8
drawing
6
ByLayer
62
256
370
-1
100
AcDbLine
10
3.56464643889
20
0.839863150261
11
3.52766382858
21
0.816003401674
0
LINE
5
3FD
100
AcDbEntity
8
drawing
6
ByLayer
62
256
370
-1
100
AcDbLine
10
3.52766382858
20
0.816003401674
11
3.50499706742
21
0.792143653087
0
LINE
5
3FE
100
AcDbEntity
8
drawing
6
ByLayer
62
256
370
-1
100
AcDbLine
10
3.50499706742
20
0.792143653087
11
3.44773367082
21
0.755161042777
0
LINE
5
3FF
100
AcDbEntity
8
drawing
6
ByLayer
62
256
370
-1
100
AcDbLine
10
3.44773367082
20
0.755161042777
11
3.42029495994
21
0.73130129419
0
LINE
5
400
100
AcDbEntity
8
drawing
6
ByLayer
62
256
370
-1
100
AcDbLine
10
3.42029495994
20
0.73130129419
11
3.39524222392
21
0.701476608457
0
LINE
5
401
100
AcDbEntity
8
drawing
6
ByLayer
62
256
370
-1
100
AcDbLine
10
3.39524222392
20
0.701476608457
11
3.36661052562
21
0.674037897582
0
LINE
5
402
100
AcDbEntity
8
drawing
6
ByLayer
62
256
370
-1
100
AcDbLine
10
3.36661052562
20
0.674037897582
11
3.34513675189
21
0.644213211848
0
LINE
5
403
100
AcDbEntity
8
drawing
6
ByLayer
62
256
370
-1
100
AcDbLine
10
3.34513675189
20
0.644213211848
11
3.33082090274
21
0.612002551256
0
LINE
5
404
100
AcDbEntity
8
drawing
6
ByLayer
62
256
370
-1
100
AcDbLine
10
3.33082090274
20
0.612002551256
11
3.3179175507
21
0.571106942177
0
LINE
5
405
100
AcDbEntity
8
drawing
6
ByLayer
62
256
370
-1
100
AcDbLine
10
3.3179175507
20
0.571106942177
11
3.31364188376
21
0.542398892678
0
LINE
5
406
100
AcDbEntity
8
drawing
6
ByLayer
62
256
370
-1
100
AcDbLine
10
3.31364188376
20
0.542398892678
11
3.31180945507
21
0.516134081433
0
LINE
5
407
100
AcDbEntity
8
drawing
6
ByLayer
62
256
370
-1
100
AcDbLine
10
3.31180945507
20
0.516134081433
11
3.31486350288
21
0.495366556263
0
LINE
5
408
100
AcDbEntity
8
drawing
6
ByLayer
62
256
370
-1
100
AcDbLine
10
3.31486350288
20
0.495366556263
11
3.32158240809
21
0.481317936295
0
LINE
5
409
100
AcDbEntity
8
drawing
6
ByLayer
62
256
370
-1
100
AcDbLine
10
1.05650966743
20
0.823638521222
11
1.08895892551
21
0.8560877793
0
LINE
5
40A
100
AcDbEntity
8
drawing
6
ByLayer
62
256
370
-1
100
AcDbLine
10
1.08895892551
20
0.8560877793
11
1.12236257353
21
0.879947527887
0
LINE
5
40B
100
AcDbEntity
8
drawing
6
ByLayer
62
256
370
-1
100
AcDbLine
10
1.12236257353
20
0.879947527887
11
1.16244695116
21
0.907624836248
0
LINE
5
40C
100
AcDbEntity
8
drawing
6
ByLayer
62
256
370
-1
100
AcDbLine
10
1.16244695116
20
0.907624836248
11
1.21302961816
21
0.934347754665
0
LINE
5
40D
100
AcDbEntity
8
drawing
6
ByLayer
62
256
370
-1
100
AcDbLine
10
1.21302961816
20
0.934347754665
11
1.266475455
21
0.957253113309
0
LINE
5
40E
100
AcDbEntity
8
drawing
6
ByLayer
62
256
370
-1
100
AcDbLine
10
1.266475455
20
0.957253113309
11
1.32660202143
21
0.968705792631
0
LINE
5
40F
100
AcDbEntity
8
drawing
6
ByLayer
62
256
370
-1
100
AcDbLine
10
1.32660202143
20
0.968705792631
11
1.41726906607
21
0.975386522235
0
LINE
5
410
100
AcDbEntity
8
drawing
6
ByLayer
62
256
370
-1
100
AcDbLine
10
1.41726906607
20
0.975386522235
11
1.47262368279
21
0.972523352404
0
LINE
5
411
100
AcDbEntity
8
drawing
6
ByLayer
62
256
370
-1
100
AcDbLine
10
1.47262368279
20
0.972523352404
11
1.53179585928
21
0.962025063026
0
LINE
5
412
100
AcDbEntity
8
drawing
6
ByLayer
62
256
370
-1
100
AcDbLine
10
1.53179585928
20
0.962025063026
11
1.59001364583
21
0.945800433987
0
LINE
5
413
100
AcDbEntity
8
drawing
6
ByLayer
62
256
370
-1
100
AcDbLine
10
1.59001364583
20
0.945800433987
11
1.66541045137
21
0.905716056361
0
LINE
5
414
100
AcDbEntity
8
drawing
6
ByLayer
62
256
370
-1
100
AcDbLine
10
1.66541045137
20
0.905716056361
11
1.71122116866
21
0.879947527887
0
LINE
5
415
100
AcDbEntity
8
drawing
6
ByLayer
62
256
370
-1
100
AcDbLine
10
1.71122116866
20
0.879947527887
11
1.74653359657
21
0.858950949131
0
LINE
5
416
100
AcDbEntity
8
drawing
6
ByLayer
62
256
370
-1
100
AcDbLine
10
1.74653359657
20
0.858950949131
11
1.77898285464
21
0.852270219526
0
LINE
5
417
100
AcDbEntity
8
drawing
6
ByLayer
62
256
370
-1
100
AcDbLine
10
1.77852108261
20
0.85220150345
11
1.7980842516
21
0.852607307733
0
LINE
5
418
100
AcDbEntity
8
drawing
6
ByLayer
62
256
370
-1
100
AcDbLine
10
1.94850730038
20
0.51843691998
11
3.94070310524
21
0.51843691998
0
LINE
5
419
100
AcDbEntity
8
drawing
6
ByLayer
62
256
370
-1
100
AcDbLine
10
2.67229184174
20
0.85322460947
11
2.68183574117
21
0.821968338821
0
LINE
5
41A
100
AcDbEntity
8
drawing
6
ByLayer
62
256
370
-1
100
AcDbLine
10
2.68183574117
20
0.821968338821
11
2.69257262804
21
0.784985728511
0
LINE
5
41B
100
AcDbEntity
8
drawing
6
ByLayer
62
256
370
-1
100
AcDbLine
10
2.69257262804
20
0.784985728511
11
2.70450250233
21
0.751582080489
0
LINE
5
41C
100
AcDbEntity
8
drawing
6
ByLayer
62
256
370
-1
100
AcDbLine
10
2.70450250233
20
0.751582080489
11
2.72120432634
21
0.722950382185
0
LINE
5
41D
100
AcDbEntity
8
drawing
6
ByLayer
62
256
370
-1
100
AcDbLine
10
2.72120432634
20
0.722950382185
11
2.73909913778
21
0.707441545603
0
LINE
5
41E
100
AcDbEntity
8
drawing
6
ByLayer
62
256
370
-1
100
AcDbLine
10
2.73909913778
20
0.707441545603
11
2.75580096179
21
0.694318683881
0
LINE
5
41F
100
AcDbEntity
8
drawing
6
ByLayer
62
256
370
-1
100
AcDbLine
10
2.75580096179
20
0.694318683881
11
2.77846772295
21
0.685967771875
0
LINE
5
420
100
AcDbEntity
8
drawing
6
ByLayer
62
256
370
-1
100
AcDbLine
10
2.77846772295
20
0.685967771875
11
2.79755552182
21
0.682388809587
0
LINE
5
421
100
AcDbEntity
8
drawing
6
ByLayer
62
256
370
-1
100
AcDbLine
10
2.79755552182
20
0.682388809587
11
2.8333451447
21
0.680002834728
0
LINE
5
422
100
AcDbEntity
8
drawing
6
ByLayer
62
256
370
-1
100
AcDbLine
10
2.8333451447
20
0.680002834728
11
3.36661052562
21
0.674037897582
0
LINE
5
423
100
AcDbEntity
8
drawing
6
ByLayer
62
256
370
-1
100
AcDbLine
10
2.82738020755
20
1.1381100076
11
2.88345061673
21
1.14168896989
0
LINE
5
424
100
AcDbEntity
8
drawing
6
ByLayer
62
256
370
-1
100
AcDbLine
10
1.81453388004
20
0.264843209315
11
4.06341062335
21
0.260357576581
0
LINE
5
425
100
AcDbEntity
8
drawing
6
ByLayer
62
256
370
-1
100
AcDbLine
10
4.06341062335
20
0.260357576581
11
4.07045213373
21
0.264998703106
0
LINE
5
426
100
AcDbEntity
8
drawing
6
ByLayer
62
256
370
-1
100
AcDbLine
10
1.12439065216
20
2.13097379567
11
1.24667186367
21
2.12351762424
0
LINE
5
427
100
AcDbEntity
8
drawing
6
ByLayer
62
256
370
-1
100
AcDbLine
10
1.24667186367
20
2.12351762424
11
1.29439136084
21
2.12351762424
0
LINE
5
428
100
AcDbEntity
8
drawing
6
ByLayer
62
256
370
-1
100
AcDbLine
10
1.29439136084
20
2.12351762424
11
1.35254949802
21
2.12351762424
0
LINE
5
429
100
AcDbEntity
8
drawing
6
ByLayer
62
256
370
-1
100
AcDbLine
10
1.35254949802
20
2.12351762424
11
1.41369010378
21
2.12948256138
0
LINE
5
42A
100
AcDbEntity
8
drawing
6
ByLayer
62
256
370
-1
100
AcDbLine
10
1.41369010378
20
2.12948256138
11
1.4778131781
21
2.12202638995
0
LINE
5
42B
100
AcDbEntity
8
drawing
6
ByLayer
62
256
370
-1
100
AcDbLine
10
1.4778131781
20
2.12202638995
11
1.55535736101
21
2.12650009281
0
LINE
5
42C
100
AcDbEntity
8
drawing
6
ByLayer
62
256
370
-1
100
AcDbLine
10
1.55535736101
20
2.12650009281
11
1.60009438961
21
2.13395626424
0
LINE
5
42D
100
AcDbEntity
8
drawing
6
ByLayer
62
256
370
-1
100
AcDbLine
10
1.60009438961
20
2.13395626424
11
1.68509474395
21
2.12202638995
0
LINE
5
42E
100
AcDbEntity
8
drawing
6
ByLayer
62
256
370
-1
100
AcDbLine
10
1.68509474395
20
2.12202638995
11
1.77158633258
21
2.12202638995
0
LINE
5
42F
100
AcDbEntity
8
drawing
6
ByLayer
62
256
370
-1
100
AcDbLine
10
1.77158633258
20
2.12202638995
11
1.82377953261
21
2.1160614528
0
LINE
5
430
100
AcDbEntity
8
drawing
6
ByLayer
62
256
370
-1
100
AcDbLine
10
1.82377953261
20
2.1160614528
11
1.87448149836
21
2.1160614528
0
LINE
5
431
100
AcDbEntity
8
drawing
6
ByLayer
62
256
370
-1
100
AcDbLine
10
1.87448149836
20
2.1160614528
11
1.91623605839
21
2.11904392138
0
LINE
5
432
100
AcDbEntity
8
drawing
6
ByLayer
62
256
370
-1
100
AcDbLine
10
1.91623605839
20
2.11904392138
11
1.94009580697
21
2.12351762424
0
LINE
5
433
100
AcDbEntity
8
drawing
6
ByLayer
62
256
370
-1
100
AcDbLine
10
1.93860457269
20
2.12113164938
11
1.93741158526
21
2.05432435333
0
LINE
5
434
100
AcDbEntity
8
drawing
6
ByLayer
62
256
370
-1
100
AcDbLine
10
1.93741158526
20
2.05432435333
11
1.93144664811
21
1.99109601958
0
LINE
5
435
100
AcDbEntity
8
drawing
6
ByLayer
62
256
370
-1
100
AcDbLine
10
1.93144664811
20
1.99109601958
11
1.93025366068
21
1.93621859783
0
LINE
5
436
100
AcDbEntity
8
drawing
6
ByLayer
62
256
370
-1
100
AcDbLine
10
1.93025366068
20
1.93621859783
11
1.93979756012
21
1.90520092467
0
LINE
5
437
100
AcDbEntity
8
drawing
6
ByLayer
62
256
370
-1
100
AcDbLine
10
1.93979756012
20
1.90520092467
11
1.94934145955
21
1.84674454063
0
LINE
5
438
100
AcDbEntity
8
drawing
6
ByLayer
62
256
370
-1
100
AcDbLine
10
1.94934145955
20
1.84674454063
11
1.95053444698
21
1.77755126973
0
LINE
5
439
100
AcDbEntity
8
drawing
6
ByLayer
62
256
370
-1
100
AcDbLine
10
1.95053444698
20
1.77755126973
11
1.94814847212
21
1.71432293597
0
LINE
5
43A
100
AcDbEntity
8
drawing
6
ByLayer
62
256
370
-1
100
AcDbLine
10
1.94814847212
20
1.71432293597
11
1.93621859783
21
1.68211227538
0
LINE
5
43B
100
AcDbEntity
8
drawing
6
ByLayer
62
256
370
-1
100
AcDbLine
10
1.93621859783
20
1.68211227538
11
1.93741158526
21
1.58667328103
0
LINE
5
43C
100
AcDbEntity
8
drawing
6
ByLayer
62
256
370
-1
100
AcDbLine
10
1.93741158526
20
1.58667328103
11
1.94456950983
21
1.49004129925
0
LINE
5
43D
100
AcDbEntity
8
drawing
6
ByLayer
62
256
370
-1
100
AcDbLine
10
1.94456950983
20
1.49004129925
11
1.94456950983
21
1.4065321792
0
LINE
5
43E
100
AcDbEntity
8
drawing
6
ByLayer
62
256
370
-1
100
AcDbLine
10
1.94456950983
20
1.4065321792
11
1.93263963554
21
1.36477761917
0
LINE
5
43F
100
AcDbEntity
8
drawing
6
ByLayer
62
256
370
-1
100
AcDbLine
10
1.93263963554
20
1.36477761917
11
1.93383262297
21
1.31586513457
0
LINE
5
440
100
AcDbEntity
8
drawing
6
ByLayer
62
256
370
-1
100
AcDbLine
10
1.93383262297
20
1.31586513457
11
1.94099054755
21
1.24905783853
0
LINE
5
441
100
AcDbEntity
8
drawing
6
ByLayer
62
256
370
-1
100
AcDbLine
10
1.94099054755
20
1.24905783853
11
1.88492013837
21
1.2562157631
0
LINE
5
442
100
AcDbEntity
8
drawing
6
ByLayer
62
256
370
-1
100
AcDbLine
10
1.88492013837
20
1.2562157631
11
1.83839362862
21
1.25979472539
0
LINE
5
443
100
AcDbEntity
8
drawing
6
ByLayer
62
256
370
-1
100
AcDbLine
10
1.83839362862
20
1.25979472539
11
1.7966390686
21
1.2562157631
0
LINE
5
444
100
AcDbEntity
8
drawing
6
ByLayer
62
256
370
-1
100
AcDbLine
10
1.7966390686
20
1.2562157631
11
1.74295463428
21
1.25382978824
0
LINE
5
445
100
AcDbEntity
8
drawing
6
ByLayer
62
256
370
-1
100
AcDbLine
10
1.74295463428
20
1.25382978824
11
1.6952351371
21
1.25382978824
0
LINE
5
446
100
AcDbEntity
8
drawing
6
ByLayer
62
256
370
-1
100
AcDbLine
10
1.6952351371
20
1.25382978824
11
1.64751563993
21
1.25263680081
0
LINE
5
447
100
AcDbEntity
8
drawing
6
ByLayer
62
256
370
-1
100
AcDbLine
10
1.64751563993
20
1.25263680081
11
1.57355041931
21
1.25979472539
0
LINE
5
448
100
AcDbEntity
8
drawing
6
ByLayer
62
256
370
-1
100
AcDbLine
10
1.57355041931
20
1.25979472539
11
1.5162870227
21
1.25860173796
0
LINE
5
449
100
AcDbEntity
8
drawing
6
ByLayer
62
256
370
-1
100
AcDbLine
10
1.5162870227
20
1.25860173796
11
1.4757254501
21
1.24905783853
0
LINE
5
44A
100
AcDbEntity
8
drawing
6
ByLayer
62
256
370
-1
100
AcDbLine
10
1.4757254501
20
1.24905783853
11
1.44232180208
21
1.24905783853
0
LINE
5
44B
100
AcDbEntity
8
drawing
6
ByLayer
62
256
370
-1
100
AcDbLine
10
1.44232180208
20
1.24905783853
11
1.35881268203
21
1.24667186367
0
LINE
5
44C
100
AcDbEntity
8
drawing
6
ByLayer
62
256
370
-1
100
AcDbLine
10
1.35881268203
20
1.24667186367
11
1.29797032313
21
1.24905783853
0
LINE
5
44D
100
AcDbEntity
8
drawing
6
ByLayer
62
256
370
-1
100
AcDbLine
10
1.29797032313
20
1.24905783853
11
1.2275840648
21
1.2562157631
0
LINE
5
44E
100
AcDbEntity
8
drawing
6
ByLayer
62
256
370
-1
100
AcDbLine
10
1.2275840648
20
1.2562157631
11
1.15361884418
21
1.25263680081
0
LINE
5
44F
100
AcDbEntity
8
drawing
6
ByLayer
62
256
370
-1
100
AcDbLine
10
1.15361884418
20
1.25263680081
11
1.12140818359
21
1.24905783853
0
LINE
5
450
100
AcDbEntity
8
drawing
6
ByLayer
62
256
370
-1
100
AcDbLine
10
1.12260117102
20
1.25144381338
11
1.13095208302
21
1.27768953683
0
LINE
5
451
100
AcDbEntity
8
drawing
6
ByLayer
62
256
370
-1
100
AcDbLine
10
1.13095208302
20
1.27768953683
11
1.13214507045
21
1.33018098372
0
LINE
5
452
100
AcDbEntity
8
drawing
6
ByLayer
62
256
370
-1
100
AcDbLine
10
1.13214507045
20
1.33018098372
11
1.13095208302
21
1.3779004809
0
LINE
5
453
100
AcDbEntity
8
drawing
6
ByLayer
62
256
370
-1
100
AcDbLine
10
1.13095208302
20
1.3779004809
11
1.12260117102
21
1.4470937518
0
LINE
5
454
100
AcDbEntity
8
drawing
6
ByLayer
62
256
370
-1
100
AcDbLine
10
1.12260117102
20
1.4470937518
11
1.12021519616
21
1.47930441239
0
LINE
5
455
100
AcDbEntity
8
drawing
6
ByLayer
62
256
370
-1
100
AcDbLine
10
1.12021519616
20
1.47930441239
11
1.11902220873
21
1.49123428668
0
LINE
5
456
100
AcDbEntity
8
drawing
6
ByLayer
62
256
370
-1
100
AcDbLine
10
1.11902220873
20
1.49123428668
11
1.12260117102
21
1.55207664558
0
LINE
5
457
100
AcDbEntity
8
drawing
6
ByLayer
62
256
370
-1
100
AcDbLine
10
1.12260117102
20
1.55207664558
11
1.12856610816
21
1.64155070278
0
LINE
5
458
100
AcDbEntity
8
drawing
6
ByLayer
62
256
370
-1
100
AcDbLine
10
1.12856610816
20
1.64155070278
11
1.12856610816
21
1.70120007425
0
LINE
5
459
100
AcDbEntity
8
drawing
6
ByLayer
62
256
370
-1
100
AcDbLine
10
1.12856610816
20
1.70120007425
11
1.12140818359
21
1.77039334515
0
LINE
5
45A
100
AcDbEntity
8
drawing
6
ByLayer
62
256
370
-1
100
AcDbLine
10
1.12140818359
20
1.77039334515
11
1.12140818359
21
1.83958661605
0
LINE
5
45B
100
AcDbEntity
8
drawing
6
ByLayer
62
256
370
-1
100
AcDbLine
10
1.12140818359
20
1.83958661605
11
1.13214507045
21
1.90162196238
0
LINE
5
45C
100
AcDbEntity
8
drawing
6
ByLayer
62
256
370
-1
100
AcDbLine
10
1.13214507045
20
1.90162196238
11
1.13453104531
21
1.94456950983
0
LINE
5
45D
100
AcDbEntity
8
drawing
6
ByLayer
62
256
370
-1
100
AcDbLine
10
1.13453104531
20
1.94456950983
11
1.12737312073
21
2.0447804539
0
LINE
5
45E
100
AcDbEntity
8
drawing
6
ByLayer
62
256
370
-1
100
AcDbLine
10
1.12737312073
20
2.0447804539
11
1.12140818359
21
2.12709658652
0
ENDSEC
0
SECTION
2
OBJECTS
0
DICTIONARY
5
C
330
0
100
AcDbDictionary
281
1
3
ACAD_GROUP
350
D
3
ACAD_IMAGE_DICT
350
45F
0
DICTIONARY
5
D
330
C
100
AcDbDictionary
281
1
0
IMAGEDEF_REACTOR
5
90
330
91
100
AcDbRasterImageDefReactor
90
2
330
91
0
IMAGEDEF_REACTOR
5
93
330
94
100
AcDbRasterImageDefReactor
90
2
330
94
0
DICTIONARY
5
45F
330
C
100
AcDbDictionary
281
1
3
fluxSketch
350
8F
3
Back-To-The-Future-DeLorean-Blueprint
350
92
0
IMAGEDEF
5
8F
102
{ACAD_REACTORS
330
90
102
}
100
AcDbRasterImageDef
90
0
1
/home/wobisch/Robots/LaserCutter/libreCAD/Brick-displays/microTC/fluxSketch.jpg
10
550
20
550
11
1
21
1
280
1
281
0
0
IMAGEDEF
5
92
102
{ACAD_REACTORS
330
93
102
}
100
AcDbRasterImageDef
90
0
1
/home/wobisch/Robots/LaserCutter/libreCAD/Brick-displays/microTC/Back-To-The-Future-DeLorean-Blueprint.jpg
10
2100
20
1650
11
1
21
1
280
1
281
0
0
ENDSEC
0
EOF
