999
dxfrw 0.5.10
0
SECTION
2
HEADER
9
$ACADVER
1
AC1021
9
$HANDSEED
5
20000
9
$DWGCODEPAGE
3
ANSI_1252
9
$INSBASE
10
0
20
0
30
0
9
$EXTMIN
10
0
20
-0.3125
30
0
9
$EXTMAX
10
7.8125
20
5.53125
30
0
9
$LIMMIN
10
0
20
0
9
$LIMMAX
10
420
20
297
9
$ORTHOMODE
70
0
9
$LTSCALE
40
1
9
$TEXTSTYLE
7
STANDARD
9
$CLAYER
8
dimensions
9
$DIMASZ
40
2.5
9
$DIMLFAC
40
1
9
$DIMSCALE
40
0.05
9
$DIMEXO
40
0.625
9
$DIMEXE
40
1.25
9
$DIMTXT
40
2.5
9
$DIMTSZ
40
0
9
$DIMAUNIT
70
0
9
$DIMADEC
70
2
9
$DIMLUNIT
70
5
9
$DIMSTYLE
2
STANDARD
9
$DIMGAP
40
0.625
9
$DIMTIH
70
0
9
$LUNITS
70
5
9
$LUPREC
70
5
9
$AUNITS
70
0
9
$AUPREC
70
2
9
$SPLINESEGS
70
8
9
$GRIDMODE
70
1
9
$SNAPSTYLE
70
0
9
$GRIDUNIT
10
0
20
0
9
$PINSBASE
10
1.59375
20
1.640625
30
0
9
$PLIMMIN
10
0
20
0
9
$PLIMMAX
10
11
20
8.5
9
$INSUNITS
70
1
9
$PSVPSCALE
40
1
0
ENDSEC
0
SECTION
2
CLASSES
0
ENDSEC
0
SECTION
2
TABLES
0
TABLE
2
VPORT
5
8
330
0
100
AcDbSymbolTable
70
1
0
VPORT
5
31
330
2
100
AcDbSymbolTableRecord
100
AcDbViewportTableRecord
2
*ACTIVE
70
0
10
0
20
0
11
1
21
1
12
5.24753492788
22
2.83823193491
13
0
23
0
14
10
24
10
15
10
25
10
16
0
26
0
36
1
17
0
27
0
37
0
40
6.57082634448
41
2.24861111111
42
50
43
0
44
0
50
0
51
0
71
0
72
100
73
1
74
3
75
0
76
1
77
0
78
0
281
0
65
1
110
0
120
0
130
0
111
1
121
0
131
0
112
0
122
1
132
0
79
0
146
0
348
10020
60
7
61
5
292
1
282
1
141
0
142
0
63
250
421
3358443
0
ENDTAB
0
TABLE
2
LTYPE
5
5
330
0
100
AcDbSymbolTable
70
4
0
LTYPE
5
14
330
5
100
AcDbSymbolTableRecord
100
AcDbLinetypeTableRecord
2
ByBlock
70
0
3

72
65
73
0
40
0
0
LTYPE
5
15
330
5
100
AcDbSymbolTableRecord
100
AcDbLinetypeTableRecord
2
ByLayer
70
0
3

72
65
73
0
40
0
0
LTYPE
5
16
330
5
100
AcDbSymbolTableRecord
100
AcDbLinetypeTableRecord
2
Continuous
70
0
3
Solid line
72
65
73
0
40
0
0
LTYPE
5
32
330
5
100
AcDbSymbolTableRecord
100
AcDbLinetypeTableRecord
2
DOT
70
0
3
Dot . . . . . . . . . . . . . . . . . . . . . .
72
65
73
2
40
6.35
49
0
74
0
49
-6.35
74
0
0
LTYPE
5
33
330
5
100
AcDbSymbolTableRecord
100
AcDbLinetypeTableRecord
2
DOT2
70
0
3
Dot (.5x) .....................................
72
65
73
2
40
3.175
49
0
74
0
49
-3.175
74
0
0
LTYPE
5
34
330
5
100
AcDbSymbolTableRecord
100
AcDbLinetypeTableRecord
2
DOTX2
70
0
3
Dot (2x) .  .  .  .  .  .  .  .  .  .  .  .  .
72
65
73
2
40
12.7
49
0
74
0
49
-12.7
74
0
0
LTYPE
5
35
330
5
100
AcDbSymbolTableRecord
100
AcDbLinetypeTableRecord
2
DASHED
70
0
3
Dot . . . . . . . . . . . . . . . . . . . . . .
72
65
73
2
40
19.05
49
12.7
74
0
49
-6.35
74
0
0
LTYPE
5
36
330
5
100
AcDbSymbolTableRecord
100
AcDbLinetypeTableRecord
2
DASHED2
70
0
3
Dashed (.5x) _ _ _ _ _ _ _ _ _ _ _ _ _ _ _ _ _
72
65
73
2
40
9.525
49
6.35
74
0
49
-3.175
74
0
0
LTYPE
5
37
330
5
100
AcDbSymbolTableRecord
100
AcDbLinetypeTableRecord
2
DASHEDX2
70
0
3
Dashed (2x) ____  ____  ____  ____  ____  ___
72
65
73
2
40
38.1
49
25.4
74
0
49
-12.7
74
0
0
LTYPE
5
38
330
5
100
AcDbSymbolTableRecord
100
AcDbLinetypeTableRecord
2
DASHDOT
70
0
3
Dash dot __ . __ . __ . __ . __ . __ . __ . __
72
65
73
4
40
25.4
49
12.7
74
0
49
-6.35
74
0
49
0
74
0
49
-6.35
74
0
0
LTYPE
5
39
330
5
100
AcDbSymbolTableRecord
100
AcDbLinetypeTableRecord
2
DASHDOT2
70
0
3
Dash dot (.5x) _._._._._._._._._._._._._._._.
72
65
73
4
40
12.7
49
6.35
74
0
49
-3.175
74
0
49
0
74
0
49
-3.175
74
0
0
LTYPE
5
3A
330
5
100
AcDbSymbolTableRecord
100
AcDbLinetypeTableRecord
2
DASHDOTX2
70
0
3
Dash dot (2x) ____  .  ____  .  ____  .  ___
72
65
73
4
40
50.8
49
25.4
74
0
49
-12.7
74
0
49
0
74
0
49
-12.7
74
0
0
LTYPE
5
3B
330
5
100
AcDbSymbolTableRecord
100
AcDbLinetypeTableRecord
2
DIVIDE
70
0
3
Divide ____ . . ____ . . ____ . . ____ . . ____
72
65
73
6
40
31.75
49
12.7
74
0
49
-6.35
74
0
49
0
74
0
49
-6.35
74
0
49
0
74
0
49
-6.35
74
0
0
LTYPE
5
3C
330
5
100
AcDbSymbolTableRecord
100
AcDbLinetypeTableRecord
2
DIVIDE2
70
0
3
Divide (.5x) __..__..__..__..__..__..__..__.._
72
65
73
6
40
15.875
49
6.35
74
0
49
-3.175
74
0
49
0
74
0
49
-3.175
74
0
49
0
74
0
49
-3.175
74
0
0
LTYPE
5
3D
330
5
100
AcDbSymbolTableRecord
100
AcDbLinetypeTableRecord
2
DIVIDEX2
70
0
3
Divide (2x) ________  .  .  ________  .  .  _
72
65
73
6
40
63.5
49
25.4
74
0
49
-12.7
74
0
49
0
74
0
49
-12.7
74
0
49
0
74
0
49
-12.7
74
0
0
LTYPE
5
3E
330
5
100
AcDbSymbolTableRecord
100
AcDbLinetypeTableRecord
2
BORDER
70
0
3
Border __ __ . __ __ . __ __ . __ __ . __ __ .
72
65
73
6
40
44.45
49
12.7
74
0
49
-6.35
74
0
49
12.7
74
0
49
-6.35
74
0
49
0
74
0
49
-6.35
74
0
0
LTYPE
5
3F
330
5
100
AcDbSymbolTableRecord
100
AcDbLinetypeTableRecord
2
BORDER2
70
0
3
Border (.5x) __.__.__.__.__.__.__.__.__.__.__.
72
65
73
6
40
22.225
49
6.35
74
0
49
-3.175
74
0
49
6.35
74
0
49
-3.175
74
0
49
0
74
0
49
-3.175
74
0
0
LTYPE
5
40
330
5
100
AcDbSymbolTableRecord
100
AcDbLinetypeTableRecord
2
BORDERX2
70
0
3
Border (2x) ____  ____  .  ____  ____  .  ___
72
65
73
6
40
88.9
49
25.4
74
0
49
-12.7
74
0
49
25.4
74
0
49
-12.7
74
0
49
0
74
0
49
-12.7
74
0
0
LTYPE
5
41
330
5
100
AcDbSymbolTableRecord
100
AcDbLinetypeTableRecord
2
CENTER
70
0
3
Center ____ _ ____ _ ____ _ ____ _ ____ _ ____
72
65
73
4
40
50.8
49
31.75
74
0
49
-6.35
74
0
49
6.35
74
0
49
-6.35
74
0
0
LTYPE
5
42
330
5
100
AcDbSymbolTableRecord
100
AcDbLinetypeTableRecord
2
CENTER2
70
0
3
Center (.5x) ___ _ ___ _ ___ _ ___ _ ___ _ ___
72
65
73
4
40
28.575
49
19.05
74
0
49
-3.175
74
0
49
3.175
74
0
49
-3.175
74
0
0
LTYPE
5
43
330
5
100
AcDbSymbolTableRecord
100
AcDbLinetypeTableRecord
2
CENTERX2
70
0
3
Center (2x) ________  __  ________  __  _____
72
65
73
4
40
101.6
49
63.5
74
0
49
-12.7
74
0
49
12.7
74
0
49
-12.7
74
0
0
ENDTAB
0
TABLE
2
LAYER
5
2
330
0
100
AcDbSymbolTable
70
1
0
LAYER
5
10
330
2
100
AcDbSymbolTableRecord
100
AcDbLayerTableRecord
2
0
70
0
62
7
6
CONTINUOUS
370
0
390
F
0
LAYER
5
44
330
2
100
AcDbSymbolTableRecord
100
AcDbLayerTableRecord
2
sketch
70
0
62
5
6
CONTINUOUS
370
0
390
F
0
LAYER
5
45
330
2
100
AcDbSymbolTableRecord
100
AcDbLayerTableRecord
2
dimensions
70
0
62
96
420
32768
6
CONTINUOUS
370
0
390
F
0
ENDTAB
0
TABLE
2
STYLE
5
3
330
0
100
AcDbSymbolTable
70
3
0
STYLE
5
46
330
2
100
AcDbSymbolTableRecord
100
AcDbTextStyleTableRecord
2
standard
70
0
40
0
41
1
50
0
71
0
42
1
3
standard
4

0
ENDTAB
0
TABLE
2
VIEW
5
6
330
0
100
AcDbSymbolTable
70
0
0
ENDTAB
0
TABLE
2
UCS
5
7
330
0
100
AcDbSymbolTable
70
0
0
ENDTAB
0
TABLE
2
APPID
5
9
330
0
100
AcDbSymbolTable
70
1
0
APPID
5
12
330
9
100
AcDbSymbolTableRecord
100
AcDbRegAppTableRecord
2
ACAD
70
0
0
ENDTAB
0
TABLE
2
DIMSTYLE
5
A
330
0
100
AcDbSymbolTable
70
1
100
AcDbDimStyleTable
71
1
0
DIMSTYLE
105
47
330
A
100
AcDbSymbolTableRecord
100
AcDbDimStyleTableRecord
2
Standard
70
0
40
1
41
2.5
42
0.625
43
0.38
44
1.25
45
0
46
0
47
0
48
0
140
2.5
141
0.09
142
0
143
25.4
144
1
145
0
146
1
147
0.625
148
0
71
0
72
0
73
0
74
1
75
0
76
0
77
0
78
0
79
0
170
0
171
2
172
0
173
0
174
0
175
0
176
0
177
0
178
0
179
0
271
4
272
4
273
2
274
2
275
0
276
0
277
2
278
46
279
0
280
0
281
0
282
0
283
1
284
0
285
0
286
0
288
0
289
3
340
Standard
341

371
-2
372
-2
0
ENDTAB
0
TABLE
2
BLOCK_RECORD
5
1
330
0
100
AcDbSymbolTable
70
2
0
BLOCK_RECORD
5
1F
330
1
100
AcDbSymbolTableRecord
100
AcDbBlockTableRecord
2
*Model_Space
70
0
280
1
281
0
0
BLOCK_RECORD
5
1E
330
1
100
AcDbSymbolTableRecord
100
AcDbBlockTableRecord
2
*Paper_Space
70
0
280
1
281
0
0
BLOCK_RECORD
5
48
330
1
100
AcDbSymbolTableRecord
100
AcDbBlockTableRecord
2
*D27
70
0
280
1
281
0
0
BLOCK_RECORD
5
4B
330
1
100
AcDbSymbolTableRecord
100
AcDbBlockTableRecord
2
*D11
70
0
280
1
281
0
0
BLOCK_RECORD
5
4E
330
1
100
AcDbSymbolTableRecord
100
AcDbBlockTableRecord
2
*D20
70
0
280
1
281
0
0
BLOCK_RECORD
5
51
330
1
100
AcDbSymbolTableRecord
100
AcDbBlockTableRecord
2
*D25
70
0
280
1
281
0
0
BLOCK_RECORD
5
54
330
1
100
AcDbSymbolTableRecord
100
AcDbBlockTableRecord
2
*D18
70
0
280
1
281
0
0
BLOCK_RECORD
5
57
330
1
100
AcDbSymbolTableRecord
100
AcDbBlockTableRecord
2
*D8
70
0
280
1
281
0
0
BLOCK_RECORD
5
5A
330
1
100
AcDbSymbolTableRecord
100
AcDbBlockTableRecord
2
*D14
70
0
280
1
281
0
0
BLOCK_RECORD
5
5D
330
1
100
AcDbSymbolTableRecord
100
AcDbBlockTableRecord
2
*D15
70
0
280
1
281
0
0
BLOCK_RECORD
5
60
330
1
100
AcDbSymbolTableRecord
100
AcDbBlockTableRecord
2
*D13
70
0
280
1
281
0
0
BLOCK_RECORD
5
63
330
1
100
AcDbSymbolTableRecord
100
AcDbBlockTableRecord
2
*D10
70
0
280
1
281
0
0
BLOCK_RECORD
5
66
330
1
100
AcDbSymbolTableRecord
100
AcDbBlockTableRecord
2
*D28
70
0
280
1
281
0
0
BLOCK_RECORD
5
69
330
1
100
AcDbSymbolTableRecord
100
AcDbBlockTableRecord
2
*D4
70
0
280
1
281
0
0
BLOCK_RECORD
5
6C
330
1
100
AcDbSymbolTableRecord
100
AcDbBlockTableRecord
2
*D1
70
0
280
1
281
0
0
BLOCK_RECORD
5
6F
330
1
100
AcDbSymbolTableRecord
100
AcDbBlockTableRecord
2
*D3
70
0
280
1
281
0
0
BLOCK_RECORD
5
72
330
1
100
AcDbSymbolTableRecord
100
AcDbBlockTableRecord
2
*D16
70
0
280
1
281
0
0
BLOCK_RECORD
5
75
330
1
100
AcDbSymbolTableRecord
100
AcDbBlockTableRecord
2
*D12
70
0
280
1
281
0
0
BLOCK_RECORD
5
78
330
1
100
AcDbSymbolTableRecord
100
AcDbBlockTableRecord
2
*D23
70
0
280
1
281
0
0
BLOCK_RECORD
5
7B
330
1
100
AcDbSymbolTableRecord
100
AcDbBlockTableRecord
2
*D2
70
0
280
1
281
0
0
BLOCK_RECORD
5
7E
330
1
100
AcDbSymbolTableRecord
100
AcDbBlockTableRecord
2
*D7
70
0
280
1
281
0
0
BLOCK_RECORD
5
81
330
1
100
AcDbSymbolTableRecord
100
AcDbBlockTableRecord
2
*D19
70
0
280
1
281
0
0
BLOCK_RECORD
5
84
330
1
100
AcDbSymbolTableRecord
100
AcDbBlockTableRecord
2
*D26
70
0
280
1
281
0
0
BLOCK_RECORD
5
87
330
1
100
AcDbSymbolTableRecord
100
AcDbBlockTableRecord
2
*D17
70
0
280
1
281
0
0
BLOCK_RECORD
5
8A
330
1
100
AcDbSymbolTableRecord
100
AcDbBlockTableRecord
2
*D21
70
0
280
1
281
0
0
BLOCK_RECORD
5
8D
330
1
100
AcDbSymbolTableRecord
100
AcDbBlockTableRecord
2
*D6
70
0
280
1
281
0
0
BLOCK_RECORD
5
90
330
1
100
AcDbSymbolTableRecord
100
AcDbBlockTableRecord
2
*D5
70
0
280
1
281
0
0
BLOCK_RECORD
5
93
330
1
100
AcDbSymbolTableRecord
100
AcDbBlockTableRecord
2
*D22
70
0
280
1
281
0
0
BLOCK_RECORD
5
96
330
1
100
AcDbSymbolTableRecord
100
AcDbBlockTableRecord
2
*D24
70
0
280
1
281
0
0
BLOCK_RECORD
5
99
330
1
100
AcDbSymbolTableRecord
100
AcDbBlockTableRecord
2
*D9
70
0
280
1
281
0
0
ENDTAB
0
ENDSEC
0
SECTION
2
BLOCKS
0
BLOCK
5
20
330
1F
100
AcDbEntity
8
0
100
AcDbBlockBegin
2
*Model_Space
70
0
10
0
20
0
30
0
3
*Model_Space
1

0
ENDBLK
5
21
330
1F
100
AcDbEntity
8
0
100
AcDbBlockEnd
0
BLOCK
5
1C
330
1B
100
AcDbEntity
8
0
100
AcDbBlockBegin
2
*Paper_Space
70
0
10
0
20
0
30
0
3
*Paper_Space
1

0
ENDBLK
5
1D
330
1F
100
AcDbEntity
8
0
100
AcDbBlockEnd
0
BLOCK
5
49
330
48
100
AcDbEntity
8
0
100
AcDbBlockBegin
2
*D27
70
1
10
0
20
0
3
*D27
1

0
LINE
5
9C
100
AcDbEntity
8
dimensions
6
CONTINUOUS
62
7
370
0
100
AcDbLine
10
3
20
3.5625
11
3
21
2.8125
0
SOLID
5
9D
100
AcDbEntity
8
dimensions
6
CONTINUOUS
62
7
370
0
100
AcDbTrace
10
3
20
3.3125
30
0
11
2.97918576711
21
3.4375
31
0
12
3.02081423289
22
3.4375
32
0
13
3.02081423289
23
3.4375
33
0
0
SOLID
5
9E
100
AcDbEntity
8
dimensions
6
CONTINUOUS
62
7
370
0
100
AcDbTrace
10
3
20
3.0625
30
0
11
3.02081423289
21
2.9375
31
0
12
2.97918576711
22
2.9375
32
0
13
2.97918576711
23
2.9375
33
0
0
MTEXT
5
9F
100
AcDbEntity
8
dimensions
6
CONTINUOUS
62
7
370
0
100
AcDbMText
10
2.90625
20
3.1875
30
0
40
0.125
41
0.236111111111
71
5
72
1
1
1/4
7
standard
210
0
220
0
230
1
50
90
73
2
44
1
0
LINE
5
A0
100
AcDbEntity
8
dimensions
6
CONTINUOUS
62
7
370
0
100
AcDbLine
10
2.96875
20
3.3125
11
2.9375
21
3.3125
0
LINE
5
A1
100
AcDbEntity
8
dimensions
6
CONTINUOUS
62
7
370
0
100
AcDbLine
10
2.96875
20
3.0625
11
2.9375
21
3.0625
0
ENDBLK
5
4A
330
48
100
AcDbEntity
8
0
100
AcDbBlockEnd
0
BLOCK
5
4C
330
4B
100
AcDbEntity
8
0
100
AcDbBlockBegin
2
*D11
70
1
10
0
20
0
3
*D11
1

0
LINE
5
A2
100
AcDbEntity
8
dimensions
6
CONTINUOUS
62
7
370
0
100
AcDbLine
10
2.4375
20
5.125
11
3.25
21
5.125
0
SOLID
5
A3
100
AcDbEntity
8
dimensions
6
CONTINUOUS
62
7
370
0
100
AcDbTrace
10
2.4375
20
5.125
30
0
11
2.5625
21
5.14581423289
31
0
12
2.5625
22
5.10418576711
32
0
13
2.5625
23
5.10418576711
33
0
0
SOLID
5
A4
100
AcDbEntity
8
dimensions
6
CONTINUOUS
62
7
370
0
100
AcDbTrace
10
3.25
20
5.125
30
0
11
3.125
21
5.10418576711
31
0
12
3.125
22
5.14581423289
32
0
13
3.125
23
5.14581423289
33
0
0
MTEXT
5
A5
100
AcDbEntity
8
dimensions
6
CONTINUOUS
62
7
370
0
100
AcDbMText
10
2.84375
20
5.21875
30
0
40
0.125
41
0.388888888889
71
5
72
1
1
13/16
7
standard
210
0
220
0
230
1
50
0
73
2
44
1
0
LINE
5
A6
100
AcDbEntity
8
dimensions
6
CONTINUOUS
62
7
370
0
100
AcDbLine
10
2.4375
20
5.03125
11
2.4375
21
5.1875
0
LINE
5
A7
100
AcDbEntity
8
dimensions
6
CONTINUOUS
62
7
370
0
100
AcDbLine
10
3.25
20
5.03125
11
3.25
21
5.1875
0
ENDBLK
5
4D
330
4B
100
AcDbEntity
8
0
100
AcDbBlockEnd
0
BLOCK
5
4F
330
4E
100
AcDbEntity
8
0
100
AcDbBlockBegin
2
*D20
70
1
10
0
20
0
3
*D20
1

0
LINE
5
A8
100
AcDbEntity
8
dimensions
6
CONTINUOUS
62
7
370
0
100
AcDbLine
10
1.5179665393
20
1.08922007645
11
0.982033460701
21
1.41077992355
0
SOLID
5
A9
100
AcDbEntity
8
dimensions
6
CONTINUOUS
62
7
370
0
100
AcDbTrace
10
1.30359330786
20
1.21784401529
30
0
11
1.42148875805
21
1.17138010333
31
0
12
1.40007108911
22
1.13568398841
32
0
13
1.40007108911
23
1.13568398841
33
0
0
SOLID
5
AA
100
AcDbEntity
8
dimensions
6
CONTINUOUS
62
7
370
0
100
AcDbTrace
10
1.19640669214
20
1.28215598471
30
0
11
1.07851124195
21
1.32861989667
31
0
12
1.09992891089
22
1.36431601159
32
0
13
1.09992891089
23
1.36431601159
33
0
0
MTEXT
5
AB
100
AcDbEntity
8
dimensions
6
CONTINUOUS
62
7
370
0
100
AcDbMText
10
1.47390093061
20
1.22498978969
30
0
40
0.125
41
0.222222222222
71
5
72
1
1
1/8
7
standard
210
0
220
0
230
1
50
329.036243473
73
2
44
1
0
ENDBLK
5
50
330
4E
100
AcDbEntity
8
0
100
AcDbBlockEnd
0
BLOCK
5
52
330
51
100
AcDbEntity
8
0
100
AcDbBlockBegin
2
*D25
70
1
10
0
20
0
3
*D25
1

0
LINE
5
AC
100
AcDbEntity
8
dimensions
6
CONTINUOUS
62
7
370
0
100
AcDbLine
10
6
20
2.9375
11
6
21
1.25
0
SOLID
5
AD
100
AcDbEntity
8
dimensions
6
CONTINUOUS
62
7
370
0
100
AcDbTrace
10
6
20
2.9375
30
0
11
6.02081423289
21
2.8125
31
0
12
5.97918576711
22
2.8125
32
0
13
5.97918576711
23
2.8125
33
0
0
SOLID
5
AE
100
AcDbEntity
8
dimensions
6
CONTINUOUS
62
7
370
0
100
AcDbTrace
10
6
20
1.25
30
0
11
5.97918576711
21
1.375
31
0
12
6.02081423289
22
1.375
32
0
13
6.02081423289
23
1.375
33
0
0
MTEXT
5
AF
100
AcDbEntity
8
dimensions
6
CONTINUOUS
62
7
370
0
100
AcDbMText
10
5.90625
20
2.09375
30
0
40
0.125
41
0.524305555556
71
5
72
1
1
1 11/16
7
standard
210
0
220
0
230
1
50
90
73
2
44
1
0
LINE
5
B0
100
AcDbEntity
8
dimensions
6
CONTINUOUS
62
7
370
0
100
AcDbLine
10
5.96875
20
2.9375
11
5.9375
21
2.9375
0
LINE
5
B1
100
AcDbEntity
8
dimensions
6
CONTINUOUS
62
7
370
0
100
AcDbLine
10
6.71875
20
1.25
11
5.9375
21
1.25
0
ENDBLK
5
53
330
51
100
AcDbEntity
8
0
100
AcDbBlockEnd
0
BLOCK
5
55
330
54
100
AcDbEntity
8
0
100
AcDbBlockBegin
2
*D18
70
1
10
0
20
0
3
*D18
1

0
LINE
5
B2
100
AcDbEntity
8
dimensions
6
CONTINUOUS
62
7
370
0
100
AcDbLine
10
0.1875
20
0.375
11
4
21
0.375
0
SOLID
5
B3
100
AcDbEntity
8
dimensions
6
CONTINUOUS
62
7
370
0
100
AcDbTrace
10
0.1875
20
0.375
30
0
11
0.3125
21
0.395814232889
31
0
12
0.3125
22
0.354185767111
32
0
13
0.3125
23
0.354185767111
33
0
0
SOLID
5
B4
100
AcDbEntity
8
dimensions
6
CONTINUOUS
62
7
370
0
100
AcDbTrace
10
4
20
0.375
30
0
11
3.875
21
0.354185767111
31
0
12
3.875
22
0.395814232889
32
0
13
3.875
23
0.395814232889
33
0
0
MTEXT
5
B5
100
AcDbEntity
8
dimensions
6
CONTINUOUS
62
7
370
0
100
AcDbMText
10
2.09375
20
0.46875
30
0
40
0.125
41
0.579861111111
71
5
72
1
1
3 13/16
7
standard
210
0
220
0
230
1
50
0
73
2
44
1
0
LINE
5
B6
100
AcDbEntity
8
dimensions
6
CONTINUOUS
62
7
370
0
100
AcDbLine
10
0.1875
20
0.40625
11
0.1875
21
0.4375
0
LINE
5
B7
100
AcDbEntity
8
dimensions
6
CONTINUOUS
62
7
370
0
100
AcDbLine
10
4
20
0.40625
11
4
21
0.4375
0
ENDBLK
5
56
330
54
100
AcDbEntity
8
0
100
AcDbBlockEnd
0
BLOCK
5
58
330
57
100
AcDbEntity
8
0
100
AcDbBlockBegin
2
*D8
70
1
10
0
20
0
3
*D8
1

0
LINE
5
B8
100
AcDbEntity
8
dimensions
6
CONTINUOUS
62
7
370
0
100
AcDbLine
10
2.375
20
4.125
11
3.5
21
4.125
0
SOLID
5
B9
100
AcDbEntity
8
dimensions
6
CONTINUOUS
62
7
370
0
100
AcDbTrace
10
2.375
20
4.125
30
0
11
2.5
21
4.14581423289
31
0
12
2.5
22
4.10418576711
32
0
13
2.5
23
4.10418576711
33
0
0
SOLID
5
BA
100
AcDbEntity
8
dimensions
6
CONTINUOUS
62
7
370
0
100
AcDbTrace
10
3.5
20
4.125
30
0
11
3.375
21
4.10418576711
31
0
12
3.375
22
4.14581423289
32
0
13
3.375
23
4.14581423289
33
0
0
MTEXT
5
BB
100
AcDbEntity
8
dimensions
6
CONTINUOUS
62
7
370
0
100
AcDbMText
10
2.9375
20
4.21875
30
0
40
0.125
41
0.385416666667
71
5
72
1
1
1 1/8
7
standard
210
0
220
0
230
1
50
0
73
2
44
1
0
LINE
5
BC
100
AcDbEntity
8
dimensions
6
CONTINUOUS
62
7
370
0
100
AcDbLine
10
2.375
20
4.15625
11
2.375
21
4.1875
0
LINE
5
BD
100
AcDbEntity
8
dimensions
6
CONTINUOUS
62
7
370
0
100
AcDbLine
10
3.5
20
4.15625
11
3.5
21
4.1875
0
ENDBLK
5
59
330
57
100
AcDbEntity
8
0
100
AcDbBlockEnd
0
BLOCK
5
5B
330
5A
100
AcDbEntity
8
0
100
AcDbBlockBegin
2
*D14
70
1
10
0
20
0
3
*D14
1

0
LINE
5
BE
100
AcDbEntity
8
dimensions
6
CONTINUOUS
62
7
370
0
100
AcDbLine
10
3
20
4.8125
11
3
21
4.4375
0
SOLID
5
BF
100
AcDbEntity
8
dimensions
6
CONTINUOUS
62
7
370
0
100
AcDbTrace
10
3
20
4.8125
30
0
11
3.02081423289
21
4.6875
31
0
12
2.97918576711
22
4.6875
32
0
13
2.97918576711
23
4.6875
33
0
0
SOLID
5
C0
100
AcDbEntity
8
dimensions
6
CONTINUOUS
62
7
370
0
100
AcDbTrace
10
3
20
4.4375
30
0
11
2.97918576711
21
4.5625
31
0
12
3.02081423289
22
4.5625
32
0
13
3.02081423289
23
4.5625
33
0
0
MTEXT
5
C1
100
AcDbEntity
8
dimensions
6
CONTINUOUS
62
7
370
0
100
AcDbMText
10
2.90625
20
4.625
30
0
40
0.125
41
0.25
71
5
72
1
1
3/8
7
standard
210
0
220
0
230
1
50
90
73
2
44
1
0
LINE
5
C2
100
AcDbEntity
8
dimensions
6
CONTINUOUS
62
7
370
0
100
AcDbLine
10
2.96875
20
4.8125
11
2.9375
21
4.8125
0
LINE
5
C3
100
AcDbEntity
8
dimensions
6
CONTINUOUS
62
7
370
0
100
AcDbLine
10
2.96875
20
4.4375
11
2.9375
21
4.4375
0
ENDBLK
5
5C
330
5A
100
AcDbEntity
8
0
100
AcDbBlockEnd
0
BLOCK
5
5E
330
5D
100
AcDbEntity
8
0
100
AcDbBlockBegin
2
*D15
70
1
10
0
20
0
3
*D15
1

0
LINE
5
C4
100
AcDbEntity
8
dimensions
6
CONTINUOUS
62
7
370
0
100
AcDbLine
10
0.1875
20
-0.25
11
1.4375
21
-0.25
0
SOLID
5
C5
100
AcDbEntity
8
dimensions
6
CONTINUOUS
62
7
370
0
100
AcDbTrace
10
0.1875
20
-0.25
30
0
11
0.3125
21
-0.229185767111
31
0
12
0.3125
22
-0.270814232889
32
0
13
0.3125
23
-0.270814232889
33
0
0
SOLID
5
C6
100
AcDbEntity
8
dimensions
6
CONTINUOUS
62
7
370
0
100
AcDbTrace
10
1.4375
20
-0.25
30
0
11
1.3125
21
-0.270814232889
31
0
12
1.3125
22
-0.229185767111
32
0
13
1.3125
23
-0.229185767111
33
0
0
MTEXT
5
C7
100
AcDbEntity
8
dimensions
6
CONTINUOUS
62
7
370
0
100
AcDbMText
10
0.8125
20
-0.15625
30
0
40
0.125
41
0.399305555556
71
5
72
1
1
1 1/4
7
standard
210
0
220
0
230
1
50
0
73
2
44
1
0
LINE
5
C8
100
AcDbEntity
8
dimensions
6
CONTINUOUS
62
7
370
0
100
AcDbLine
10
0.1875
20
-0.03125
11
0.1875
21
-0.3125
0
LINE
5
C9
100
AcDbEntity
8
dimensions
6
CONTINUOUS
62
7
370
0
100
AcDbLine
10
1.4375
20
-0.03125
11
1.4375
21
-0.3125
0
ENDBLK
5
5F
330
5D
100
AcDbEntity
8
0
100
AcDbBlockEnd
0
BLOCK
5
61
330
60
100
AcDbEntity
8
0
100
AcDbBlockBegin
2
*D13
70
1
10
0
20
0
3
*D13
1

0
LINE
5
CA
100
AcDbEntity
8
dimensions
6
CONTINUOUS
62
7
370
0
100
AcDbLine
10
1.6875
20
5.375
11
4
21
5.375
0
SOLID
5
CB
100
AcDbEntity
8
dimensions
6
CONTINUOUS
62
7
370
0
100
AcDbTrace
10
1.6875
20
5.375
30
0
11
1.8125
21
5.39581423289
31
0
12
1.8125
22
5.35418576711
32
0
13
1.8125
23
5.35418576711
33
0
0
SOLID
5
CC
100
AcDbEntity
8
dimensions
6
CONTINUOUS
62
7
370
0
100
AcDbTrace
10
4
20
5.375
30
0
11
3.875
21
5.35418576711
31
0
12
3.875
22
5.39581423289
32
0
13
3.875
23
5.39581423289
33
0
0
MTEXT
5
CD
100
AcDbEntity
8
dimensions
6
CONTINUOUS
62
7
370
0
100
AcDbMText
10
2.84375
20
5.46875
30
0
40
0.125
41
0.510416666667
71
5
72
1
1
2 5/16
7
standard
210
0
220
0
230
1
50
0
73
2
44
1
0
LINE
5
CE
100
AcDbEntity
8
dimensions
6
CONTINUOUS
62
7
370
0
100
AcDbLine
10
1.6875
20
5.03125
11
1.6875
21
5.4375
0
LINE
5
CF
100
AcDbEntity
8
dimensions
6
CONTINUOUS
62
7
370
0
100
AcDbLine
10
4
20
5.03125
11
4
21
5.4375
0
ENDBLK
5
62
330
60
100
AcDbEntity
8
0
100
AcDbBlockEnd
0
BLOCK
5
64
330
63
100
AcDbEntity
8
0
100
AcDbBlockBegin
2
*D10
70
1
10
0
20
0
3
*D10
1

0
LINE
5
D0
100
AcDbEntity
8
dimensions
6
CONTINUOUS
62
7
370
0
100
AcDbLine
10
1.6875
20
5.125
11
2.4375
21
5.125
0
SOLID
5
D1
100
AcDbEntity
8
dimensions
6
CONTINUOUS
62
7
370
0
100
AcDbTrace
10
1.6875
20
5.125
30
0
11
1.8125
21
5.14581423289
31
0
12
1.8125
22
5.10418576711
32
0
13
1.8125
23
5.10418576711
33
0
0
SOLID
5
D2
100
AcDbEntity
8
dimensions
6
CONTINUOUS
62
7
370
0
100
AcDbTrace
10
2.4375
20
5.125
30
0
11
2.3125
21
5.10418576711
31
0
12
2.3125
22
5.14581423289
32
0
13
2.3125
23
5.14581423289
33
0
0
MTEXT
5
D3
100
AcDbEntity
8
dimensions
6
CONTINUOUS
62
7
370
0
100
AcDbMText
10
2.0625
20
5.21875
30
0
40
0.125
41
0.263888888889
71
5
72
1
1
3/4
7
standard
210
0
220
0
230
1
50
0
73
2
44
1
0
LINE
5
D4
100
AcDbEntity
8
dimensions
6
CONTINUOUS
62
7
370
0
100
AcDbLine
10
1.6875
20
5.03125
11
1.6875
21
5.1875
0
LINE
5
D5
100
AcDbEntity
8
dimensions
6
CONTINUOUS
62
7
370
0
100
AcDbLine
10
2.4375
20
5.03125
11
2.4375
21
5.1875
0
ENDBLK
5
65
330
63
100
AcDbEntity
8
0
100
AcDbBlockEnd
0
BLOCK
5
67
330
66
100
AcDbEntity
8
0
100
AcDbBlockBegin
2
*D28
70
1
10
0
20
0
3
*D28
1

0
SOLID
5
D6
100
AcDbEntity
8
dimensions
6
CONTINUOUS
62
7
370
0
100
AcDbTrace
10
3.40617376189
20
4.38271720236
30
0
11
3.46800745758
21
4.49332835175
31
0
12
3.50051382809
22
4.46732325534
32
0
13
3.50051382809
23
4.46732325534
33
0
0
LINE
5
D7
100
AcDbEntity
8
dimensions
6
CONTINUOUS
62
7
370
0
100
AcDbLine
10
3.25
20
4.1875
11
3.70984496556
21
4.76230620695
0
MTEXT
5
D8
100
AcDbEntity
8
dimensions
6
CONTINUOUS
62
7
370
0
100
AcDbMText
10
3.48480291284
20
4.63107686536
30
0
40
0.125
41
0.236111111111
71
5
72
1
1
1/4
7
standard
210
0
220
0
230
1
50
51.3401917459
73
2
44
1
0
ENDBLK
5
68
330
66
100
AcDbEntity
8
0
100
AcDbBlockEnd
0
BLOCK
5
6A
330
69
100
AcDbEntity
8
0
100
AcDbBlockBegin
2
*D4
70
1
10
0
20
0
3
*D4
1

0
LINE
5
D9
100
AcDbEntity
8
dimensions
6
CONTINUOUS
62
7
370
0
100
AcDbLine
10
1.1875
20
3.3125
11
1.1875
21
5
0
SOLID
5
DA
100
AcDbEntity
8
dimensions
6
CONTINUOUS
62
7
370
0
100
AcDbTrace
10
1.1875
20
3.3125
30
0
11
1.16668576711
21
3.4375
31
0
12
1.20831423289
22
3.4375
32
0
13
1.20831423289
23
3.4375
33
0
0
SOLID
5
DB
100
AcDbEntity
8
dimensions
6
CONTINUOUS
62
7
370
0
100
AcDbTrace
10
1.1875
20
5
30
0
11
1.20831423289
21
4.875
31
0
12
1.16668576711
22
4.875
32
0
13
1.16668576711
23
4.875
33
0
0
MTEXT
5
DC
100
AcDbEntity
8
dimensions
6
CONTINUOUS
62
7
370
0
100
AcDbMText
10
1.09375
20
4.15625
30
0
40
0.125
41
0.524305555556
71
5
72
1
1
1 11/16
7
standard
210
0
220
0
230
1
50
90
73
2
44
1
0
LINE
5
DD
100
AcDbEntity
8
dimensions
6
CONTINUOUS
62
7
370
0
100
AcDbLine
10
1.15625
20
3.3125
11
1.125
21
3.3125
0
LINE
5
DE
100
AcDbEntity
8
dimensions
6
CONTINUOUS
62
7
370
0
100
AcDbLine
10
1.65625
20
5
11
1.125
21
5
0
ENDBLK
5
6B
330
69
100
AcDbEntity
8
0
100
AcDbBlockEnd
0
BLOCK
5
6D
330
6C
100
AcDbEntity
8
0
100
AcDbBlockBegin
2
*D1
70
1
10
0
20
0
3
*D1
1

0
LINE
5
DF
100
AcDbEntity
8
dimensions
6
CONTINUOUS
62
7
370
0
100
AcDbLine
10
1.3125
20
1.1875
11
1.3125
21
1.875
0
SOLID
5
E0
100
AcDbEntity
8
dimensions
6
CONTINUOUS
62
7
370
0
100
AcDbTrace
10
1.3125
20
1.4375
30
0
11
1.33331423289
21
1.3125
31
0
12
1.29168576711
22
1.3125
32
0
13
1.29168576711
23
1.3125
33
0
0
SOLID
5
E1
100
AcDbEntity
8
dimensions
6
CONTINUOUS
62
7
370
0
100
AcDbTrace
10
1.3125
20
1.625
30
0
11
1.29168576711
21
1.75
31
0
12
1.33331423289
22
1.75
32
0
13
1.33331423289
23
1.75
33
0
0
MTEXT
5
E2
100
AcDbEntity
8
dimensions
6
CONTINUOUS
62
7
370
0
100
AcDbMText
10
1.21875
20
1.81597222222
30
0
40
0.125
41
0.319444444444
71
5
72
1
1
3/16
7
standard
210
0
220
0
230
1
50
90
73
2
44
1
0
LINE
5
E3
100
AcDbEntity
8
dimensions
6
CONTINUOUS
62
7
370
0
100
AcDbLine
10
0.96875
20
1.4375
11
1.375
21
1.4375
0
LINE
5
E4
100
AcDbEntity
8
dimensions
6
CONTINUOUS
62
7
370
0
100
AcDbLine
10
0.96875
20
1.625
11
1.375
21
1.625
0
ENDBLK
5
6E
330
6C
100
AcDbEntity
8
0
100
AcDbBlockEnd
0
BLOCK
5
70
330
6F
100
AcDbEntity
8
0
100
AcDbBlockBegin
2
*D3
70
1
10
0
20
0
3
*D3
1

0
LINE
5
E5
100
AcDbEntity
8
dimensions
6
CONTINUOUS
62
7
370
0
100
AcDbLine
10
0.4375
20
1.625
11
0.4375
21
3.3125
0
SOLID
5
E6
100
AcDbEntity
8
dimensions
6
CONTINUOUS
62
7
370
0
100
AcDbTrace
10
0.4375
20
1.625
30
0
11
0.416685767111
21
1.75
31
0
12
0.458314232889
22
1.75
32
0
13
0.458314232889
23
1.75
33
0
0
SOLID
5
E7
100
AcDbEntity
8
dimensions
6
CONTINUOUS
62
7
370
0
100
AcDbTrace
10
0.4375
20
3.3125
30
0
11
0.458314232889
21
3.1875
31
0
12
0.416685767111
22
3.1875
32
0
13
0.416685767111
23
3.1875
33
0
0
MTEXT
5
E8
100
AcDbEntity
8
dimensions
6
CONTINUOUS
62
7
370
0
100
AcDbMText
10
0.34375
20
2.46875
30
0
40
0.125
41
0.524305555556
71
5
72
1
1
1 11/16
7
standard
210
0
220
0
230
1
50
90
73
2
44
1
0
LINE
5
E9
100
AcDbEntity
8
dimensions
6
CONTINUOUS
62
7
370
0
100
AcDbLine
10
0.40625
20
1.625
11
0.375
21
1.625
0
LINE
5
EA
100
AcDbEntity
8
dimensions
6
CONTINUOUS
62
7
370
0
100
AcDbLine
10
0.90625
20
3.3125
11
0.375
21
3.3125
0
ENDBLK
5
71
330
6F
100
AcDbEntity
8
0
100
AcDbBlockEnd
0
BLOCK
5
73
330
72
100
AcDbEntity
8
0
100
AcDbBlockBegin
2
*D16
70
1
10
0
20
0
3
*D16
1

0
LINE
5
EB
100
AcDbEntity
8
dimensions
6
CONTINUOUS
62
7
370
0
100
AcDbLine
10
1.4375
20
-0.25
11
2.75
21
-0.25
0
SOLID
5
EC
100
AcDbEntity
8
dimensions
6
CONTINUOUS
62
7
370
0
100
AcDbTrace
10
1.4375
20
-0.25
30
0
11
1.5625
21
-0.229185767111
31
0
12
1.5625
22
-0.270814232889
32
0
13
1.5625
23
-0.270814232889
33
0
0
SOLID
5
ED
100
AcDbEntity
8
dimensions
6
CONTINUOUS
62
7
370
0
100
AcDbTrace
10
2.75
20
-0.25
30
0
11
2.625
21
-0.270814232889
31
0
12
2.625
22
-0.229185767111
32
0
13
2.625
23
-0.229185767111
33
0
0
MTEXT
5
EE
100
AcDbEntity
8
dimensions
6
CONTINUOUS
62
7
370
0
100
AcDbMText
10
2.09375
20
-0.15625
30
0
40
0.125
41
0.482638888889
71
5
72
1
1
1 5/16
7
standard
210
0
220
0
230
1
50
0
73
2
44
1
0
LINE
5
EF
100
AcDbEntity
8
dimensions
6
CONTINUOUS
62
7
370
0
100
AcDbLine
10
1.4375
20
-0.03125
11
1.4375
21
-0.3125
0
LINE
5
F0
100
AcDbEntity
8
dimensions
6
CONTINUOUS
62
7
370
0
100
AcDbLine
10
2.75
20
-0.03125
11
2.75
21
-0.3125
0
ENDBLK
5
74
330
72
100
AcDbEntity
8
0
100
AcDbBlockEnd
0
BLOCK
5
76
330
75
100
AcDbEntity
8
0
100
AcDbBlockBegin
2
*D12
70
1
10
0
20
0
3
*D12
1

0
LINE
5
F1
100
AcDbEntity
8
dimensions
6
CONTINUOUS
62
7
370
0
100
AcDbLine
10
3.25
20
5.125
11
4
21
5.125
0
SOLID
5
F2
100
AcDbEntity
8
dimensions
6
CONTINUOUS
62
7
370
0
100
AcDbTrace
10
3.25
20
5.125
30
0
11
3.375
21
5.14581423289
31
0
12
3.375
22
5.10418576711
32
0
13
3.375
23
5.10418576711
33
0
0
SOLID
5
F3
100
AcDbEntity
8
dimensions
6
CONTINUOUS
62
7
370
0
100
AcDbTrace
10
4
20
5.125
30
0
11
3.875
21
5.10418576711
31
0
12
3.875
22
5.14581423289
32
0
13
3.875
23
5.14581423289
33
0
0
MTEXT
5
F4
100
AcDbEntity
8
dimensions
6
CONTINUOUS
62
7
370
0
100
AcDbMText
10
3.625
20
5.21875
30
0
40
0.125
41
0.263888888889
71
5
72
1
1
3/4
7
standard
210
0
220
0
230
1
50
0
73
2
44
1
0
LINE
5
F5
100
AcDbEntity
8
dimensions
6
CONTINUOUS
62
7
370
0
100
AcDbLine
10
3.25
20
5.03125
11
3.25
21
5.1875
0
LINE
5
F6
100
AcDbEntity
8
dimensions
6
CONTINUOUS
62
7
370
0
100
AcDbLine
10
4
20
5.03125
11
4
21
5.1875
0
ENDBLK
5
77
330
75
100
AcDbEntity
8
0
100
AcDbBlockEnd
0
BLOCK
5
79
330
78
100
AcDbEntity
8
0
100
AcDbBlockBegin
2
*D23
70
1
10
0
20
0
3
*D23
1

0
LINE
5
F7
100
AcDbEntity
8
dimensions
6
CONTINUOUS
62
7
370
0
100
AcDbLine
10
6.75
20
1.25
11
7.8125
21
1.25
0
SOLID
5
F8
100
AcDbEntity
8
dimensions
6
CONTINUOUS
62
7
370
0
100
AcDbTrace
10
6.75
20
1.25
30
0
11
6.875
21
1.27081423289
31
0
12
6.875
22
1.22918576711
32
0
13
6.875
23
1.22918576711
33
0
0
SOLID
5
F9
100
AcDbEntity
8
dimensions
6
CONTINUOUS
62
7
370
0
100
AcDbTrace
10
7.8125
20
1.25
30
0
11
7.6875
21
1.22918576711
31
0
12
7.6875
22
1.27081423289
32
0
13
7.6875
23
1.27081423289
33
0
0
MTEXT
5
FA
100
AcDbEntity
8
dimensions
6
CONTINUOUS
62
7
370
0
100
AcDbMText
10
7.28125
20
1.34375
30
0
40
0.125
41
0.454861111111
71
5
72
1
1
1 1/16
7
standard
210
0
220
0
230
1
50
0
73
2
44
1
0
LINE
5
FB
100
AcDbEntity
8
dimensions
6
CONTINUOUS
62
7
370
0
100
AcDbLine
10
6.75
20
1.28125
11
6.75
21
1.3125
0
LINE
5
FC
100
AcDbEntity
8
dimensions
6
CONTINUOUS
62
7
370
0
100
AcDbLine
10
7.8125
20
1.28125
11
7.8125
21
1.3125
0
ENDBLK
5
7A
330
78
100
AcDbEntity
8
0
100
AcDbBlockEnd
0
BLOCK
5
7C
330
7B
100
AcDbEntity
8
0
100
AcDbBlockBegin
2
*D2
70
1
10
0
20
0
3
*D2
1

0
LINE
5
FD
100
AcDbEntity
8
dimensions
6
CONTINUOUS
62
7
370
0
100
AcDbLine
10
0.4375
20
1.625
11
0.4375
21
0
0
SOLID
5
FE
100
AcDbEntity
8
dimensions
6
CONTINUOUS
62
7
370
0
100
AcDbTrace
10
0.4375
20
1.625
30
0
11
0.458314232889
21
1.5
31
0
12
0.416685767111
22
1.5
32
0
13
0.416685767111
23
1.5
33
0
0
SOLID
5
FF
100
AcDbEntity
8
dimensions
6
CONTINUOUS
62
7
370
0
100
AcDbTrace
10
0.4375
20
0
30
0
11
0.416685767111
21
0.125
31
0
12
0.458314232889
22
0.125
32
0
13
0.458314232889
23
0.125
33
0
0
MTEXT
5
100
100
AcDbEntity
8
dimensions
6
CONTINUOUS
62
7
370
0
100
AcDbMText
10
0.34375
20
0.8125
30
0
40
0.125
41
0.413194444444
71
5
72
1
1
1 5/8
7
standard
210
0
220
0
230
1
50
90
73
2
44
1
0
LINE
5
101
100
AcDbEntity
8
dimensions
6
CONTINUOUS
62
7
370
0
100
AcDbLine
10
0.40625
20
1.625
11
0.375
21
1.625
0
LINE
5
102
100
AcDbEntity
8
dimensions
6
CONTINUOUS
62
7
370
0
100
AcDbLine
10
0.40625
20
3.82702124734e-18
11
0.375
21
7.65404249467e-18
0
ENDBLK
5
7D
330
7B
100
AcDbEntity
8
0
100
AcDbBlockEnd
0
BLOCK
5
7F
330
7E
100
AcDbEntity
8
0
100
AcDbBlockBegin
2
*D7
70
1
10
0
20
0
3
*D7
1

0
LINE
5
103
100
AcDbEntity
8
dimensions
6
CONTINUOUS
62
7
370
0
100
AcDbLine
10
2.625
20
4.4375
11
2.625
21
3.3125
0
SOLID
5
104
100
AcDbEntity
8
dimensions
6
CONTINUOUS
62
7
370
0
100
AcDbTrace
10
2.625
20
4.4375
30
0
11
2.64581423289
21
4.3125
31
0
12
2.60418576711
22
4.3125
32
0
13
2.60418576711
23
4.3125
33
0
0
SOLID
5
105
100
AcDbEntity
8
dimensions
6
CONTINUOUS
62
7
370
0
100
AcDbTrace
10
2.625
20
3.3125
30
0
11
2.60418576711
21
3.4375
31
0
12
2.64581423289
22
3.4375
32
0
13
2.64581423289
23
3.4375
33
0
0
MTEXT
5
106
100
AcDbEntity
8
dimensions
6
CONTINUOUS
62
7
370
0
100
AcDbMText
10
2.53125
20
3.875
30
0
40
0.125
41
0.385416666667
71
5
72
1
1
1 1/8
7
standard
210
0
220
0
230
1
50
90
73
2
44
1
0
LINE
5
107
100
AcDbEntity
8
dimensions
6
CONTINUOUS
62
7
370
0
100
AcDbLine
10
2.59375
20
4.4375
11
2.5625
21
4.4375
0
LINE
5
108
100
AcDbEntity
8
dimensions
6
CONTINUOUS
62
7
370
0
100
AcDbLine
10
2.59375
20
3.3125
11
2.5625
21
3.3125
0
ENDBLK
5
80
330
7E
100
AcDbEntity
8
0
100
AcDbBlockEnd
0
BLOCK
5
82
330
81
100
AcDbEntity
8
0
100
AcDbBlockBegin
2
*D19
70
1
10
0
20
0
3
*D19
1

0
LINE
5
109
100
AcDbEntity
8
dimensions
6
CONTINUOUS
62
7
370
0
100
AcDbLine
10
4.125
20
4.3125
11
4.125
21
3.8125
0
SOLID
5
10A
100
AcDbEntity
8
dimensions
6
CONTINUOUS
62
7
370
0
100
AcDbTrace
10
4.125
20
4.3125
30
0
11
4.14581423289
21
4.1875
31
0
12
4.10418576711
22
4.1875
32
0
13
4.10418576711
23
4.1875
33
0
0
SOLID
5
10B
100
AcDbEntity
8
dimensions
6
CONTINUOUS
62
7
370
0
100
AcDbTrace
10
4.125
20
3.8125
30
0
11
4.10418576711
21
3.9375
31
0
12
4.14581423289
22
3.9375
32
0
13
4.14581423289
23
3.9375
33
0
0
MTEXT
5
10C
100
AcDbEntity
8
dimensions
6
CONTINUOUS
62
7
370
0
100
AcDbMText
10
4.03125
20
4.0625
30
0
40
0.125
41
0.222222222222
71
5
72
1
1
1/2
7
standard
210
0
220
0
230
1
50
90
73
2
44
1
0
LINE
5
10D
100
AcDbEntity
8
dimensions
6
CONTINUOUS
62
7
370
0
100
AcDbLine
10
4.09375
20
4.3125
11
4.0625
21
4.3125
0
LINE
5
10E
100
AcDbEntity
8
dimensions
6
CONTINUOUS
62
7
370
0
100
AcDbLine
10
4.09375
20
3.8125
11
4.0625
21
3.8125
0
ENDBLK
5
83
330
81
100
AcDbEntity
8
0
100
AcDbBlockEnd
0
BLOCK
5
85
330
84
100
AcDbEntity
8
0
100
AcDbBlockBegin
2
*D26
70
1
10
0
20
0
3
*D26
1

0
LINE
5
10F
100
AcDbEntity
8
dimensions
6
CONTINUOUS
62
7
370
0
100
AcDbLine
10
6
20
2.9375
11
6
21
5
0
SOLID
5
110
100
AcDbEntity
8
dimensions
6
CONTINUOUS
62
7
370
0
100
AcDbTrace
10
6
20
2.9375
30
0
11
5.97918576711
21
3.0625
31
0
12
6.02081423289
22
3.0625
32
0
13
6.02081423289
23
3.0625
33
0
0
SOLID
5
111
100
AcDbEntity
8
dimensions
6
CONTINUOUS
62
7
370
0
100
AcDbTrace
10
6
20
5
30
0
11
6.02081423289
21
4.875
31
0
12
5.97918576711
22
4.875
32
0
13
5.97918576711
23
4.875
33
0
0
MTEXT
5
112
100
AcDbEntity
8
dimensions
6
CONTINUOUS
62
7
370
0
100
AcDbMText
10
5.90625
20
3.96875
30
0
40
0.125
41
0.482638888889
71
5
72
1
1
2 1/16
7
standard
210
0
220
0
230
1
50
90
73
2
44
1
0
LINE
5
113
100
AcDbEntity
8
dimensions
6
CONTINUOUS
62
7
370
0
100
AcDbLine
10
5.96875
20
2.9375
11
5.9375
21
2.9375
0
LINE
5
114
100
AcDbEntity
8
dimensions
6
CONTINUOUS
62
7
370
0
100
AcDbLine
10
5.96875
20
5
11
5.9375
21
5
0
ENDBLK
5
86
330
84
100
AcDbEntity
8
0
100
AcDbBlockEnd
0
BLOCK
5
88
330
87
100
AcDbEntity
8
0
100
AcDbBlockBegin
2
*D17
70
1
10
0
20
0
3
*D17
1

0
LINE
5
115
100
AcDbEntity
8
dimensions
6
CONTINUOUS
62
7
370
0
100
AcDbLine
10
2.75
20
-0.25
11
4
21
-0.25
0
SOLID
5
116
100
AcDbEntity
8
dimensions
6
CONTINUOUS
62
7
370
0
100
AcDbTrace
10
2.75
20
-0.25
30
0
11
2.875
21
-0.229185767111
31
0
12
2.875
22
-0.270814232889
32
0
13
2.875
23
-0.270814232889
33
0
0
SOLID
5
117
100
AcDbEntity
8
dimensions
6
CONTINUOUS
62
7
370
0
100
AcDbTrace
10
4
20
-0.25
30
0
11
3.875
21
-0.270814232889
31
0
12
3.875
22
-0.229185767111
32
0
13
3.875
23
-0.229185767111
33
0
0
MTEXT
5
118
100
AcDbEntity
8
dimensions
6
CONTINUOUS
62
7
370
0
100
AcDbMText
10
3.375
20
-0.15625
30
0
40
0.125
41
0.399305555556
71
5
72
1
1
1 1/4
7
standard
210
0
220
0
230
1
50
0
73
2
44
1
0
LINE
5
119
100
AcDbEntity
8
dimensions
6
CONTINUOUS
62
7
370
0
100
AcDbLine
10
2.75
20
-0.03125
11
2.75
21
-0.3125
0
LINE
5
11A
100
AcDbEntity
8
dimensions
6
CONTINUOUS
62
7
370
0
100
AcDbLine
10
4
20
-0.03125
11
4
21
-0.3125
0
ENDBLK
5
89
330
87
100
AcDbEntity
8
0
100
AcDbBlockEnd
0
BLOCK
5
8B
330
8A
100
AcDbEntity
8
0
100
AcDbBlockBegin
2
*D21
70
1
10
0
20
0
3
*D21
1

0
LINE
5
11B
100
AcDbEntity
8
dimensions
6
CONTINUOUS
62
7
370
0
100
AcDbLine
10
2.25
20
2.75
11
1.75
21
3.125
0
SOLID
5
11C
100
AcDbEntity
8
dimensions
6
CONTINUOUS
62
7
370
0
100
AcDbTrace
10
2.05
20
2.9
30
0
11
2.16248853973
21
2.84165138631
31
0
12
2.13751146027
22
2.80834861369
32
0
13
2.13751146027
23
2.80834861369
33
0
0
SOLID
5
11D
100
AcDbEntity
8
dimensions
6
CONTINUOUS
62
7
370
0
100
AcDbTrace
10
1.95
20
2.975
30
0
11
1.83751146027
21
3.03334861369
31
0
12
1.86248853973
22
3.06665138631
32
0
13
1.86248853973
23
3.06665138631
33
0
0
MTEXT
5
11E
100
AcDbEntity
8
dimensions
6
CONTINUOUS
62
7
370
0
100
AcDbMText
10
2.22013888889
20
2.88958333333
30
0
40
0.125
41
0.222222222222
71
5
72
1
1
1/8
7
standard
210
0
220
0
230
1
50
323.130102354
73
2
44
1
0
ENDBLK
5
8C
330
8A
100
AcDbEntity
8
0
100
AcDbBlockEnd
0
BLOCK
5
8E
330
8D
100
AcDbEntity
8
0
100
AcDbBlockBegin
2
*D6
70
1
10
0
20
0
3
*D6
1

0
LINE
5
11F
100
AcDbEntity
8
dimensions
6
CONTINUOUS
62
7
370
0
100
AcDbLine
10
0.9375
20
2.125
11
4
21
2.125
0
SOLID
5
120
100
AcDbEntity
8
dimensions
6
CONTINUOUS
62
7
370
0
100
AcDbTrace
10
0.9375
20
2.125
30
0
11
1.0625
21
2.14581423289
31
0
12
1.0625
22
2.10418576711
32
0
13
1.0625
23
2.10418576711
33
0
0
SOLID
5
121
100
AcDbEntity
8
dimensions
6
CONTINUOUS
62
7
370
0
100
AcDbTrace
10
4
20
2.125
30
0
11
3.875
21
2.10418576711
31
0
12
3.875
22
2.14581423289
32
0
13
3.875
23
2.14581423289
33
0
0
MTEXT
5
122
100
AcDbEntity
8
dimensions
6
CONTINUOUS
62
7
370
0
100
AcDbMText
10
2.46875
20
2.21875
30
0
40
0.125
41
0.482638888889
71
5
72
1
1
3 1/16
7
standard
210
0
220
0
230
1
50
0
73
2
44
1
0
LINE
5
123
100
AcDbEntity
8
dimensions
6
CONTINUOUS
62
7
370
0
100
AcDbLine
10
0.9375
20
2.15625
11
0.9375
21
2.1875
0
LINE
5
124
100
AcDbEntity
8
dimensions
6
CONTINUOUS
62
7
370
0
100
AcDbLine
10
4
20
2.15625
11
4
21
2.1875
0
ENDBLK
5
8F
330
8D
100
AcDbEntity
8
0
100
AcDbBlockEnd
0
BLOCK
5
91
330
90
100
AcDbEntity
8
0
100
AcDbBlockBegin
2
*D5
70
1
10
0
20
0
3
*D5
1

0
LINE
5
125
100
AcDbEntity
8
dimensions
6
CONTINUOUS
62
7
370
0
100
AcDbLine
10
3.6875
20
0
11
3.6875
21
5
0
SOLID
5
126
100
AcDbEntity
8
dimensions
6
CONTINUOUS
62
7
370
0
100
AcDbTrace
10
3.6875
20
0
30
0
11
3.66668576711
21
0.125
31
0
12
3.70831423289
22
0.125
32
0
13
3.70831423289
23
0.125
33
0
0
SOLID
5
127
100
AcDbEntity
8
dimensions
6
CONTINUOUS
62
7
370
0
100
AcDbTrace
10
3.6875
20
5
30
0
11
3.70831423289
21
4.875
31
0
12
3.66668576711
22
4.875
32
0
13
3.66668576711
23
4.875
33
0
0
MTEXT
5
128
100
AcDbEntity
8
dimensions
6
CONTINUOUS
62
7
370
0
100
AcDbMText
10
3.59375
20
2.5
30
0
40
0.125
41
0.0555555555556
71
5
72
1
1
5
7
standard
210
0
220
0
230
1
50
90
73
2
44
1
0
LINE
5
129
100
AcDbEntity
8
dimensions
6
CONTINUOUS
62
7
370
0
100
AcDbLine
10
3.65625
20
3.82702124734e-18
11
3.625
21
7.65404249467e-18
0
LINE
5
12A
100
AcDbEntity
8
dimensions
6
CONTINUOUS
62
7
370
0
100
AcDbLine
10
3.65625
20
5
11
3.625
21
5
0
ENDBLK
5
92
330
90
100
AcDbEntity
8
0
100
AcDbBlockEnd
0
BLOCK
5
94
330
93
100
AcDbEntity
8
0
100
AcDbBlockBegin
2
*D22
70
1
10
0
20
0
3
*D22
1

0
LINE
5
12B
100
AcDbEntity
8
dimensions
6
CONTINUOUS
62
7
370
0
100
AcDbLine
10
6
20
2.9375
11
7.0625
21
2.9375
0
SOLID
5
12C
100
AcDbEntity
8
dimensions
6
CONTINUOUS
62
7
370
0
100
AcDbTrace
10
6
20
2.9375
30
0
11
6.125
21
2.95831423289
31
0
12
6.125
22
2.91668576711
32
0
13
6.125
23
2.91668576711
33
0
0
SOLID
5
12D
100
AcDbEntity
8
dimensions
6
CONTINUOUS
62
7
370
0
100
AcDbTrace
10
7.0625
20
2.9375
30
0
11
6.9375
21
2.91668576711
31
0
12
6.9375
22
2.95831423289
32
0
13
6.9375
23
2.95831423289
33
0
0
MTEXT
5
12E
100
AcDbEntity
8
dimensions
6
CONTINUOUS
62
7
370
0
100
AcDbMText
10
6.53125
20
3.03125
30
0
40
0.125
41
0.454861111111
71
5
72
1
1
1 1/16
7
standard
210
0
220
0
230
1
50
0
73
2
44
1
0
LINE
5
12F
100
AcDbEntity
8
dimensions
6
CONTINUOUS
62
7
370
0
100
AcDbLine
10
6
20
2.96875
11
6
21
3
0
LINE
5
130
100
AcDbEntity
8
dimensions
6
CONTINUOUS
62
7
370
0
100
AcDbLine
10
7.0625
20
2.96875
11
7.0625
21
3
0
ENDBLK
5
95
330
93
100
AcDbEntity
8
0
100
AcDbBlockEnd
0
BLOCK
5
97
330
96
100
AcDbEntity
8
0
100
AcDbBlockBegin
2
*D24
70
1
10
0
20
0
3
*D24
1

0
LINE
5
131
100
AcDbEntity
8
dimensions
6
CONTINUOUS
62
7
370
0
100
AcDbLine
10
6.75
20
1.25
11
6.75
21
0
0
SOLID
5
132
100
AcDbEntity
8
dimensions
6
CONTINUOUS
62
7
370
0
100
AcDbTrace
10
6.75
20
1.25
30
0
11
6.77081423289
21
1.125
31
0
12
6.72918576711
22
1.125
32
0
13
6.72918576711
23
1.125
33
0
0
SOLID
5
133
100
AcDbEntity
8
dimensions
6
CONTINUOUS
62
7
370
0
100
AcDbTrace
10
6.75
20
0
30
0
11
6.72918576711
21
0.125
31
0
12
6.77081423289
22
0.125
32
0
13
6.77081423289
23
0.125
33
0
0
MTEXT
5
134
100
AcDbEntity
8
dimensions
6
CONTINUOUS
62
7
370
0
100
AcDbMText
10
6.65625
20
0.625
30
0
40
0.125
41
0.399305555556
71
5
72
1
1
1 1/4
7
standard
210
0
220
0
230
1
50
90
73
2
44
1
0
LINE
5
135
100
AcDbEntity
8
dimensions
6
CONTINUOUS
62
7
370
0
100
AcDbLine
10
6.71875
20
1.25
11
6.6875
21
1.25
0
LINE
5
136
100
AcDbEntity
8
dimensions
6
CONTINUOUS
62
7
370
0
100
AcDbLine
10
6.71875
20
3.82702124734e-18
11
6.6875
21
7.65404249467e-18
0
ENDBLK
5
98
330
96
100
AcDbEntity
8
0
100
AcDbBlockEnd
0
BLOCK
5
9A
330
99
100
AcDbEntity
8
0
100
AcDbBlockBegin
2
*D9
70
1
10
0
20
0
3
*D9
1

0
LINE
5
137
100
AcDbEntity
8
dimensions
6
CONTINUOUS
62
7
370
0
100
AcDbLine
10
3.5
20
3.625
11
4
21
3.625
0
SOLID
5
138
100
AcDbEntity
8
dimensions
6
CONTINUOUS
62
7
370
0
100
AcDbTrace
10
3.5
20
3.625
30
0
11
3.625
21
3.64581423289
31
0
12
3.625
22
3.60418576711
32
0
13
3.625
23
3.60418576711
33
0
0
SOLID
5
139
100
AcDbEntity
8
dimensions
6
CONTINUOUS
62
7
370
0
100
AcDbTrace
10
4
20
3.625
30
0
11
3.875
21
3.60418576711
31
0
12
3.875
22
3.64581423289
32
0
13
3.875
23
3.64581423289
33
0
0
MTEXT
5
13A
100
AcDbEntity
8
dimensions
6
CONTINUOUS
62
7
370
0
100
AcDbMText
10
3.75
20
3.71875
30
0
40
0.125
41
0.222222222222
71
5
72
1
1
1/2
7
standard
210
0
220
0
230
1
50
0
73
2
44
1
0
LINE
5
13B
100
AcDbEntity
8
dimensions
6
CONTINUOUS
62
7
370
0
100
AcDbLine
10
3.5
20
3.65625
11
3.5
21
3.6875
0
LINE
5
13C
100
AcDbEntity
8
dimensions
6
CONTINUOUS
62
7
370
0
100
AcDbLine
10
4
20
3.65625
11
4
21
3.6875
0
ENDBLK
5
9B
330
99
100
AcDbEntity
8
0
100
AcDbBlockEnd
0
ENDSEC
0
SECTION
2
ENTITIES
0
LINE
5
13D
100
AcDbEntity
8
sketch
6
ByLayer
62
256
370
-1
100
AcDbLine
10
0
20
1.625
11
0
21
0
0
LINE
5
13E
100
AcDbEntity
8
sketch
6
ByLayer
62
256
370
-1
100
AcDbLine
10
0
20
1.625
11
4
21
1.625
0
LINE
5
13F
100
AcDbEntity
8
0
6
ByLayer
62
256
370
-1
100
AcDbLine
10
0.1875
20
0
11
0.1875
21
1.625
0
LINE
5
140
100
AcDbEntity
8
0
6
ByLayer
62
256
370
-1
100
AcDbLine
10
0.1875
20
1.625
11
0.5625
21
1.625
0
LINE
5
141
100
AcDbEntity
8
0
6
ByLayer
62
256
370
-1
100
AcDbLine
10
0.5625
20
1.625
11
0.5625
21
1.4375
0
LINE
5
142
100
AcDbEntity
8
0
6
ByLayer
62
256
370
-1
100
AcDbLine
10
0.5625
20
1.4375
11
0.9375
21
1.4375
0
DIMENSION
5
143
100
AcDbEntity
8
dimensions
6
ByLayer
62
256
370
-1
100
AcDbDimension
2
*D1
10
1.3125
20
1.625
30
0
11
1.21875
21
1.53125
31
0
70
32
71
5
3
Standard
53
0
210
0
220
0
230
1
100
AcDbAlignedDimension
13
0.9375
23
1.4375
33
0
14
0.9375
24
1.625
34
0
50
90
100
AcDbRotatedDimension
0
LINE
5
144
100
AcDbEntity
8
sketch
6
ByLayer
62
256
370
-1
100
AcDbLine
10
0.75
20
3.3125
11
0.75
21
1.6875
0
LINE
5
145
100
AcDbEntity
8
sketch
6
ByLayer
62
256
370
-1
100
AcDbLine
10
0.75
20
1.6875
11
0.9375
21
1.6875
0
LINE
5
146
100
AcDbEntity
8
sketch
6
ByLayer
62
256
370
-1
100
AcDbLine
10
1.5
20
3.375
11
1.5
21
5
0
LINE
5
147
100
AcDbEntity
8
sketch
6
ByLayer
62
256
370
-1
100
AcDbLine
10
1.5
20
5
11
4
21
5
0
LINE
5
148
100
AcDbEntity
8
sketch
6
ByLayer
62
256
370
-1
100
AcDbLine
10
1.5
20
3.375
11
1.6875
21
3.375
0
LINE
5
149
100
AcDbEntity
8
0
6
ByLayer
62
256
370
-1
100
AcDbLine
10
0.9375
20
1.4375
11
0.9375
21
3.3125
0
LINE
5
14A
100
AcDbEntity
8
0
6
ByLayer
62
256
370
-1
100
AcDbLine
10
0.9375
20
3.3125
11
1.3125
21
3.3125
0
LINE
5
14B
100
AcDbEntity
8
0
6
ByLayer
62
256
370
-1
100
AcDbLine
10
1.3125
20
3.3125
11
1.3125
21
3.125
0
LINE
5
14C
100
AcDbEntity
8
0
6
ByLayer
62
256
370
-1
100
AcDbLine
10
1.3125
20
3.125
11
1.6875
21
3.125
0
LINE
5
14D
100
AcDbEntity
8
0
6
ByLayer
62
256
370
-1
100
AcDbLine
10
1.6875
20
3.125
11
1.6875
21
5
0
LINE
5
14E
100
AcDbEntity
8
0
6
ByLayer
62
256
370
-1
100
AcDbLine
10
4
20
5
11
3.25
21
5
0
LINE
5
14F
100
AcDbEntity
8
0
6
ByLayer
62
256
370
-1
100
AcDbLine
10
3.25
20
5
11
3.25
21
4.8125
0
LINE
5
150
100
AcDbEntity
8
0
6
ByLayer
62
256
370
-1
100
AcDbLine
10
3.25
20
4.8125
11
2.4375
21
4.8125
0
LINE
5
151
100
AcDbEntity
8
0
6
ByLayer
62
256
370
-1
100
AcDbLine
10
2.4375
20
4.8125
11
2.4375
21
5
0
LINE
5
152
100
AcDbEntity
8
0
6
ByLayer
62
256
370
-1
100
AcDbLine
10
2.4375
20
5
11
1.6875
21
5
0
LINE
5
153
100
AcDbEntity
8
0
6
ByLayer
62
256
370
-1
100
AcDbLine
10
4
20
0
11
2.75
21
0
0
LINE
5
154
100
AcDbEntity
8
0
6
ByLayer
62
256
370
-1
100
AcDbLine
10
2.75
20
0
11
2.75
21
0.1875
0
LINE
5
155
100
AcDbEntity
8
0
6
ByLayer
62
256
370
-1
100
AcDbLine
10
0.1875
20
0
11
1.4375
21
0
0
LINE
5
156
100
AcDbEntity
8
0
6
ByLayer
62
256
370
-1
100
AcDbLine
10
1.4375
20
0
11
1.4375
21
0.1875
0
LINE
5
157
100
AcDbEntity
8
0
6
ByLayer
62
256
370
-1
100
AcDbLine
10
1.4375
20
0.1875
11
2.75
21
0.1875
0
DIMENSION
5
158
100
AcDbEntity
8
dimensions
6
ByLayer
62
256
370
-1
100
AcDbDimension
2
*D2
10
0.4375
20
0
30
0
11
0.34375
21
0.8125
31
0
70
32
71
5
72
0
3
Standard
53
0
210
0
220
0
230
1
100
AcDbAlignedDimension
13
0.4375
23
1.625
33
0
14
0.4375
24
0
34
0
50
90
100
AcDbRotatedDimension
0
DIMENSION
5
159
100
AcDbEntity
8
dimensions
6
ByLayer
62
256
370
-1
100
AcDbDimension
2
*D3
10
0.4375
20
3.3125
30
0
11
0.34375
21
2.46875
31
0
70
32
71
5
72
0
3
Standard
53
0
210
0
220
0
230
1
100
AcDbAlignedDimension
13
0.4375
23
1.625
33
0
14
0.9375
24
3.3125
34
0
50
90
100
AcDbRotatedDimension
0
DIMENSION
5
15A
100
AcDbEntity
8
dimensions
6
ByLayer
62
256
370
-1
100
AcDbDimension
2
*D4
10
1.1875
20
5
30
0
11
1.09375
21
4.15625
31
0
70
32
71
5
72
0
3
Standard
53
0
210
0
220
0
230
1
100
AcDbAlignedDimension
13
1.1875
23
3.3125
33
0
14
1.6875
24
5
34
0
50
90
100
AcDbRotatedDimension
0
DIMENSION
5
15B
100
AcDbEntity
8
dimensions
6
ByLayer
62
256
370
-1
100
AcDbDimension
2
*D5
10
3.6875
20
5
30
0
11
3.59375
21
2.5
31
0
70
32
71
5
72
0
3
Standard
53
0
210
0
220
0
230
1
100
AcDbAlignedDimension
13
3.6875
23
0
33
0
14
3.6875
24
5
34
0
50
90
100
AcDbRotatedDimension
0
DIMENSION
5
15C
100
AcDbEntity
8
dimensions
6
ByLayer
62
256
370
-1
100
AcDbDimension
2
*D6
10
4
20
2.125
30
0
11
2.46875
21
2.21875
31
0
70
32
71
5
72
0
3
Standard
53
0
210
0
220
0
230
1
100
AcDbAlignedDimension
13
0.9375
23
2.125
33
0
14
4
24
2.125
34
0
100
AcDbRotatedDimension
0
LINE
5
15D
100
AcDbEntity
8
sketch
6
ByLayer
62
256
370
-1
100
AcDbLine
10
0.75
20
3.3125
11
1.6875
21
3.3125
0
LINE
5
15E
100
AcDbEntity
8
sketch
6
ByLayer
62
256
370
-1
100
AcDbLine
10
3.75
20
3.0625
11
2.125
21
3.0625
0
LINE
5
15F
100
AcDbEntity
8
sketch
6
ByLayer
62
256
370
-1
100
AcDbLine
10
2.125
20
3.0625
11
2.125
21
4.6875
0
LINE
5
160
100
AcDbEntity
8
sketch
6
ByLayer
62
256
370
-1
100
AcDbLine
10
2.125
20
4.6875
11
3.75
21
4.6875
0
LINE
5
161
100
AcDbEntity
8
sketch
6
ByLayer
62
256
370
-1
100
AcDbLine
10
3.75
20
4.6875
11
3.75
21
3.0625
0
ARC
5
162
100
AcDbEntity
8
0
6
ByLayer
62
256
370
-1
100
AcDbCircle
10
2.625
20
4.1875
40
0.25
100
AcDbArc
50
90
51
180
0
LINE
5
163
100
AcDbEntity
8
0
6
ByLayer
62
256
370
-1
100
AcDbLine
10
3.25
20
4.4375
11
2.625
21
4.4375
0
ARC
5
164
100
AcDbEntity
8
0
6
ByLayer
62
256
370
-1
100
AcDbCircle
10
3.25
20
4.1875
40
0.25
100
AcDbArc
50
0
51
90
0
LINE
5
165
100
AcDbEntity
8
0
6
ByLayer
62
256
370
-1
100
AcDbLine
10
3.5
20
3.5625
11
3.5
21
4.1875
0
ARC
5
166
100
AcDbEntity
8
0
6
ByLayer
62
256
370
-1
100
AcDbCircle
10
3.25
20
3.5625
40
0.25
100
AcDbArc
50
270
51
0
0
LINE
5
167
100
AcDbEntity
8
0
6
ByLayer
62
256
370
-1
100
AcDbLine
10
2.625
20
3.3125
11
3.25
21
3.3125
0
LINE
5
168
100
AcDbEntity
8
0
6
ByLayer
62
256
370
-1
100
AcDbLine
10
2.375
20
4.1875
11
2.375
21
3.5625
0
ARC
5
169
100
AcDbEntity
8
0
6
ByLayer
62
256
370
-1
100
AcDbCircle
10
2.625
20
3.5625
40
0.25
100
AcDbArc
50
180
51
270
0
LINE
5
16A
100
AcDbEntity
8
0
6
ByLayer
62
256
370
-1
100
AcDbLine
10
4
20
5
11
4.75
21
5
0
LINE
5
16B
100
AcDbEntity
8
0
6
ByLayer
62
256
370
-1
100
AcDbLine
10
4.75
20
5
11
4.75
21
4.8125
0
LINE
5
16C
100
AcDbEntity
8
0
6
ByLayer
62
256
370
-1
100
AcDbLine
10
4.75
20
4.8125
11
5.5625
21
4.8125
0
LINE
5
16D
100
AcDbEntity
8
0
6
ByLayer
62
256
370
-1
100
AcDbLine
10
5.5625
20
4.8125
11
5.5625
21
5
0
LINE
5
16E
100
AcDbEntity
8
0
6
ByLayer
62
256
370
-1
100
AcDbLine
10
5.5625
20
5
11
6.3125
21
5
0
LINE
5
16F
100
AcDbEntity
8
0
6
ByLayer
62
256
370
-1
100
AcDbLine
10
6.3125
20
5
11
6.3125
21
3.125
0
LINE
5
170
100
AcDbEntity
8
0
6
ByLayer
62
256
370
-1
100
AcDbLine
10
6.3125
20
3.125
11
6.6875
21
3.125
0
LINE
5
171
100
AcDbEntity
8
0
6
ByLayer
62
256
370
-1
100
AcDbLine
10
6.6875
20
3.125
11
6.6875
21
3.3125
0
LINE
5
172
100
AcDbEntity
8
0
6
ByLayer
62
256
370
-1
100
AcDbLine
10
6.6875
20
3.3125
11
7.0625
21
3.3125
0
LINE
5
173
100
AcDbEntity
8
0
6
ByLayer
62
256
370
-1
100
AcDbLine
10
7.0625
20
3.3125
11
7.0625
21
1.4375
0
LINE
5
174
100
AcDbEntity
8
0
6
ByLayer
62
256
370
-1
100
AcDbLine
10
7.0625
20
1.4375
11
7.4375
21
1.4375
0
LINE
5
175
100
AcDbEntity
8
0
6
ByLayer
62
256
370
-1
100
AcDbLine
10
7.4375
20
1.4375
11
7.4375
21
1.625
0
LINE
5
176
100
AcDbEntity
8
0
6
ByLayer
62
256
370
-1
100
AcDbLine
10
7.4375
20
1.625
11
7.8125
21
1.625
0
LINE
5
177
100
AcDbEntity
8
0
6
ByLayer
62
256
370
-1
100
AcDbLine
10
7.8125
20
1.625
11
7.8125
21
0
0
LINE
5
178
100
AcDbEntity
8
0
6
ByLayer
62
256
370
-1
100
AcDbLine
10
7.8125
20
0
11
6.5625
21
0
0
LINE
5
179
100
AcDbEntity
8
0
6
ByLayer
62
256
370
-1
100
AcDbLine
10
6.5625
20
0
11
6.5625
21
0.1875
0
LINE
5
17A
100
AcDbEntity
8
0
6
ByLayer
62
256
370
-1
100
AcDbLine
10
6.5625
20
0.1875
11
5.25
21
0.1875
0
LINE
5
17B
100
AcDbEntity
8
0
6
ByLayer
62
256
370
-1
100
AcDbLine
10
5.25
20
0.1875
11
5.25
21
0
0
DIMENSION
5
17C
100
AcDbEntity
8
dimensions
6
ByLayer
62
256
370
-1
100
AcDbDimension
2
*D7
10
2.625
20
3.3125
30
0
11
2.53125
21
3.875
31
0
70
32
71
5
3
Standard
53
0
210
0
220
0
230
1
100
AcDbAlignedDimension
13
2.625
23
4.4375
33
0
14
2.625
24
3.3125
34
0
50
90
100
AcDbRotatedDimension
0
DIMENSION
5
17D
100
AcDbEntity
8
dimensions
6
ByLayer
62
256
370
-1
100
AcDbDimension
2
*D8
10
3.5
20
4.125
30
0
11
2.9375
21
4.21875
31
0
70
32
71
5
3
Standard
53
0
210
0
220
0
230
1
100
AcDbAlignedDimension
13
2.375
23
4.125
33
0
14
3.5
24
4.125
34
0
100
AcDbRotatedDimension
0
ARC
5
17E
100
AcDbEntity
8
0
6
ByLayer
62
256
370
-1
100
AcDbCircle
10
4.75
20
4.1875
40
0.25
100
AcDbArc
50
90
51
180
0
LINE
5
17F
100
AcDbEntity
8
0
6
ByLayer
62
256
370
-1
100
AcDbLine
10
4.5
20
3.5625
11
4.5
21
4.1875
0
ARC
5
180
100
AcDbEntity
8
0
6
ByLayer
62
256
370
-1
100
AcDbCircle
10
4.75
20
3.5625
40
0.25
100
AcDbArc
50
180
51
270
0
LINE
5
181
100
AcDbEntity
8
0
6
ByLayer
62
256
370
-1
100
AcDbLine
10
5.375
20
3.3125
11
4.75
21
3.3125
0
ARC
5
182
100
AcDbEntity
8
0
6
ByLayer
62
256
370
-1
100
AcDbCircle
10
5.375
20
3.5625
40
0.25
100
AcDbArc
50
270
51
0
0
LINE
5
183
100
AcDbEntity
8
0
6
ByLayer
62
256
370
-1
100
AcDbLine
10
5.625
20
4.1875
11
5.625
21
3.5625
0
LINE
5
184
100
AcDbEntity
8
0
6
ByLayer
62
256
370
-1
100
AcDbLine
10
4.75
20
4.4375
11
5.375
21
4.4375
0
ARC
5
185
100
AcDbEntity
8
0
6
ByLayer
62
256
370
-1
100
AcDbCircle
10
5.375
20
4.1875
40
0.25
100
AcDbArc
50
0
51
90
0
LINE
5
186
100
AcDbEntity
8
0
6
ByLayer
62
256
370
-1
100
AcDbLine
10
4
20
0
11
5.25
21
0
0
MTEXT
5
187
100
AcDbEntity
8
sketch
6
ByLayer
62
256
370
-1
100
AcDbMText
10
5.125
20
1.3125
30
0
40
0.12
41
1.51333339505
71
1
72
1
1
BTTF Time Circuits\Psides\Pcut one time
7
standard
210
0
220
0
230
1
50
0
73
2
44
1
0
DIMENSION
5
188
100
AcDbEntity
8
dimensions
6
ByLayer
62
256
370
-1
100
AcDbDimension
2
*D9
10
4
20
3.625
30
0
11
3.75
21
3.71875
31
0
70
32
71
5
72
0
3
Standard
53
0
210
0
220
0
230
1
100
AcDbAlignedDimension
13
3.5
23
3.625
33
0
14
4
24
3.625
34
0
100
AcDbRotatedDimension
0
DIMENSION
5
189
100
AcDbEntity
8
dimensions
6
ByLayer
62
256
370
-1
100
AcDbDimension
2
*D10
10
2.4375
20
5.125
30
0
11
2.0625
21
5.21875
31
0
70
32
71
5
72
0
3
Standard
53
0
210
0
220
0
230
1
100
AcDbAlignedDimension
13
1.6875
23
5
33
0
14
2.4375
24
5
34
0
100
AcDbRotatedDimension
0
DIMENSION
5
18A
100
AcDbEntity
8
dimensions
6
ByLayer
62
256
370
-1
100
AcDbDimension
2
*D11
10
3.25
20
5.125
30
0
11
2.84375
21
5.21875
31
0
70
32
71
5
72
0
3
Standard
53
0
210
0
220
0
230
1
100
AcDbAlignedDimension
13
2.4375
23
5
33
0
14
3.25
24
5
34
0
100
AcDbRotatedDimension
0
DIMENSION
5
18B
100
AcDbEntity
8
dimensions
6
ByLayer
62
256
370
-1
100
AcDbDimension
2
*D12
10
4
20
5.125
30
0
11
3.625
21
5.21875
31
0
70
32
71
5
72
0
3
Standard
53
0
210
0
220
0
230
1
100
AcDbAlignedDimension
13
3.25
23
5
33
0
14
4
24
5
34
0
100
AcDbRotatedDimension
0
DIMENSION
5
18C
100
AcDbEntity
8
dimensions
6
ByLayer
62
256
370
-1
100
AcDbDimension
2
*D13
10
4
20
5.375
30
0
11
2.84375
21
5.46875
31
0
70
32
71
5
72
0
3
Standard
53
0
210
0
220
0
230
1
100
AcDbAlignedDimension
13
1.6875
23
5
33
0
14
4
24
5
34
0
100
AcDbRotatedDimension
0
DIMENSION
5
18D
100
AcDbEntity
8
dimensions
6
ByLayer
62
256
370
-1
100
AcDbDimension
2
*D14
10
3
20
4.4375
30
0
11
2.90625
21
4.625
31
0
70
32
71
5
72
0
3
Standard
53
0
210
0
220
0
230
1
100
AcDbAlignedDimension
13
3
23
4.8125
33
0
14
3
24
4.4375
34
0
50
90
100
AcDbRotatedDimension
0
DIMENSION
5
18E
100
AcDbEntity
8
dimensions
6
ByLayer
62
256
370
-1
100
AcDbDimension
2
*D15
10
1.4375
20
-0.25
30
0
11
0.8125
21
-0.15625
31
0
70
32
71
5
72
0
3
Standard
53
0
210
0
220
0
230
1
100
AcDbAlignedDimension
13
0.1875
23
0
33
0
14
1.4375
24
0
34
0
100
AcDbRotatedDimension
0
DIMENSION
5
18F
100
AcDbEntity
8
dimensions
6
ByLayer
62
256
370
-1
100
AcDbDimension
2
*D16
10
2.75
20
-0.25
30
0
11
2.09375
21
-0.15625
31
0
70
32
71
5
72
0
3
Standard
53
0
210
0
220
0
230
1
100
AcDbAlignedDimension
13
1.4375
23
0
33
0
14
2.75
24
0
34
0
100
AcDbRotatedDimension
0
DIMENSION
5
190
100
AcDbEntity
8
dimensions
6
ByLayer
62
256
370
-1
100
AcDbDimension
2
*D17
10
4
20
-0.25
30
0
11
3.375
21
-0.15625
31
0
70
32
71
5
72
0
3
Standard
53
0
210
0
220
0
230
1
100
AcDbAlignedDimension
13
2.75
23
0
33
0
14
4
24
0
34
0
100
AcDbRotatedDimension
0
DIMENSION
5
191
100
AcDbEntity
8
dimensions
6
ByLayer
62
256
370
-1
100
AcDbDimension
2
*D18
10
4
20
0.375
30
0
11
2.09375
21
0.46875
31
0
70
32
71
5
72
0
3
Standard
53
0
210
0
220
0
230
1
100
AcDbAlignedDimension
13
0.1875
23
0.375
33
0
14
4
24
0.375
34
0
100
AcDbRotatedDimension
0
MTEXT
5
192
100
AcDbEntity
8
sketch
6
ByLayer
62
256
370
-1
100
AcDbMText
10
4.875
20
3.6875
30
0
40
0.08
41
0.65780825554
71
1
72
1
1
connect \Pspeedometer
7
standard
210
0
220
0
230
1
50
0
73
2
44
1
0
MTEXT
5
193
100
AcDbEntity
8
sketch
6
ByLayer
62
256
370
-1
100
AcDbMText
10
3
20
3.8125
30
0
40
0.08
41
0.382222222222
71
1
72
1
1
connect \Panalog\Pmeters
7
standard
210
0
220
0
230
1
50
0
73
2
44
1
0
CIRCLE
5
194
100
AcDbEntity
8
0
6
ByLayer
62
256
370
-1
100
AcDbCircle
10
0.5
20
0.375
40
0.0625
0
LINE
5
195
100
AcDbEntity
8
0
6
ByLayer
62
256
370
-1
100
AcDbLine
10
4
20
5
11
4
21
4.3125
0
LINE
5
196
100
AcDbEntity
8
0
6
ByLayer
62
256
370
-1
100
AcDbLine
10
3.8125
20
4.3125
11
4.1875
21
4.3125
0
LINE
5
197
100
AcDbEntity
8
0
6
ByLayer
62
256
370
-1
100
AcDbLine
10
3.8125
20
3.8125
11
4.1875
21
3.8125
0
DIMENSION
5
198
100
AcDbEntity
8
dimensions
6
ByLayer
62
256
370
-1
100
AcDbDimension
2
*D19
10
4.125
20
3.8125
30
0
11
4.03125
21
4.0625
31
0
70
32
71
5
72
0
3
Standard
53
0
210
0
220
0
230
1
100
AcDbAlignedDimension
13
4.125
23
4.3125
33
0
14
4.125
24
3.8125
34
0
50
90
100
AcDbRotatedDimension
0
LINE
5
199
100
AcDbEntity
8
0
6
ByLayer
62
256
370
-1
100
AcDbLine
10
3.8125
20
4.3125
11
3.8125
21
3.8125
0
LINE
5
19A
100
AcDbEntity
8
0
6
ByLayer
62
256
370
-1
100
AcDbLine
10
4.1875
20
4.3125
11
4.1875
21
3.8125
0
LINE
5
19B
100
AcDbEntity
8
0
6
ByLayer
62
256
370
-1
100
AcDbLine
10
4
20
0
11
4
21
0.6875
0
LINE
5
19C
100
AcDbEntity
8
0
6
ByLayer
62
256
370
-1
100
AcDbLine
10
3.8125
20
0.6875
11
4.1875
21
0.6875
0
LINE
5
19D
100
AcDbEntity
8
0
6
ByLayer
62
256
370
-1
100
AcDbLine
10
4.1875
20
0.6875
11
4.1875
21
1.1875
0
LINE
5
19E
100
AcDbEntity
8
0
6
ByLayer
62
256
370
-1
100
AcDbLine
10
4.1875
20
1.1875
11
3.8125
21
1.1875
0
LINE
5
19F
100
AcDbEntity
8
0
6
ByLayer
62
256
370
-1
100
AcDbLine
10
3.8125
20
1.1875
11
3.8125
21
0.6875
0
LINE
5
1A0
100
AcDbEntity
8
0
6
ByLayer
62
256
370
-1
100
AcDbLine
10
4
20
3.8125
11
4
21
1.1875
0
CIRCLE
5
1A1
100
AcDbEntity
8
0
6
ByLayer
62
256
370
-1
100
AcDbCircle
10
2
20
2.9375
40
0.0625
0
CIRCLE
5
1A2
100
AcDbEntity
8
0
6
ByLayer
62
256
370
-1
100
AcDbCircle
10
1.25
20
1.25
40
0.0625
0
CIRCLE
5
1A3
100
AcDbEntity
8
0
6
ByLayer
62
256
370
-1
100
AcDbCircle
10
6
20
2.9375
40
0.0625
0
CIRCLE
5
1A4
100
AcDbEntity
8
0
6
ByLayer
62
256
370
-1
100
AcDbCircle
10
6.75
20
1.25
40
0.0625
0
DIMENSION
5
1A5
100
AcDbEntity
8
dimensions
6
ByLayer
62
256
370
-1
100
AcDbDimension
2
*D20
10
1.30359330786
20
1.21784401529
30
0
11
1.29823397707
21
1.33038996179
31
0
70
35
71
5
3
Standard
53
0
210
0
220
0
230
1
100
AcDbDiametricDimension
15
1.19640669214
25
1.28215598471
35
0
40
0
0
DIMENSION
5
1A6
100
AcDbEntity
8
dimensions
6
ByLayer
62
256
370
-1
100
AcDbDimension
2
*D21
10
2.05
20
2.9
30
0
11
2.05625
21
3.0125
31
0
70
35
71
5
3
Standard
53
0
210
0
220
0
230
1
100
AcDbDiametricDimension
15
1.95
25
2.975
35
0
40
0
0
DIMENSION
5
1A7
100
AcDbEntity
8
dimensions
6
ByLayer
62
256
370
-1
100
AcDbDimension
2
*D22
10
7.0625
20
2.9375
30
0
11
6.53125
21
3.03125
31
0
70
32
71
5
3
Standard
53
0
210
0
220
0
230
1
100
AcDbAlignedDimension
13
6
23
2.9375
33
0
14
7.0625
24
2.9375
34
0
100
AcDbRotatedDimension
0
DIMENSION
5
1A8
100
AcDbEntity
8
dimensions
6
ByLayer
62
256
370
-1
100
AcDbDimension
2
*D23
10
7.8125
20
1.25
30
0
11
7.28125
21
1.34375
31
0
70
32
71
5
3
Standard
53
0
210
0
220
0
230
1
100
AcDbAlignedDimension
13
6.75
23
1.25
33
0
14
7.8125
24
1.25
34
0
100
AcDbRotatedDimension
0
DIMENSION
5
1A9
100
AcDbEntity
8
dimensions
6
ByLayer
62
256
370
-1
100
AcDbDimension
2
*D24
10
6.75
20
0
30
0
11
6.65625
21
0.625
31
0
70
32
71
5
3
Standard
53
0
210
0
220
0
230
1
100
AcDbAlignedDimension
13
6.75
23
1.25
33
0
14
6.75
24
0
34
0
50
90
100
AcDbRotatedDimension
0
DIMENSION
5
1AA
100
AcDbEntity
8
dimensions
6
ByLayer
62
256
370
-1
100
AcDbDimension
2
*D25
10
6
20
1.25
30
0
11
5.90625
21
2.09375
31
0
70
32
71
5
3
Standard
53
0
210
0
220
0
230
1
100
AcDbAlignedDimension
13
6
23
2.9375
33
0
14
6.75
24
1.25
34
0
50
90
100
AcDbRotatedDimension
0
DIMENSION
5
1AB
100
AcDbEntity
8
dimensions
6
ByLayer
62
256
370
-1
100
AcDbDimension
2
*D26
10
6
20
5
30
0
11
5.90625
21
3.96875
31
0
70
32
71
5
3
Standard
53
0
210
0
220
0
230
1
100
AcDbAlignedDimension
13
6
23
2.9375
33
0
14
6
24
5
34
0
50
90
100
AcDbRotatedDimension
0
DIMENSION
5
1AC
100
AcDbEntity
8
dimensions
6
ByLayer
62
256
370
-1
100
AcDbDimension
2
*D27
10
3
20
3.0625
30
0
11
2.90625
21
3.1875
31
0
70
32
71
5
72
0
3
Standard
53
0
210
0
220
0
230
1
100
AcDbAlignedDimension
13
3
23
3.3125
33
0
14
3
24
3.0625
34
0
50
90
100
AcDbRotatedDimension
0
DIMENSION
5
1AD
100
AcDbEntity
8
dimensions
6
ByLayer
62
256
370
-1
100
AcDbDimension
2
*D28
10
3.25
20
4.1875
30
0
11
3.48480291284
21
4.63107686536
31
0
70
36
71
5
3
Standard
53
0
210
0
220
0
230
1
100
AcDbRadialDimension
15
3.40617376189
25
4.38271720236
35
0
40
0
0
ENDSEC
0
SECTION
2
OBJECTS
0
DICTIONARY
5
C
330
0
100
AcDbDictionary
281
1
3
ACAD_GROUP
350
D
0
DICTIONARY
5
D
330
C
100
AcDbDictionary
281
1
0
ENDSEC
0
EOF
