999
dxfrw 0.5.10
0
SECTION
2
HEADER
9
$ACADVER
1
AC1021
9
$HANDSEED
5
20000
9
$DWGCODEPAGE
3
ANSI_1252
9
$INSBASE
10
0
20
0
30
0
9
$EXTMIN
10
-0.90625
20
-2.25
30
0
9
$EXTMAX
10
8.4375
20
6.59375
30
0
9
$LIMMIN
10
0
20
0
9
$LIMMAX
10
420
20
297
9
$ORTHOMODE
70
0
9
$LTSCALE
40
1
9
$TEXTSTYLE
7
STANDARD
9
$CLAYER
8
dimensions
9
$DIMASZ
40
2.5
9
$DIMLFAC
40
1
9
$DIMSCALE
40
0.05
9
$DIMEXO
40
0.625
9
$DIMEXE
40
1.25
9
$DIMTXT
40
2.5
9
$DIMTSZ
40
0
9
$DIMAUNIT
70
0
9
$DIMADEC
70
2
9
$DIMLUNIT
70
5
9
$DIMSTYLE
2
STANDARD
9
$DIMGAP
40
0.625
9
$DIMTIH
70
0
9
$LUNITS
70
5
9
$LUPREC
70
5
9
$AUNITS
70
0
9
$AUPREC
70
2
9
$SPLINESEGS
70
8
9
$GRIDMODE
70
1
9
$SNAPSTYLE
70
0
9
$GRIDUNIT
10
0
20
0
9
$PINSBASE
10
2.18421906727
20
2.41656819014
30
0
9
$PLIMMIN
10
0
20
0
9
$PLIMMAX
10
11
20
8.5
9
$INSUNITS
70
1
9
$PSVPSCALE
40
0.832195998802
0
ENDSEC
0
SECTION
2
CLASSES
0
ENDSEC
0
SECTION
2
TABLES
0
TABLE
2
VPORT
5
8
330
0
100
AcDbSymbolTable
70
1
0
VPORT
5
31
330
2
100
AcDbSymbolTableRecord
100
AcDbViewportTableRecord
2
*ACTIVE
70
0
10
0
20
0
11
1
21
1
12
2.58604767196
22
0.0804423809239
13
0
23
0
14
10
24
10
15
10
25
10
16
0
26
0
36
1
17
0
27
0
37
0
40
1.00727850896
41
2.24861111111
42
50
43
0
44
0
50
0
51
0
71
0
72
100
73
1
74
3
75
0
76
1
77
0
78
0
281
0
65
1
110
0
120
0
130
0
111
1
121
0
131
0
112
0
122
1
132
0
79
0
146
0
348
10020
60
7
61
5
292
1
282
1
141
0
142
0
63
250
421
3358443
0
ENDTAB
0
TABLE
2
LTYPE
5
5
330
0
100
AcDbSymbolTable
70
4
0
LTYPE
5
14
330
5
100
AcDbSymbolTableRecord
100
AcDbLinetypeTableRecord
2
ByBlock
70
0
3

72
65
73
0
40
0
0
LTYPE
5
15
330
5
100
AcDbSymbolTableRecord
100
AcDbLinetypeTableRecord
2
ByLayer
70
0
3

72
65
73
0
40
0
0
LTYPE
5
16
330
5
100
AcDbSymbolTableRecord
100
AcDbLinetypeTableRecord
2
Continuous
70
0
3
Solid line
72
65
73
0
40
0
0
LTYPE
5
32
330
5
100
AcDbSymbolTableRecord
100
AcDbLinetypeTableRecord
2
DOT
70
0
3
Dot . . . . . . . . . . . . . . . . . . . . . .
72
65
73
2
40
6.35
49
0
74
0
49
-6.35
74
0
0
LTYPE
5
33
330
5
100
AcDbSymbolTableRecord
100
AcDbLinetypeTableRecord
2
DOT2
70
0
3
Dot (.5x) .....................................
72
65
73
2
40
3.175
49
0
74
0
49
-3.175
74
0
0
LTYPE
5
34
330
5
100
AcDbSymbolTableRecord
100
AcDbLinetypeTableRecord
2
DOTX2
70
0
3
Dot (2x) .  .  .  .  .  .  .  .  .  .  .  .  .
72
65
73
2
40
12.7
49
0
74
0
49
-12.7
74
0
0
LTYPE
5
35
330
5
100
AcDbSymbolTableRecord
100
AcDbLinetypeTableRecord
2
DASHED
70
0
3
Dot . . . . . . . . . . . . . . . . . . . . . .
72
65
73
2
40
19.05
49
12.7
74
0
49
-6.35
74
0
0
LTYPE
5
36
330
5
100
AcDbSymbolTableRecord
100
AcDbLinetypeTableRecord
2
DASHED2
70
0
3
Dashed (.5x) _ _ _ _ _ _ _ _ _ _ _ _ _ _ _ _ _
72
65
73
2
40
9.525
49
6.35
74
0
49
-3.175
74
0
0
LTYPE
5
37
330
5
100
AcDbSymbolTableRecord
100
AcDbLinetypeTableRecord
2
DASHEDX2
70
0
3
Dashed (2x) ____  ____  ____  ____  ____  ___
72
65
73
2
40
38.1
49
25.4
74
0
49
-12.7
74
0
0
LTYPE
5
38
330
5
100
AcDbSymbolTableRecord
100
AcDbLinetypeTableRecord
2
DASHDOT
70
0
3
Dash dot __ . __ . __ . __ . __ . __ . __ . __
72
65
73
4
40
25.4
49
12.7
74
0
49
-6.35
74
0
49
0
74
0
49
-6.35
74
0
0
LTYPE
5
39
330
5
100
AcDbSymbolTableRecord
100
AcDbLinetypeTableRecord
2
DASHDOT2
70
0
3
Dash dot (.5x) _._._._._._._._._._._._._._._.
72
65
73
4
40
12.7
49
6.35
74
0
49
-3.175
74
0
49
0
74
0
49
-3.175
74
0
0
LTYPE
5
3A
330
5
100
AcDbSymbolTableRecord
100
AcDbLinetypeTableRecord
2
DASHDOTX2
70
0
3
Dash dot (2x) ____  .  ____  .  ____  .  ___
72
65
73
4
40
50.8
49
25.4
74
0
49
-12.7
74
0
49
0
74
0
49
-12.7
74
0
0
LTYPE
5
3B
330
5
100
AcDbSymbolTableRecord
100
AcDbLinetypeTableRecord
2
DIVIDE
70
0
3
Divide ____ . . ____ . . ____ . . ____ . . ____
72
65
73
6
40
31.75
49
12.7
74
0
49
-6.35
74
0
49
0
74
0
49
-6.35
74
0
49
0
74
0
49
-6.35
74
0
0
LTYPE
5
3C
330
5
100
AcDbSymbolTableRecord
100
AcDbLinetypeTableRecord
2
DIVIDE2
70
0
3
Divide (.5x) __..__..__..__..__..__..__..__.._
72
65
73
6
40
15.875
49
6.35
74
0
49
-3.175
74
0
49
0
74
0
49
-3.175
74
0
49
0
74
0
49
-3.175
74
0
0
LTYPE
5
3D
330
5
100
AcDbSymbolTableRecord
100
AcDbLinetypeTableRecord
2
DIVIDEX2
70
0
3
Divide (2x) ________  .  .  ________  .  .  _
72
65
73
6
40
63.5
49
25.4
74
0
49
-12.7
74
0
49
0
74
0
49
-12.7
74
0
49
0
74
0
49
-12.7
74
0
0
LTYPE
5
3E
330
5
100
AcDbSymbolTableRecord
100
AcDbLinetypeTableRecord
2
BORDER
70
0
3
Border __ __ . __ __ . __ __ . __ __ . __ __ .
72
65
73
6
40
44.45
49
12.7
74
0
49
-6.35
74
0
49
12.7
74
0
49
-6.35
74
0
49
0
74
0
49
-6.35
74
0
0
LTYPE
5
3F
330
5
100
AcDbSymbolTableRecord
100
AcDbLinetypeTableRecord
2
BORDER2
70
0
3
Border (.5x) __.__.__.__.__.__.__.__.__.__.__.
72
65
73
6
40
22.225
49
6.35
74
0
49
-3.175
74
0
49
6.35
74
0
49
-3.175
74
0
49
0
74
0
49
-3.175
74
0
0
LTYPE
5
40
330
5
100
AcDbSymbolTableRecord
100
AcDbLinetypeTableRecord
2
BORDERX2
70
0
3
Border (2x) ____  ____  .  ____  ____  .  ___
72
65
73
6
40
88.9
49
25.4
74
0
49
-12.7
74
0
49
25.4
74
0
49
-12.7
74
0
49
0
74
0
49
-12.7
74
0
0
LTYPE
5
41
330
5
100
AcDbSymbolTableRecord
100
AcDbLinetypeTableRecord
2
CENTER
70
0
3
Center ____ _ ____ _ ____ _ ____ _ ____ _ ____
72
65
73
4
40
50.8
49
31.75
74
0
49
-6.35
74
0
49
6.35
74
0
49
-6.35
74
0
0
LTYPE
5
42
330
5
100
AcDbSymbolTableRecord
100
AcDbLinetypeTableRecord
2
CENTER2
70
0
3
Center (.5x) ___ _ ___ _ ___ _ ___ _ ___ _ ___
72
65
73
4
40
28.575
49
19.05
74
0
49
-3.175
74
0
49
3.175
74
0
49
-3.175
74
0
0
LTYPE
5
43
330
5
100
AcDbSymbolTableRecord
100
AcDbLinetypeTableRecord
2
CENTERX2
70
0
3
Center (2x) ________  __  ________  __  _____
72
65
73
4
40
101.6
49
63.5
74
0
49
-12.7
74
0
49
12.7
74
0
49
-12.7
74
0
0
ENDTAB
0
TABLE
2
LAYER
5
2
330
0
100
AcDbSymbolTable
70
1
0
LAYER
5
10
330
2
100
AcDbSymbolTableRecord
100
AcDbLayerTableRecord
2
0
70
0
62
7
6
CONTINUOUS
370
0
390
F
0
LAYER
5
44
330
2
100
AcDbSymbolTableRecord
100
AcDbLayerTableRecord
2
dimensions
70
0
62
96
420
32768
6
CONTINUOUS
370
0
390
F
0
ENDTAB
0
TABLE
2
STYLE
5
3
330
0
100
AcDbSymbolTable
70
3
0
STYLE
5
45
330
2
100
AcDbSymbolTableRecord
100
AcDbTextStyleTableRecord
2
standard
70
0
40
0
41
1
50
0
71
0
42
1
3
standard
4

0
ENDTAB
0
TABLE
2
VIEW
5
6
330
0
100
AcDbSymbolTable
70
0
0
ENDTAB
0
TABLE
2
UCS
5
7
330
0
100
AcDbSymbolTable
70
0
0
ENDTAB
0
TABLE
2
APPID
5
9
330
0
100
AcDbSymbolTable
70
1
0
APPID
5
12
330
9
100
AcDbSymbolTableRecord
100
AcDbRegAppTableRecord
2
ACAD
70
0
0
ENDTAB
0
TABLE
2
DIMSTYLE
5
A
330
0
100
AcDbSymbolTable
70
1
100
AcDbDimStyleTable
71
1
0
DIMSTYLE
105
46
330
A
100
AcDbSymbolTableRecord
100
AcDbDimStyleTableRecord
2
Standard
70
0
40
1
41
2.5
42
0.625
43
0.38
44
1.25
45
0
46
0
47
0
48
0
140
2.5
141
0.09
142
0
143
25.4
144
1
145
0
146
1
147
0.625
148
0
71
0
72
0
73
0
74
1
75
0
76
0
77
0
78
0
79
0
170
0
171
2
172
0
173
0
174
0
175
0
176
0
177
0
178
0
179
0
271
4
272
4
273
2
274
2
275
0
276
0
277
2
278
46
279
0
280
0
281
0
282
0
283
1
284
0
285
0
286
0
288
0
289
3
340
Standard
341

371
-2
372
-2
0
ENDTAB
0
TABLE
2
BLOCK_RECORD
5
1
330
0
100
AcDbSymbolTable
70
2
0
BLOCK_RECORD
5
1F
330
1
100
AcDbSymbolTableRecord
100
AcDbBlockTableRecord
2
*Model_Space
70
0
280
1
281
0
0
BLOCK_RECORD
5
1E
330
1
100
AcDbSymbolTableRecord
100
AcDbBlockTableRecord
2
*Paper_Space
70
0
280
1
281
0
0
BLOCK_RECORD
5
47
330
1
100
AcDbSymbolTableRecord
100
AcDbBlockTableRecord
2
*D37
70
0
280
1
281
0
0
BLOCK_RECORD
5
4A
330
1
100
AcDbSymbolTableRecord
100
AcDbBlockTableRecord
2
*D29
70
0
280
1
281
0
0
BLOCK_RECORD
5
4D
330
1
100
AcDbSymbolTableRecord
100
AcDbBlockTableRecord
2
*D17
70
0
280
1
281
0
0
BLOCK_RECORD
5
50
330
1
100
AcDbSymbolTableRecord
100
AcDbBlockTableRecord
2
*D22
70
0
280
1
281
0
0
BLOCK_RECORD
5
53
330
1
100
AcDbSymbolTableRecord
100
AcDbBlockTableRecord
2
*D12
70
0
280
1
281
0
0
BLOCK_RECORD
5
56
330
1
100
AcDbSymbolTableRecord
100
AcDbBlockTableRecord
2
*D35
70
0
280
1
281
0
0
BLOCK_RECORD
5
59
330
1
100
AcDbSymbolTableRecord
100
AcDbBlockTableRecord
2
*D19
70
0
280
1
281
0
0
BLOCK_RECORD
5
5C
330
1
100
AcDbSymbolTableRecord
100
AcDbBlockTableRecord
2
*D2
70
0
280
1
281
0
0
BLOCK_RECORD
5
5F
330
1
100
AcDbSymbolTableRecord
100
AcDbBlockTableRecord
2
*D4
70
0
280
1
281
0
0
BLOCK_RECORD
5
62
330
1
100
AcDbSymbolTableRecord
100
AcDbBlockTableRecord
2
*D30
70
0
280
1
281
0
0
BLOCK_RECORD
5
65
330
1
100
AcDbSymbolTableRecord
100
AcDbBlockTableRecord
2
*D13
70
0
280
1
281
0
0
BLOCK_RECORD
5
68
330
1
100
AcDbSymbolTableRecord
100
AcDbBlockTableRecord
2
*D43
70
0
280
1
281
0
0
BLOCK_RECORD
5
6B
330
1
100
AcDbSymbolTableRecord
100
AcDbBlockTableRecord
2
*D9
70
0
280
1
281
0
0
BLOCK_RECORD
5
6E
330
1
100
AcDbSymbolTableRecord
100
AcDbBlockTableRecord
2
*D6
70
0
280
1
281
0
0
BLOCK_RECORD
5
71
330
1
100
AcDbSymbolTableRecord
100
AcDbBlockTableRecord
2
*D33
70
0
280
1
281
0
0
BLOCK_RECORD
5
74
330
1
100
AcDbSymbolTableRecord
100
AcDbBlockTableRecord
2
*D27
70
0
280
1
281
0
0
BLOCK_RECORD
5
77
330
1
100
AcDbSymbolTableRecord
100
AcDbBlockTableRecord
2
*D7
70
0
280
1
281
0
0
BLOCK_RECORD
5
7A
330
1
100
AcDbSymbolTableRecord
100
AcDbBlockTableRecord
2
*D40
70
0
280
1
281
0
0
BLOCK_RECORD
5
7D
330
1
100
AcDbSymbolTableRecord
100
AcDbBlockTableRecord
2
*D8
70
0
280
1
281
0
0
BLOCK_RECORD
5
80
330
1
100
AcDbSymbolTableRecord
100
AcDbBlockTableRecord
2
*D42
70
0
280
1
281
0
0
BLOCK_RECORD
5
83
330
1
100
AcDbSymbolTableRecord
100
AcDbBlockTableRecord
2
*D16
70
0
280
1
281
0
0
BLOCK_RECORD
5
86
330
1
100
AcDbSymbolTableRecord
100
AcDbBlockTableRecord
2
*D41
70
0
280
1
281
0
0
BLOCK_RECORD
5
89
330
1
100
AcDbSymbolTableRecord
100
AcDbBlockTableRecord
2
*D3
70
0
280
1
281
0
0
BLOCK_RECORD
5
8C
330
1
100
AcDbSymbolTableRecord
100
AcDbBlockTableRecord
2
*D15
70
0
280
1
281
0
0
BLOCK_RECORD
5
8F
330
1
100
AcDbSymbolTableRecord
100
AcDbBlockTableRecord
2
*D39
70
0
280
1
281
0
0
BLOCK_RECORD
5
92
330
1
100
AcDbSymbolTableRecord
100
AcDbBlockTableRecord
2
*D31
70
0
280
1
281
0
0
BLOCK_RECORD
5
95
330
1
100
AcDbSymbolTableRecord
100
AcDbBlockTableRecord
2
*D38
70
0
280
1
281
0
0
BLOCK_RECORD
5
98
330
1
100
AcDbSymbolTableRecord
100
AcDbBlockTableRecord
2
*D21
70
0
280
1
281
0
0
BLOCK_RECORD
5
9B
330
1
100
AcDbSymbolTableRecord
100
AcDbBlockTableRecord
2
*D36
70
0
280
1
281
0
0
BLOCK_RECORD
5
9E
330
1
100
AcDbSymbolTableRecord
100
AcDbBlockTableRecord
2
*D10
70
0
280
1
281
0
0
BLOCK_RECORD
5
A1
330
1
100
AcDbSymbolTableRecord
100
AcDbBlockTableRecord
2
*D20
70
0
280
1
281
0
0
BLOCK_RECORD
5
A4
330
1
100
AcDbSymbolTableRecord
100
AcDbBlockTableRecord
2
*D23
70
0
280
1
281
0
0
BLOCK_RECORD
5
A7
330
1
100
AcDbSymbolTableRecord
100
AcDbBlockTableRecord
2
*D24
70
0
280
1
281
0
0
BLOCK_RECORD
5
AA
330
1
100
AcDbSymbolTableRecord
100
AcDbBlockTableRecord
2
*D1
70
0
280
1
281
0
0
BLOCK_RECORD
5
AD
330
1
100
AcDbSymbolTableRecord
100
AcDbBlockTableRecord
2
*D32
70
0
280
1
281
0
0
BLOCK_RECORD
5
B0
330
1
100
AcDbSymbolTableRecord
100
AcDbBlockTableRecord
2
*D14
70
0
280
1
281
0
0
BLOCK_RECORD
5
B3
330
1
100
AcDbSymbolTableRecord
100
AcDbBlockTableRecord
2
*D28
70
0
280
1
281
0
0
BLOCK_RECORD
5
B6
330
1
100
AcDbSymbolTableRecord
100
AcDbBlockTableRecord
2
*D18
70
0
280
1
281
0
0
BLOCK_RECORD
5
B9
330
1
100
AcDbSymbolTableRecord
100
AcDbBlockTableRecord
2
*D11
70
0
280
1
281
0
0
BLOCK_RECORD
5
BC
330
1
100
AcDbSymbolTableRecord
100
AcDbBlockTableRecord
2
*D26
70
0
280
1
281
0
0
BLOCK_RECORD
5
BF
330
1
100
AcDbSymbolTableRecord
100
AcDbBlockTableRecord
2
*D5
70
0
280
1
281
0
0
BLOCK_RECORD
5
C2
330
1
100
AcDbSymbolTableRecord
100
AcDbBlockTableRecord
2
*D34
70
0
280
1
281
0
0
BLOCK_RECORD
5
C5
330
1
100
AcDbSymbolTableRecord
100
AcDbBlockTableRecord
2
*D25
70
0
280
1
281
0
0
ENDTAB
0
ENDSEC
0
SECTION
2
BLOCKS
0
BLOCK
5
20
330
1F
100
AcDbEntity
8
0
100
AcDbBlockBegin
2
*Model_Space
70
0
10
0
20
0
30
0
3
*Model_Space
1

0
ENDBLK
5
21
330
1F
100
AcDbEntity
8
0
100
AcDbBlockEnd
0
BLOCK
5
1C
330
1B
100
AcDbEntity
8
0
100
AcDbBlockBegin
2
*Paper_Space
70
0
10
0
20
0
30
0
3
*Paper_Space
1

0
ENDBLK
5
1D
330
1F
100
AcDbEntity
8
0
100
AcDbBlockEnd
0
BLOCK
5
48
330
47
100
AcDbEntity
8
0
100
AcDbBlockBegin
2
*D37
70
1
10
0
20
0
3
*D37
1

0
LINE
5
C8
100
AcDbEntity
8
dimensions
6
CONTINUOUS
62
7
370
0
100
AcDbLine
10
5.6875
20
-1
11
5.6875
21
-2
0
SOLID
5
C9
100
AcDbEntity
8
dimensions
6
CONTINUOUS
62
7
370
0
100
AcDbTrace
10
5.6875
20
-1
30
0
11
5.70831423289
21
-1.125
31
0
12
5.66668576711
22
-1.125
32
0
13
5.66668576711
23
-1.125
33
0
0
SOLID
5
CA
100
AcDbEntity
8
dimensions
6
CONTINUOUS
62
7
370
0
100
AcDbTrace
10
5.6875
20
-2
30
0
11
5.66668576711
21
-1.875
31
0
12
5.70831423289
22
-1.875
32
0
13
5.70831423289
23
-1.875
33
0
0
MTEXT
5
CB
100
AcDbEntity
8
dimensions
6
CONTINUOUS
62
7
370
0
100
AcDbMText
10
5.59375
20
-1.5
30
0
40
0.125
41
0.0277777777778
71
5
72
1
1
1
7
standard
210
0
220
0
230
1
50
90
73
2
44
1
0
LINE
5
CC
100
AcDbEntity
8
dimensions
6
CONTINUOUS
62
7
370
0
100
AcDbLine
10
5.65625
20
-1
11
5.625
21
-1
0
LINE
5
CD
100
AcDbEntity
8
dimensions
6
CONTINUOUS
62
7
370
0
100
AcDbLine
10
5.65625
20
-2
11
5.625
21
-2
0
ENDBLK
5
49
330
47
100
AcDbEntity
8
0
100
AcDbBlockEnd
0
BLOCK
5
4B
330
4A
100
AcDbEntity
8
0
100
AcDbBlockBegin
2
*D29
70
1
10
0
20
0
3
*D29
1

0
LINE
5
CE
100
AcDbEntity
8
dimensions
6
CONTINUOUS
62
7
370
0
100
AcDbLine
10
-0.3125
20
-0.5
11
-0.3125
21
-1
0
SOLID
5
CF
100
AcDbEntity
8
dimensions
6
CONTINUOUS
62
7
370
0
100
AcDbTrace
10
-0.3125
20
-0.5
30
0
11
-0.291685767111
21
-0.625
31
0
12
-0.333314232889
22
-0.625
32
0
13
-0.333314232889
23
-0.625
33
0
0
SOLID
5
D0
100
AcDbEntity
8
dimensions
6
CONTINUOUS
62
7
370
0
100
AcDbTrace
10
-0.3125
20
-1
30
0
11
-0.333314232889
21
-0.875
31
0
12
-0.291685767111
22
-0.875
32
0
13
-0.291685767111
23
-0.875
33
0
0
MTEXT
5
D1
100
AcDbEntity
8
dimensions
6
CONTINUOUS
62
7
370
0
100
AcDbMText
10
-0.40625
20
-0.75
30
0
40
0.125
41
0.222222222222
71
5
72
1
1
1/2
7
standard
210
0
220
0
230
1
50
90
73
2
44
1
0
LINE
5
D2
100
AcDbEntity
8
dimensions
6
CONTINUOUS
62
7
370
0
100
AcDbLine
10
-0.21875
20
-0.5
11
-0.375
21
-0.5
0
LINE
5
D3
100
AcDbEntity
8
dimensions
6
CONTINUOUS
62
7
370
0
100
AcDbLine
10
-0.21875
20
-1
11
-0.375
21
-1
0
ENDBLK
5
4C
330
4A
100
AcDbEntity
8
0
100
AcDbBlockEnd
0
BLOCK
5
4E
330
4D
100
AcDbEntity
8
0
100
AcDbBlockBegin
2
*D17
70
1
10
0
20
0
3
*D17
1

0
LINE
5
D4
100
AcDbEntity
8
dimensions
6
CONTINUOUS
62
7
370
0
100
AcDbLine
10
5.4375
20
6.4375
11
6.9375
21
6.4375
0
SOLID
5
D5
100
AcDbEntity
8
dimensions
6
CONTINUOUS
62
7
370
0
100
AcDbTrace
10
5.4375
20
6.4375
30
0
11
5.5625
21
6.45831423289
31
0
12
5.5625
22
6.41668576711
32
0
13
5.5625
23
6.41668576711
33
0
0
SOLID
5
D6
100
AcDbEntity
8
dimensions
6
CONTINUOUS
62
7
370
0
100
AcDbTrace
10
6.9375
20
6.4375
30
0
11
6.8125
21
6.41668576711
31
0
12
6.8125
22
6.45831423289
32
0
13
6.8125
23
6.45831423289
33
0
0
MTEXT
5
D7
100
AcDbEntity
8
dimensions
6
CONTINUOUS
62
7
370
0
100
AcDbMText
10
6.1875
20
6.53125
30
0
40
0.125
41
0.385416666667
71
5
72
1
1
1 1/2
7
standard
210
0
220
0
230
1
50
0
73
2
44
1
0
LINE
5
D8
100
AcDbEntity
8
dimensions
6
CONTINUOUS
62
7
370
0
100
AcDbLine
10
5.4375
20
6.34375
11
5.4375
21
6.5
0
LINE
5
D9
100
AcDbEntity
8
dimensions
6
CONTINUOUS
62
7
370
0
100
AcDbLine
10
6.9375
20
6.34375
11
6.9375
21
6.5
0
ENDBLK
5
4F
330
4D
100
AcDbEntity
8
0
100
AcDbBlockEnd
0
BLOCK
5
51
330
50
100
AcDbEntity
8
0
100
AcDbBlockBegin
2
*D22
70
1
10
0
20
0
3
*D22
1

0
LINE
5
DA
100
AcDbEntity
8
dimensions
6
CONTINUOUS
62
7
370
0
100
AcDbLine
10
3.125
20
0.3125
11
5.125
21
0.3125
0
SOLID
5
DB
100
AcDbEntity
8
dimensions
6
CONTINUOUS
62
7
370
0
100
AcDbTrace
10
3.125
20
0.3125
30
0
11
3.25
21
0.333314232889
31
0
12
3.25
22
0.291685767111
32
0
13
3.25
23
0.291685767111
33
0
0
SOLID
5
DC
100
AcDbEntity
8
dimensions
6
CONTINUOUS
62
7
370
0
100
AcDbTrace
10
5.125
20
0.3125
30
0
11
5
21
0.291685767111
31
0
12
5
22
0.333314232889
32
0
13
5
23
0.333314232889
33
0
0
MTEXT
5
DD
100
AcDbEntity
8
dimensions
6
CONTINUOUS
62
7
370
0
100
AcDbMText
10
4.125
20
0.40625
30
0
40
0.125
41
0.0555555555556
71
5
72
1
1
2
7
standard
210
0
220
0
230
1
50
0
73
2
44
1
0
LINE
5
DE
100
AcDbEntity
8
dimensions
6
CONTINUOUS
62
7
370
0
100
AcDbLine
10
3.125
20
0.21875
11
3.125
21
0.375
0
LINE
5
DF
100
AcDbEntity
8
dimensions
6
CONTINUOUS
62
7
370
0
100
AcDbLine
10
5.125
20
0.21875
11
5.125
21
0.375
0
ENDBLK
5
52
330
50
100
AcDbEntity
8
0
100
AcDbBlockEnd
0
BLOCK
5
54
330
53
100
AcDbEntity
8
0
100
AcDbBlockBegin
2
*D12
70
1
10
0
20
0
3
*D12
1

0
LINE
5
E0
100
AcDbEntity
8
dimensions
6
CONTINUOUS
62
7
370
0
100
AcDbLine
10
-0.3125
20
4.5625
11
-0.3125
21
5.375
0
SOLID
5
E1
100
AcDbEntity
8
dimensions
6
CONTINUOUS
62
7
370
0
100
AcDbTrace
10
-0.3125
20
4.5625
30
0
11
-0.333314232889
21
4.6875
31
0
12
-0.291685767111
22
4.6875
32
0
13
-0.291685767111
23
4.6875
33
0
0
SOLID
5
E2
100
AcDbEntity
8
dimensions
6
CONTINUOUS
62
7
370
0
100
AcDbTrace
10
-0.3125
20
5.375
30
0
11
-0.291685767111
21
5.25
31
0
12
-0.333314232889
22
5.25
32
0
13
-0.333314232889
23
5.25
33
0
0
MTEXT
5
E3
100
AcDbEntity
8
dimensions
6
CONTINUOUS
62
7
370
0
100
AcDbMText
10
-0.40625
20
4.96875
30
0
40
0.125
41
0.388888888889
71
5
72
1
1
13/16
7
standard
210
0
220
0
230
1
50
90
73
2
44
1
0
LINE
5
E4
100
AcDbEntity
8
dimensions
6
CONTINUOUS
62
7
370
0
100
AcDbLine
10
-0.21875
20
4.5625
11
-0.375
21
4.5625
0
LINE
5
E5
100
AcDbEntity
8
dimensions
6
CONTINUOUS
62
7
370
0
100
AcDbLine
10
-0.21875
20
5.375
11
-0.375
21
5.375
0
ENDBLK
5
55
330
53
100
AcDbEntity
8
0
100
AcDbBlockEnd
0
BLOCK
5
57
330
56
100
AcDbEntity
8
0
100
AcDbBlockBegin
2
*D35
70
1
10
0
20
0
3
*D35
1

0
LINE
5
E6
100
AcDbEntity
8
dimensions
6
CONTINUOUS
62
7
370
0
100
AcDbLine
10
5.125
20
-1.875
11
8.25
21
-1.875
0
SOLID
5
E7
100
AcDbEntity
8
dimensions
6
CONTINUOUS
62
7
370
0
100
AcDbTrace
10
5.125
20
-1.875
30
0
11
5.25
21
-1.85418576711
31
0
12
5.25
22
-1.89581423289
32
0
13
5.25
23
-1.89581423289
33
0
0
SOLID
5
E8
100
AcDbEntity
8
dimensions
6
CONTINUOUS
62
7
370
0
100
AcDbTrace
10
8.25
20
-1.875
30
0
11
8.125
21
-1.89581423289
31
0
12
8.125
22
-1.85418576711
32
0
13
8.125
23
-1.85418576711
33
0
0
MTEXT
5
E9
100
AcDbEntity
8
dimensions
6
CONTINUOUS
62
7
370
0
100
AcDbMText
10
6.6875
20
-1.78125
30
0
40
0.125
41
0.413194444444
71
5
72
1
1
3 1/8
7
standard
210
0
220
0
230
1
50
0
73
2
44
1
0
LINE
5
EA
100
AcDbEntity
8
dimensions
6
CONTINUOUS
62
7
370
0
100
AcDbLine
10
5.125
20
-1.96875
11
5.125
21
-1.8125
0
LINE
5
EB
100
AcDbEntity
8
dimensions
6
CONTINUOUS
62
7
370
0
100
AcDbLine
10
8.25
20
-1.84375
11
8.25
21
-1.8125
0
ENDBLK
5
58
330
56
100
AcDbEntity
8
0
100
AcDbBlockEnd
0
BLOCK
5
5A
330
59
100
AcDbEntity
8
0
100
AcDbBlockBegin
2
*D19
70
1
10
0
20
0
3
*D19
1

0
LINE
5
EC
100
AcDbEntity
8
dimensions
6
CONTINUOUS
62
7
370
0
100
AcDbLine
10
0
20
4
11
8.25
21
4
0
SOLID
5
ED
100
AcDbEntity
8
dimensions
6
CONTINUOUS
62
7
370
0
100
AcDbTrace
10
0
20
4
30
0
11
0.125
21
4.02081423289
31
0
12
0.125
22
3.97918576711
32
0
13
0.125
23
3.97918576711
33
0
0
SOLID
5
EE
100
AcDbEntity
8
dimensions
6
CONTINUOUS
62
7
370
0
100
AcDbTrace
10
8.25
20
4
30
0
11
8.125
21
3.97918576711
31
0
12
8.125
22
4.02081423289
32
0
13
8.125
23
4.02081423289
33
0
0
MTEXT
5
EF
100
AcDbEntity
8
dimensions
6
CONTINUOUS
62
7
370
0
100
AcDbMText
10
4.125
20
4.09375
30
0
40
0.125
41
0.427083333333
71
5
72
1
1
8 1/4
7
standard
210
0
220
0
230
1
50
0
73
2
44
1
0
LINE
5
F0
100
AcDbEntity
8
dimensions
6
CONTINUOUS
62
7
370
0
100
AcDbLine
10
1.91351062367e-18
20
4.03125
11
3.82702124734e-18
21
4.0625
0
LINE
5
F1
100
AcDbEntity
8
dimensions
6
CONTINUOUS
62
7
370
0
100
AcDbLine
10
8.25
20
4.03125
11
8.25
21
4.0625
0
ENDBLK
5
5B
330
59
100
AcDbEntity
8
0
100
AcDbBlockEnd
0
BLOCK
5
5D
330
5C
100
AcDbEntity
8
0
100
AcDbBlockBegin
2
*D2
70
1
10
0
20
0
3
*D2
1

0
LINE
5
F2
100
AcDbEntity
8
dimensions
6
CONTINUOUS
62
7
370
0
100
AcDbLine
10
2.25
20
2.9375
11
2.25
21
3.8125
0
SOLID
5
F3
100
AcDbEntity
8
dimensions
6
CONTINUOUS
62
7
370
0
100
AcDbTrace
10
2.25
20
2.9375
30
0
11
2.22918576711
21
3.0625
31
0
12
2.27081423289
22
3.0625
32
0
13
2.27081423289
23
3.0625
33
0
0
SOLID
5
F4
100
AcDbEntity
8
dimensions
6
CONTINUOUS
62
7
370
0
100
AcDbTrace
10
2.25
20
3.8125
30
0
11
2.27081423289
21
3.6875
31
0
12
2.22918576711
22
3.6875
32
0
13
2.22918576711
23
3.6875
33
0
0
MTEXT
5
F5
100
AcDbEntity
8
dimensions
6
CONTINUOUS
62
7
370
0
100
AcDbMText
10
2.15625
20
3.375
30
0
40
0.125
41
0.25
71
5
72
1
1
7/8
7
standard
210
0
220
0
230
1
50
90
73
2
44
1
0
LINE
5
F6
100
AcDbEntity
8
dimensions
6
CONTINUOUS
62
7
370
0
100
AcDbLine
10
0.34375
20
2.9375
11
2.3125
21
2.9375
0
LINE
5
F7
100
AcDbEntity
8
dimensions
6
CONTINUOUS
62
7
370
0
100
AcDbLine
10
2.34375
20
3.8125
11
2.3125
21
3.8125
0
ENDBLK
5
5E
330
5C
100
AcDbEntity
8
0
100
AcDbBlockEnd
0
BLOCK
5
60
330
5F
100
AcDbEntity
8
0
100
AcDbBlockBegin
2
*D4
70
1
10
0
20
0
3
*D4
1

0
LINE
5
F8
100
AcDbEntity
8
dimensions
6
CONTINUOUS
62
7
370
0
100
AcDbLine
10
1.0625
20
2.125
11
1.8125
21
2.125
0
SOLID
5
F9
100
AcDbEntity
8
dimensions
6
CONTINUOUS
62
7
370
0
100
AcDbTrace
10
1.0625
20
2.125
30
0
11
1.1875
21
2.14581423289
31
0
12
1.1875
22
2.10418576711
32
0
13
1.1875
23
2.10418576711
33
0
0
SOLID
5
FA
100
AcDbEntity
8
dimensions
6
CONTINUOUS
62
7
370
0
100
AcDbTrace
10
1.8125
20
2.125
30
0
11
1.6875
21
2.10418576711
31
0
12
1.6875
22
2.14581423289
32
0
13
1.6875
23
2.14581423289
33
0
0
MTEXT
5
FB
100
AcDbEntity
8
dimensions
6
CONTINUOUS
62
7
370
0
100
AcDbMText
10
1.4375
20
2.21875
30
0
40
0.125
41
0.263888888889
71
5
72
1
1
3/4
7
standard
210
0
220
0
230
1
50
0
73
2
44
1
0
LINE
5
FC
100
AcDbEntity
8
dimensions
6
CONTINUOUS
62
7
370
0
100
AcDbLine
10
1.0625
20
2.90625
11
1.0625
21
2.0625
0
LINE
5
FD
100
AcDbEntity
8
dimensions
6
CONTINUOUS
62
7
370
0
100
AcDbLine
10
1.8125
20
2.90625
11
1.8125
21
2.0625
0
ENDBLK
5
61
330
5F
100
AcDbEntity
8
0
100
AcDbBlockEnd
0
BLOCK
5
63
330
62
100
AcDbEntity
8
0
100
AcDbBlockBegin
2
*D30
70
1
10
0
20
0
3
*D30
1

0
LINE
5
FE
100
AcDbEntity
8
dimensions
6
CONTINUOUS
62
7
370
0
100
AcDbLine
10
-0.3125
20
-1
11
-0.3125
21
-1.5
0
SOLID
5
FF
100
AcDbEntity
8
dimensions
6
CONTINUOUS
62
7
370
0
100
AcDbTrace
10
-0.3125
20
-1
30
0
11
-0.291685767111
21
-1.125
31
0
12
-0.333314232889
22
-1.125
32
0
13
-0.333314232889
23
-1.125
33
0
0
SOLID
5
100
100
AcDbEntity
8
dimensions
6
CONTINUOUS
62
7
370
0
100
AcDbTrace
10
-0.3125
20
-1.5
30
0
11
-0.333314232889
21
-1.375
31
0
12
-0.291685767111
22
-1.375
32
0
13
-0.291685767111
23
-1.375
33
0
0
MTEXT
5
101
100
AcDbEntity
8
dimensions
6
CONTINUOUS
62
7
370
0
100
AcDbMText
10
-0.40625
20
-1.25
30
0
40
0.125
41
0.222222222222
71
5
72
1
1
1/2
7
standard
210
0
220
0
230
1
50
90
73
2
44
1
0
LINE
5
102
100
AcDbEntity
8
dimensions
6
CONTINUOUS
62
7
370
0
100
AcDbLine
10
-0.21875
20
-1
11
-0.375
21
-1
0
LINE
5
103
100
AcDbEntity
8
dimensions
6
CONTINUOUS
62
7
370
0
100
AcDbLine
10
-0.21875
20
-1.5
11
-0.375
21
-1.5
0
ENDBLK
5
64
330
62
100
AcDbEntity
8
0
100
AcDbBlockEnd
0
BLOCK
5
66
330
65
100
AcDbEntity
8
0
100
AcDbBlockBegin
2
*D13
70
1
10
0
20
0
3
*D13
1

0
LINE
5
104
100
AcDbEntity
8
dimensions
6
CONTINUOUS
62
7
370
0
100
AcDbLine
10
-0.3125
20
5.375
11
-0.3125
21
6.125
0
SOLID
5
105
100
AcDbEntity
8
dimensions
6
CONTINUOUS
62
7
370
0
100
AcDbTrace
10
-0.3125
20
5.375
30
0
11
-0.333314232889
21
5.5
31
0
12
-0.291685767111
22
5.5
32
0
13
-0.291685767111
23
5.5
33
0
0
SOLID
5
106
100
AcDbEntity
8
dimensions
6
CONTINUOUS
62
7
370
0
100
AcDbTrace
10
-0.3125
20
6.125
30
0
11
-0.291685767111
21
6
31
0
12
-0.333314232889
22
6
32
0
13
-0.333314232889
23
6
33
0
0
MTEXT
5
107
100
AcDbEntity
8
dimensions
6
CONTINUOUS
62
7
370
0
100
AcDbMText
10
-0.40625
20
5.75
30
0
40
0.125
41
0.263888888889
71
5
72
1
1
3/4
7
standard
210
0
220
0
230
1
50
90
73
2
44
1
0
LINE
5
108
100
AcDbEntity
8
dimensions
6
CONTINUOUS
62
7
370
0
100
AcDbLine
10
-0.21875
20
5.375
11
-0.375
21
5.375
0
LINE
5
109
100
AcDbEntity
8
dimensions
6
CONTINUOUS
62
7
370
0
100
AcDbLine
10
-0.03125
20
6.125
11
-0.375
21
6.125
0
ENDBLK
5
67
330
65
100
AcDbEntity
8
0
100
AcDbBlockEnd
0
BLOCK
5
69
330
68
100
AcDbEntity
8
0
100
AcDbBlockBegin
2
*D43
70
1
10
0
20
0
3
*D43
1

0
LINE
5
10A
100
AcDbEntity
8
dimensions
6
CONTINUOUS
62
7
370
0
100
AcDbLine
10
3.734375
20
-0.625
11
3.734375
21
-0.3125
0
SOLID
5
10B
100
AcDbEntity
8
dimensions
6
CONTINUOUS
62
7
370
0
100
AcDbTrace
10
3.734375
20
-0.625
30
0
11
3.71356076711
21
-0.5
31
0
12
3.75518923289
22
-0.5
32
0
13
3.75518923289
23
-0.5
33
0
0
SOLID
5
10C
100
AcDbEntity
8
dimensions
6
CONTINUOUS
62
7
370
0
100
AcDbTrace
10
3.734375
20
-0.3125
30
0
11
3.75518923289
21
-0.4375
31
0
12
3.71356076711
22
-0.4375
32
0
13
3.71356076711
23
-0.4375
33
0
0
MTEXT
5
10D
100
AcDbEntity
8
dimensions
6
CONTINUOUS
62
7
370
0
100
AcDbMText
10
3.640625
20
-0.121527777778
30
0
40
0.125
41
0.319444444444
71
5
72
1
1
5/16
7
standard
210
0
220
0
230
1
50
90
73
2
44
1
0
LINE
5
10E
100
AcDbEntity
8
dimensions
6
CONTINUOUS
62
7
370
0
100
AcDbLine
10
4.09375
20
-0.625
11
3.671875
21
-0.625
0
LINE
5
10F
100
AcDbEntity
8
dimensions
6
CONTINUOUS
62
7
370
0
100
AcDbLine
10
4.09375
20
-0.3125
11
3.671875
21
-0.3125
0
ENDBLK
5
6A
330
68
100
AcDbEntity
8
0
100
AcDbBlockEnd
0
BLOCK
5
6C
330
6B
100
AcDbEntity
8
0
100
AcDbBlockBegin
2
*D9
70
1
10
0
20
0
3
*D9
1

0
LINE
5
110
100
AcDbEntity
8
dimensions
6
CONTINUOUS
62
7
370
0
100
AcDbLine
10
-0.3125
20
3.8125
11
-0.3125
21
2.5625
0
SOLID
5
111
100
AcDbEntity
8
dimensions
6
CONTINUOUS
62
7
370
0
100
AcDbTrace
10
-0.3125
20
3.8125
30
0
11
-0.291685767111
21
3.6875
31
0
12
-0.333314232889
22
3.6875
32
0
13
-0.333314232889
23
3.6875
33
0
0
SOLID
5
112
100
AcDbEntity
8
dimensions
6
CONTINUOUS
62
7
370
0
100
AcDbTrace
10
-0.3125
20
2.5625
30
0
11
-0.333314232889
21
2.6875
31
0
12
-0.291685767111
22
2.6875
32
0
13
-0.291685767111
23
2.6875
33
0
0
MTEXT
5
113
100
AcDbEntity
8
dimensions
6
CONTINUOUS
62
7
370
0
100
AcDbMText
10
-0.40625
20
3.1875
30
0
40
0.125
41
0.399305555556
71
5
72
1
1
1 1/4
7
standard
210
0
220
0
230
1
50
90
73
2
44
1
0
LINE
5
114
100
AcDbEntity
8
dimensions
6
CONTINUOUS
62
7
370
0
100
AcDbLine
10
-0.03125
20
3.8125
11
-0.375
21
3.8125
0
LINE
5
115
100
AcDbEntity
8
dimensions
6
CONTINUOUS
62
7
370
0
100
AcDbLine
10
-0.21875
20
2.5625
11
-0.375
21
2.5625
0
ENDBLK
5
6D
330
6B
100
AcDbEntity
8
0
100
AcDbBlockEnd
0
BLOCK
5
6F
330
6E
100
AcDbEntity
8
0
100
AcDbBlockBegin
2
*D6
70
1
10
0
20
0
3
*D6
1

0
LINE
5
116
100
AcDbEntity
8
dimensions
6
CONTINUOUS
62
7
370
0
100
AcDbLine
10
0.579150573017
20
3.10045312795
11
0.0458494269827
21
2.77454687205
0
SOLID
5
117
100
AcDbEntity
8
dimensions
6
CONTINUOUS
62
7
370
0
100
AcDbTrace
10
0.365830114603
20
2.97009062559
30
0
11
0.461636761874
21
3.05303228358
31
0
12
0.483343925747
22
3.01751146997
32
0
13
0.483343925747
23
3.01751146997
33
0
0
SOLID
5
118
100
AcDbEntity
8
dimensions
6
CONTINUOUS
62
7
370
0
100
AcDbTrace
10
0.259169885397
20
2.90490937441
30
0
11
0.163363238126
21
2.82196771642
31
0
12
0.141656074253
22
2.85748853003
32
0
13
0.141656074253
23
2.85748853003
33
0
0
MTEXT
5
119
100
AcDbEntity
8
dimensions
6
CONTINUOUS
62
7
370
0
100
AcDbMText
10
0.438418326147
20
3.12432000022
30
0
40
0.125
41
0.222222222222
71
5
72
1
1
1/8
7
standard
210
0
220
0
230
1
50
31.4295656143
73
2
44
1
0
ENDBLK
5
70
330
6E
100
AcDbEntity
8
0
100
AcDbBlockEnd
0
BLOCK
5
72
330
71
100
AcDbEntity
8
0
100
AcDbBlockBegin
2
*D33
70
1
10
0
20
0
3
*D33
1

0
LINE
5
11A
100
AcDbEntity
8
dimensions
6
CONTINUOUS
62
7
370
0
100
AcDbLine
10
3.125
20
-1.875
11
5.125
21
-1.875
0
SOLID
5
11B
100
AcDbEntity
8
dimensions
6
CONTINUOUS
62
7
370
0
100
AcDbTrace
10
3.125
20
-1.875
30
0
11
3.25
21
-1.85418576711
31
0
12
3.25
22
-1.89581423289
32
0
13
3.25
23
-1.89581423289
33
0
0
SOLID
5
11C
100
AcDbEntity
8
dimensions
6
CONTINUOUS
62
7
370
0
100
AcDbTrace
10
5.125
20
-1.875
30
0
11
5
21
-1.89581423289
31
0
12
5
22
-1.85418576711
32
0
13
5
23
-1.85418576711
33
0
0
MTEXT
5
11D
100
AcDbEntity
8
dimensions
6
CONTINUOUS
62
7
370
0
100
AcDbMText
10
4.125
20
-1.78125
30
0
40
0.125
41
0.0555555555556
71
5
72
1
1
2
7
standard
210
0
220
0
230
1
50
0
73
2
44
1
0
LINE
5
11E
100
AcDbEntity
8
dimensions
6
CONTINUOUS
62
7
370
0
100
AcDbLine
10
3.125
20
-1.96875
11
3.125
21
-1.8125
0
LINE
5
11F
100
AcDbEntity
8
dimensions
6
CONTINUOUS
62
7
370
0
100
AcDbLine
10
5.125
20
-1.96875
11
5.125
21
-1.8125
0
ENDBLK
5
73
330
71
100
AcDbEntity
8
0
100
AcDbBlockEnd
0
BLOCK
5
75
330
74
100
AcDbEntity
8
0
100
AcDbBlockBegin
2
*D27
70
1
10
0
20
0
3
*D27
1

0
LINE
5
120
100
AcDbEntity
8
dimensions
6
CONTINUOUS
62
7
370
0
100
AcDbLine
10
7.125
20
0.4375
11
7.125
21
0
0
SOLID
5
121
100
AcDbEntity
8
dimensions
6
CONTINUOUS
62
7
370
0
100
AcDbTrace
10
7.125
20
0.4375
30
0
11
7.14581423289
21
0.3125
31
0
12
7.10418576711
22
0.3125
32
0
13
7.10418576711
23
0.3125
33
0
0
SOLID
5
122
100
AcDbEntity
8
dimensions
6
CONTINUOUS
62
7
370
0
100
AcDbTrace
10
7.125
20
0
30
0
11
7.10418576711
21
0.125
31
0
12
7.14581423289
22
0.125
32
0
13
7.14581423289
23
0.125
33
0
0
MTEXT
5
123
100
AcDbEntity
8
dimensions
6
CONTINUOUS
62
7
370
0
100
AcDbMText
10
7.03125
20
0.21875
30
0
40
0.125
41
0.319444444444
71
5
72
1
1
7/16
7
standard
210
0
220
0
230
1
50
90
73
2
44
1
0
LINE
5
124
100
AcDbEntity
8
dimensions
6
CONTINUOUS
62
7
370
0
100
AcDbLine
10
7.09375
20
0.4375
11
7.0625
21
0.4375
0
LINE
5
125
100
AcDbEntity
8
dimensions
6
CONTINUOUS
62
7
370
0
100
AcDbLine
10
7.09375
20
3.82702124734e-18
11
7.0625
21
7.65404249467e-18
0
ENDBLK
5
76
330
74
100
AcDbEntity
8
0
100
AcDbBlockEnd
0
BLOCK
5
78
330
77
100
AcDbEntity
8
0
100
AcDbBlockBegin
2
*D7
70
1
10
0
20
0
3
*D7
1

0
LINE
5
126
100
AcDbEntity
8
dimensions
6
CONTINUOUS
62
7
370
0
100
AcDbLine
10
2.05960115864
20
3.12880412279
11
1.56539884136
21
2.74619587721
0
SOLID
5
127
100
AcDbEntity
8
dimensions
6
CONTINUOUS
62
7
370
0
100
AcDbTrace
10
1.86192023173
20
2.97576082456
30
0
11
1.94801877978
21
3.06874078108
31
0
12
1.97350261059
22
3.03582416628
32
0
13
1.97350261059
23
3.03582416628
33
0
0
SOLID
5
128
100
AcDbEntity
8
dimensions
6
CONTINUOUS
62
7
370
0
100
AcDbTrace
10
1.76307976827
20
2.89923917544
30
0
11
1.67698122022
21
2.80625921892
31
0
12
1.65149738941
22
2.83917583372
32
0
13
1.65149738941
23
2.83917583372
33
0
0
MTEXT
5
129
100
AcDbEntity
8
dimensions
6
CONTINUOUS
62
7
370
0
100
AcDbMText
10
1.91709730049
20
3.13704082809
30
0
40
0.125
41
0.222222222222
71
5
72
1
1
1/8
7
standard
210
0
220
0
230
1
50
37.7468053835
73
2
44
1
0
ENDBLK
5
79
330
77
100
AcDbEntity
8
0
100
AcDbBlockEnd
0
BLOCK
5
7B
330
7A
100
AcDbEntity
8
0
100
AcDbBlockBegin
2
*D40
70
1
10
0
20
0
3
*D40
1

0
LINE
5
12A
100
AcDbEntity
8
dimensions
6
CONTINUOUS
62
7
370
0
100
AcDbLine
10
3.78125
20
-0.1875
11
4.46875
21
-0.1875
0
SOLID
5
12B
100
AcDbEntity
8
dimensions
6
CONTINUOUS
62
7
370
0
100
AcDbTrace
10
4.03125
20
-0.1875
30
0
11
3.90625
21
-0.208314232889
31
0
12
3.90625
22
-0.166685767111
32
0
13
3.90625
23
-0.166685767111
33
0
0
SOLID
5
12C
100
AcDbEntity
8
dimensions
6
CONTINUOUS
62
7
370
0
100
AcDbTrace
10
4.21875
20
-0.1875
30
0
11
4.34375
21
-0.166685767111
31
0
12
4.34375
22
-0.208314232889
32
0
13
4.34375
23
-0.208314232889
33
0
0
MTEXT
5
12D
100
AcDbEntity
8
dimensions
6
CONTINUOUS
62
7
370
0
100
AcDbMText
10
4.40972222222
20
-0.09375
30
0
40
0.125
41
0.319444444444
71
5
72
1
1
3/16
7
standard
210
0
220
0
230
1
50
360
73
2
44
1
0
LINE
5
12E
100
AcDbEntity
8
dimensions
6
CONTINUOUS
62
7
370
0
100
AcDbLine
10
4.03125
20
-0.28125000589
11
4.03125
21
-0.125
0
LINE
5
12F
100
AcDbEntity
8
dimensions
6
CONTINUOUS
62
7
370
0
100
AcDbLine
10
4.21875
20
-0.28125000589
11
4.21875
21
-0.125
0
ENDBLK
5
7C
330
7A
100
AcDbEntity
8
0
100
AcDbBlockEnd
0
BLOCK
5
7E
330
7D
100
AcDbEntity
8
0
100
AcDbBlockBegin
2
*D8
70
1
10
0
20
0
3
*D8
1

0
LINE
5
130
100
AcDbEntity
8
dimensions
6
CONTINUOUS
62
7
370
0
100
AcDbLine
10
-0.3125
20
2.5625
11
-0.3125
21
1.25
0
SOLID
5
131
100
AcDbEntity
8
dimensions
6
CONTINUOUS
62
7
370
0
100
AcDbTrace
10
-0.3125
20
2.5625
30
0
11
-0.291685767111
21
2.4375
31
0
12
-0.333314232889
22
2.4375
32
0
13
-0.333314232889
23
2.4375
33
0
0
SOLID
5
132
100
AcDbEntity
8
dimensions
6
CONTINUOUS
62
7
370
0
100
AcDbTrace
10
-0.3125
20
1.25
30
0
11
-0.333314232889
21
1.375
31
0
12
-0.291685767111
22
1.375
32
0
13
-0.291685767111
23
1.375
33
0
0
MTEXT
5
133
100
AcDbEntity
8
dimensions
6
CONTINUOUS
62
7
370
0
100
AcDbMText
10
-0.40625
20
1.90625
30
0
40
0.125
41
0.482638888889
71
5
72
1
1
1 5/16
7
standard
210
0
220
0
230
1
50
90
73
2
44
1
0
LINE
5
134
100
AcDbEntity
8
dimensions
6
CONTINUOUS
62
7
370
0
100
AcDbLine
10
-0.21875
20
2.5625
11
-0.375
21
2.5625
0
LINE
5
135
100
AcDbEntity
8
dimensions
6
CONTINUOUS
62
7
370
0
100
AcDbLine
10
-0.21875
20
1.25
11
-0.375
21
1.25
0
ENDBLK
5
7F
330
7D
100
AcDbEntity
8
0
100
AcDbBlockEnd
0
BLOCK
5
81
330
80
100
AcDbEntity
8
0
100
AcDbBlockBegin
2
*D42
70
1
10
0
20
0
3
*D42
1

0
LINE
5
136
100
AcDbEntity
8
dimensions
6
CONTINUOUS
62
7
370
0
100
AcDbLine
10
-0.75
20
6.375
11
-0.75
21
-2.25
0
SOLID
5
137
100
AcDbEntity
8
dimensions
6
CONTINUOUS
62
7
370
0
100
AcDbTrace
10
-0.75
20
6.375
30
0
11
-0.729185767111
21
6.25
31
0
12
-0.770814232889
22
6.25
32
0
13
-0.770814232889
23
6.25
33
0
0
SOLID
5
138
100
AcDbEntity
8
dimensions
6
CONTINUOUS
62
7
370
0
100
AcDbTrace
10
-0.75
20
-2.25
30
0
11
-0.770814232889
21
-2.125
31
0
12
-0.729185767111
22
-2.125
32
0
13
-0.729185767111
23
-2.125
33
0
0
MTEXT
5
139
100
AcDbEntity
8
dimensions
6
CONTINUOUS
62
7
370
0
100
AcDbMText
10
-0.84375
20
2.0625
30
0
40
0.125
41
0.440972222222
71
5
72
1
1
8 5/8
7
standard
210
0
220
0
230
1
50
90
73
2
44
1
0
LINE
5
13A
100
AcDbEntity
8
dimensions
6
CONTINUOUS
62
7
370
0
100
AcDbLine
10
-0.78125
20
6.375
11
-0.8125
21
6.375
0
LINE
5
13B
100
AcDbEntity
8
dimensions
6
CONTINUOUS
62
7
370
0
100
AcDbLine
10
-0.78125
20
-2.25
11
-0.8125
21
-2.25
0
ENDBLK
5
82
330
80
100
AcDbEntity
8
0
100
AcDbBlockEnd
0
BLOCK
5
84
330
83
100
AcDbEntity
8
0
100
AcDbBlockBegin
2
*D16
70
1
10
0
20
0
3
*D16
1

0
LINE
5
13C
100
AcDbEntity
8
dimensions
6
CONTINUOUS
62
7
370
0
100
AcDbLine
10
2.8125
20
6.4375
11
5.4375
21
6.4375
0
SOLID
5
13D
100
AcDbEntity
8
dimensions
6
CONTINUOUS
62
7
370
0
100
AcDbTrace
10
2.8125
20
6.4375
30
0
11
2.9375
21
6.45831423289
31
0
12
2.9375
22
6.41668576711
32
0
13
2.9375
23
6.41668576711
33
0
0
SOLID
5
13E
100
AcDbEntity
8
dimensions
6
CONTINUOUS
62
7
370
0
100
AcDbTrace
10
5.4375
20
6.4375
30
0
11
5.3125
21
6.41668576711
31
0
12
5.3125
22
6.45831423289
32
0
13
5.3125
23
6.45831423289
33
0
0
MTEXT
5
13F
100
AcDbEntity
8
dimensions
6
CONTINUOUS
62
7
370
0
100
AcDbMText
10
4.125
20
6.53125
30
0
40
0.125
41
0.440972222222
71
5
72
1
1
2 5/8
7
standard
210
0
220
0
230
1
50
0
73
2
44
1
0
LINE
5
140
100
AcDbEntity
8
dimensions
6
CONTINUOUS
62
7
370
0
100
AcDbLine
10
2.8125
20
6.34375
11
2.8125
21
6.5
0
LINE
5
141
100
AcDbEntity
8
dimensions
6
CONTINUOUS
62
7
370
0
100
AcDbLine
10
5.4375
20
6.34375
11
5.4375
21
6.5
0
ENDBLK
5
85
330
83
100
AcDbEntity
8
0
100
AcDbBlockEnd
0
BLOCK
5
87
330
86
100
AcDbEntity
8
0
100
AcDbBlockBegin
2
*D41
70
1
10
0
20
0
3
*D41
1

0
LINE
5
142
100
AcDbEntity
8
dimensions
6
CONTINUOUS
62
7
370
0
100
AcDbLine
10
4.30056172079
20
-0.559164354702
11
3.94943827921
21
-0.690835645298
0
SOLID
5
143
100
AcDbEntity
8
dimensions
6
CONTINUOUS
62
7
370
0
100
AcDbTrace
10
4.30056172079
20
-0.559164354702
30
0
11
4.19082893868
21
-0.622543758464
31
0
12
4.17621220851
22
-0.583565811339
32
0
13
4.17621220851
23
-0.583565811339
33
0
0
SOLID
5
144
100
AcDbEntity
8
dimensions
6
CONTINUOUS
62
7
370
0
100
AcDbTrace
10
3.94943827921
20
-0.690835645298
30
0
11
4.05917106132
21
-0.627456241536
31
0
12
4.07378779149
22
-0.666434188661
32
0
13
4.07378779149
23
-0.666434188661
33
0
0
MTEXT
5
145
100
AcDbEntity
8
dimensions
6
CONTINUOUS
62
7
370
0
100
AcDbMText
10
4.09208217735
20
-0.537219139603
30
0
40
0.125
41
0.25
71
5
72
1
1
3/8
7
standard
210
0
220
0
230
1
50
20.5560452201
73
2
44
1
0
ENDBLK
5
88
330
86
100
AcDbEntity
8
0
100
AcDbBlockEnd
0
BLOCK
5
8A
330
89
100
AcDbEntity
8
0
100
AcDbBlockBegin
2
*D3
70
1
10
0
20
0
3
*D3
1

0
LINE
5
146
100
AcDbEntity
8
dimensions
6
CONTINUOUS
62
7
370
0
100
AcDbLine
10
0.3125
20
2.125
11
1.0625
21
2.125
0
SOLID
5
147
100
AcDbEntity
8
dimensions
6
CONTINUOUS
62
7
370
0
100
AcDbTrace
10
0.3125
20
2.125
30
0
11
0.4375
21
2.14581423289
31
0
12
0.4375
22
2.10418576711
32
0
13
0.4375
23
2.10418576711
33
0
0
SOLID
5
148
100
AcDbEntity
8
dimensions
6
CONTINUOUS
62
7
370
0
100
AcDbTrace
10
1.0625
20
2.125
30
0
11
0.9375
21
2.10418576711
31
0
12
0.9375
22
2.14581423289
32
0
13
0.9375
23
2.14581423289
33
0
0
MTEXT
5
149
100
AcDbEntity
8
dimensions
6
CONTINUOUS
62
7
370
0
100
AcDbMText
10
0.6875
20
2.21875
30
0
40
0.125
41
0.263888888889
71
5
72
1
1
3/4
7
standard
210
0
220
0
230
1
50
0
73
2
44
1
0
LINE
5
14A
100
AcDbEntity
8
dimensions
6
CONTINUOUS
62
7
370
0
100
AcDbLine
10
0.3125
20
2.90625
11
0.3125
21
2.0625
0
LINE
5
14B
100
AcDbEntity
8
dimensions
6
CONTINUOUS
62
7
370
0
100
AcDbLine
10
1.0625
20
2.90625
11
1.0625
21
2.0625
0
ENDBLK
5
8B
330
89
100
AcDbEntity
8
0
100
AcDbBlockEnd
0
BLOCK
5
8D
330
8C
100
AcDbEntity
8
0
100
AcDbBlockBegin
2
*D15
70
1
10
0
20
0
3
*D15
1

0
LINE
5
14C
100
AcDbEntity
8
dimensions
6
CONTINUOUS
62
7
370
0
100
AcDbLine
10
1.3125
20
6.4375
11
2.8125
21
6.4375
0
SOLID
5
14D
100
AcDbEntity
8
dimensions
6
CONTINUOUS
62
7
370
0
100
AcDbTrace
10
1.3125
20
6.4375
30
0
11
1.4375
21
6.45831423289
31
0
12
1.4375
22
6.41668576711
32
0
13
1.4375
23
6.41668576711
33
0
0
SOLID
5
14E
100
AcDbEntity
8
dimensions
6
CONTINUOUS
62
7
370
0
100
AcDbTrace
10
2.8125
20
6.4375
30
0
11
2.6875
21
6.41668576711
31
0
12
2.6875
22
6.45831423289
32
0
13
2.6875
23
6.45831423289
33
0
0
MTEXT
5
14F
100
AcDbEntity
8
dimensions
6
CONTINUOUS
62
7
370
0
100
AcDbMText
10
2.0625
20
6.53125
30
0
40
0.125
41
0.385416666667
71
5
72
1
1
1 1/2
7
standard
210
0
220
0
230
1
50
0
73
2
44
1
0
LINE
5
150
100
AcDbEntity
8
dimensions
6
CONTINUOUS
62
7
370
0
100
AcDbLine
10
1.3125
20
6.34375
11
1.3125
21
6.5
0
LINE
5
151
100
AcDbEntity
8
dimensions
6
CONTINUOUS
62
7
370
0
100
AcDbLine
10
2.8125
20
6.34375
11
2.8125
21
6.5
0
ENDBLK
5
8E
330
8C
100
AcDbEntity
8
0
100
AcDbBlockEnd
0
BLOCK
5
90
330
8F
100
AcDbEntity
8
0
100
AcDbBlockBegin
2
*D39
70
1
10
0
20
0
3
*D39
1

0
LINE
5
152
100
AcDbEntity
8
dimensions
6
CONTINUOUS
62
7
370
0
100
AcDbLine
10
-0.1875
20
-1.375
11
8.4375
21
-1.375
0
SOLID
5
153
100
AcDbEntity
8
dimensions
6
CONTINUOUS
62
7
370
0
100
AcDbTrace
10
-0.1875
20
-1.375
30
0
11
-0.0625
21
-1.35418576711
31
0
12
-0.0625
22
-1.39581423289
32
0
13
-0.0625
23
-1.39581423289
33
0
0
SOLID
5
154
100
AcDbEntity
8
dimensions
6
CONTINUOUS
62
7
370
0
100
AcDbTrace
10
8.4375
20
-1.375
30
0
11
8.3125
21
-1.39581423289
31
0
12
8.3125
22
-1.35418576711
32
0
13
8.3125
23
-1.35418576711
33
0
0
MTEXT
5
155
100
AcDbEntity
8
dimensions
6
CONTINUOUS
62
7
370
0
100
AcDbMText
10
4.125
20
-1.28125
30
0
40
0.125
41
0.440972222222
71
5
72
1
1
8 5/8
7
standard
210
0
220
0
230
1
50
0
73
2
44
1
0
LINE
5
156
100
AcDbEntity
8
dimensions
6
CONTINUOUS
62
7
370
0
100
AcDbLine
10
-0.1875
20
-1.34375
11
-0.1875
21
-1.3125
0
LINE
5
157
100
AcDbEntity
8
dimensions
6
CONTINUOUS
62
7
370
0
100
AcDbLine
10
8.4375
20
-1.34375
11
8.4375
21
-1.3125
0
ENDBLK
5
91
330
8F
100
AcDbEntity
8
0
100
AcDbBlockEnd
0
BLOCK
5
93
330
92
100
AcDbEntity
8
0
100
AcDbBlockBegin
2
*D31
70
1
10
0
20
0
3
*D31
1

0
LINE
5
158
100
AcDbEntity
8
dimensions
6
CONTINUOUS
62
7
370
0
100
AcDbLine
10
-0.1875
20
-1.5
11
-0.1875
21
-2
0
SOLID
5
159
100
AcDbEntity
8
dimensions
6
CONTINUOUS
62
7
370
0
100
AcDbTrace
10
-0.1875
20
-1.5
30
0
11
-0.166685767111
21
-1.625
31
0
12
-0.208314232889
22
-1.625
32
0
13
-0.208314232889
23
-1.625
33
0
0
SOLID
5
15A
100
AcDbEntity
8
dimensions
6
CONTINUOUS
62
7
370
0
100
AcDbTrace
10
-0.1875
20
-2
30
0
11
-0.208314232889
21
-1.875
31
0
12
-0.166685767111
22
-1.875
32
0
13
-0.166685767111
23
-1.875
33
0
0
MTEXT
5
15B
100
AcDbEntity
8
dimensions
6
CONTINUOUS
62
7
370
0
100
AcDbMText
10
-0.28125
20
-1.75
30
0
40
0.125
41
0.222222222222
71
5
72
1
1
1/2
7
standard
210
0
220
0
230
1
50
90
73
2
44
1
0
LINE
5
15C
100
AcDbEntity
8
dimensions
6
CONTINUOUS
62
7
370
0
100
AcDbLine
10
-0.21875
20
-1.5
11
-0.25
21
-1.5
0
LINE
5
15D
100
AcDbEntity
8
dimensions
6
CONTINUOUS
62
7
370
0
100
AcDbLine
10
-0.03125
20
-2
11
-0.25
21
-2
0
ENDBLK
5
94
330
92
100
AcDbEntity
8
0
100
AcDbBlockEnd
0
BLOCK
5
96
330
95
100
AcDbEntity
8
0
100
AcDbBlockBegin
2
*D38
70
1
10
0
20
0
3
*D38
1

0
LINE
5
15E
100
AcDbEntity
8
dimensions
6
CONTINUOUS
62
7
370
0
100
AcDbLine
10
0
20
-1.625
11
8.25
21
-1.625
0
SOLID
5
15F
100
AcDbEntity
8
dimensions
6
CONTINUOUS
62
7
370
0
100
AcDbTrace
10
0
20
-1.625
30
0
11
0.125
21
-1.60418576711
31
0
12
0.125
22
-1.64581423289
32
0
13
0.125
23
-1.64581423289
33
0
0
SOLID
5
160
100
AcDbEntity
8
dimensions
6
CONTINUOUS
62
7
370
0
100
AcDbTrace
10
8.25
20
-1.625
30
0
11
8.125
21
-1.64581423289
31
0
12
8.125
22
-1.60418576711
32
0
13
8.125
23
-1.60418576711
33
0
0
MTEXT
5
161
100
AcDbEntity
8
dimensions
6
CONTINUOUS
62
7
370
0
100
AcDbMText
10
4.125
20
-1.53125
30
0
40
0.125
41
0.427083333333
71
5
72
1
1
8 1/4
7
standard
210
0
220
0
230
1
50
0
73
2
44
1
0
LINE
5
162
100
AcDbEntity
8
dimensions
6
CONTINUOUS
62
7
370
0
100
AcDbLine
10
1.91351062367e-18
20
-1.59375
11
3.82702124734e-18
21
-1.5625
0
LINE
5
163
100
AcDbEntity
8
dimensions
6
CONTINUOUS
62
7
370
0
100
AcDbLine
10
8.25
20
-1.59375
11
8.25
21
-1.5625
0
ENDBLK
5
97
330
95
100
AcDbEntity
8
0
100
AcDbBlockEnd
0
BLOCK
5
99
330
98
100
AcDbEntity
8
0
100
AcDbBlockBegin
2
*D21
70
1
10
0
20
0
3
*D21
1

0
LINE
5
164
100
AcDbEntity
8
dimensions
6
CONTINUOUS
62
7
370
0
100
AcDbLine
10
7.25
20
6.125
11
7.25
21
3.8125
0
SOLID
5
165
100
AcDbEntity
8
dimensions
6
CONTINUOUS
62
7
370
0
100
AcDbTrace
10
7.25
20
6.125
30
0
11
7.27081423289
21
6
31
0
12
7.22918576711
22
6
32
0
13
7.22918576711
23
6
33
0
0
SOLID
5
166
100
AcDbEntity
8
dimensions
6
CONTINUOUS
62
7
370
0
100
AcDbTrace
10
7.25
20
3.8125
30
0
11
7.22918576711
21
3.9375
31
0
12
7.27081423289
22
3.9375
32
0
13
7.27081423289
23
3.9375
33
0
0
MTEXT
5
167
100
AcDbEntity
8
dimensions
6
CONTINUOUS
62
7
370
0
100
AcDbMText
10
7.15625
20
4.96875
30
0
40
0.125
41
0.510416666667
71
5
72
1
1
2 5/16
7
standard
210
0
220
0
230
1
50
90
73
2
44
1
0
LINE
5
168
100
AcDbEntity
8
dimensions
6
CONTINUOUS
62
7
370
0
100
AcDbLine
10
7.21875
20
6.125
11
7.1875
21
6.125
0
LINE
5
169
100
AcDbEntity
8
dimensions
6
CONTINUOUS
62
7
370
0
100
AcDbLine
10
7.21875
20
3.8125
11
7.1875
21
3.8125
0
ENDBLK
5
9A
330
98
100
AcDbEntity
8
0
100
AcDbBlockEnd
0
BLOCK
5
9C
330
9B
100
AcDbEntity
8
0
100
AcDbBlockBegin
2
*D36
70
1
10
0
20
0
3
*D36
1

0
LINE
5
16A
100
AcDbEntity
8
dimensions
6
CONTINUOUS
62
7
370
0
100
AcDbLine
10
5.6875
20
0
11
5.6875
21
-1
0
SOLID
5
16B
100
AcDbEntity
8
dimensions
6
CONTINUOUS
62
7
370
0
100
AcDbTrace
10
5.6875
20
0
30
0
11
5.70831423289
21
-0.125
31
0
12
5.66668576711
22
-0.125
32
0
13
5.66668576711
23
-0.125
33
0
0
SOLID
5
16C
100
AcDbEntity
8
dimensions
6
CONTINUOUS
62
7
370
0
100
AcDbTrace
10
5.6875
20
-1
30
0
11
5.66668576711
21
-0.875
31
0
12
5.70831423289
22
-0.875
32
0
13
5.70831423289
23
-0.875
33
0
0
MTEXT
5
16D
100
AcDbEntity
8
dimensions
6
CONTINUOUS
62
7
370
0
100
AcDbMText
10
5.59375
20
-0.5
30
0
40
0.125
41
0.0277777777778
71
5
72
1
1
1
7
standard
210
0
220
0
230
1
50
90
73
2
44
1
0
LINE
5
16E
100
AcDbEntity
8
dimensions
6
CONTINUOUS
62
7
370
0
100
AcDbLine
10
5.65625
20
3.82702124734e-18
11
5.625
21
7.65404249467e-18
0
LINE
5
16F
100
AcDbEntity
8
dimensions
6
CONTINUOUS
62
7
370
0
100
AcDbLine
10
5.65625
20
-1
11
5.625
21
-1
0
ENDBLK
5
9D
330
9B
100
AcDbEntity
8
0
100
AcDbBlockEnd
0
BLOCK
5
9F
330
9E
100
AcDbEntity
8
0
100
AcDbBlockBegin
2
*D10
70
1
10
0
20
0
3
*D10
1

0
LINE
5
170
100
AcDbEntity
8
dimensions
6
CONTINUOUS
62
7
370
0
100
AcDbLine
10
-0.3125
20
1.25
11
-0.3125
21
1.90819582357e-17
0
SOLID
5
171
100
AcDbEntity
8
dimensions
6
CONTINUOUS
62
7
370
0
100
AcDbTrace
10
-0.3125
20
1.25
30
0
11
-0.291685767111
21
1.125
31
0
12
-0.333314232889
22
1.125
32
0
13
-0.333314232889
23
1.125
33
0
0
SOLID
5
172
100
AcDbEntity
8
dimensions
6
CONTINUOUS
62
7
370
0
100
AcDbTrace
10
-0.3125
20
1.90819582357e-17
30
0
11
-0.333314232889
21
0.125
31
0
12
-0.291685767111
22
0.125
32
0
13
-0.291685767111
23
0.125
33
0
0
MTEXT
5
173
100
AcDbEntity
8
dimensions
6
CONTINUOUS
62
7
370
0
100
AcDbMText
10
-0.40625
20
0.625
30
0
40
0.125
41
0.399305555556
71
5
72
1
1
1 1/4
7
standard
210
0
220
0
230
1
50
90
73
2
44
1
0
LINE
5
174
100
AcDbEntity
8
dimensions
6
CONTINUOUS
62
7
370
0
100
AcDbLine
10
-0.21875
20
1.25
11
-0.375
21
1.25
0
LINE
5
175
100
AcDbEntity
8
dimensions
6
CONTINUOUS
62
7
370
0
100
AcDbLine
10
-0.03125
20
3.82702124734e-18
11
-0.375
21
2.67360007304e-17
0
ENDBLK
5
A0
330
9E
100
AcDbEntity
8
0
100
AcDbBlockEnd
0
BLOCK
5
A2
330
A1
100
AcDbEntity
8
0
100
AcDbBlockBegin
2
*D20
70
1
10
0
20
0
3
*D20
1

0
LINE
5
176
100
AcDbEntity
8
dimensions
6
CONTINUOUS
62
7
370
0
100
AcDbLine
10
6
20
3.8125
11
6
21
0
0
SOLID
5
177
100
AcDbEntity
8
dimensions
6
CONTINUOUS
62
7
370
0
100
AcDbTrace
10
6
20
3.8125
30
0
11
6.02081423289
21
3.6875
31
0
12
5.97918576711
22
3.6875
32
0
13
5.97918576711
23
3.6875
33
0
0
SOLID
5
178
100
AcDbEntity
8
dimensions
6
CONTINUOUS
62
7
370
0
100
AcDbTrace
10
6
20
0
30
0
11
5.97918576711
21
0.125
31
0
12
6.02081423289
22
0.125
32
0
13
6.02081423289
23
0.125
33
0
0
MTEXT
5
179
100
AcDbEntity
8
dimensions
6
CONTINUOUS
62
7
370
0
100
AcDbMText
10
5.90625
20
1.90625
30
0
40
0.125
41
0.579861111111
71
5
72
1
1
3 13/16
7
standard
210
0
220
0
230
1
50
90
73
2
44
1
0
LINE
5
17A
100
AcDbEntity
8
dimensions
6
CONTINUOUS
62
7
370
0
100
AcDbLine
10
5.96875
20
3.8125
11
5.9375
21
3.8125
0
LINE
5
17B
100
AcDbEntity
8
dimensions
6
CONTINUOUS
62
7
370
0
100
AcDbLine
10
5.96875
20
3.82702124734e-18
11
5.9375
21
7.65404249467e-18
0
ENDBLK
5
A3
330
A1
100
AcDbEntity
8
0
100
AcDbBlockEnd
0
BLOCK
5
A5
330
A4
100
AcDbEntity
8
0
100
AcDbBlockBegin
2
*D23
70
1
10
0
20
0
3
*D23
1

0
LINE
5
17C
100
AcDbEntity
8
dimensions
6
CONTINUOUS
62
7
370
0
100
AcDbLine
10
0
20
1
11
8.25
21
1
0
SOLID
5
17D
100
AcDbEntity
8
dimensions
6
CONTINUOUS
62
7
370
0
100
AcDbTrace
10
0
20
1
30
0
11
0.125
21
1.02081423289
31
0
12
0.125
22
0.979185767111
32
0
13
0.125
23
0.979185767111
33
0
0
SOLID
5
17E
100
AcDbEntity
8
dimensions
6
CONTINUOUS
62
7
370
0
100
AcDbTrace
10
8.25
20
1
30
0
11
8.125
21
0.979185767111
31
0
12
8.125
22
1.02081423289
32
0
13
8.125
23
1.02081423289
33
0
0
MTEXT
5
17F
100
AcDbEntity
8
dimensions
6
CONTINUOUS
62
7
370
0
100
AcDbMText
10
4.125
20
1.09375
30
0
40
0.125
41
0.427083333333
71
5
72
1
1
8 1/4
7
standard
210
0
220
0
230
1
50
0
73
2
44
1
0
LINE
5
180
100
AcDbEntity
8
dimensions
6
CONTINUOUS
62
7
370
0
100
AcDbLine
10
1.91351062367e-18
20
1.03125
11
3.82702124734e-18
21
1.0625
0
LINE
5
181
100
AcDbEntity
8
dimensions
6
CONTINUOUS
62
7
370
0
100
AcDbLine
10
8.25
20
1.03125
11
8.25
21
1.0625
0
ENDBLK
5
A6
330
A4
100
AcDbEntity
8
0
100
AcDbBlockEnd
0
BLOCK
5
A8
330
A7
100
AcDbEntity
8
0
100
AcDbBlockBegin
2
*D24
70
1
10
0
20
0
3
*D24
1

0
LINE
5
182
100
AcDbEntity
8
dimensions
6
CONTINUOUS
62
7
370
0
100
AcDbLine
10
6.8125
20
0.6875
11
7.8125
21
0.6875
0
SOLID
5
183
100
AcDbEntity
8
dimensions
6
CONTINUOUS
62
7
370
0
100
AcDbTrace
10
6.8125
20
0.6875
30
0
11
6.9375
21
0.708314232889
31
0
12
6.9375
22
0.666685767111
32
0
13
6.9375
23
0.666685767111
33
0
0
SOLID
5
184
100
AcDbEntity
8
dimensions
6
CONTINUOUS
62
7
370
0
100
AcDbTrace
10
7.8125
20
0.6875
30
0
11
7.6875
21
0.666685767111
31
0
12
7.6875
22
0.708314232889
32
0
13
7.6875
23
0.708314232889
33
0
0
MTEXT
5
185
100
AcDbEntity
8
dimensions
6
CONTINUOUS
62
7
370
0
100
AcDbMText
10
7.3125
20
0.78125
30
0
40
0.125
41
0.0277777777778
71
5
72
1
1
1
7
standard
210
0
220
0
230
1
50
0
73
2
44
1
0
LINE
5
186
100
AcDbEntity
8
dimensions
6
CONTINUOUS
62
7
370
0
100
AcDbLine
10
6.8125
20
0.71875
11
6.8125
21
0.75
0
LINE
5
187
100
AcDbEntity
8
dimensions
6
CONTINUOUS
62
7
370
0
100
AcDbLine
10
7.8125
20
0.71875
11
7.8125
21
0.75
0
ENDBLK
5
A9
330
A7
100
AcDbEntity
8
0
100
AcDbBlockEnd
0
BLOCK
5
AB
330
AA
100
AcDbEntity
8
0
100
AcDbBlockBegin
2
*D1
70
1
10
0
20
0
3
*D1
1

0
LINE
5
188
100
AcDbEntity
8
dimensions
6
CONTINUOUS
62
7
370
0
100
AcDbLine
10
1.0625
20
3.5
11
0
21
3.5
0
SOLID
5
189
100
AcDbEntity
8
dimensions
6
CONTINUOUS
62
7
370
0
100
AcDbTrace
10
1.0625
20
3.5
30
0
11
0.9375
21
3.47918576711
31
0
12
0.9375
22
3.52081423289
32
0
13
0.9375
23
3.52081423289
33
0
0
SOLID
5
18A
100
AcDbEntity
8
dimensions
6
CONTINUOUS
62
7
370
0
100
AcDbTrace
10
0
20
3.5
30
0
11
0.125
21
3.52081423289
31
0
12
0.125
22
3.47918576711
32
0
13
0.125
23
3.47918576711
33
0
0
MTEXT
5
18B
100
AcDbEntity
8
dimensions
6
CONTINUOUS
62
7
370
0
100
AcDbMText
10
0.53125
20
3.59375
30
0
40
0.125
41
0.454861111111
71
5
72
1
1
1 1/16
7
standard
210
0
220
0
230
1
50
360
73
2
44
1
0
LINE
5
18C
100
AcDbEntity
8
dimensions
6
CONTINUOUS
62
7
370
0
100
AcDbLine
10
1.0625
20
2.96875
11
1.0625
21
3.5625
0
LINE
5
18D
100
AcDbEntity
8
dimensions
6
CONTINUOUS
62
7
370
0
100
AcDbLine
10
1.91351062367e-18
20
3.53125
11
3.82702124734e-18
21
3.5625
0
ENDBLK
5
AC
330
AA
100
AcDbEntity
8
0
100
AcDbBlockEnd
0
BLOCK
5
AE
330
AD
100
AcDbEntity
8
0
100
AcDbBlockBegin
2
*D32
70
1
10
0
20
0
3
*D32
1

0
LINE
5
18E
100
AcDbEntity
8
dimensions
6
CONTINUOUS
62
7
370
0
100
AcDbLine
10
0
20
0.1875
11
3.125
21
0.1875
0
SOLID
5
18F
100
AcDbEntity
8
dimensions
6
CONTINUOUS
62
7
370
0
100
AcDbTrace
10
0
20
0.1875
30
0
11
0.125
21
0.208314232889
31
0
12
0.125
22
0.166685767111
32
0
13
0.125
23
0.166685767111
33
0
0
SOLID
5
190
100
AcDbEntity
8
dimensions
6
CONTINUOUS
62
7
370
0
100
AcDbTrace
10
3.125
20
0.1875
30
0
11
3
21
0.166685767111
31
0
12
3
22
0.208314232889
32
0
13
3
23
0.208314232889
33
0
0
MTEXT
5
191
100
AcDbEntity
8
dimensions
6
CONTINUOUS
62
7
370
0
100
AcDbMText
10
1.5625
20
0.28125
30
0
40
0.125
41
0.413194444444
71
5
72
1
1
3 1/8
7
standard
210
0
220
0
230
1
50
0
73
2
44
1
0
LINE
5
192
100
AcDbEntity
8
dimensions
6
CONTINUOUS
62
7
370
0
100
AcDbLine
10
1.91351062367e-18
20
0.21875
11
3.82702124734e-18
21
0.25
0
LINE
5
193
100
AcDbEntity
8
dimensions
6
CONTINUOUS
62
7
370
0
100
AcDbLine
10
3.125
20
0.21875
11
3.125
21
0.25
0
ENDBLK
5
AF
330
AD
100
AcDbEntity
8
0
100
AcDbBlockEnd
0
BLOCK
5
B1
330
B0
100
AcDbEntity
8
0
100
AcDbBlockBegin
2
*D14
70
1
10
0
20
0
3
*D14
1

0
LINE
5
194
100
AcDbEntity
8
dimensions
6
CONTINUOUS
62
7
370
0
100
AcDbLine
10
0
20
6.4375
11
1.3125
21
6.4375
0
SOLID
5
195
100
AcDbEntity
8
dimensions
6
CONTINUOUS
62
7
370
0
100
AcDbTrace
10
0
20
6.4375
30
0
11
0.125
21
6.45831423289
31
0
12
0.125
22
6.41668576711
32
0
13
0.125
23
6.41668576711
33
0
0
SOLID
5
196
100
AcDbEntity
8
dimensions
6
CONTINUOUS
62
7
370
0
100
AcDbTrace
10
1.3125
20
6.4375
30
0
11
1.1875
21
6.41668576711
31
0
12
1.1875
22
6.45831423289
32
0
13
1.1875
23
6.45831423289
33
0
0
MTEXT
5
197
100
AcDbEntity
8
dimensions
6
CONTINUOUS
62
7
370
0
100
AcDbMText
10
0.65625
20
6.53125
30
0
40
0.125
41
0.482638888889
71
5
72
1
1
1 5/16
7
standard
210
0
220
0
230
1
50
0
73
2
44
1
0
LINE
5
198
100
AcDbEntity
8
dimensions
6
CONTINUOUS
62
7
370
0
100
AcDbLine
10
1.91351062367e-18
20
6.15625
11
3.82702124734e-18
21
6.5
0
LINE
5
199
100
AcDbEntity
8
dimensions
6
CONTINUOUS
62
7
370
0
100
AcDbLine
10
1.3125
20
6.34375
11
1.3125
21
6.5
0
ENDBLK
5
B2
330
B0
100
AcDbEntity
8
0
100
AcDbBlockEnd
0
BLOCK
5
B4
330
B3
100
AcDbEntity
8
0
100
AcDbBlockBegin
2
*D28
70
1
10
0
20
0
3
*D28
1

0
LINE
5
19A
100
AcDbEntity
8
dimensions
6
CONTINUOUS
62
7
370
0
100
AcDbLine
10
-0.3125
20
0
11
-0.3125
21
-0.5
0
SOLID
5
19B
100
AcDbEntity
8
dimensions
6
CONTINUOUS
62
7
370
0
100
AcDbTrace
10
-0.3125
20
0
30
0
11
-0.291685767111
21
-0.125
31
0
12
-0.333314232889
22
-0.125
32
0
13
-0.333314232889
23
-0.125
33
0
0
SOLID
5
19C
100
AcDbEntity
8
dimensions
6
CONTINUOUS
62
7
370
0
100
AcDbTrace
10
-0.3125
20
-0.5
30
0
11
-0.333314232889
21
-0.375
31
0
12
-0.291685767111
22
-0.375
32
0
13
-0.291685767111
23
-0.375
33
0
0
MTEXT
5
19D
100
AcDbEntity
8
dimensions
6
CONTINUOUS
62
7
370
0
100
AcDbMText
10
-0.40625
20
-0.25
30
0
40
0.125
41
0.222222222222
71
5
72
1
1
1/2
7
standard
210
0
220
0
230
1
50
90
73
2
44
1
0
LINE
5
19E
100
AcDbEntity
8
dimensions
6
CONTINUOUS
62
7
370
0
100
AcDbLine
10
-0.03125
20
3.82702124734e-18
11
-0.375
21
7.65404249467e-18
0
LINE
5
19F
100
AcDbEntity
8
dimensions
6
CONTINUOUS
62
7
370
0
100
AcDbLine
10
-0.21875
20
-0.5
11
-0.375
21
-0.5
0
ENDBLK
5
B5
330
B3
100
AcDbEntity
8
0
100
AcDbBlockEnd
0
BLOCK
5
B7
330
B6
100
AcDbEntity
8
0
100
AcDbBlockBegin
2
*D18
70
1
10
0
20
0
3
*D18
1

0
LINE
5
1A0
100
AcDbEntity
8
dimensions
6
CONTINUOUS
62
7
370
0
100
AcDbLine
10
6.9375
20
6.4375
11
8.25
21
6.4375
0
SOLID
5
1A1
100
AcDbEntity
8
dimensions
6
CONTINUOUS
62
7
370
0
100
AcDbTrace
10
6.9375
20
6.4375
30
0
11
7.0625
21
6.45831423289
31
0
12
7.0625
22
6.41668576711
32
0
13
7.0625
23
6.41668576711
33
0
0
SOLID
5
1A2
100
AcDbEntity
8
dimensions
6
CONTINUOUS
62
7
370
0
100
AcDbTrace
10
8.25
20
6.4375
30
0
11
8.125
21
6.41668576711
31
0
12
8.125
22
6.45831423289
32
0
13
8.125
23
6.45831423289
33
0
0
MTEXT
5
1A3
100
AcDbEntity
8
dimensions
6
CONTINUOUS
62
7
370
0
100
AcDbMText
10
7.59375
20
6.53125
30
0
40
0.125
41
0.482638888889
71
5
72
1
1
1 5/16
7
standard
210
0
220
0
230
1
50
0
73
2
44
1
0
LINE
5
1A4
100
AcDbEntity
8
dimensions
6
CONTINUOUS
62
7
370
0
100
AcDbLine
10
6.9375
20
6.34375
11
6.9375
21
6.5
0
LINE
5
1A5
100
AcDbEntity
8
dimensions
6
CONTINUOUS
62
7
370
0
100
AcDbLine
10
8.25
20
6.15625
11
8.25
21
6.5
0
ENDBLK
5
B8
330
B6
100
AcDbEntity
8
0
100
AcDbBlockEnd
0
BLOCK
5
BA
330
B9
100
AcDbEntity
8
0
100
AcDbBlockBegin
2
*D11
70
1
10
0
20
0
3
*D11
1

0
LINE
5
1A6
100
AcDbEntity
8
dimensions
6
CONTINUOUS
62
7
370
0
100
AcDbLine
10
-0.3125
20
3.8125
11
-0.3125
21
4.5625
0
SOLID
5
1A7
100
AcDbEntity
8
dimensions
6
CONTINUOUS
62
7
370
0
100
AcDbTrace
10
-0.3125
20
3.8125
30
0
11
-0.333314232889
21
3.9375
31
0
12
-0.291685767111
22
3.9375
32
0
13
-0.291685767111
23
3.9375
33
0
0
SOLID
5
1A8
100
AcDbEntity
8
dimensions
6
CONTINUOUS
62
7
370
0
100
AcDbTrace
10
-0.3125
20
4.5625
30
0
11
-0.291685767111
21
4.4375
31
0
12
-0.333314232889
22
4.4375
32
0
13
-0.333314232889
23
4.4375
33
0
0
MTEXT
5
1A9
100
AcDbEntity
8
dimensions
6
CONTINUOUS
62
7
370
0
100
AcDbMText
10
-0.40625
20
4.1875
30
0
40
0.125
41
0.263888888889
71
5
72
1
1
3/4
7
standard
210
0
220
0
230
1
50
90
73
2
44
1
0
LINE
5
1AA
100
AcDbEntity
8
dimensions
6
CONTINUOUS
62
7
370
0
100
AcDbLine
10
-0.03125
20
3.8125
11
-0.375
21
3.8125
0
LINE
5
1AB
100
AcDbEntity
8
dimensions
6
CONTINUOUS
62
7
370
0
100
AcDbLine
10
-0.21875
20
4.5625
11
-0.375
21
4.5625
0
ENDBLK
5
BB
330
B9
100
AcDbEntity
8
0
100
AcDbBlockEnd
0
BLOCK
5
BD
330
BC
100
AcDbEntity
8
0
100
AcDbBlockBegin
2
*D26
70
1
10
0
20
0
3
*D26
1

0
LINE
5
1AC
100
AcDbEntity
8
dimensions
6
CONTINUOUS
62
7
370
0
100
AcDbLine
10
7.125
20
2.1875
11
7.125
21
0.4375
0
SOLID
5
1AD
100
AcDbEntity
8
dimensions
6
CONTINUOUS
62
7
370
0
100
AcDbTrace
10
7.125
20
2.1875
30
0
11
7.14581423289
21
2.0625
31
0
12
7.10418576711
22
2.0625
32
0
13
7.10418576711
23
2.0625
33
0
0
SOLID
5
1AE
100
AcDbEntity
8
dimensions
6
CONTINUOUS
62
7
370
0
100
AcDbTrace
10
7.125
20
0.4375
30
0
11
7.10418576711
21
0.5625
31
0
12
7.14581423289
22
0.5625
32
0
13
7.14581423289
23
0.5625
33
0
0
MTEXT
5
1AF
100
AcDbEntity
8
dimensions
6
CONTINUOUS
62
7
370
0
100
AcDbMText
10
7.03125
20
1.3125
30
0
40
0.125
41
0.427083333333
71
5
72
1
1
1 3/4
7
standard
210
0
220
0
230
1
50
90
73
2
44
1
0
LINE
5
1B0
100
AcDbEntity
8
dimensions
6
CONTINUOUS
62
7
370
0
100
AcDbLine
10
7.09375
20
2.1875
11
7.0625
21
2.1875
0
LINE
5
1B1
100
AcDbEntity
8
dimensions
6
CONTINUOUS
62
7
370
0
100
AcDbLine
10
7.09375
20
0.4375
11
7.0625
21
0.4375
0
ENDBLK
5
BE
330
BC
100
AcDbEntity
8
0
100
AcDbBlockEnd
0
BLOCK
5
C0
330
BF
100
AcDbEntity
8
0
100
AcDbBlockBegin
2
*D5
70
1
10
0
20
0
3
*D5
1

0
LINE
5
1B2
100
AcDbEntity
8
dimensions
6
CONTINUOUS
62
7
370
0
100
AcDbLine
10
1.49662157106
20
3.18556946918
11
0.628378428938
21
2.68943053082
0
SOLID
5
1B3
100
AcDbEntity
8
dimensions
6
CONTINUOUS
62
7
370
0
100
AcDbTrace
10
1.49662157106
20
3.18556946918
30
0
11
1.3984179297
21
3.10548028692
31
0
12
1.37776442689
22
3.14162391685
32
0
13
1.37776442689
23
3.14162391685
33
0
0
SOLID
5
1B4
100
AcDbEntity
8
dimensions
6
CONTINUOUS
62
7
370
0
100
AcDbTrace
10
0.628378428938
20
2.68943053082
30
0
11
0.726582070295
21
2.76951971308
31
0
12
0.747235573111
22
2.73337608315
32
0
13
0.747235573111
23
2.73337608315
33
0
0
MTEXT
5
1B5
100
AcDbEntity
8
dimensions
6
CONTINUOUS
62
7
370
0
100
AcDbMText
10
1.01598697453
20
3.01889779457
30
0
40
0.125
41
0.0277777777778
71
5
72
1
1
1
7
standard
210
0
220
0
230
1
50
29.7448812972
73
2
44
1
0
ENDBLK
5
C1
330
BF
100
AcDbEntity
8
0
100
AcDbBlockEnd
0
BLOCK
5
C3
330
C2
100
AcDbEntity
8
0
100
AcDbBlockBegin
2
*D34
70
1
10
0
20
0
3
*D34
1

0
LINE
5
1B6
100
AcDbEntity
8
dimensions
6
CONTINUOUS
62
7
370
0
100
AcDbLine
10
0
20
-1.875
11
3.125
21
-1.875
0
SOLID
5
1B7
100
AcDbEntity
8
dimensions
6
CONTINUOUS
62
7
370
0
100
AcDbTrace
10
0
20
-1.875
30
0
11
0.125
21
-1.85418576711
31
0
12
0.125
22
-1.89581423289
32
0
13
0.125
23
-1.89581423289
33
0
0
SOLID
5
1B8
100
AcDbEntity
8
dimensions
6
CONTINUOUS
62
7
370
0
100
AcDbTrace
10
3.125
20
-1.875
30
0
11
3
21
-1.89581423289
31
0
12
3
22
-1.85418576711
32
0
13
3
23
-1.85418576711
33
0
0
MTEXT
5
1B9
100
AcDbEntity
8
dimensions
6
CONTINUOUS
62
7
370
0
100
AcDbMText
10
1.5625
20
-1.78125
30
0
40
0.125
41
0.413194444444
71
5
72
1
1
3 1/8
7
standard
210
0
220
0
230
1
50
0
73
2
44
1
0
LINE
5
1BA
100
AcDbEntity
8
dimensions
6
CONTINUOUS
62
7
370
0
100
AcDbLine
10
1.91351062367e-18
20
-1.84375
11
3.82702124734e-18
21
-1.8125
0
LINE
5
1BB
100
AcDbEntity
8
dimensions
6
CONTINUOUS
62
7
370
0
100
AcDbLine
10
3.125
20
-1.96875
11
3.125
21
-1.8125
0
ENDBLK
5
C4
330
C2
100
AcDbEntity
8
0
100
AcDbBlockEnd
0
BLOCK
5
C6
330
C5
100
AcDbEntity
8
0
100
AcDbBlockBegin
2
*D25
70
1
10
0
20
0
3
*D25
1

0
LINE
5
1BC
100
AcDbEntity
8
dimensions
6
CONTINUOUS
62
7
370
0
100
AcDbLine
10
7.8125
20
0.6875
11
8.25
21
0.6875
0
SOLID
5
1BD
100
AcDbEntity
8
dimensions
6
CONTINUOUS
62
7
370
0
100
AcDbTrace
10
7.8125
20
0.6875
30
0
11
7.9375
21
0.708314232889
31
0
12
7.9375
22
0.666685767111
32
0
13
7.9375
23
0.666685767111
33
0
0
SOLID
5
1BE
100
AcDbEntity
8
dimensions
6
CONTINUOUS
62
7
370
0
100
AcDbTrace
10
8.25
20
0.6875
30
0
11
8.125
21
0.666685767111
31
0
12
8.125
22
0.708314232889
32
0
13
8.125
23
0.708314232889
33
0
0
MTEXT
5
1BF
100
AcDbEntity
8
dimensions
6
CONTINUOUS
62
7
370
0
100
AcDbMText
10
8.03125
20
0.78125
30
0
40
0.125
41
0.319444444444
71
5
72
1
1
7/16
7
standard
210
0
220
0
230
1
50
0
73
2
44
1
0
LINE
5
1C0
100
AcDbEntity
8
dimensions
6
CONTINUOUS
62
7
370
0
100
AcDbLine
10
7.8125
20
0.71875
11
7.8125
21
0.75
0
LINE
5
1C1
100
AcDbEntity
8
dimensions
6
CONTINUOUS
62
7
370
0
100
AcDbLine
10
8.25
20
0.71875
11
8.25
21
0.75
0
ENDBLK
5
C7
330
C5
100
AcDbEntity
8
0
100
AcDbBlockEnd
0
ENDSEC
0
SECTION
2
ENTITIES
0
LINE
5
1C2
100
AcDbEntity
8
0
6
ByLayer
62
256
370
-1
100
AcDbLine
10
8.25
20
0
11
8.25
21
1.25
0
LINE
5
1C3
100
AcDbEntity
8
0
6
ByLayer
62
256
370
-1
100
AcDbLine
10
8.25
20
1.25
11
8.4375
21
1.25
0
LINE
5
1C4
100
AcDbEntity
8
0
6
ByLayer
62
256
370
-1
100
AcDbLine
10
8.4375
20
1.25
11
8.4375
21
2.5625
0
LINE
5
1C5
100
AcDbEntity
8
0
6
ByLayer
62
256
370
-1
100
AcDbLine
10
8.4375
20
2.5625
11
8.25
21
2.5625
0
LINE
5
1C6
100
AcDbEntity
8
0
6
ByLayer
62
256
370
-1
100
AcDbLine
10
8.25
20
2.5625
11
8.25
21
3.8125
0
LINE
5
1C7
100
AcDbEntity
8
0
6
ByLayer
62
256
370
-1
100
AcDbLine
10
8.25
20
3.8125
11
0
21
3.8125
0
LINE
5
1C8
100
AcDbEntity
8
0
6
ByLayer
62
256
370
-1
100
AcDbLine
10
0
20
3.8125
11
0
21
2.5625
0
LINE
5
1C9
100
AcDbEntity
8
0
6
ByLayer
62
256
370
-1
100
AcDbLine
10
0
20
2.5625
11
-0.1875
21
2.5625
0
LINE
5
1CA
100
AcDbEntity
8
0
6
ByLayer
62
256
370
-1
100
AcDbLine
10
-0.1875
20
2.5625
11
-0.1875
21
1.25
0
LINE
5
1CB
100
AcDbEntity
8
0
6
ByLayer
62
256
370
-1
100
AcDbLine
10
-0.1875
20
1.25
11
0
21
1.25
0
LINE
5
1CC
100
AcDbEntity
8
0
6
ByLayer
62
256
370
-1
100
AcDbLine
10
0
20
1.25
11
0
21
0
0
LINE
5
1CD
100
AcDbEntity
8
0
6
ByLayer
62
256
370
-1
100
AcDbLine
10
0
20
3.8125
11
0
21
4.5625
0
LINE
5
1CE
100
AcDbEntity
8
0
6
ByLayer
62
256
370
-1
100
AcDbLine
10
0
20
4.5625
11
-0.1875
21
4.5625
0
LINE
5
1CF
100
AcDbEntity
8
0
6
ByLayer
62
256
370
-1
100
AcDbLine
10
-0.1875
20
4.5625
11
-0.1875
21
5.375
0
LINE
5
1D0
100
AcDbEntity
8
0
6
ByLayer
62
256
370
-1
100
AcDbLine
10
-0.1875
20
5.375
11
0
21
5.375
0
LINE
5
1D1
100
AcDbEntity
8
0
6
ByLayer
62
256
370
-1
100
AcDbLine
10
0
20
5.375
11
0
21
6.125
0
LINE
5
1D2
100
AcDbEntity
8
0
6
ByLayer
62
256
370
-1
100
AcDbLine
10
0
20
6.125
11
1.3125
21
6.125
0
LINE
5
1D3
100
AcDbEntity
8
0
6
ByLayer
62
256
370
-1
100
AcDbLine
10
1.3125
20
6.125
11
1.3125
21
6.3125
0
LINE
5
1D4
100
AcDbEntity
8
0
6
ByLayer
62
256
370
-1
100
AcDbLine
10
1.3125
20
6.3125
11
2.8125
21
6.3125
0
LINE
5
1D5
100
AcDbEntity
8
0
6
ByLayer
62
256
370
-1
100
AcDbLine
10
2.8125
20
6.3125
11
2.8125
21
6.125
0
LINE
5
1D6
100
AcDbEntity
8
0
6
ByLayer
62
256
370
-1
100
AcDbLine
10
2.8125
20
6.125
11
5.4375
21
6.125
0
LINE
5
1D7
100
AcDbEntity
8
0
6
ByLayer
62
256
370
-1
100
AcDbLine
10
5.4375
20
6.125
11
5.4375
21
6.3125
0
LINE
5
1D8
100
AcDbEntity
8
0
6
ByLayer
62
256
370
-1
100
AcDbLine
10
5.4375
20
6.3125
11
6.9375
21
6.3125
0
LINE
5
1D9
100
AcDbEntity
8
0
6
ByLayer
62
256
370
-1
100
AcDbLine
10
6.9375
20
6.3125
11
6.9375
21
6.125
0
LINE
5
1DA
100
AcDbEntity
8
0
6
ByLayer
62
256
370
-1
100
AcDbLine
10
6.9375
20
6.125
11
8.25
21
6.125
0
LINE
5
1DB
100
AcDbEntity
8
0
6
ByLayer
62
256
370
-1
100
AcDbLine
10
8.25
20
6.125
11
8.25
21
5.375
0
LINE
5
1DC
100
AcDbEntity
8
0
6
ByLayer
62
256
370
-1
100
AcDbLine
10
8.25
20
5.375
11
8.4375
21
5.375
0
LINE
5
1DD
100
AcDbEntity
8
0
6
ByLayer
62
256
370
-1
100
AcDbLine
10
8.4375
20
5.375
11
8.4375
21
4.5625
0
LINE
5
1DE
100
AcDbEntity
8
0
6
ByLayer
62
256
370
-1
100
AcDbLine
10
8.4375
20
4.5625
11
8.25
21
4.5625
0
LINE
5
1DF
100
AcDbEntity
8
0
6
ByLayer
62
256
370
-1
100
AcDbLine
10
8.25
20
4.5625
11
8.25
21
3.8125
0
ARC
5
1E0
100
AcDbEntity
8
0
6
ByLayer
62
256
370
-1
100
AcDbCircle
10
7.0625
20
1.9375
40
0.25
100
AcDbArc
50
90
51
180
0
LINE
5
1E1
100
AcDbEntity
8
0
6
ByLayer
62
256
370
-1
100
AcDbLine
10
7.5625
20
2.1875
11
7.0625
21
2.1875
0
ARC
5
1E2
100
AcDbEntity
8
0
6
ByLayer
62
256
370
-1
100
AcDbCircle
10
7.5625
20
1.9375
40
0.25
100
AcDbArc
50
0
51
90
0
LINE
5
1E3
100
AcDbEntity
8
0
6
ByLayer
62
256
370
-1
100
AcDbLine
10
7.8125
20
1.9375
11
7.8125
21
0.6875
0
ARC
5
1E4
100
AcDbEntity
8
0
6
ByLayer
62
256
370
-1
100
AcDbCircle
10
7.5625
20
0.6875
40
0.25
100
AcDbArc
50
270
51
0
0
LINE
5
1E5
100
AcDbEntity
8
0
6
ByLayer
62
256
370
-1
100
AcDbLine
10
7.0625
20
0.4375
11
7.5625
21
0.4375
0
LINE
5
1E6
100
AcDbEntity
8
0
6
ByLayer
62
256
370
-1
100
AcDbLine
10
6.8125
20
1.9375
11
6.8125
21
0.6875
0
ARC
5
1E7
100
AcDbEntity
8
0
6
ByLayer
62
256
370
-1
100
AcDbCircle
10
7.0625
20
0.6875
40
0.25
100
AcDbArc
50
180
51
270
0
LINE
5
1E8
100
AcDbEntity
8
dimensions
6
ByLayer
62
256
370
-1
100
AcDbLine
10
6.5625
20
2.4375
11
8.0625
21
2.4375
0
LINE
5
1E9
100
AcDbEntity
8
dimensions
6
ByLayer
62
256
370
-1
100
AcDbLine
10
8.0625
20
2.4375
11
8.0625
21
0.1875
0
LINE
5
1EA
100
AcDbEntity
8
dimensions
6
ByLayer
62
256
370
-1
100
AcDbLine
10
8.0625
20
0.1875
11
6.5625
21
0.1875
0
LINE
5
1EB
100
AcDbEntity
8
dimensions
6
ByLayer
62
256
370
-1
100
AcDbLine
10
6.5625
20
0.1875
11
6.5625
21
2.4375
0
LINE
5
1EC
100
AcDbEntity
8
dimensions
6
ByLayer
62
256
370
-1
100
AcDbLine
10
6.4375
20
0.1875
11
2.4375
21
0.1875
0
LINE
5
1ED
100
AcDbEntity
8
dimensions
6
ByLayer
62
256
370
-1
100
AcDbLine
10
2.4375
20
0.1875
11
2.4375
21
2.3125
0
LINE
5
1EE
100
AcDbEntity
8
dimensions
6
ByLayer
62
256
370
-1
100
AcDbLine
10
2.4375
20
2.3125
11
6.4375
21
2.3125
0
LINE
5
1EF
100
AcDbEntity
8
dimensions
6
ByLayer
62
256
370
-1
100
AcDbLine
10
6.4375
20
2.3125
11
6.4375
21
0.1875
0
CIRCLE
5
1F0
100
AcDbEntity
8
0
6
ByLayer
62
256
370
-1
100
AcDbCircle
10
1.0625
20
2.9375
40
0.5
0
CIRCLE
5
1F1
100
AcDbEntity
8
0
6
ByLayer
62
256
370
-1
100
AcDbCircle
10
1.8125
20
2.9375
40
0.0625
0
CIRCLE
5
1F2
100
AcDbEntity
8
0
6
ByLayer
62
256
370
-1
100
AcDbCircle
10
0.3125
20
2.9375
40
0.0625
0
DIMENSION
5
1F3
100
AcDbEntity
8
dimensions
6
ByLayer
62
256
370
-1
100
AcDbDimension
2
*D1
10
0
20
3.5
30
0
11
0.53125
21
3.59375
31
0
70
32
71
5
72
0
3
Standard
53
0
210
0
220
0
230
1
100
AcDbAlignedDimension
13
1.0625
23
2.9375
33
0
14
0
24
3.5
34
0
100
AcDbRotatedDimension
0
DIMENSION
5
1F4
100
AcDbEntity
8
dimensions
6
ByLayer
62
256
370
-1
100
AcDbDimension
2
*D2
10
2.25
20
3.8125
30
0
11
2.15625
21
3.375
31
0
70
32
71
5
72
0
3
Standard
53
0
210
0
220
0
230
1
100
AcDbAlignedDimension
13
0.3125
23
2.9375
33
0
14
2.3125
24
3.8125
34
0
50
90
100
AcDbRotatedDimension
0
DIMENSION
5
1F5
100
AcDbEntity
8
dimensions
6
ByLayer
62
256
370
-1
100
AcDbDimension
2
*D3
10
1.0625
20
2.125
30
0
11
0.6875
21
2.21875
31
0
70
32
71
5
72
0
3
Standard
53
0
210
0
220
0
230
1
100
AcDbAlignedDimension
13
0.3125
23
2.9375
33
0
14
1.0625
24
2.9375
34
0
100
AcDbRotatedDimension
0
DIMENSION
5
1F6
100
AcDbEntity
8
dimensions
6
ByLayer
62
256
370
-1
100
AcDbDimension
2
*D4
10
1.8125
20
2.125
30
0
11
1.4375
21
2.21875
31
0
70
32
71
5
72
0
3
Standard
53
0
210
0
220
0
230
1
100
AcDbAlignedDimension
13
1.0625
23
2.9375
33
0
14
1.8125
24
2.9375
34
0
100
AcDbRotatedDimension
0
DIMENSION
5
1F7
100
AcDbEntity
8
dimensions
6
ByLayer
62
256
370
-1
100
AcDbDimension
2
*D5
10
1.49662157106
20
3.18556946918
30
0
11
1.01598697453
21
3.01889779457
31
0
70
35
71
5
72
0
3
Standard
53
0
210
0
220
0
230
1
100
AcDbDiametricDimension
15
0.628378428938
25
2.68943053082
35
0
40
0
0
DIMENSION
5
1F8
100
AcDbEntity
8
dimensions
6
ByLayer
62
256
370
-1
100
AcDbDimension
2
*D6
10
0.365830114603
20
2.97009062559
30
0
11
0.263614061614
21
3.0174951719
31
0
70
35
71
5
72
0
3
Standard
53
0
210
0
220
0
230
1
100
AcDbDiametricDimension
15
0.259169885397
25
2.90490937441
35
0
40
0
0
DIMENSION
5
1F9
100
AcDbEntity
8
dimensions
6
ByLayer
62
256
370
-1
100
AcDbDimension
2
*D7
10
1.86192023173
20
2.97576082456
30
0
11
1.75510876316
21
3.01163034759
31
0
70
35
71
5
72
0
3
Standard
53
0
210
0
220
0
230
1
100
AcDbDiametricDimension
15
1.76307976827
25
2.89923917544
35
0
40
0
0
DIMENSION
5
1FA
100
AcDbEntity
8
dimensions
6
ByLayer
62
256
370
-1
100
AcDbDimension
2
*D8
10
-0.3125
20
1.25
30
0
11
-0.40625
21
1.90625
31
0
70
32
71
5
72
0
3
Standard
53
0
210
0
220
0
230
1
100
AcDbAlignedDimension
13
-0.1875
23
2.5625
33
0
14
-0.1875
24
1.25
34
0
50
90
100
AcDbRotatedDimension
0
DIMENSION
5
1FB
100
AcDbEntity
8
dimensions
6
ByLayer
62
256
370
-1
100
AcDbDimension
2
*D9
10
-0.3125
20
2.5625
30
0
11
-0.40625
21
3.1875
31
0
70
32
71
5
72
0
3
Standard
53
0
210
0
220
0
230
1
100
AcDbAlignedDimension
13
0
23
3.8125
33
0
14
-0.1875
24
2.5625
34
0
50
90
100
AcDbRotatedDimension
0
DIMENSION
5
1FC
100
AcDbEntity
8
dimensions
6
ByLayer
62
256
370
-1
100
AcDbDimension
2
*D10
10
-0.3125
20
3.82702124734e-17
30
0
11
-0.40625
21
0.625
31
0
70
32
71
5
72
0
3
Standard
53
0
210
0
220
0
230
1
100
AcDbAlignedDimension
13
-0.1875
23
1.25
33
0
14
0
24
0
34
0
50
90
100
AcDbRotatedDimension
0
DIMENSION
5
1FD
100
AcDbEntity
8
dimensions
6
ByLayer
62
256
370
-1
100
AcDbDimension
2
*D11
10
-0.3125
20
4.5625
30
0
11
-0.40625
21
4.1875
31
0
70
32
71
5
72
0
3
Standard
53
0
210
0
220
0
230
1
100
AcDbAlignedDimension
13
0
23
3.8125
33
0
14
-0.1875
24
4.5625
34
0
50
90
100
AcDbRotatedDimension
0
DIMENSION
5
1FE
100
AcDbEntity
8
dimensions
6
ByLayer
62
256
370
-1
100
AcDbDimension
2
*D12
10
-0.3125
20
5.375
30
0
11
-0.40625
21
4.96875
31
0
70
32
71
5
72
0
3
Standard
53
0
210
0
220
0
230
1
100
AcDbAlignedDimension
13
-0.1875
23
4.5625
33
0
14
-0.1875
24
5.375
34
0
50
90
100
AcDbRotatedDimension
0
DIMENSION
5
1FF
100
AcDbEntity
8
dimensions
6
ByLayer
62
256
370
-1
100
AcDbDimension
2
*D13
10
-0.3125
20
6.125
30
0
11
-0.40625
21
5.75
31
0
70
32
71
5
72
0
3
Standard
53
0
210
0
220
0
230
1
100
AcDbAlignedDimension
13
-0.1875
23
5.375
33
0
14
0
24
6.125
34
0
50
90
100
AcDbRotatedDimension
0
DIMENSION
5
200
100
AcDbEntity
8
dimensions
6
ByLayer
62
256
370
-1
100
AcDbDimension
2
*D14
10
1.3125
20
6.4375
30
0
11
0.65625
21
6.53125
31
0
70
32
71
5
72
0
3
Standard
53
0
210
0
220
0
230
1
100
AcDbAlignedDimension
13
0
23
6.125
33
0
14
1.3125
24
6.3125
34
0
100
AcDbRotatedDimension
0
DIMENSION
5
201
100
AcDbEntity
8
dimensions
6
ByLayer
62
256
370
-1
100
AcDbDimension
2
*D15
10
2.8125
20
6.4375
30
0
11
2.0625
21
6.53125
31
0
70
32
71
5
72
0
3
Standard
53
0
210
0
220
0
230
1
100
AcDbAlignedDimension
13
1.3125
23
6.3125
33
0
14
2.8125
24
6.3125
34
0
100
AcDbRotatedDimension
0
DIMENSION
5
202
100
AcDbEntity
8
dimensions
6
ByLayer
62
256
370
-1
100
AcDbDimension
2
*D16
10
5.4375
20
6.4375
30
0
11
4.125
21
6.53125
31
0
70
32
71
5
72
0
3
Standard
53
0
210
0
220
0
230
1
100
AcDbAlignedDimension
13
2.8125
23
6.3125
33
0
14
5.4375
24
6.3125
34
0
100
AcDbRotatedDimension
0
DIMENSION
5
203
100
AcDbEntity
8
dimensions
6
ByLayer
62
256
370
-1
100
AcDbDimension
2
*D17
10
6.9375
20
6.4375
30
0
11
6.1875
21
6.53125
31
0
70
32
71
5
72
0
3
Standard
53
0
210
0
220
0
230
1
100
AcDbAlignedDimension
13
5.4375
23
6.3125
33
0
14
6.9375
24
6.3125
34
0
100
AcDbRotatedDimension
0
DIMENSION
5
204
100
AcDbEntity
8
dimensions
6
ByLayer
62
256
370
-1
100
AcDbDimension
2
*D18
10
8.25
20
6.4375
30
0
11
7.59375
21
6.53125
31
0
70
32
71
5
72
0
3
Standard
53
0
210
0
220
0
230
1
100
AcDbAlignedDimension
13
6.9375
23
6.3125
33
0
14
8.25
24
6.125
34
0
100
AcDbRotatedDimension
0
DIMENSION
5
205
100
AcDbEntity
8
dimensions
6
ByLayer
62
256
370
-1
100
AcDbDimension
2
*D19
10
8.25
20
4
30
0
11
4.125
21
4.09375
31
0
70
32
71
5
72
0
3
Standard
53
0
210
0
220
0
230
1
100
AcDbAlignedDimension
13
0
23
4
33
0
14
8.25
24
4
34
0
100
AcDbRotatedDimension
0
DIMENSION
5
206
100
AcDbEntity
8
dimensions
6
ByLayer
62
256
370
-1
100
AcDbDimension
2
*D20
10
6
20
9.37349864164e-34
30
0
11
5.90625
21
1.90625
31
0
70
32
71
5
72
0
3
Standard
53
0
210
0
220
0
230
1
100
AcDbAlignedDimension
13
6
23
3.8125
33
0
14
6
24
0
34
0
50
90
100
AcDbRotatedDimension
0
DIMENSION
5
207
100
AcDbEntity
8
dimensions
6
ByLayer
62
256
370
-1
100
AcDbDimension
2
*D21
10
7.25
20
3.8125
30
0
11
7.15625
21
4.96875
31
0
70
32
71
5
72
0
3
Standard
53
0
210
0
220
0
230
1
100
AcDbAlignedDimension
13
7.25
23
6.125
33
0
14
7.25
24
3.8125
34
0
50
90
100
AcDbRotatedDimension
0
LINE
5
208
100
AcDbEntity
8
0
6
ByLayer
62
256
370
-1
100
AcDbLine
10
3.125
20
0
11
3.125
21
0.1875
0
LINE
5
209
100
AcDbEntity
8
0
6
ByLayer
62
256
370
-1
100
AcDbLine
10
3.125
20
0.1875
11
5.125
21
0.1875
0
LINE
5
20A
100
AcDbEntity
8
0
6
ByLayer
62
256
370
-1
100
AcDbLine
10
5.125
20
0.1875
11
5.125
21
0
0
DIMENSION
5
20B
100
AcDbEntity
8
dimensions
6
ByLayer
62
256
370
-1
100
AcDbDimension
2
*D22
10
5.125
20
0.3125
30
0
11
4.125
21
0.40625
31
0
70
32
71
5
72
0
3
Standard
53
0
210
0
220
0
230
1
100
AcDbAlignedDimension
13
3.125
23
0.1875
33
0
14
5.125
24
0.1875
34
0
100
AcDbRotatedDimension
0
DIMENSION
5
20C
100
AcDbEntity
8
dimensions
6
ByLayer
62
256
370
-1
100
AcDbDimension
2
*D23
10
8.25
20
1
30
0
11
4.125
21
1.09375
31
0
70
32
71
5
72
0
3
Standard
53
0
210
0
220
0
230
1
100
AcDbAlignedDimension
13
0
23
1
33
0
14
8.25
24
1
34
0
100
AcDbRotatedDimension
0
DIMENSION
5
20D
100
AcDbEntity
8
dimensions
6
ByLayer
62
256
370
-1
100
AcDbDimension
2
*D24
10
7.8125
20
0.6875
30
0
11
7.3125
21
0.78125
31
0
70
32
71
5
72
0
3
Standard
53
0
210
0
220
0
230
1
100
AcDbAlignedDimension
13
6.8125
23
0.6875
33
0
14
7.8125
24
0.6875
34
0
100
AcDbRotatedDimension
0
DIMENSION
5
20E
100
AcDbEntity
8
dimensions
6
ByLayer
62
256
370
-1
100
AcDbDimension
2
*D25
10
8.25
20
0.6875
30
0
11
8.03125
21
0.78125
31
0
70
32
71
5
72
0
3
Standard
53
0
210
0
220
0
230
1
100
AcDbAlignedDimension
13
7.8125
23
0.6875
33
0
14
8.25
24
0.6875
34
0
100
AcDbRotatedDimension
0
DIMENSION
5
20F
100
AcDbEntity
8
dimensions
6
ByLayer
62
256
370
-1
100
AcDbDimension
2
*D26
10
7.125
20
0.4375
30
0
11
7.03125
21
1.3125
31
0
70
32
71
5
72
0
3
Standard
53
0
210
0
220
0
230
1
100
AcDbAlignedDimension
13
7.125
23
2.1875
33
0
14
7.125
24
0.4375
34
0
50
90
100
AcDbRotatedDimension
0
DIMENSION
5
210
100
AcDbEntity
8
dimensions
6
ByLayer
62
256
370
-1
100
AcDbDimension
2
*D27
10
7.125
20
0
30
0
11
7.03125
21
0.21875
31
0
70
32
71
5
72
0
3
Standard
53
0
210
0
220
0
230
1
100
AcDbAlignedDimension
13
7.125
23
0.4375
33
0
14
7.125
24
0
34
0
50
90
100
AcDbRotatedDimension
0
LINE
5
211
100
AcDbEntity
8
0
6
ByLayer
62
256
370
-1
100
AcDbLine
10
0
20
0
11
0
21
-0.5
0
LINE
5
212
100
AcDbEntity
8
0
6
ByLayer
62
256
370
-1
100
AcDbLine
10
0
20
-0.5
11
-0.1875
21
-0.5
0
LINE
5
213
100
AcDbEntity
8
0
6
ByLayer
62
256
370
-1
100
AcDbLine
10
-0.1875
20
-0.5
11
-0.1875
21
-1
0
LINE
5
214
100
AcDbEntity
8
0
6
ByLayer
62
256
370
-1
100
AcDbLine
10
-0.1875
20
-1
11
8.4375
21
-1
0
LINE
5
215
100
AcDbEntity
8
0
6
ByLayer
62
256
370
-1
100
AcDbLine
10
8.4375
20
-1
11
8.4375
21
-0.5
0
LINE
5
216
100
AcDbEntity
8
0
6
ByLayer
62
256
370
-1
100
AcDbLine
10
8.4375
20
-0.5
11
8.25
21
-0.5
0
LINE
5
217
100
AcDbEntity
8
0
6
ByLayer
62
256
370
-1
100
AcDbLine
10
8.25
20
-0.5
11
8.25
21
0
0
LINE
5
218
100
AcDbEntity
8
0
6
ByLayer
62
256
370
-1
100
AcDbLine
10
0
20
0
11
3.125
21
0
0
LINE
5
219
100
AcDbEntity
8
0
6
ByLayer
62
256
370
-1
100
AcDbLine
10
5.125
20
0
11
8.25
21
0
0
LINE
5
21A
100
AcDbEntity
8
0
6
ByLayer
62
256
370
-1
100
AcDbLine
10
-0.1875
20
-1
11
-0.1875
21
-1.5
0
LINE
5
21B
100
AcDbEntity
8
0
6
ByLayer
62
256
370
-1
100
AcDbLine
10
-0.1875
20
-1.5
11
0
21
-1.5
0
LINE
5
21C
100
AcDbEntity
8
0
6
ByLayer
62
256
370
-1
100
AcDbLine
10
0
20
-1.5
11
0
21
-2
0
LINE
5
21D
100
AcDbEntity
8
0
6
ByLayer
62
256
370
-1
100
AcDbLine
10
0
20
-2
11
3.125
21
-2
0
LINE
5
21E
100
AcDbEntity
8
0
6
ByLayer
62
256
370
-1
100
AcDbLine
10
3.125
20
-2
11
3.125
21
-2.1875
0
LINE
5
21F
100
AcDbEntity
8
0
6
ByLayer
62
256
370
-1
100
AcDbLine
10
3.125
20
-2.1875
11
5.125
21
-2.1875
0
LINE
5
220
100
AcDbEntity
8
0
6
ByLayer
62
256
370
-1
100
AcDbLine
10
5.125
20
-2.1875
11
5.125
21
-2
0
LINE
5
221
100
AcDbEntity
8
0
6
ByLayer
62
256
370
-1
100
AcDbLine
10
5.125
20
-2
11
8.25
21
-2
0
LINE
5
222
100
AcDbEntity
8
0
6
ByLayer
62
256
370
-1
100
AcDbLine
10
8.25
20
-2
11
8.25
21
-1.5
0
LINE
5
223
100
AcDbEntity
8
0
6
ByLayer
62
256
370
-1
100
AcDbLine
10
8.25
20
-1.5
11
8.4375
21
-1.5
0
LINE
5
224
100
AcDbEntity
8
0
6
ByLayer
62
256
370
-1
100
AcDbLine
10
8.4375
20
-1.5
11
8.4375
21
-1
0
DIMENSION
5
225
100
AcDbEntity
8
dimensions
6
ByLayer
62
256
370
-1
100
AcDbDimension
2
*D28
10
-0.3125
20
-0.5
30
0
11
-0.40625
21
-0.25
31
0
70
32
71
5
3
Standard
53
0
210
0
220
0
230
1
100
AcDbAlignedDimension
13
0
23
0
33
0
14
-0.1875
24
-0.5
34
0
50
90
100
AcDbRotatedDimension
0
DIMENSION
5
226
100
AcDbEntity
8
dimensions
6
ByLayer
62
256
370
-1
100
AcDbDimension
2
*D29
10
-0.3125
20
-1
30
0
11
-0.40625
21
-0.75
31
0
70
32
71
5
3
Standard
53
0
210
0
220
0
230
1
100
AcDbAlignedDimension
13
-0.1875
23
-0.5
33
0
14
-0.1875
24
-1
34
0
50
90
100
AcDbRotatedDimension
0
DIMENSION
5
227
100
AcDbEntity
8
dimensions
6
ByLayer
62
256
370
-1
100
AcDbDimension
2
*D30
10
-0.3125
20
-1.5
30
0
11
-0.40625
21
-1.25
31
0
70
32
71
5
3
Standard
53
0
210
0
220
0
230
1
100
AcDbAlignedDimension
13
-0.1875
23
-1
33
0
14
-0.1875
24
-1.5
34
0
50
90
100
AcDbRotatedDimension
0
DIMENSION
5
228
100
AcDbEntity
8
dimensions
6
ByLayer
62
256
370
-1
100
AcDbDimension
2
*D31
10
-0.1875
20
-2
30
0
11
-0.28125
21
-1.75
31
0
70
32
71
5
3
Standard
53
0
210
0
220
0
230
1
100
AcDbAlignedDimension
13
-0.1875
23
-1.5
33
0
14
0
24
-2
34
0
50
90
100
AcDbRotatedDimension
0
DIMENSION
5
229
100
AcDbEntity
8
dimensions
6
ByLayer
62
256
370
-1
100
AcDbDimension
2
*D32
10
3.125
20
0.1875
30
0
11
1.5625
21
0.28125
31
0
70
32
71
5
3
Standard
53
0
210
0
220
0
230
1
100
AcDbAlignedDimension
13
0
23
0.1875
33
0
14
3.125
24
0.1875
34
0
100
AcDbRotatedDimension
0
DIMENSION
5
22A
100
AcDbEntity
8
dimensions
6
ByLayer
62
256
370
-1
100
AcDbDimension
2
*D33
10
5.125
20
-1.875
30
0
11
4.125
21
-1.78125
31
0
70
32
71
5
3
Standard
53
0
210
0
220
0
230
1
100
AcDbAlignedDimension
13
3.125
23
-2
33
0
14
5.125
24
-2
34
0
100
AcDbRotatedDimension
0
DIMENSION
5
22B
100
AcDbEntity
8
dimensions
6
ByLayer
62
256
370
-1
100
AcDbDimension
2
*D34
10
3.125
20
-1.875
30
0
11
1.5625
21
-1.78125
31
0
70
32
71
5
3
Standard
53
0
210
0
220
0
230
1
100
AcDbAlignedDimension
13
0
23
-1.875
33
0
14
3.125
24
-2
34
0
100
AcDbRotatedDimension
0
DIMENSION
5
22C
100
AcDbEntity
8
dimensions
6
ByLayer
62
256
370
-1
100
AcDbDimension
2
*D35
10
8.25
20
-1.875
30
0
11
6.6875
21
-1.78125
31
0
70
32
71
5
3
Standard
53
0
210
0
220
0
230
1
100
AcDbAlignedDimension
13
5.125
23
-2
33
0
14
8.25
24
-1.875
34
0
100
AcDbRotatedDimension
0
DIMENSION
5
22D
100
AcDbEntity
8
dimensions
6
ByLayer
62
256
370
-1
100
AcDbDimension
2
*D36
10
5.6875
20
-1
30
0
11
5.59375
21
-0.5
31
0
70
32
71
5
3
Standard
53
0
210
0
220
0
230
1
100
AcDbAlignedDimension
13
5.6875
23
0
33
0
14
5.6875
24
-1
34
0
50
90
100
AcDbRotatedDimension
0
DIMENSION
5
22E
100
AcDbEntity
8
dimensions
6
ByLayer
62
256
370
-1
100
AcDbDimension
2
*D37
10
5.6875
20
-2
30
0
11
5.59375
21
-1.5
31
0
70
32
71
5
3
Standard
53
0
210
0
220
0
230
1
100
AcDbAlignedDimension
13
5.6875
23
-1
33
0
14
5.6875
24
-2
34
0
50
90
100
AcDbRotatedDimension
0
MTEXT
5
22F
100
AcDbEntity
8
dimensions
6
ByLayer
62
256
370
-1
100
AcDbMText
10
3.875
20
5.375
30
0
40
0.12
41
0.226666666667
71
1
72
1
1
top
7
standard
210
0
220
0
230
1
50
0
73
2
44
1
0
MTEXT
5
230
100
AcDbEntity
8
dimensions
6
ByLayer
62
256
370
-1
100
AcDbMText
10
3.75
20
3.25
30
0
40
0.12
41
0.52
71
1
72
1
1
bottom
7
standard
210
0
220
0
230
1
50
0
73
2
44
1
0
MTEXT
5
231
100
AcDbEntity
8
dimensions
6
ByLayer
62
256
370
-1
100
AcDbMText
10
0.625
20
5.5
30
0
40
0.12
41
2.38666672838
71
1
72
1
1
BTTF Time Circuits\Ptop, bottom, and back plates\Pcut one time
7
standard
210
0
220
0
230
1
50
0
73
2
44
1
0
DIMENSION
5
232
100
AcDbEntity
8
dimensions
6
ByLayer
62
256
370
-1
100
AcDbDimension
2
*D38
10
8.25
20
-1.625
30
0
11
4.125
21
-1.53125
31
0
70
32
71
5
72
0
3
Standard
53
0
210
0
220
0
230
1
100
AcDbAlignedDimension
13
0
23
-1.625
33
0
14
8.25
24
-1.625
34
0
100
AcDbRotatedDimension
0
DIMENSION
5
233
100
AcDbEntity
8
dimensions
6
ByLayer
62
256
370
-1
100
AcDbDimension
2
*D39
10
8.4375
20
-1.375
30
0
11
4.125
21
-1.28125
31
0
70
32
71
5
72
0
3
Standard
53
0
210
0
220
0
230
1
100
AcDbAlignedDimension
13
-0.1875
23
-1.375
33
0
14
8.4375
24
-1.375
34
0
100
AcDbRotatedDimension
0
ARC
5
234
100
AcDbEntity
8
0
6
ByLayer
62
256
370
-1
100
AcDbCircle
10
4.125
20
-0.625
40
0.1875
100
AcDbArc
50
120
51
60
0
ARC
5
235
100
AcDbEntity
8
0
6
ByLayer
62
256
370
-1
100
AcDbCircle
10
4.125
20
-0.3125
40
0.09375
100
AcDbArc
50
0
51
180
0
LINE
5
236
100
AcDbEntity
8
0
6
ByLayer
62
256
370
-1
100
AcDbLine
10
4.03125
20
-0.3125
11
4.03125
21
-0.46262023679
0
LINE
5
237
100
AcDbEntity
8
0
6
ByLayer
62
256
370
-1
100
AcDbLine
10
4.21875
20
-0.3125
11
4.21875
21
-0.46262023679
0
DIMENSION
5
238
100
AcDbEntity
8
dimensions
6
ByLayer
62
256
370
-1
100
AcDbDimension
2
*D40
10
4.21875
20
-0.1875
30
0
11
4.125
21
-0.09375
31
0
70
32
71
5
3
Standard
53
0
210
0
220
0
230
1
100
AcDbAlignedDimension
13
4.03125
23
-0.31250000589
33
0
14
4.21875
24
-0.31250000589
34
0
100
AcDbRotatedDimension
0
DIMENSION
5
239
100
AcDbEntity
8
dimensions
6
ByLayer
62
256
370
-1
100
AcDbDimension
2
*D41
10
4.30056172079
20
-0.559164354702
30
0
11
4.09208217735
21
-0.537219139603
31
0
70
35
71
5
3
Standard
53
0
210
0
220
0
230
1
100
AcDbDiametricDimension
15
3.94943827921
25
-0.690835645298
35
0
40
0
0
DIMENSION
5
23A
100
AcDbEntity
8
dimensions
6
ByLayer
62
256
370
-1
100
AcDbDimension
2
*D42
10
-0.75
20
-2.25
30
0
11
-0.84375
21
2.0625
31
0
70
32
71
5
3
Standard
53
0
210
0
220
0
230
1
100
AcDbAlignedDimension
13
-0.75
23
6.375
33
0
14
-0.75
24
-2.25
34
0
50
90
100
AcDbRotatedDimension
0
LINE
5
23B
100
AcDbEntity
8
0
6
ByLayer
62
256
370
-1
100
AcDbLine
10
3.125
20
3.8125
11
3.125
21
4
0
LINE
5
23C
100
AcDbEntity
8
0
6
ByLayer
62
256
370
-1
100
AcDbLine
10
3.125
20
4
11
5.125
21
4
0
LINE
5
23D
100
AcDbEntity
8
0
6
ByLayer
62
256
370
-1
100
AcDbLine
10
5.125
20
4
11
5.125
21
3.8125
0
DIMENSION
5
23E
100
AcDbEntity
8
dimensions
6
ByLayer
62
256
370
-1
100
AcDbDimension
2
*D43
10
3.734375
20
-0.3125
30
0
11
3.640625
21
-0.46875
31
0
70
32
71
5
3
Standard
53
0
210
0
220
0
230
1
100
AcDbAlignedDimension
13
4.125
23
-0.625
33
0
14
4.125
24
-0.3125
34
0
50
90
100
AcDbRotatedDimension
0
ENDSEC
0
SECTION
2
OBJECTS
0
DICTIONARY
5
C
330
0
100
AcDbDictionary
281
1
3
ACAD_GROUP
350
D
0
DICTIONARY
5
D
330
C
100
AcDbDictionary
281
1
0
ENDSEC
0
EOF
