999
dxfrw 0.5.10
0
SECTION
2
HEADER
9
$ACADVER
1
AC1021
9
$HANDSEED
5
20000
9
$DWGCODEPAGE
3
ANSI_1252
9
$INSBASE
10
0
20
0
30
0
9
$EXTMIN
10
0
20
0
30
0
9
$EXTMAX
10
8.625
20
2.77291666667
30
0
9
$LIMMIN
10
0
20
0
9
$LIMMAX
10
420
20
297
9
$ORTHOMODE
70
0
9
$LTSCALE
40
1
9
$TEXTSTYLE
7
STANDARD
9
$CLAYER
8
sketch
9
$DIMASZ
40
2.5
9
$DIMLFAC
40
1
9
$DIMSCALE
40
0.03
9
$DIMEXO
40
0.625
9
$DIMEXE
40
1.25
9
$DIMTXT
40
2.5
9
$DIMTSZ
40
0
9
$DIMAUNIT
70
0
9
$DIMADEC
70
2
9
$DIMLUNIT
70
5
9
$DIMSTYLE
2
STANDARD
9
$DIMGAP
40
0.625
9
$DIMTIH
70
0
9
$LUNITS
70
5
9
$LUPREC
70
6
9
$AUNITS
70
0
9
$AUPREC
70
2
9
$SPLINESEGS
70
8
9
$GRIDMODE
70
1
9
$SNAPSTYLE
70
0
9
$GRIDUNIT
10
0
20
0
9
$PINSBASE
10
1.1875
20
2.86354166667
30
0
9
$PLIMMIN
10
0
20
0
9
$PLIMMAX
10
11
20
8.5
9
$INSUNITS
70
1
9
$PSVPSCALE
40
1
0
ENDSEC
0
SECTION
2
CLASSES
0
ENDSEC
0
SECTION
2
TABLES
0
TABLE
2
VPORT
5
8
330
0
100
AcDbSymbolTable
70
1
0
VPORT
5
31
330
2
100
AcDbSymbolTableRecord
100
AcDbViewportTableRecord
2
*ACTIVE
70
0
10
0
20
0
11
1
21
1
12
4.52020668724
22
1.68080917853
13
0
23
0
14
10
24
10
15
10
25
10
16
0
26
0
36
1
17
0
27
0
37
0
40
4.36610873199
41
2.17908496732
42
50
43
0
44
0
50
0
51
0
71
0
72
100
73
1
74
3
75
0
76
1
77
0
78
0
281
0
65
1
110
0
120
0
130
0
111
1
121
0
131
0
112
0
122
1
132
0
79
0
146
0
348
10020
60
7
61
5
292
1
282
1
141
0
142
0
63
250
421
3358443
0
ENDTAB
0
TABLE
2
LTYPE
5
5
330
0
100
AcDbSymbolTable
70
4
0
LTYPE
5
14
330
5
100
AcDbSymbolTableRecord
100
AcDbLinetypeTableRecord
2
ByBlock
70
0
3

72
65
73
0
40
0
0
LTYPE
5
15
330
5
100
AcDbSymbolTableRecord
100
AcDbLinetypeTableRecord
2
ByLayer
70
0
3

72
65
73
0
40
0
0
LTYPE
5
16
330
5
100
AcDbSymbolTableRecord
100
AcDbLinetypeTableRecord
2
Continuous
70
0
3
Solid line
72
65
73
0
40
0
0
LTYPE
5
32
330
5
100
AcDbSymbolTableRecord
100
AcDbLinetypeTableRecord
2
DOT
70
0
3
Dot . . . . . . . . . . . . . . . . . . . . . .
72
65
73
2
40
6.35
49
0
74
0
49
-6.35
74
0
0
LTYPE
5
33
330
5
100
AcDbSymbolTableRecord
100
AcDbLinetypeTableRecord
2
DOT2
70
0
3
Dot (.5x) .....................................
72
65
73
2
40
3.175
49
0
74
0
49
-3.175
74
0
0
LTYPE
5
34
330
5
100
AcDbSymbolTableRecord
100
AcDbLinetypeTableRecord
2
DOTX2
70
0
3
Dot (2x) .  .  .  .  .  .  .  .  .  .  .  .  .
72
65
73
2
40
12.7
49
0
74
0
49
-12.7
74
0
0
LTYPE
5
35
330
5
100
AcDbSymbolTableRecord
100
AcDbLinetypeTableRecord
2
DASHED
70
0
3
Dot . . . . . . . . . . . . . . . . . . . . . .
72
65
73
2
40
19.05
49
12.7
74
0
49
-6.35
74
0
0
LTYPE
5
36
330
5
100
AcDbSymbolTableRecord
100
AcDbLinetypeTableRecord
2
DASHED2
70
0
3
Dashed (.5x) _ _ _ _ _ _ _ _ _ _ _ _ _ _ _ _ _
72
65
73
2
40
9.525
49
6.35
74
0
49
-3.175
74
0
0
LTYPE
5
37
330
5
100
AcDbSymbolTableRecord
100
AcDbLinetypeTableRecord
2
DASHEDX2
70
0
3
Dashed (2x) ____  ____  ____  ____  ____  ___
72
65
73
2
40
38.1
49
25.4
74
0
49
-12.7
74
0
0
LTYPE
5
38
330
5
100
AcDbSymbolTableRecord
100
AcDbLinetypeTableRecord
2
DASHDOT
70
0
3
Dash dot __ . __ . __ . __ . __ . __ . __ . __
72
65
73
4
40
25.4
49
12.7
74
0
49
-6.35
74
0
49
0
74
0
49
-6.35
74
0
0
LTYPE
5
39
330
5
100
AcDbSymbolTableRecord
100
AcDbLinetypeTableRecord
2
DASHDOT2
70
0
3
Dash dot (.5x) _._._._._._._._._._._._._._._.
72
65
73
4
40
12.7
49
6.35
74
0
49
-3.175
74
0
49
0
74
0
49
-3.175
74
0
0
LTYPE
5
3A
330
5
100
AcDbSymbolTableRecord
100
AcDbLinetypeTableRecord
2
DASHDOTX2
70
0
3
Dash dot (2x) ____  .  ____  .  ____  .  ___
72
65
73
4
40
50.8
49
25.4
74
0
49
-12.7
74
0
49
0
74
0
49
-12.7
74
0
0
LTYPE
5
3B
330
5
100
AcDbSymbolTableRecord
100
AcDbLinetypeTableRecord
2
DIVIDE
70
0
3
Divide ____ . . ____ . . ____ . . ____ . . ____
72
65
73
6
40
31.75
49
12.7
74
0
49
-6.35
74
0
49
0
74
0
49
-6.35
74
0
49
0
74
0
49
-6.35
74
0
0
LTYPE
5
3C
330
5
100
AcDbSymbolTableRecord
100
AcDbLinetypeTableRecord
2
DIVIDE2
70
0
3
Divide (.5x) __..__..__..__..__..__..__..__.._
72
65
73
6
40
15.875
49
6.35
74
0
49
-3.175
74
0
49
0
74
0
49
-3.175
74
0
49
0
74
0
49
-3.175
74
0
0
LTYPE
5
3D
330
5
100
AcDbSymbolTableRecord
100
AcDbLinetypeTableRecord
2
DIVIDEX2
70
0
3
Divide (2x) ________  .  .  ________  .  .  _
72
65
73
6
40
63.5
49
25.4
74
0
49
-12.7
74
0
49
0
74
0
49
-12.7
74
0
49
0
74
0
49
-12.7
74
0
0
LTYPE
5
3E
330
5
100
AcDbSymbolTableRecord
100
AcDbLinetypeTableRecord
2
BORDER
70
0
3
Border __ __ . __ __ . __ __ . __ __ . __ __ .
72
65
73
6
40
44.45
49
12.7
74
0
49
-6.35
74
0
49
12.7
74
0
49
-6.35
74
0
49
0
74
0
49
-6.35
74
0
0
LTYPE
5
3F
330
5
100
AcDbSymbolTableRecord
100
AcDbLinetypeTableRecord
2
BORDER2
70
0
3
Border (.5x) __.__.__.__.__.__.__.__.__.__.__.
72
65
73
6
40
22.225
49
6.35
74
0
49
-3.175
74
0
49
6.35
74
0
49
-3.175
74
0
49
0
74
0
49
-3.175
74
0
0
LTYPE
5
40
330
5
100
AcDbSymbolTableRecord
100
AcDbLinetypeTableRecord
2
BORDERX2
70
0
3
Border (2x) ____  ____  .  ____  ____  .  ___
72
65
73
6
40
88.9
49
25.4
74
0
49
-12.7
74
0
49
25.4
74
0
49
-12.7
74
0
49
0
74
0
49
-12.7
74
0
0
LTYPE
5
41
330
5
100
AcDbSymbolTableRecord
100
AcDbLinetypeTableRecord
2
CENTER
70
0
3
Center ____ _ ____ _ ____ _ ____ _ ____ _ ____
72
65
73
4
40
50.8
49
31.75
74
0
49
-6.35
74
0
49
6.35
74
0
49
-6.35
74
0
0
LTYPE
5
42
330
5
100
AcDbSymbolTableRecord
100
AcDbLinetypeTableRecord
2
CENTER2
70
0
3
Center (.5x) ___ _ ___ _ ___ _ ___ _ ___ _ ___
72
65
73
4
40
28.575
49
19.05
74
0
49
-3.175
74
0
49
3.175
74
0
49
-3.175
74
0
0
LTYPE
5
43
330
5
100
AcDbSymbolTableRecord
100
AcDbLinetypeTableRecord
2
CENTERX2
70
0
3
Center (2x) ________  __  ________  __  _____
72
65
73
4
40
101.6
49
63.5
74
0
49
-12.7
74
0
49
12.7
74
0
49
-12.7
74
0
0
ENDTAB
0
TABLE
2
LAYER
5
2
330
0
100
AcDbSymbolTable
70
1
0
LAYER
5
10
330
2
100
AcDbSymbolTableRecord
100
AcDbLayerTableRecord
2
0
70
0
62
7
6
CONTINUOUS
370
0
390
F
0
LAYER
5
44
330
2
100
AcDbSymbolTableRecord
100
AcDbLayerTableRecord
2
dimensions
70
0
62
96
420
32768
6
CONTINUOUS
370
0
390
F
0
LAYER
5
45
330
2
100
AcDbSymbolTableRecord
100
AcDbLayerTableRecord
2
sketch
70
0
62
5
6
CONTINUOUS
370
0
390
F
0
ENDTAB
0
TABLE
2
STYLE
5
3
330
0
100
AcDbSymbolTable
70
3
0
STYLE
5
46
330
2
100
AcDbSymbolTableRecord
100
AcDbTextStyleTableRecord
2
standard
70
0
40
0
41
1
50
0
71
0
42
1
3
standard
4

0
ENDTAB
0
TABLE
2
VIEW
5
6
330
0
100
AcDbSymbolTable
70
0
0
ENDTAB
0
TABLE
2
UCS
5
7
330
0
100
AcDbSymbolTable
70
0
0
ENDTAB
0
TABLE
2
APPID
5
9
330
0
100
AcDbSymbolTable
70
1
0
APPID
5
12
330
9
100
AcDbSymbolTableRecord
100
AcDbRegAppTableRecord
2
ACAD
70
0
0
ENDTAB
0
TABLE
2
DIMSTYLE
5
A
330
0
100
AcDbSymbolTable
70
1
100
AcDbDimStyleTable
71
1
0
DIMSTYLE
105
47
330
A
100
AcDbSymbolTableRecord
100
AcDbDimStyleTableRecord
2
Standard
70
0
40
1
41
2.5
42
0.625
43
0.38
44
1.25
45
0
46
0
47
0
48
0
140
2.5
141
0.09
142
0
143
25.4
144
1
145
0
146
1
147
0.625
148
0
71
0
72
0
73
0
74
1
75
0
76
0
77
0
78
0
79
0
170
0
171
2
172
0
173
0
174
0
175
0
176
0
177
0
178
0
179
0
271
4
272
4
273
2
274
2
275
0
276
0
277
2
278
46
279
0
280
0
281
0
282
0
283
1
284
0
285
0
286
0
288
0
289
3
340
Standard
341

371
-2
372
-2
0
ENDTAB
0
TABLE
2
BLOCK_RECORD
5
1
330
0
100
AcDbSymbolTable
70
2
0
BLOCK_RECORD
5
1F
330
1
100
AcDbSymbolTableRecord
100
AcDbBlockTableRecord
2
*Model_Space
70
0
280
1
281
0
0
BLOCK_RECORD
5
1E
330
1
100
AcDbSymbolTableRecord
100
AcDbBlockTableRecord
2
*Paper_Space
70
0
280
1
281
0
0
BLOCK_RECORD
5
48
330
1
100
AcDbSymbolTableRecord
100
AcDbBlockTableRecord
2
*D3
70
0
280
1
281
0
0
BLOCK_RECORD
5
4B
330
1
100
AcDbSymbolTableRecord
100
AcDbBlockTableRecord
2
*D18
70
0
280
1
281
0
0
BLOCK_RECORD
5
4E
330
1
100
AcDbSymbolTableRecord
100
AcDbBlockTableRecord
2
*D9
70
0
280
1
281
0
0
BLOCK_RECORD
5
51
330
1
100
AcDbSymbolTableRecord
100
AcDbBlockTableRecord
2
*D2
70
0
280
1
281
0
0
BLOCK_RECORD
5
54
330
1
100
AcDbSymbolTableRecord
100
AcDbBlockTableRecord
2
*D6
70
0
280
1
281
0
0
BLOCK_RECORD
5
57
330
1
100
AcDbSymbolTableRecord
100
AcDbBlockTableRecord
2
*D5
70
0
280
1
281
0
0
BLOCK_RECORD
5
5A
330
1
100
AcDbSymbolTableRecord
100
AcDbBlockTableRecord
2
*D17
70
0
280
1
281
0
0
BLOCK_RECORD
5
5D
330
1
100
AcDbSymbolTableRecord
100
AcDbBlockTableRecord
2
*D20
70
0
280
1
281
0
0
BLOCK_RECORD
5
60
330
1
100
AcDbSymbolTableRecord
100
AcDbBlockTableRecord
2
*D21
70
0
280
1
281
0
0
BLOCK_RECORD
5
63
330
1
100
AcDbSymbolTableRecord
100
AcDbBlockTableRecord
2
*D14
70
0
280
1
281
0
0
BLOCK_RECORD
5
66
330
1
100
AcDbSymbolTableRecord
100
AcDbBlockTableRecord
2
*D15
70
0
280
1
281
0
0
BLOCK_RECORD
5
69
330
1
100
AcDbSymbolTableRecord
100
AcDbBlockTableRecord
2
*D8
70
0
280
1
281
0
0
BLOCK_RECORD
5
6C
330
1
100
AcDbSymbolTableRecord
100
AcDbBlockTableRecord
2
*D10
70
0
280
1
281
0
0
BLOCK_RECORD
5
6F
330
1
100
AcDbSymbolTableRecord
100
AcDbBlockTableRecord
2
*D11
70
0
280
1
281
0
0
BLOCK_RECORD
5
72
330
1
100
AcDbSymbolTableRecord
100
AcDbBlockTableRecord
2
*D19
70
0
280
1
281
0
0
BLOCK_RECORD
5
75
330
1
100
AcDbSymbolTableRecord
100
AcDbBlockTableRecord
2
*D22
70
0
280
1
281
0
0
BLOCK_RECORD
5
78
330
1
100
AcDbSymbolTableRecord
100
AcDbBlockTableRecord
2
*D4
70
0
280
1
281
0
0
BLOCK_RECORD
5
7B
330
1
100
AcDbSymbolTableRecord
100
AcDbBlockTableRecord
2
*D16
70
0
280
1
281
0
0
BLOCK_RECORD
5
7E
330
1
100
AcDbSymbolTableRecord
100
AcDbBlockTableRecord
2
*D7
70
0
280
1
281
0
0
BLOCK_RECORD
5
81
330
1
100
AcDbSymbolTableRecord
100
AcDbBlockTableRecord
2
*D12
70
0
280
1
281
0
0
BLOCK_RECORD
5
84
330
1
100
AcDbSymbolTableRecord
100
AcDbBlockTableRecord
2
*D24
70
0
280
1
281
0
0
BLOCK_RECORD
5
87
330
1
100
AcDbSymbolTableRecord
100
AcDbBlockTableRecord
2
*D1
70
0
280
1
281
0
0
BLOCK_RECORD
5
8A
330
1
100
AcDbSymbolTableRecord
100
AcDbBlockTableRecord
2
*D23
70
0
280
1
281
0
0
BLOCK_RECORD
5
8D
330
1
100
AcDbSymbolTableRecord
100
AcDbBlockTableRecord
2
*D13
70
0
280
1
281
0
0
ENDTAB
0
ENDSEC
0
SECTION
2
BLOCKS
0
BLOCK
5
20
330
1F
100
AcDbEntity
8
0
100
AcDbBlockBegin
2
*Model_Space
70
0
10
0
20
0
30
0
3
*Model_Space
1

0
ENDBLK
5
21
330
1F
100
AcDbEntity
8
0
100
AcDbBlockEnd
0
BLOCK
5
1C
330
1B
100
AcDbEntity
8
0
100
AcDbBlockBegin
2
*Paper_Space
70
0
10
0
20
0
30
0
3
*Paper_Space
1

0
ENDBLK
5
1D
330
1F
100
AcDbEntity
8
0
100
AcDbBlockEnd
0
BLOCK
5
49
330
48
100
AcDbEntity
8
0
100
AcDbBlockBegin
2
*D3
70
1
10
0
20
0
3
*D3
1

0
LINE
5
90
100
AcDbEntity
8
dimensions
6
CONTINUOUS
62
7
370
0
100
AcDbLine
10
2.5
20
0.5
11
3.1875
21
0.5
0
SOLID
5
91
100
AcDbEntity
8
dimensions
6
CONTINUOUS
62
7
370
0
100
AcDbTrace
10
2.5
20
0.5
30
0
11
2.575
21
0.512488539733
31
0
12
2.575
22
0.487511460267
32
0
13
2.575
23
0.487511460267
33
0
0
SOLID
5
92
100
AcDbEntity
8
dimensions
6
CONTINUOUS
62
7
370
0
100
AcDbTrace
10
3.1875
20
0.5
30
0
11
3.1125
21
0.487511460267
31
0
12
3.1125
22
0.512488539733
32
0
13
3.1125
23
0.512488539733
33
0
0
MTEXT
5
93
100
AcDbEntity
8
dimensions
6
CONTINUOUS
62
7
370
0
100
AcDbMText
10
2.84375
20
0.55625
30
0
40
0.075
41
0.216666666667
71
5
72
1
1
11/16
7
standard
210
0
220
0
230
1
50
0
73
2
44
1
0
LINE
5
94
100
AcDbEntity
8
dimensions
6
CONTINUOUS
62
7
370
0
100
AcDbLine
10
2.5
20
0.51875
11
2.5
21
0.5375
0
LINE
5
95
100
AcDbEntity
8
dimensions
6
CONTINUOUS
62
7
370
0
100
AcDbLine
10
3.1875
20
0.51875
11
3.1875
21
0.5375
0
ENDBLK
5
4A
330
48
100
AcDbEntity
8
0
100
AcDbBlockEnd
0
BLOCK
5
4C
330
4B
100
AcDbEntity
8
0
100
AcDbBlockBegin
2
*D18
70
1
10
0
20
0
3
*D18
1

0
LINE
5
96
100
AcDbEntity
8
dimensions
6
CONTINUOUS
62
7
370
0
100
AcDbLine
10
5.625
20
1.5625
11
7.125
21
1.5625
0
SOLID
5
97
100
AcDbEntity
8
dimensions
6
CONTINUOUS
62
7
370
0
100
AcDbTrace
10
5.625
20
1.5625
30
0
11
5.7
21
1.57498853973
31
0
12
5.7
22
1.55001146027
32
0
13
5.7
23
1.55001146027
33
0
0
SOLID
5
98
100
AcDbEntity
8
dimensions
6
CONTINUOUS
62
7
370
0
100
AcDbTrace
10
7.125
20
1.5625
30
0
11
7.05
21
1.55001146027
31
0
12
7.05
22
1.57498853973
32
0
13
7.05
23
1.57498853973
33
0
0
MTEXT
5
99
100
AcDbEntity
8
dimensions
6
CONTINUOUS
62
7
370
0
100
AcDbMText
10
6.375
20
1.61875
30
0
40
0.075
41
0.23125
71
5
72
1
1
1 1/2
7
standard
210
0
220
0
230
1
50
0
73
2
44
1
0
LINE
5
9A
100
AcDbEntity
8
dimensions
6
CONTINUOUS
62
7
370
0
100
AcDbLine
10
5.625
20
1.58125
11
5.625
21
1.6
0
LINE
5
9B
100
AcDbEntity
8
dimensions
6
CONTINUOUS
62
7
370
0
100
AcDbLine
10
7.125
20
1.58125
11
7.125
21
1.6
0
ENDBLK
5
4D
330
4B
100
AcDbEntity
8
0
100
AcDbBlockEnd
0
BLOCK
5
4F
330
4E
100
AcDbEntity
8
0
100
AcDbBlockBegin
2
*D9
70
1
10
0
20
0
3
*D9
1

0
LINE
5
9C
100
AcDbEntity
8
dimensions
6
CONTINUOUS
62
7
370
0
100
AcDbLine
10
0
20
0.125
11
8.625
21
0.125
0
SOLID
5
9D
100
AcDbEntity
8
dimensions
6
CONTINUOUS
62
7
370
0
100
AcDbTrace
10
0
20
0.125
30
0
11
0.075
21
0.137488539733
31
0
12
0.075
22
0.112511460267
32
0
13
0.075
23
0.112511460267
33
0
0
SOLID
5
9E
100
AcDbEntity
8
dimensions
6
CONTINUOUS
62
7
370
0
100
AcDbTrace
10
8.625
20
0.125
30
0
11
8.55
21
0.112511460267
31
0
12
8.55
22
0.137488539733
32
0
13
8.55
23
0.137488539733
33
0
0
MTEXT
5
9F
100
AcDbEntity
8
dimensions
6
CONTINUOUS
62
7
370
0
100
AcDbMText
10
4.3125
20
0.18125
30
0
40
0.075
41
0.264583333333
71
5
72
1
1
8 5/8
7
standard
210
0
220
0
230
1
50
0
73
2
44
1
0
LINE
5
A0
100
AcDbEntity
8
dimensions
6
CONTINUOUS
62
7
370
0
100
AcDbLine
10
1.1481063742e-18
20
0.14375
11
2.2962127484e-18
21
0.1625
0
LINE
5
A1
100
AcDbEntity
8
dimensions
6
CONTINUOUS
62
7
370
0
100
AcDbLine
10
8.625
20
0.14375
11
8.625
21
0.1625
0
ENDBLK
5
50
330
4E
100
AcDbEntity
8
0
100
AcDbBlockEnd
0
BLOCK
5
52
330
51
100
AcDbEntity
8
0
100
AcDbBlockBegin
2
*D2
70
1
10
0
20
0
3
*D2
1

0
LINE
5
A2
100
AcDbEntity
8
dimensions
6
CONTINUOUS
62
7
370
0
100
AcDbLine
10
5.625
20
0.5625
11
5.625
21
0
0
SOLID
5
A3
100
AcDbEntity
8
dimensions
6
CONTINUOUS
62
7
370
0
100
AcDbTrace
10
5.625
20
0.5625
30
0
11
5.63748853973
21
0.4875
31
0
12
5.61251146027
22
0.4875
32
0
13
5.61251146027
23
0.4875
33
0
0
SOLID
5
A4
100
AcDbEntity
8
dimensions
6
CONTINUOUS
62
7
370
0
100
AcDbTrace
10
5.625
20
0
30
0
11
5.61251146027
21
0.075
31
0
12
5.63748853973
22
0.075
32
0
13
5.63748853973
23
0.075
33
0
0
MTEXT
5
A5
100
AcDbEntity
8
dimensions
6
CONTINUOUS
62
7
370
0
100
AcDbMText
10
5.56875
20
0.28125
30
0
40
0.075
41
0.191666666667
71
5
72
1
1
9/16
7
standard
210
0
220
0
230
1
50
90
73
2
44
1
0
LINE
5
A6
100
AcDbEntity
8
dimensions
6
CONTINUOUS
62
7
370
0
100
AcDbLine
10
5.60625
20
0.5625
11
5.5875
21
0.5625
0
LINE
5
A7
100
AcDbEntity
8
dimensions
6
CONTINUOUS
62
7
370
0
100
AcDbLine
10
5.60625
20
2.2962127484e-18
11
5.5875
21
4.5924254968e-18
0
ENDBLK
5
53
330
51
100
AcDbEntity
8
0
100
AcDbBlockEnd
0
BLOCK
5
55
330
54
100
AcDbEntity
8
0
100
AcDbBlockBegin
2
*D6
70
1
10
0
20
0
3
*D6
1

0
LINE
5
A8
100
AcDbEntity
8
dimensions
6
CONTINUOUS
62
7
370
0
100
AcDbLine
10
5.1875
20
0.625
11
6
21
0.625
0
SOLID
5
A9
100
AcDbEntity
8
dimensions
6
CONTINUOUS
62
7
370
0
100
AcDbTrace
10
5.1875
20
0.625
30
0
11
5.2625
21
0.637488539733
31
0
12
5.2625
22
0.612511460267
32
0
13
5.2625
23
0.612511460267
33
0
0
SOLID
5
AA
100
AcDbEntity
8
dimensions
6
CONTINUOUS
62
7
370
0
100
AcDbTrace
10
6
20
0.625
30
0
11
5.925
21
0.612511460267
31
0
12
5.925
22
0.637488539733
32
0
13
5.925
23
0.637488539733
33
0
0
MTEXT
5
AB
100
AcDbEntity
8
dimensions
6
CONTINUOUS
62
7
370
0
100
AcDbMText
10
5.59375
20
0.68125
30
0
40
0.075
41
0.233333333333
71
5
72
1
1
13/16
7
standard
210
0
220
0
230
1
50
0
73
2
44
1
0
LINE
5
AC
100
AcDbEntity
8
dimensions
6
CONTINUOUS
62
7
370
0
100
AcDbLine
10
5.1875
20
0.64375
11
5.1875
21
0.6625
0
LINE
5
AD
100
AcDbEntity
8
dimensions
6
CONTINUOUS
62
7
370
0
100
AcDbLine
10
6
20
0.64375
11
6
21
0.6625
0
ENDBLK
5
56
330
54
100
AcDbEntity
8
0
100
AcDbBlockEnd
0
BLOCK
5
58
330
57
100
AcDbEntity
8
0
100
AcDbBlockBegin
2
*D5
70
1
10
0
20
0
3
*D5
1

0
LINE
5
AE
100
AcDbEntity
8
dimensions
6
CONTINUOUS
62
7
370
0
100
AcDbLine
10
3.1875
20
0.5
11
5.1875
21
0.5
0
SOLID
5
AF
100
AcDbEntity
8
dimensions
6
CONTINUOUS
62
7
370
0
100
AcDbTrace
10
3.1875
20
0.5
30
0
11
3.2625
21
0.512488539733
31
0
12
3.2625
22
0.487511460267
32
0
13
3.2625
23
0.487511460267
33
0
0
SOLID
5
B0
100
AcDbEntity
8
dimensions
6
CONTINUOUS
62
7
370
0
100
AcDbTrace
10
5.1875
20
0.5
30
0
11
5.1125
21
0.487511460267
31
0
12
5.1125
22
0.512488539733
32
0
13
5.1125
23
0.512488539733
33
0
0
MTEXT
5
B1
100
AcDbEntity
8
dimensions
6
CONTINUOUS
62
7
370
0
100
AcDbMText
10
4.1875
20
0.55625
30
0
40
0.075
41
0.0333333333333
71
5
72
1
1
2
7
standard
210
0
220
0
230
1
50
0
73
2
44
1
0
LINE
5
B2
100
AcDbEntity
8
dimensions
6
CONTINUOUS
62
7
370
0
100
AcDbLine
10
3.1875
20
0.51875
11
3.1875
21
0.5375
0
LINE
5
B3
100
AcDbEntity
8
dimensions
6
CONTINUOUS
62
7
370
0
100
AcDbLine
10
5.1875
20
0.51875
11
5.1875
21
0.5375
0
ENDBLK
5
59
330
57
100
AcDbEntity
8
0
100
AcDbBlockEnd
0
BLOCK
5
5B
330
5A
100
AcDbEntity
8
0
100
AcDbBlockBegin
2
*D17
70
1
10
0
20
0
3
*D17
1

0
LINE
5
B4
100
AcDbEntity
8
dimensions
6
CONTINUOUS
62
7
370
0
100
AcDbLine
10
3
20
1.5
11
5.625
21
1.5
0
SOLID
5
B5
100
AcDbEntity
8
dimensions
6
CONTINUOUS
62
7
370
0
100
AcDbTrace
10
3
20
1.5
30
0
11
3.075
21
1.51248853973
31
0
12
3.075
22
1.48751146027
32
0
13
3.075
23
1.48751146027
33
0
0
SOLID
5
B6
100
AcDbEntity
8
dimensions
6
CONTINUOUS
62
7
370
0
100
AcDbTrace
10
5.625
20
1.5
30
0
11
5.55
21
1.48751146027
31
0
12
5.55
22
1.51248853973
32
0
13
5.55
23
1.51248853973
33
0
0
MTEXT
5
B7
100
AcDbEntity
8
dimensions
6
CONTINUOUS
62
7
370
0
100
AcDbMText
10
4.3125
20
1.55625
30
0
40
0.075
41
0.264583333333
71
5
72
1
1
2 5/8
7
standard
210
0
220
0
230
1
50
0
73
2
44
1
0
LINE
5
B8
100
AcDbEntity
8
dimensions
6
CONTINUOUS
62
7
370
0
100
AcDbLine
10
3
20
1.51875
11
3
21
1.5375
0
LINE
5
B9
100
AcDbEntity
8
dimensions
6
CONTINUOUS
62
7
370
0
100
AcDbLine
10
5.625
20
1.51875
11
5.625
21
1.5375
0
ENDBLK
5
5C
330
5A
100
AcDbEntity
8
0
100
AcDbBlockEnd
0
BLOCK
5
5E
330
5D
100
AcDbEntity
8
0
100
AcDbBlockBegin
2
*D20
70
1
10
0
20
0
3
*D20
1

0
LINE
5
BA
100
AcDbEntity
8
dimensions
6
CONTINUOUS
62
7
370
0
100
AcDbLine
10
3.53125
20
0.421875
11
3.53125
21
0
0
SOLID
5
BB
100
AcDbEntity
8
dimensions
6
CONTINUOUS
62
7
370
0
100
AcDbTrace
10
3.53125
20
0.421875
30
0
11
3.54373853973
21
0.346875
31
0
12
3.51876146027
22
0.346875
32
0
13
3.51876146027
23
0.346875
33
0
0
SOLID
5
BC
100
AcDbEntity
8
dimensions
6
CONTINUOUS
62
7
370
0
100
AcDbTrace
10
3.53125
20
0
30
0
11
3.51876146027
21
0.075
31
0
12
3.54373853973
22
0.075
32
0
13
3.54373853973
23
0.075
33
0
0
MTEXT
5
BD
100
AcDbEntity
8
dimensions
6
CONTINUOUS
62
7
370
0
100
AcDbMText
10
3.475
20
0.2109375
30
0
40
0.075
41
0.275
71
5
72
1
1
27/64
7
standard
210
0
220
0
230
1
50
90
73
2
44
1
0
LINE
5
BE
100
AcDbEntity
8
dimensions
6
CONTINUOUS
62
7
370
0
100
AcDbLine
10
3.5125
20
0.421875
11
3.49375
21
0.421875
0
LINE
5
BF
100
AcDbEntity
8
dimensions
6
CONTINUOUS
62
7
370
0
100
AcDbLine
10
3.5125
20
2.2962127484e-18
11
3.49375
21
4.5924254968e-18
0
ENDBLK
5
5F
330
5D
100
AcDbEntity
8
0
100
AcDbBlockEnd
0
BLOCK
5
61
330
60
100
AcDbEntity
8
0
100
AcDbBlockBegin
2
*D21
70
1
10
0
20
0
3
*D21
1

0
LINE
5
C0
100
AcDbEntity
8
dimensions
6
CONTINUOUS
62
7
370
0
100
AcDbLine
10
0
20
1.5
11
1.5
21
1.5
0
SOLID
5
C1
100
AcDbEntity
8
dimensions
6
CONTINUOUS
62
7
370
0
100
AcDbTrace
10
0
20
1.5
30
0
11
0.075
21
1.51248853973
31
0
12
0.075
22
1.48751146027
32
0
13
0.075
23
1.48751146027
33
0
0
SOLID
5
C2
100
AcDbEntity
8
dimensions
6
CONTINUOUS
62
7
370
0
100
AcDbTrace
10
1.5
20
1.5
30
0
11
1.425
21
1.48751146027
31
0
12
1.425
22
1.51248853973
32
0
13
1.425
23
1.51248853973
33
0
0
MTEXT
5
C3
100
AcDbEntity
8
dimensions
6
CONTINUOUS
62
7
370
0
100
AcDbMText
10
0.75
20
1.55625
30
0
40
0.075
41
0.23125
71
5
72
1
1
1 1/2
7
standard
210
0
220
0
230
1
50
0
73
2
44
1
0
LINE
5
C4
100
AcDbEntity
8
dimensions
6
CONTINUOUS
62
7
370
0
100
AcDbLine
10
1.1481063742e-18
20
1.51875
11
2.2962127484e-18
21
1.5375
0
LINE
5
C5
100
AcDbEntity
8
dimensions
6
CONTINUOUS
62
7
370
0
100
AcDbLine
10
1.5
20
1.51875
11
1.5
21
1.5375
0
ENDBLK
5
62
330
60
100
AcDbEntity
8
0
100
AcDbBlockEnd
0
BLOCK
5
64
330
63
100
AcDbEntity
8
0
100
AcDbBlockBegin
2
*D14
70
1
10
0
20
0
3
*D14
1

0
LINE
5
C6
100
AcDbEntity
8
dimensions
6
CONTINUOUS
62
7
370
0
100
AcDbLine
10
0.125
20
2.375
11
0.125
21
2
0
SOLID
5
C7
100
AcDbEntity
8
dimensions
6
CONTINUOUS
62
7
370
0
100
AcDbTrace
10
0.125
20
2.375
30
0
11
0.137488539733
21
2.3
31
0
12
0.112511460267
22
2.3
32
0
13
0.112511460267
23
2.3
33
0
0
SOLID
5
C8
100
AcDbEntity
8
dimensions
6
CONTINUOUS
62
7
370
0
100
AcDbTrace
10
0.125
20
2
30
0
11
0.112511460267
21
2.075
31
0
12
0.137488539733
22
2.075
32
0
13
0.137488539733
23
2.075
33
0
0
MTEXT
5
C9
100
AcDbEntity
8
dimensions
6
CONTINUOUS
62
7
370
0
100
AcDbMText
10
0.06875
20
2.1875
30
0
40
0.075
41
0.15
71
5
72
1
1
3/8
7
standard
210
0
220
0
230
1
50
90
73
2
44
1
0
LINE
5
CA
100
AcDbEntity
8
dimensions
6
CONTINUOUS
62
7
370
0
100
AcDbLine
10
0.10625
20
2.375
11
0.0875
21
2.375
0
LINE
5
CB
100
AcDbEntity
8
dimensions
6
CONTINUOUS
62
7
370
0
100
AcDbLine
10
0.10625
20
2
11
0.0875
21
2
0
ENDBLK
5
65
330
63
100
AcDbEntity
8
0
100
AcDbBlockEnd
0
BLOCK
5
67
330
66
100
AcDbEntity
8
0
100
AcDbBlockBegin
2
*D15
70
1
10
0
20
0
3
*D15
1

0
LINE
5
CC
100
AcDbEntity
8
dimensions
6
CONTINUOUS
62
7
370
0
100
AcDbLine
10
0.125
20
2.5625
11
0.125
21
2.375
0
SOLID
5
CD
100
AcDbEntity
8
dimensions
6
CONTINUOUS
62
7
370
0
100
AcDbTrace
10
0.125
20
2.5625
30
0
11
0.137488539733
21
2.4875
31
0
12
0.112511460267
22
2.4875
32
0
13
0.112511460267
23
2.4875
33
0
0
SOLID
5
CE
100
AcDbEntity
8
dimensions
6
CONTINUOUS
62
7
370
0
100
AcDbTrace
10
0.125
20
2.375
30
0
11
0.112511460267
21
2.45
31
0
12
0.137488539733
22
2.45
32
0
13
0.137488539733
23
2.45
33
0
0
MTEXT
5
CF
100
AcDbEntity
8
dimensions
6
CONTINUOUS
62
7
370
0
100
AcDbMText
10
0.06875
20
2.67708333333
30
0
40
0.075
41
0.191666666667
71
5
72
1
1
3/16
7
standard
210
0
220
0
230
1
50
90
73
2
44
1
0
LINE
5
D0
100
AcDbEntity
8
dimensions
6
CONTINUOUS
62
7
370
0
100
AcDbLine
10
0.16875
20
2.5625
11
0.0875
21
2.5625
0
LINE
5
D1
100
AcDbEntity
8
dimensions
6
CONTINUOUS
62
7
370
0
100
AcDbLine
10
0.10625
20
2.375
11
0.0875
21
2.375
0
ENDBLK
5
68
330
66
100
AcDbEntity
8
0
100
AcDbBlockEnd
0
BLOCK
5
6A
330
69
100
AcDbEntity
8
0
100
AcDbBlockBegin
2
*D8
70
1
10
0
20
0
3
*D8
1

0
LINE
5
D2
100
AcDbEntity
8
dimensions
6
CONTINUOUS
62
7
370
0
100
AcDbLine
10
8
20
0.5
11
8.625
21
0.5
0
SOLID
5
D3
100
AcDbEntity
8
dimensions
6
CONTINUOUS
62
7
370
0
100
AcDbTrace
10
8
20
0.5
30
0
11
8.075
21
0.512488539733
31
0
12
8.075
22
0.487511460267
32
0
13
8.075
23
0.487511460267
33
0
0
SOLID
5
D4
100
AcDbEntity
8
dimensions
6
CONTINUOUS
62
7
370
0
100
AcDbTrace
10
8.625
20
0.5
30
0
11
8.55
21
0.487511460267
31
0
12
8.55
22
0.512488539733
32
0
13
8.55
23
0.512488539733
33
0
0
MTEXT
5
D5
100
AcDbEntity
8
dimensions
6
CONTINUOUS
62
7
370
0
100
AcDbMText
10
8.3125
20
0.55625
30
0
40
0.075
41
0.15
71
5
72
1
1
5/8
7
standard
210
0
220
0
230
1
50
0
73
2
44
1
0
LINE
5
D6
100
AcDbEntity
8
dimensions
6
CONTINUOUS
62
7
370
0
100
AcDbLine
10
8
20
0.51875
11
8
21
0.5375
0
LINE
5
D7
100
AcDbEntity
8
dimensions
6
CONTINUOUS
62
7
370
0
100
AcDbLine
10
8.625
20
0.51875
11
8.625
21
0.5375
0
ENDBLK
5
6B
330
69
100
AcDbEntity
8
0
100
AcDbBlockEnd
0
BLOCK
5
6D
330
6C
100
AcDbEntity
8
0
100
AcDbBlockBegin
2
*D10
70
1
10
0
20
0
3
*D10
1

0
LINE
5
D8
100
AcDbEntity
8
dimensions
6
CONTINUOUS
62
7
370
0
100
AcDbLine
10
0.375
20
1.625
11
0.375
21
0
0
SOLID
5
D9
100
AcDbEntity
8
dimensions
6
CONTINUOUS
62
7
370
0
100
AcDbTrace
10
0.375
20
1.625
30
0
11
0.387488539733
21
1.55
31
0
12
0.362511460267
22
1.55
32
0
13
0.362511460267
23
1.55
33
0
0
SOLID
5
DA
100
AcDbEntity
8
dimensions
6
CONTINUOUS
62
7
370
0
100
AcDbTrace
10
0.375
20
0
30
0
11
0.362511460267
21
0.075
31
0
12
0.387488539733
22
0.075
32
0
13
0.387488539733
23
0.075
33
0
0
MTEXT
5
DB
100
AcDbEntity
8
dimensions
6
CONTINUOUS
62
7
370
0
100
AcDbMText
10
0.31875
20
0.8125
30
0
40
0.075
41
0.247916666667
71
5
72
1
1
1 5/8
7
standard
210
0
220
0
230
1
50
90
73
2
44
1
0
LINE
5
DC
100
AcDbEntity
8
dimensions
6
CONTINUOUS
62
7
370
0
100
AcDbLine
10
0.35625
20
1.625
11
0.3375
21
1.625
0
LINE
5
DD
100
AcDbEntity
8
dimensions
6
CONTINUOUS
62
7
370
0
100
AcDbLine
10
0.35625
20
2.2962127484e-18
11
0.3375
21
4.5924254968e-18
0
ENDBLK
5
6E
330
6C
100
AcDbEntity
8
0
100
AcDbBlockEnd
0
BLOCK
5
70
330
6F
100
AcDbEntity
8
0
100
AcDbBlockBegin
2
*D11
70
1
10
0
20
0
3
*D11
1

0
LINE
5
DE
100
AcDbEntity
8
dimensions
6
CONTINUOUS
62
7
370
0
100
AcDbLine
10
5.875
20
1
11
5.875
21
0.5625
0
SOLID
5
DF
100
AcDbEntity
8
dimensions
6
CONTINUOUS
62
7
370
0
100
AcDbTrace
10
5.875
20
1
30
0
11
5.88748853973
21
0.925
31
0
12
5.86251146027
22
0.925
32
0
13
5.86251146027
23
0.925
33
0
0
SOLID
5
E0
100
AcDbEntity
8
dimensions
6
CONTINUOUS
62
7
370
0
100
AcDbTrace
10
5.875
20
0.5625
30
0
11
5.86251146027
21
0.6375
31
0
12
5.88748853973
22
0.6375
32
0
13
5.88748853973
23
0.6375
33
0
0
MTEXT
5
E1
100
AcDbEntity
8
dimensions
6
CONTINUOUS
62
7
370
0
100
AcDbMText
10
5.81875
20
0.78125
30
0
40
0.075
41
0.191666666667
71
5
72
1
1
7/16
7
standard
210
0
220
0
230
1
50
90
73
2
44
1
0
LINE
5
E2
100
AcDbEntity
8
dimensions
6
CONTINUOUS
62
7
370
0
100
AcDbLine
10
5.64375
20
1
11
5.9125
21
1
0
LINE
5
E3
100
AcDbEntity
8
dimensions
6
CONTINUOUS
62
7
370
0
100
AcDbLine
10
5.64375
20
0.5625
11
5.9125
21
0.5625
0
ENDBLK
5
71
330
6F
100
AcDbEntity
8
0
100
AcDbBlockEnd
0
BLOCK
5
73
330
72
100
AcDbEntity
8
0
100
AcDbBlockBegin
2
*D19
70
1
10
0
20
0
3
*D19
1

0
LINE
5
E4
100
AcDbEntity
8
dimensions
6
CONTINUOUS
62
7
370
0
100
AcDbLine
10
3.53125
20
1.625
11
3.53125
21
1.1875
0
SOLID
5
E5
100
AcDbEntity
8
dimensions
6
CONTINUOUS
62
7
370
0
100
AcDbTrace
10
3.53125
20
1.625
30
0
11
3.54373853973
21
1.55
31
0
12
3.51876146027
22
1.55
32
0
13
3.51876146027
23
1.55
33
0
0
SOLID
5
E6
100
AcDbEntity
8
dimensions
6
CONTINUOUS
62
7
370
0
100
AcDbTrace
10
3.53125
20
1.1875
30
0
11
3.51876146027
21
1.2625
31
0
12
3.54373853973
22
1.2625
32
0
13
3.54373853973
23
1.2625
33
0
0
MTEXT
5
E7
100
AcDbEntity
8
dimensions
6
CONTINUOUS
62
7
370
0
100
AcDbMText
10
3.475
20
1.40625
30
0
40
0.075
41
0.191666666667
71
5
72
1
1
7/16
7
standard
210
0
220
0
230
1
50
90
73
2
44
1
0
LINE
5
E8
100
AcDbEntity
8
dimensions
6
CONTINUOUS
62
7
370
0
100
AcDbLine
10
3.5125
20
1.625
11
3.49375
21
1.625
0
LINE
5
E9
100
AcDbEntity
8
dimensions
6
CONTINUOUS
62
7
370
0
100
AcDbLine
10
3.5125
20
1.1875
11
3.49375
21
1.1875
0
ENDBLK
5
74
330
72
100
AcDbEntity
8
0
100
AcDbBlockEnd
0
BLOCK
5
76
330
75
100
AcDbEntity
8
0
100
AcDbBlockBegin
2
*D22
70
1
10
0
20
0
3
*D22
1

0
LINE
5
EA
100
AcDbEntity
8
dimensions
6
CONTINUOUS
62
7
370
0
100
AcDbLine
10
7.125
20
1.5
11
8.625
21
1.5
0
SOLID
5
EB
100
AcDbEntity
8
dimensions
6
CONTINUOUS
62
7
370
0
100
AcDbTrace
10
7.125
20
1.5
30
0
11
7.2
21
1.51248853973
31
0
12
7.2
22
1.48751146027
32
0
13
7.2
23
1.48751146027
33
0
0
SOLID
5
EC
100
AcDbEntity
8
dimensions
6
CONTINUOUS
62
7
370
0
100
AcDbTrace
10
8.625
20
1.5
30
0
11
8.55
21
1.48751146027
31
0
12
8.55
22
1.51248853973
32
0
13
8.55
23
1.51248853973
33
0
0
MTEXT
5
ED
100
AcDbEntity
8
dimensions
6
CONTINUOUS
62
7
370
0
100
AcDbMText
10
7.875
20
1.55625
30
0
40
0.075
41
0.23125
71
5
72
1
1
1 1/2
7
standard
210
0
220
0
230
1
50
0
73
2
44
1
0
LINE
5
EE
100
AcDbEntity
8
dimensions
6
CONTINUOUS
62
7
370
0
100
AcDbLine
10
7.125
20
1.51875
11
7.125
21
1.5375
0
LINE
5
EF
100
AcDbEntity
8
dimensions
6
CONTINUOUS
62
7
370
0
100
AcDbLine
10
8.625
20
1.51875
11
8.625
21
1.5375
0
ENDBLK
5
77
330
75
100
AcDbEntity
8
0
100
AcDbBlockEnd
0
BLOCK
5
79
330
78
100
AcDbEntity
8
0
100
AcDbBlockBegin
2
*D4
70
1
10
0
20
0
3
*D4
1

0
LINE
5
F0
100
AcDbEntity
8
dimensions
6
CONTINUOUS
62
7
370
0
100
AcDbLine
10
0.5
20
0.5
11
2.5
21
0.5
0
SOLID
5
F1
100
AcDbEntity
8
dimensions
6
CONTINUOUS
62
7
370
0
100
AcDbTrace
10
0.5
20
0.5
30
0
11
0.575
21
0.512488539733
31
0
12
0.575
22
0.487511460267
32
0
13
0.575
23
0.487511460267
33
0
0
SOLID
5
F2
100
AcDbEntity
8
dimensions
6
CONTINUOUS
62
7
370
0
100
AcDbTrace
10
2.5
20
0.5
30
0
11
2.425
21
0.487511460267
31
0
12
2.425
22
0.512488539733
32
0
13
2.425
23
0.512488539733
33
0
0
MTEXT
5
F3
100
AcDbEntity
8
dimensions
6
CONTINUOUS
62
7
370
0
100
AcDbMText
10
1.5
20
0.55625
30
0
40
0.075
41
0.0333333333333
71
5
72
1
1
2
7
standard
210
0
220
0
230
1
50
0
73
2
44
1
0
LINE
5
F4
100
AcDbEntity
8
dimensions
6
CONTINUOUS
62
7
370
0
100
AcDbLine
10
0.5
20
0.51875
11
0.5
21
0.5375
0
LINE
5
F5
100
AcDbEntity
8
dimensions
6
CONTINUOUS
62
7
370
0
100
AcDbLine
10
2.5
20
0.51875
11
2.5
21
0.5375
0
ENDBLK
5
7A
330
78
100
AcDbEntity
8
0
100
AcDbBlockEnd
0
BLOCK
5
7C
330
7B
100
AcDbEntity
8
0
100
AcDbBlockBegin
2
*D16
70
1
10
0
20
0
3
*D16
1

0
LINE
5
F6
100
AcDbEntity
8
dimensions
6
CONTINUOUS
62
7
370
0
100
AcDbLine
10
1.5
20
1.5625
11
3
21
1.5625
0
SOLID
5
F7
100
AcDbEntity
8
dimensions
6
CONTINUOUS
62
7
370
0
100
AcDbTrace
10
1.5
20
1.5625
30
0
11
1.575
21
1.57498853973
31
0
12
1.575
22
1.55001146027
32
0
13
1.575
23
1.55001146027
33
0
0
SOLID
5
F8
100
AcDbEntity
8
dimensions
6
CONTINUOUS
62
7
370
0
100
AcDbTrace
10
3
20
1.5625
30
0
11
2.925
21
1.55001146027
31
0
12
2.925
22
1.57498853973
32
0
13
2.925
23
1.57498853973
33
0
0
MTEXT
5
F9
100
AcDbEntity
8
dimensions
6
CONTINUOUS
62
7
370
0
100
AcDbMText
10
2.25
20
1.61875
30
0
40
0.075
41
0.23125
71
5
72
1
1
1 1/2
7
standard
210
0
220
0
230
1
50
0
73
2
44
1
0
LINE
5
FA
100
AcDbEntity
8
dimensions
6
CONTINUOUS
62
7
370
0
100
AcDbLine
10
1.5
20
1.58125
11
1.5
21
1.6
0
LINE
5
FB
100
AcDbEntity
8
dimensions
6
CONTINUOUS
62
7
370
0
100
AcDbLine
10
3
20
1.58125
11
3
21
1.6
0
ENDBLK
5
7D
330
7B
100
AcDbEntity
8
0
100
AcDbBlockEnd
0
BLOCK
5
7F
330
7E
100
AcDbEntity
8
0
100
AcDbBlockBegin
2
*D7
70
1
10
0
20
0
3
*D7
1

0
LINE
5
FC
100
AcDbEntity
8
dimensions
6
CONTINUOUS
62
7
370
0
100
AcDbLine
10
6
20
0.5
11
8
21
0.5
0
SOLID
5
FD
100
AcDbEntity
8
dimensions
6
CONTINUOUS
62
7
370
0
100
AcDbTrace
10
6
20
0.5
30
0
11
6.075
21
0.512488539733
31
0
12
6.075
22
0.487511460267
32
0
13
6.075
23
0.487511460267
33
0
0
SOLID
5
FE
100
AcDbEntity
8
dimensions
6
CONTINUOUS
62
7
370
0
100
AcDbTrace
10
8
20
0.5
30
0
11
7.925
21
0.487511460267
31
0
12
7.925
22
0.512488539733
32
0
13
7.925
23
0.512488539733
33
0
0
MTEXT
5
FF
100
AcDbEntity
8
dimensions
6
CONTINUOUS
62
7
370
0
100
AcDbMText
10
7
20
0.55625
30
0
40
0.075
41
0.0333333333333
71
5
72
1
1
2
7
standard
210
0
220
0
230
1
50
0
73
2
44
1
0
LINE
5
100
100
AcDbEntity
8
dimensions
6
CONTINUOUS
62
7
370
0
100
AcDbLine
10
6
20
0.51875
11
6
21
0.5375
0
LINE
5
101
100
AcDbEntity
8
dimensions
6
CONTINUOUS
62
7
370
0
100
AcDbLine
10
8
20
0.51875
11
8
21
0.5375
0
ENDBLK
5
80
330
7E
100
AcDbEntity
8
0
100
AcDbBlockEnd
0
BLOCK
5
82
330
81
100
AcDbEntity
8
0
100
AcDbBlockBegin
2
*D12
70
1
10
0
20
0
3
*D12
1

0
LINE
5
102
100
AcDbEntity
8
dimensions
6
CONTINUOUS
62
7
370
0
100
AcDbLine
10
5.4375
20
1
11
5.4375
21
1.625
0
SOLID
5
103
100
AcDbEntity
8
dimensions
6
CONTINUOUS
62
7
370
0
100
AcDbTrace
10
5.4375
20
1
30
0
11
5.42501146027
21
1.075
31
0
12
5.44998853973
22
1.075
32
0
13
5.44998853973
23
1.075
33
0
0
SOLID
5
104
100
AcDbEntity
8
dimensions
6
CONTINUOUS
62
7
370
0
100
AcDbTrace
10
5.4375
20
1.625
30
0
11
5.44998853973
21
1.55
31
0
12
5.42501146027
22
1.55
32
0
13
5.42501146027
23
1.55
33
0
0
MTEXT
5
105
100
AcDbEntity
8
dimensions
6
CONTINUOUS
62
7
370
0
100
AcDbMText
10
5.38125
20
1.3125
30
0
40
0.075
41
0.15
71
5
72
1
1
5/8
7
standard
210
0
220
0
230
1
50
90
73
2
44
1
0
LINE
5
106
100
AcDbEntity
8
dimensions
6
CONTINUOUS
62
7
370
0
100
AcDbLine
10
5.60625
20
1
11
5.4
21
1
0
LINE
5
107
100
AcDbEntity
8
dimensions
6
CONTINUOUS
62
7
370
0
100
AcDbLine
10
5.60625
20
1.625
11
5.4
21
1.625
0
ENDBLK
5
83
330
81
100
AcDbEntity
8
0
100
AcDbBlockEnd
0
BLOCK
5
85
330
84
100
AcDbEntity
8
0
100
AcDbBlockBegin
2
*D24
70
1
10
0
20
0
3
*D24
1

0
LINE
5
108
100
AcDbEntity
8
dimensions
6
CONTINUOUS
62
7
370
0
100
AcDbLine
10
1.3125
20
2.5625
11
1.3125
21
1.625
0
SOLID
5
109
100
AcDbEntity
8
dimensions
6
CONTINUOUS
62
7
370
0
100
AcDbTrace
10
1.3125
20
2.5625
30
0
11
1.32498853973
21
2.4875
31
0
12
1.30001146027
22
2.4875
32
0
13
1.30001146027
23
2.4875
33
0
0
SOLID
5
10A
100
AcDbEntity
8
dimensions
6
CONTINUOUS
62
7
370
0
100
AcDbTrace
10
1.3125
20
1.625
30
0
11
1.30001146027
21
1.7
31
0
12
1.32498853973
22
1.7
32
0
13
1.32498853973
23
1.7
33
0
0
MTEXT
5
10B
100
AcDbEntity
8
dimensions
6
CONTINUOUS
62
7
370
0
100
AcDbMText
10
1.25625
20
2.09375
30
0
40
0.075
41
0.233333333333
71
5
72
1
1
15/16
7
standard
210
0
220
0
230
1
50
90
73
2
44
1
0
LINE
5
10C
100
AcDbEntity
8
dimensions
6
CONTINUOUS
62
7
370
0
100
AcDbLine
10
1.29375
20
2.5625
11
1.275
21
2.5625
0
LINE
5
10D
100
AcDbEntity
8
dimensions
6
CONTINUOUS
62
7
370
0
100
AcDbLine
10
1.29375
20
1.625
11
1.275
21
1.625
0
ENDBLK
5
86
330
84
100
AcDbEntity
8
0
100
AcDbBlockEnd
0
BLOCK
5
88
330
87
100
AcDbEntity
8
0
100
AcDbBlockBegin
2
*D1
70
1
10
0
20
0
3
*D1
1

0
LINE
5
10E
100
AcDbEntity
8
dimensions
6
CONTINUOUS
62
7
370
0
100
AcDbLine
10
5.81506577809
20
1.09503288904
11
5.43493422191
21
0.904967110957
0
SOLID
5
10F
100
AcDbEntity
8
dimensions
6
CONTINUOUS
62
7
370
0
100
AcDbTrace
10
5.68090169944
20
1.02795084972
30
0
11
5.74239869401
21
1.0726619589
31
0
12
5.75356878352
22
1.05032177987
32
0
13
5.75356878352
23
1.05032177987
33
0
0
SOLID
5
110
100
AcDbEntity
8
dimensions
6
CONTINUOUS
62
7
370
0
100
AcDbTrace
10
5.56909830056
20
0.972049150281
30
0
11
5.50760130599
21
0.927338041106
31
0
12
5.49643121648
22
0.949678220132
32
0
13
5.49643121648
23
0.949678220132
33
0
0
MTEXT
5
111
100
AcDbEntity
8
dimensions
6
CONTINUOUS
62
7
370
0
100
AcDbMText
10
5.73214492392
20
1.11646187382
30
0
40
0.075
41
0.133333333333
71
5
72
1
1
1/8
7
standard
210
0
220
0
230
1
50
26.5650511767
73
2
44
1
0
ENDBLK
5
89
330
87
100
AcDbEntity
8
0
100
AcDbBlockEnd
0
BLOCK
5
8B
330
8A
100
AcDbEntity
8
0
100
AcDbBlockBegin
2
*D23
70
1
10
0
20
0
3
*D23
1

0
LINE
5
112
100
AcDbEntity
8
dimensions
6
CONTINUOUS
62
7
370
0
100
AcDbLine
10
3.59375
20
1.1875
11
3.59375
21
0.421875
0
SOLID
5
113
100
AcDbEntity
8
dimensions
6
CONTINUOUS
62
7
370
0
100
AcDbTrace
10
3.59375
20
1.1875
30
0
11
3.60623853973
21
1.1125
31
0
12
3.58126146027
22
1.1125
32
0
13
3.58126146027
23
1.1125
33
0
0
SOLID
5
114
100
AcDbEntity
8
dimensions
6
CONTINUOUS
62
7
370
0
100
AcDbTrace
10
3.59375
20
0.421875
30
0
11
3.58126146027
21
0.496875
31
0
12
3.60623853973
22
0.496875
32
0
13
3.60623853973
23
0.496875
33
0
0
MTEXT
5
115
100
AcDbEntity
8
dimensions
6
CONTINUOUS
62
7
370
0
100
AcDbMText
10
3.5375
20
0.8046875
30
0
40
0.075
41
0.283333333333
71
5
72
1
1
49/64
7
standard
210
0
220
0
230
1
50
90
73
2
44
1
0
LINE
5
116
100
AcDbEntity
8
dimensions
6
CONTINUOUS
62
7
370
0
100
AcDbLine
10
3.575
20
1.1875
11
3.55625
21
1.1875
0
LINE
5
117
100
AcDbEntity
8
dimensions
6
CONTINUOUS
62
7
370
0
100
AcDbLine
10
3.575
20
0.421875
11
3.55625
21
0.421875
0
ENDBLK
5
8C
330
8A
100
AcDbEntity
8
0
100
AcDbBlockEnd
0
BLOCK
5
8E
330
8D
100
AcDbEntity
8
0
100
AcDbBlockBegin
2
*D13
70
1
10
0
20
0
3
*D13
1

0
LINE
5
118
100
AcDbEntity
8
dimensions
6
CONTINUOUS
62
7
370
0
100
AcDbLine
10
0.125
20
2
11
0.125
21
1.625
0
SOLID
5
119
100
AcDbEntity
8
dimensions
6
CONTINUOUS
62
7
370
0
100
AcDbTrace
10
0.125
20
2
30
0
11
0.137488539733
21
1.925
31
0
12
0.112511460267
22
1.925
32
0
13
0.112511460267
23
1.925
33
0
0
SOLID
5
11A
100
AcDbEntity
8
dimensions
6
CONTINUOUS
62
7
370
0
100
AcDbTrace
10
0.125
20
1.625
30
0
11
0.112511460267
21
1.7
31
0
12
0.137488539733
22
1.7
32
0
13
0.137488539733
23
1.7
33
0
0
MTEXT
5
11B
100
AcDbEntity
8
dimensions
6
CONTINUOUS
62
7
370
0
100
AcDbMText
10
0.06875
20
1.8125
30
0
40
0.075
41
0.15
71
5
72
1
1
3/8
7
standard
210
0
220
0
230
1
50
90
73
2
44
1
0
LINE
5
11C
100
AcDbEntity
8
dimensions
6
CONTINUOUS
62
7
370
0
100
AcDbLine
10
0.10625
20
2
11
0.0875
21
2
0
LINE
5
11D
100
AcDbEntity
8
dimensions
6
CONTINUOUS
62
7
370
0
100
AcDbLine
10
0.10625
20
1.625
11
0.0875
21
1.625
0
ENDBLK
5
8F
330
8D
100
AcDbEntity
8
0
100
AcDbBlockEnd
0
ENDSEC
0
SECTION
2
ENTITIES
0
LINE
5
11E
100
AcDbEntity
8
0
6
ByLayer
62
256
370
-1
100
AcDbLine
10
8.625
20
0
11
8.625
21
1.625
0
LINE
5
11F
100
AcDbEntity
8
0
6
ByLayer
62
256
370
-1
100
AcDbLine
10
0
20
1.625
11
0
21
0
0
LINE
5
120
100
AcDbEntity
8
0
6
ByLayer
62
256
370
-1
100
AcDbLine
10
2.5
20
1.1875
11
0.5
21
1.1875
0
LINE
5
121
100
AcDbEntity
8
0
6
ByLayer
62
256
370
-1
100
AcDbLine
10
3.1875
20
1.1875
11
5.1875
21
1.1875
0
LINE
5
122
100
AcDbEntity
8
0
6
ByLayer
62
256
370
-1
100
AcDbLine
10
8
20
1.1875
11
6
21
1.1875
0
CIRCLE
5
123
100
AcDbEntity
8
0
6
ByLayer
62
256
370
-1
100
AcDbCircle
10
5.625
20
1
40
0.0625
0
CIRCLE
5
124
100
AcDbEntity
8
0
6
ByLayer
62
256
370
-1
100
AcDbCircle
10
5.625
20
0.5625
40
0.0625
0
DIMENSION
5
125
100
AcDbEntity
8
dimensions
6
ByLayer
62
256
370
-1
100
AcDbDimension
2
*D1
10
5.68090169944
20
1.02795084972
30
0
11
5.59984423525
21
1.05031152949
31
0
70
35
71
5
3
Standard
53
0
210
0
220
0
230
1
100
AcDbDiametricDimension
15
5.56909830056
25
0.972049150281
35
0
40
0
0
DIMENSION
5
126
100
AcDbEntity
8
dimensions
6
ByLayer
62
256
370
-1
100
AcDbDimension
2
*D2
10
5.625
20
0
30
0
11
5.56875
21
0.28125
31
0
70
32
71
5
3
Standard
53
0
210
0
220
0
230
1
100
AcDbAlignedDimension
13
5.625
23
0.5625
33
0
14
5.625
24
0
34
0
50
90
100
AcDbRotatedDimension
0
DIMENSION
5
127
100
AcDbEntity
8
dimensions
6
ByLayer
62
256
370
-1
100
AcDbDimension
2
*D3
10
3.1875
20
0.5
30
0
11
2.84375
21
0.55625
31
0
70
32
71
5
3
Standard
53
0
210
0
220
0
230
1
100
AcDbAlignedDimension
13
2.5
23
0.5
33
0
14
3.1875
24
0.5
34
0
100
AcDbRotatedDimension
0
DIMENSION
5
128
100
AcDbEntity
8
dimensions
6
ByLayer
62
256
370
-1
100
AcDbDimension
2
*D4
10
2.5
20
0.5
30
0
11
1.5
21
0.55625
31
0
70
32
71
5
3
Standard
53
0
210
0
220
0
230
1
100
AcDbAlignedDimension
13
0.5
23
0.5
33
0
14
2.5
24
0.5
34
0
100
AcDbRotatedDimension
0
DIMENSION
5
129
100
AcDbEntity
8
dimensions
6
ByLayer
62
256
370
-1
100
AcDbDimension
2
*D5
10
5.1875
20
0.5
30
0
11
4.1875
21
0.55625
31
0
70
32
71
5
3
Standard
53
0
210
0
220
0
230
1
100
AcDbAlignedDimension
13
3.1875
23
0.5
33
0
14
5.1875
24
0.5
34
0
100
AcDbRotatedDimension
0
DIMENSION
5
12A
100
AcDbEntity
8
dimensions
6
ByLayer
62
256
370
-1
100
AcDbDimension
2
*D6
10
6
20
0.625
30
0
11
5.59375
21
0.68125
31
0
70
32
71
5
3
Standard
53
0
210
0
220
0
230
1
100
AcDbAlignedDimension
13
5.1875
23
0.625
33
0
14
6
24
0.625
34
0
100
AcDbRotatedDimension
0
DIMENSION
5
12B
100
AcDbEntity
8
dimensions
6
ByLayer
62
256
370
-1
100
AcDbDimension
2
*D7
10
8
20
0.5
30
0
11
7
21
0.55625
31
0
70
32
71
5
3
Standard
53
0
210
0
220
0
230
1
100
AcDbAlignedDimension
13
6
23
0.5
33
0
14
8
24
0.5
34
0
100
AcDbRotatedDimension
0
DIMENSION
5
12C
100
AcDbEntity
8
dimensions
6
ByLayer
62
256
370
-1
100
AcDbDimension
2
*D8
10
8.625
20
0.5
30
0
11
8.3125
21
0.55625
31
0
70
32
71
5
3
Standard
53
0
210
0
220
0
230
1
100
AcDbAlignedDimension
13
8
23
0.5
33
0
14
8.625
24
0.5
34
0
100
AcDbRotatedDimension
0
DIMENSION
5
12D
100
AcDbEntity
8
dimensions
6
ByLayer
62
256
370
-1
100
AcDbDimension
2
*D9
10
8.625
20
0.125
30
0
11
4.3125
21
0.18125
31
0
70
32
71
5
3
Standard
53
0
210
0
220
0
230
1
100
AcDbAlignedDimension
13
0
23
0.125
33
0
14
8.625
24
0.125
34
0
100
AcDbRotatedDimension
0
DIMENSION
5
12E
100
AcDbEntity
8
dimensions
6
ByLayer
62
256
370
-1
100
AcDbDimension
2
*D10
10
0.375
20
9.37349864164e-34
30
0
11
0.31875
21
0.8125
31
0
70
32
71
5
3
Standard
53
0
210
0
220
0
230
1
100
AcDbAlignedDimension
13
0.375
23
1.625
33
0
14
0.375
24
0
34
0
50
90
100
AcDbRotatedDimension
0
DIMENSION
5
12F
100
AcDbEntity
8
dimensions
6
ByLayer
62
256
370
-1
100
AcDbDimension
2
*D11
10
5.875
20
0.5625
30
0
11
5.81875
21
0.78125
31
0
70
32
71
5
3
Standard
53
0
210
0
220
0
230
1
100
AcDbAlignedDimension
13
5.625
23
1
33
0
14
5.625
24
0.5625
34
0
50
90
100
AcDbRotatedDimension
0
LINE
5
130
100
AcDbEntity
8
0
6
ByLayer
62
256
370
-1
100
AcDbLine
10
1.5
20
1.625
11
1.5
21
1.4375
0
LINE
5
131
100
AcDbEntity
8
0
6
ByLayer
62
256
370
-1
100
AcDbLine
10
1.5
20
1.4375
11
3
21
1.4375
0
LINE
5
132
100
AcDbEntity
8
0
6
ByLayer
62
256
370
-1
100
AcDbLine
10
3
20
1.4375
11
3
21
1.625
0
LINE
5
133
100
AcDbEntity
8
0
6
ByLayer
62
256
370
-1
100
AcDbLine
10
1.5
20
1.625
11
0
21
1.625
0
LINE
5
134
100
AcDbEntity
8
0
6
ByLayer
62
256
370
-1
100
AcDbLine
10
3
20
1.625
11
5.625
21
1.625
0
LINE
5
135
100
AcDbEntity
8
0
6
ByLayer
62
256
370
-1
100
AcDbLine
10
7.125
20
1.625
11
8.625
21
1.625
0
LINE
5
136
100
AcDbEntity
8
0
6
ByLayer
62
256
370
-1
100
AcDbLine
10
5.625
20
1.625
11
5.625
21
1.4375
0
LINE
5
137
100
AcDbEntity
8
0
6
ByLayer
62
256
370
-1
100
AcDbLine
10
5.625
20
1.4375
11
7.125
21
1.4375
0
LINE
5
138
100
AcDbEntity
8
0
6
ByLayer
62
256
370
-1
100
AcDbLine
10
7.125
20
1.4375
11
7.125
21
1.625
0
DIMENSION
5
139
100
AcDbEntity
8
dimensions
6
ByLayer
62
256
370
-1
100
AcDbDimension
2
*D12
10
5.4375
20
1.625
30
0
11
5.38125
21
1.3125
31
0
70
32
71
5
3
Standard
53
0
210
0
220
0
230
1
100
AcDbAlignedDimension
13
5.625
23
1
33
0
14
5.625
24
1.625
34
0
50
90
100
AcDbRotatedDimension
0
LINE
5
13A
100
AcDbEntity
8
0
6
ByLayer
62
256
370
-1
100
AcDbLine
10
0
20
0
11
8.625
21
0
0
LINE
5
13B
100
AcDbEntity
8
0
6
ByLayer
62
256
370
-1
100
AcDbLine
10
8.4375
20
2
11
8.625
21
2
0
LINE
5
13C
100
AcDbEntity
8
0
6
ByLayer
62
256
370
-1
100
AcDbLine
10
8.4375
20
2.375
11
8.625
21
2.375
0
LINE
5
13D
100
AcDbEntity
8
0
6
ByLayer
62
256
370
-1
100
AcDbLine
10
8.4375
20
1.625
11
8.4375
21
2
0
LINE
5
13E
100
AcDbEntity
8
0
6
ByLayer
62
256
370
-1
100
AcDbLine
10
8.625
20
2
11
8.625
21
2.375
0
LINE
5
13F
100
AcDbEntity
8
0
6
ByLayer
62
256
370
-1
100
AcDbLine
10
8.4375
20
2.375
11
8.4375
21
2.5625
0
LINE
5
140
100
AcDbEntity
8
0
6
ByLayer
62
256
370
-1
100
AcDbLine
10
8.4375
20
2.5625
11
0.1875
21
2.5625
0
LINE
5
141
100
AcDbEntity
8
0
6
ByLayer
62
256
370
-1
100
AcDbLine
10
0.1875
20
2.5625
11
0.1875
21
2.375
0
LINE
5
142
100
AcDbEntity
8
0
6
ByLayer
62
256
370
-1
100
AcDbLine
10
0.1875
20
2.375
11
0
21
2.375
0
LINE
5
143
100
AcDbEntity
8
0
6
ByLayer
62
256
370
-1
100
AcDbLine
10
0
20
2.375
11
0
21
2
0
LINE
5
144
100
AcDbEntity
8
0
6
ByLayer
62
256
370
-1
100
AcDbLine
10
0
20
2
11
0.1875
21
2
0
LINE
5
145
100
AcDbEntity
8
0
6
ByLayer
62
256
370
-1
100
AcDbLine
10
0.1875
20
2
11
0.1875
21
1.625
0
DIMENSION
5
146
100
AcDbEntity
8
dimensions
6
ByLayer
62
256
370
-1
100
AcDbDimension
2
*D13
10
0.125
20
1.625
30
0
11
0.06875
21
1.8125
31
0
70
32
71
5
3
Standard
53
0
210
0
220
0
230
1
100
AcDbAlignedDimension
13
0.125
23
2
33
0
14
0.125
24
1.625
34
0
50
90
100
AcDbRotatedDimension
0
DIMENSION
5
147
100
AcDbEntity
8
dimensions
6
ByLayer
62
256
370
-1
100
AcDbDimension
2
*D14
10
0.125
20
2
30
0
11
0.06875
21
2.1875
31
0
70
32
71
5
3
Standard
53
0
210
0
220
0
230
1
100
AcDbAlignedDimension
13
0.125
23
2.375
33
0
14
0.125
24
2
34
0
50
90
100
AcDbRotatedDimension
0
DIMENSION
5
148
100
AcDbEntity
8
dimensions
6
ByLayer
62
256
370
-1
100
AcDbDimension
2
*D15
10
0.125
20
2.375
30
0
11
0.06875
21
2.46875
31
0
70
32
71
5
3
Standard
53
0
210
0
220
0
230
1
100
AcDbAlignedDimension
13
0.1875
23
2.5625
33
0
14
0.125
24
2.375
34
0
50
90
100
AcDbRotatedDimension
0
DIMENSION
5
149
100
AcDbEntity
8
dimensions
6
ByLayer
62
256
370
-1
100
AcDbDimension
2
*D16
10
3
20
1.5625
30
0
11
2.25
21
1.61875
31
0
70
32
71
5
3
Standard
53
0
210
0
220
0
230
1
100
AcDbAlignedDimension
13
1.5
23
1.5625
33
0
14
3
24
1.5625
34
0
100
AcDbRotatedDimension
0
DIMENSION
5
14A
100
AcDbEntity
8
dimensions
6
ByLayer
62
256
370
-1
100
AcDbDimension
2
*D17
10
5.625
20
1.5
30
0
11
4.3125
21
1.55625
31
0
70
32
71
5
3
Standard
53
0
210
0
220
0
230
1
100
AcDbAlignedDimension
13
3
23
1.5
33
0
14
5.625
24
1.5
34
0
100
AcDbRotatedDimension
0
DIMENSION
5
14B
100
AcDbEntity
8
dimensions
6
ByLayer
62
256
370
-1
100
AcDbDimension
2
*D18
10
7.125
20
1.5625
30
0
11
6.375
21
1.61875
31
0
70
32
71
5
3
Standard
53
0
210
0
220
0
230
1
100
AcDbAlignedDimension
13
5.625
23
1.5625
33
0
14
7.125
24
1.5625
34
0
100
AcDbRotatedDimension
0
LINE
5
14C
100
AcDbEntity
8
0
6
ByLayer
62
256
370
-1
100
AcDbLine
10
0.5
20
0.421875
11
2.5
21
0.421875
0
LINE
5
14D
100
AcDbEntity
8
0
6
ByLayer
62
256
370
-1
100
AcDbLine
10
3.1875
20
0.421875
11
5.1875
21
0.421875
0
LINE
5
14E
100
AcDbEntity
8
0
6
ByLayer
62
256
370
-1
100
AcDbLine
10
6
20
0.421875
11
8
21
0.421875
0
LINE
5
14F
100
AcDbEntity
8
0
6
ByLayer
62
256
370
-1
100
AcDbLine
10
8
20
1.1875
11
8
21
0.421875
0
LINE
5
150
100
AcDbEntity
8
0
6
ByLayer
62
256
370
-1
100
AcDbLine
10
0.5
20
1.1875
11
0.5
21
0.421875
0
LINE
5
151
100
AcDbEntity
8
0
6
ByLayer
62
256
370
-1
100
AcDbLine
10
2.5
20
1.1875
11
2.5
21
0.421875
0
LINE
5
152
100
AcDbEntity
8
0
6
ByLayer
62
256
370
-1
100
AcDbLine
10
3.1875
20
0.421875
11
3.1875
21
1.1875
0
LINE
5
153
100
AcDbEntity
8
0
6
ByLayer
62
256
370
-1
100
AcDbLine
10
5.1875
20
0.421875
11
5.1875
21
1.1875
0
LINE
5
154
100
AcDbEntity
8
0
6
ByLayer
62
256
370
-1
100
AcDbLine
10
6
20
0.421875
11
6
21
1.1875
0
DIMENSION
5
155
100
AcDbEntity
8
dimensions
6
ByLayer
62
256
370
-1
100
AcDbDimension
2
*D19
10
3.53125
20
1.1875
30
0
11
3.475
21
1.40625
31
0
70
32
71
5
72
0
3
Standard
53
0
210
0
220
0
230
1
100
AcDbAlignedDimension
13
3.53125
23
1.625
33
0
14
3.53125
24
1.1875
34
0
50
90
100
AcDbRotatedDimension
0
DIMENSION
5
156
100
AcDbEntity
8
dimensions
6
ByLayer
62
256
370
-1
100
AcDbDimension
2
*D20
10
3.53125
20
0
30
0
11
3.475
21
0.2109375
31
0
70
32
71
5
72
0
3
Standard
53
0
210
0
220
0
230
1
100
AcDbAlignedDimension
13
3.53125
23
0.421875
33
0
14
3.53125
24
0
34
0
50
90
100
AcDbRotatedDimension
0
DIMENSION
5
157
100
AcDbEntity
8
dimensions
6
ByLayer
62
256
370
-1
100
AcDbDimension
2
*D21
10
1.5
20
1.5
30
0
11
0.75
21
1.55625
31
0
70
32
71
5
72
0
3
Standard
53
0
210
0
220
0
230
1
100
AcDbAlignedDimension
13
0
23
1.5
33
0
14
1.5
24
1.5
34
0
100
AcDbRotatedDimension
0
DIMENSION
5
158
100
AcDbEntity
8
dimensions
6
ByLayer
62
256
370
-1
100
AcDbDimension
2
*D22
10
8.625
20
1.5
30
0
11
7.875
21
1.55625
31
0
70
32
71
5
72
0
3
Standard
53
0
210
0
220
0
230
1
100
AcDbAlignedDimension
13
7.125
23
1.5
33
0
14
8.625
24
1.5
34
0
100
AcDbRotatedDimension
0
DIMENSION
5
159
100
AcDbEntity
8
dimensions
6
ByLayer
62
256
370
-1
100
AcDbDimension
2
*D23
10
3.59375
20
0.421875
30
0
11
3.5375
21
0.8046875
31
0
70
32
71
5
72
0
3
Standard
53
0
210
0
220
0
230
1
100
AcDbAlignedDimension
13
3.59375
23
1.1875
33
0
14
3.59375
24
0.421875
34
0
50
90
100
AcDbRotatedDimension
0
DIMENSION
5
15A
100
AcDbEntity
8
dimensions
6
ByLayer
62
256
370
-1
100
AcDbDimension
2
*D24
10
1.3125
20
1.625
30
0
11
1.25625
21
2.09375
31
0
70
32
71
5
3
Standard
53
0
210
0
220
0
230
1
100
AcDbAlignedDimension
13
1.3125
23
2.5625
33
0
14
1.3125
24
1.625
34
0
50
90
100
AcDbRotatedDimension
0
LINE
5
15B
100
AcDbEntity
8
sketch
6
ByLayer
62
256
370
-1
100
AcDbLine
10
0.25
20
1.3125
11
0.25
21
0.25
0
LINE
5
15C
100
AcDbEntity
8
sketch
6
ByLayer
62
256
370
-1
100
AcDbLine
10
0.25
20
0.25
11
2.875
21
0.25
0
LINE
5
15D
100
AcDbEntity
8
sketch
6
ByLayer
62
256
370
-1
100
AcDbLine
10
2.875
20
0.25
11
2.875
21
1.3125
0
LINE
5
15E
100
AcDbEntity
8
sketch
6
ByLayer
62
256
370
-1
100
AcDbLine
10
2.875
20
1.3125
11
0.25
21
1.3125
0
LINE
5
15F
100
AcDbEntity
8
sketch
6
ByLayer
62
256
370
-1
100
AcDbLine
10
2.9375
20
1.3125
11
2.9375
21
0.25
0
LINE
5
160
100
AcDbEntity
8
sketch
6
ByLayer
62
256
370
-1
100
AcDbLine
10
2.9375
20
0.25
11
5.5625
21
0.25
0
LINE
5
161
100
AcDbEntity
8
sketch
6
ByLayer
62
256
370
-1
100
AcDbLine
10
5.5625
20
0.25
11
5.5625
21
1.3125
0
LINE
5
162
100
AcDbEntity
8
sketch
6
ByLayer
62
256
370
-1
100
AcDbLine
10
5.5625
20
1.3125
11
2.9375
21
1.3125
0
LINE
5
163
100
AcDbEntity
8
sketch
6
ByLayer
62
256
370
-1
100
AcDbLine
10
5.75
20
1.3125
11
5.75
21
0.25
0
LINE
5
164
100
AcDbEntity
8
sketch
6
ByLayer
62
256
370
-1
100
AcDbLine
10
5.75
20
0.25
11
8.375
21
0.25
0
LINE
5
165
100
AcDbEntity
8
sketch
6
ByLayer
62
256
370
-1
100
AcDbLine
10
8.375
20
0.25
11
8.375
21
1.3125
0
LINE
5
166
100
AcDbEntity
8
sketch
6
ByLayer
62
256
370
-1
100
AcDbLine
10
8.375
20
1.3125
11
5.75
21
1.3125
0
MTEXT
5
167
100
AcDbEntity
8
sketch
6
ByLayer
62
256
370
-1
100
AcDbMText
10
6.5
20
2.375
30
0
40
0.12
41
1.51333339505
71
1
72
1
1
BTTF Time Circuits\Pfront plate\Pcut three times
7
standard
210
0
220
0
230
1
50
0
73
2
44
1
0
ENDSEC
0
SECTION
2
OBJECTS
0
DICTIONARY
5
C
330
0
100
AcDbDictionary
281
1
3
ACAD_GROUP
350
D
0
DICTIONARY
5
D
330
C
100
AcDbDictionary
281
1
0
ENDSEC
0
EOF
